<?xml version="1.0" standalone="no"?>
<!DOCTYPE svg PUBLIC "-//W3C//DTD SVG 1.1//EN" "http://www.w3.org/Graphics/SVG/1.1/DTD/svg11.dtd" >
<svg xmlns="http://www.w3.org/2000/svg" xmlns:xlink="http://www.w3.org/1999/xlink" version="1.1">
<metadata>
Created by FontForge 20170731 at Mon Apr 29 06:43:54 2019
 By Aleksey,,,
Copyright (c) 2019 by Cosimo Lorenzo Pancini. All rights reserved. |DCNT
</metadata>
<defs>
<font id="Lovelace-ExtraLight" horiz-adv-x="747" >
  <font-face 
    font-family="Lovelace ExtraLight"
    font-weight="250"
    font-stretch="normal"
    units-per-em="1000"
    panose-1="0 0 3 0 0 0 0 0 0 0"
    ascent="721"
    descent="-279"
    x-height="503"
    cap-height="703"
    bbox="-666 -283.133 1254 1095"
    underline-thickness="50"
    underline-position="-175"
    unicode-range="U+0020-FB02"
  />
<missing-glyph horiz-adv-x="577" 
 />
    <glyph glyph-name="f_f" unicode="ff" horiz-adv-x="695" 
d="M635 745q50 0 84 -18.5t34 -40.5q0 -9 -7 -16t-19 -7q-13 0 -23 10q-4 4 -37 57q-15 4 -31 4q-129 0 -129 -175v-59h117l-5 -10h-112v-386q0 -62 16 -81t82 -19q6 0 6 -3.5t-6 -3.5q-32 0 -67.5 1.5t-36.5 1.5h-31l-30 -2q-30 -1 -57 -1q-4 0 -4 3q1 3 4 4q55 0 68 19
q14 20 14 81v386h-296v-386q0 -62 16 -81t82 -19q6 0 6 -3.5t-6 -3.5q-32 0 -67.5 1.5t-36.5 1.5h-31l-30 -2q-30 -1 -57 -1q-4 0 -4 3q1 3 4 4q55 0 68 19q14 20 14 81v386h-55l5 10h50q0 135 58 193q51 52 112 52q50 0 84 -18.5t34 -40.5q0 -9 -7 -16t-19 -7q-13 0 -23 10
q-4 4 -37 57q-15 4 -31 4q-129 0 -129 -175v-59h296q0 135 58 193q51 52 112 52z" />
    <glyph glyph-name="f_f_i" unicode="ffi" horiz-adv-x="939" 
d="M915 4q4 0 4 -3q-1 -3 -4 -4q-20 0 -39.5 0.5t-32 1.5t-15.5 1h-32l-30 -2q-30 -1 -57 -1q-4 0 -4 3q1 3 4 4q55 0 68 19q14 20 14 81v264q0 68 -25.5 95t-86.5 27h-172v-386q0 -62 16 -81t82 -19q6 0 6 -3.5t-6 -3.5q-32 0 -67.5 1.5t-36.5 1.5h-31l-30 -2
q-30 -1 -57 -1q-4 0 -4 3q1 3 4 4q55 0 68 19q14 20 14 81v386h-296v-386q0 -62 16 -81t82 -19q6 0 6 -3.5t-6 -3.5q-32 0 -67.5 1.5t-36.5 1.5h-31l-30 -2q-30 -1 -57 -1q-4 0 -4 3q1 3 4 4q55 0 68 19q14 20 14 81v386h-55l5 10h50q0 135 58 193q51 52 112 52
q50 0 84 -18.5t34 -40.5q0 -9 -7 -16t-19 -7q-13 0 -23 10q-4 4 -37 57q-15 4 -31 4q-129 0 -129 -175v-59h296q0 135 58 193q51 52 112 52q67 0 117 -26t50 -49q0 -24 -30 -24q-12 -2 -23.5 10t-23 31.5t-18.5 26.5q-23 20 -71 20q-129 0 -129 -175v-59h177q16 0 47 -0.5
t36 -0.5q44 0 59 11q7 1 7 -3v-403q0 -62 13 -81t69 -19z" />
    <glyph glyph-name="f_f_l" unicode="ffl" horiz-adv-x="949" 
d="M925 4q4 0 4 -3q-1 -3 -4 -4q-20 0 -39.5 0.5t-32 1.5t-15.5 1h-32l-30 -2q-30 -1 -57 -1q-4 0 -4 3q1 3 4 4q55 0 68 19q14 20 14 81v556q-10 18 -58 46q-46 28 -87 28q-70 0 -109.5 -48.5t-39.5 -126.5v-59h117l-5 -10h-112v-386q0 -62 16 -81t82 -19q6 0 6 -3.5
t-6 -3.5q-32 0 -67.5 1.5t-36.5 1.5h-31l-30 -2q-30 -1 -57 -1q-4 0 -4 3q1 3 4 4q55 0 68 19q14 20 14 81v386h-296v-386q0 -62 16 -81t82 -19q6 0 6 -3.5t-6 -3.5q-32 0 -67.5 1.5t-36.5 1.5h-31l-30 -2q-30 -1 -57 -1q-4 0 -4 3q1 3 4 4q55 0 68 19q14 20 14 81v386h-55
l5 10h50q0 135 58 193q51 52 112 52q50 0 84 -18.5t34 -40.5q0 -9 -7 -16t-19 -7q-13 0 -23 10q-4 4 -37 57q-15 4 -31 4q-129 0 -129 -175v-59h296q0 134 68 194q60 51 127 51q93 0 152 -46q10 29 25 46q1 4 5 0q1 -1 1 -3v-638q0 -62 13 -81t69 -19z" />
    <glyph glyph-name="f_i" unicode="fi" horiz-adv-x="601" 
d="M577 4q4 0 4 -3q-1 -3 -4 -4q-27 0 -57 1l-30 2h-32l-30 -2q-30 -1 -57 -1q-4 0 -4 3q1 3 4 4q55 0 68 19q14 20 14 81v264q0 68 -25.5 95t-86.5 27h-172v-386q0 -62 16 -81t82 -19q6 0 6 -3.5t-6 -3.5q-32 0 -67.5 1.5t-36.5 1.5h-31l-30 -2q-30 -1 -57 -1q-4 0 -4 3
q1 3 4 4q55 0 68 19q14 20 14 81v386h-55l5 10h50q0 135 58 193q51 52 112 52q67 0 117 -26t50 -49q0 -24 -30 -24q-12 -2 -23.5 10t-23 31.5t-18.5 26.5q-23 20 -71 20q-129 0 -129 -175v-59h177q16 0 47 -0.5t36 -0.5q44 0 59 11q7 1 7 -3v-403q0 -62 13 -81t69 -19z" />
    <glyph glyph-name="f_l" unicode="fl" horiz-adv-x="611" 
d="M587 4q4 0 4 -3q-1 -3 -4 -4q-27 0 -57 1l-30 2h-32l-30 -2q-30 -1 -57 -1q-4 0 -4 3q1 3 4 4q55 0 68 19q14 20 14 81v556q-10 18 -58 46q-46 28 -87 28q-70 0 -109.5 -48.5t-39.5 -126.5v-59h117l-5 -10h-112v-386q0 -62 16 -81t82 -19q6 0 6 -3.5t-6 -3.5
q-32 0 -67.5 1.5t-36.5 1.5h-31l-30 -2q-30 -1 -57 -1q-4 0 -4 3q1 3 4 4q55 0 68 19q14 20 14 81v386h-55l5 10h50q0 134 68 194q60 51 127 51q93 0 152 -46q10 29 25 46q1 4 5 0l1 -3v-638q0 -62 13 -81t69 -19z" />
    <glyph glyph-name=".notdef" horiz-adv-x="577" 
 />
    <glyph glyph-name=".null" horiz-adv-x="0" 
 />
    <glyph glyph-name="nonmarkingreturn" horiz-adv-x="333" 
 />
    <glyph glyph-name="space" unicode=" " horiz-adv-x="230" 
 />
    <glyph glyph-name="exclam" unicode="!" horiz-adv-x="272" 
d="M141 175q0 -2 -5 -2t-5 2q0 215 -13 346t-13 144q0 45 30 45q31 0 31 -45q0 -25 -13 -152q-12 -131 -12 -338zM136 -10q-19 0 -33 13.5t-14 33.5q0 21 13.5 34t33.5 13q19 0 33 -13.5t14 -33.5q0 -19 -13.5 -33t-33.5 -14z" />
    <glyph glyph-name="quotedbl" unicode="&#x22;" horiz-adv-x="265" 
d="M77 505h-10q0 37 -14 96q-13 56 -13 74q0 35 32 35q33 0 33 -35q0 -13 -14 -74q-14 -59 -14 -96zM197 505h-10q0 37 -14 96q-13 56 -13 74q0 35 32 35q33 0 33 -35q0 -13 -14 -74q-14 -59 -14 -96z" />
    <glyph glyph-name="numbersign" unicode="#" horiz-adv-x="718" 
d="M668 430v-10h-123l-68 -190h131v-10h-135l-78 -216h-12l78 216h-268l-78 -216h-12l78 216h-131v10h135l68 190h-143v10h147l97 270h12l-97 -270h268l97 270h12l-97 -270h119zM197 230h268l68 190h-268z" />
    <glyph glyph-name="dollar" unicode="$" horiz-adv-x="678" 
d="M314 404l35 -12l48 -15q32 -9 55 -17l50 -20q44 -17 85 -58q37 -34 37 -97q0 -79 -62 -138q-62 -57 -178 -57q-34 0 -70 4v-94h-10v95q-26 3 -55 9q-29 7 -41 7q-27 0 -40 -43q-2 -3 -5 0l-89 308q-2 5 2 6q4 0 5 -4q81 -221 223 -266v347q-91 32 -144 68q-60 42 -60 119
q0 67 57 115q58 49 147 49v109h10v-109q47 -2 88 -11q46 -10 58 -10q14 0 25 12.5t15 30.5q1 2 2.5 2t2.5 -2l81 -280q1 -4 -3 -4.5t-5 4.5q-82 237 -264 248v-296zM147 567q0 -57 31 -91q32 -34 126 -69v293h-5q-65 0 -108 -40q-44 -41 -44 -93zM374 1q86 0 144 44
q58 43 58 113q0 69 -41 102q-32 28 -159 73l-29 10l-1 1h-1h-1l-1 1h-1h-1l-1 1h-1l-1 1h-1h-1l-1 1h-1h-1l-1 1h-1h-1l-2 1l-14 5v-346q32 -8 60 -8z" />
    <glyph glyph-name="percent" unicode="%" horiz-adv-x="918" 
d="M653 720l-354 -759h-12l355 759h11zM179 710q70 0 113.5 -48.5t43.5 -128.5q0 -79 -46 -131t-114 -52t-111 48q-42 50 -42 127q0 79 45 131q46 54 111 54zM183 356q47 0 79 45t32 120q0 77 -33 129q-33 54 -86 54q-47 0 -79 -46t-32 -121q0 -77 33 -129t86 -52zM738 354
q70 0 113.5 -48.5t43.5 -128.5q0 -79 -46 -131t-114 -52q-67 0 -111 48q-42 49 -42 127t45 131q47 54 111 54zM742 0q47 0 79 45t32 120q0 77 -33 129q-33 54 -86 54q-47 0 -79 -46t-32 -121q0 -77 33 -129t86 -52z" />
    <glyph glyph-name="ampersand" unicode="&#x26;" horiz-adv-x="736" 
d="M464 373l-67 -25q-84 -35 -130 -95q59 60 138 69q79 10 139 -28q58 -37 58 -103q0 -54 -24.5 -94.5t-65.5 -62.5t-86.5 -32.5t-94.5 -10.5q-105 0 -194 60q-88 60 -88 154q0 62 44 117q78 95 218 128q-87 14 -132.5 51t-45.5 90q0 56 47 90t131 34q57 0 94 -22t37 -55
q0 -14 -10 -24.5t-26 -10.5q-23 0 -41.5 27t-27.5 67q-15 5 -36 5q-47 0 -85 -26t-38 -73t40 -91q5 -5 15.5 -11.5t22.5 -13t15 -8.5l29 -12l26 -10q15 8 36.5 16t35.5 11l13 4q11 0 11 -14q0 -6 -10 -12.5t-30.5 -10t-45.5 -1.5q-81 -31 -143 -78q-86 -61 -86 -150
q0 -111 66.5 -165.5t157.5 -54.5q89 0 154 39t65 120q0 66 -34 103.5t-85 37.5q-49 1 -100.5 -21t-83.5 -60q-1 -1 -1 -2q-15 -31 -15 -63q0 -49 26 -73t70 -24q41 0 64 12q-24 56 -16 90q16 61 61 61q22 0 32.5 -15t10.5 -37q0 -34 -16.5 -59.5t-42 -38t-49 -18.5t-44.5 -6
q-59 0 -93 36.5t-34 92.5q0 69 60 124q63 58 142 94q28 13 70 29q51 19 94 42q70 38 98.5 77.5t28.5 92.5q0 33 -21 51t-57 18q-10 0 -31 -7q-4 -41 -21.5 -68t-40.5 -27q-14 0 -23.5 10.5t-9.5 24.5q0 32 38 55q38 22 88 22t82 -35t32 -79q0 -55 -33.5 -98t-116.5 -81
q-42 -20 -115 -49z" />
    <glyph glyph-name="quotesingle" unicode="'" horiz-adv-x="145" 
d="M77 505h-10q0 37 -14 96q-13 56 -13 74q0 35 32 35q33 0 33 -35q0 -13 -14 -74q-14 -59 -14 -96z" />
    <glyph glyph-name="parenleft" unicode="(" horiz-adv-x="335" 
d="M40 264q0 111 26 210q25 96 88 176q62 77 155 103l2 -9q-68 -21 -120 -70t-83 -117q-58 -132 -58 -293q0 -163 59 -294q31 -68 83 -117t119 -70l-2 -9q-93 26 -155 103q-114 143 -114 387z" />
    <glyph glyph-name="parenright" unicode=")" horiz-adv-x="335" 
d="M295 264q0 -112 -26 -211q-25 -97 -89 -176q-61 -77 -154 -103l-2 9q67 21 119 70t83 117q59 131 59 294q0 162 -59 293q-30 68 -82 117t-120 70l2 9q93 -26 154 -103q115 -142 115 -386z" />
    <glyph glyph-name="asterisk" unicode="*" horiz-adv-x="326" 
d="M165 596h-4l-21 76q-5 17 1 27.5t20 10.5q12 0 17.5 -10.5t1.5 -27.5zM155 590l-76 22q-16 4 -22 15.5t2 23.5q6 10 18 9t24 -13l56 -54zM248 611l-76 -22l-2 3l56 54q12 12 24 13t18 -9q8 -12 2 -23.5t-22 -15.5zM92 488q-20 14 8 42l56 53l3 -1l-26 -76
q-5 -16 -17 -21.5t-24 3.5zM233 487q-13 -8 -24.5 -3t-16.5 21l-26 76l3 1l56 -53q13 -12 15 -24.5t-7 -17.5z" />
    <glyph glyph-name="plus" unicode="+" horiz-adv-x="374" 
d="M192 294h172v-10h-172v-192h-10v192h-172v10h172v192h10v-192z" />
    <glyph glyph-name="comma" unicode="," horiz-adv-x="252" 
d="M82 -151l-6 8q34 25 60 69q24 40 26 71q-12 -5 -27 -5q-19 0 -30 11t-11 28q0 18 11 30.5t28 12.5q20 0 31.5 -12.5t11.5 -32.5q0 -54 -30 -104q-32 -52 -64 -76z" />
    <glyph glyph-name="hyphen" unicode="-" horiz-adv-x="386" 
d="M376 268h-366v10h366v-10z" />
    <glyph glyph-name="period" unicode="." horiz-adv-x="234" 
d="M117 -10q-16 0 -28.5 12t-12.5 29q0 19 11.5 30.5t29.5 11.5q16 0 28.5 -12t12.5 -30q0 -17 -11.5 -29t-29.5 -12z" />
    <glyph glyph-name="slash" unicode="/" horiz-adv-x="400" 
d="M7 -181h-12l394 911h12z" />
    <glyph glyph-name="zero" unicode="0" horiz-adv-x="684" 
d="M561 87q-82 -97 -219 -97q-138 0 -220 97t-82 263q0 165 82 262q83 98 220 98q136 0 219 -98t83 -262q0 -165 -83 -263zM341 2q104 0 174 100q71 101 71 248q0 146 -71 247t-174 101q-102 0 -173 -101q-70 -100 -70 -247q0 -148 70 -248t173 -100z" />
    <glyph glyph-name="one" unicode="1" horiz-adv-x="315" 
d="M175 0h-27l-38 -2q-37 -1 -68 -1q-4 0 -5 3q1 3 5 4q39 0 53.5 3t25.5 17q12 14 15.5 39t3.5 81v502q-36 -22 -101 -33q-1 0 -1.5 2.5t-0.5 4.5t1 2q60 12 90 30t48 49q0 3 4 2.5t4 -2.5l-1 -557q0 -98 18 -120q12 -14 26.5 -17t53.5 -3q3 0 5 -3q-1 -3 -5 -4
q-31 0 -69 1z" />
    <glyph glyph-name="two" unicode="2" horiz-adv-x="631" 
d="M153 96q-39 0 -86 -32l6 -3q26 -13 36 -22t10 -21q0 -28 -29 -28q-16 0 -26 15.5t-10 44.5q0 36 46 79t198 141q107 70 153 124q46 55 46 130q0 76 -45 126q-43 47 -109 48.5t-131 -38.5q-18 -82 -31 -110.5t-36 -28.5q-16 0 -26 9.5t-10 23.5q0 40 40 77q40 36 93 57.5
t97 21.5q100 0 159 -49.5t59 -137.5q0 -89 -79 -155q-39 -32 -66 -50q-28 -18 -70 -40q-38 -19 -44 -23q-198 -119 -229 -182q46 38 103 38q41 0 116 -31q78 -30 153 -30q59 0 94 41t54 150q1 2 5 2t4 -2l-11 -52l-9 -50q-11 -57 -22 -79q-21 -42 -39 -52q-32 -18 -67 -18
q-75 0 -152 53t-145 53z" />
    <glyph glyph-name="three" unicode="3" horiz-adv-x="612" 
d="M289 -10q-99 0 -164 47q-64 46 -64 116q0 48 28 75t72 18q-11 -3 -25 -36q-13 -30 -13 -64q0 -46 45 -96q47 -50 117 -50q104 0 158.5 62.5t54.5 140.5q0 70 -46 123q-46 54 -112 54q-30 0 -60 -10q-10 -4 -30 -13t-32 -13.5t-17 -4.5q-19 0 -19 16q0 7 3.5 12.5
t11.5 8.5t15 4.5t20.5 4t21.5 4.5q99 16 146.5 56t47.5 113q0 68 -43 104.5t-121 36.5q-61 0 -117 -35l-9 -50q-15 -91 -55 -91q-32 0 -32 37q0 49 68 99q67 51 150 51q95 0 156 -36q63 -34 63 -108q0 -71 -54 -110q-31 -24 -79 -43q-54 -19 -95 -31q56 10 73 10
q86 0 145 -52q60 -51 60 -141q0 -79 -71 -144t-198 -65z" />
    <glyph glyph-name="four" unicode="4" horiz-adv-x="564" 
d="M375 0h-30l-37 -2q-38 -1 -69 -1q-3 0 -5 3q1 3 5 4q39 0 53.5 3t25.5 17q12 14 15.5 39t3.5 81v18h-336l-3 6l311 388q-7 70 2.5 114.5t34.5 44.5q32 0 32 -41q0 -47 -68 -133l-296 -369h323v187q28 10 44 34h2v-221h146v-10h-146v-18q0 -98 18 -120q12 -14 26.5 -17
t53.5 -3q3 0 5 -3q-1 -3 -5 -4q-31 0 -69 1z" />
    <glyph glyph-name="five" unicode="5" horiz-adv-x="647" 
d="M299 -10q-38 0 -76 9t-73 27.5t-57 52t-22 77.5q0 50 29 73.5t71 16.5q-38 -35 -38 -105q0 -55 57 -99q57 -42 124 -42q91 0 151 67t60 158t-60 143q-60 54 -157 54q-54 0 -103 -19t-116 -62l-7 5l93 364l178 -29q103 -19 150 -15q46 4 70 44q1 4 5 0q1 -1 1 -3
q-6 -36 -36 -55.5t-74 -22t-99 4.5l-195 30l-82 -309q143 94 254 94q105 0 172 -59q66 -58 66 -160q0 -109 -79 -175q-79 -65 -207 -65z" />
    <glyph glyph-name="six" unicode="6" horiz-adv-x="656" 
d="M356 463q42 0 84.5 -14t81 -41.5t63 -75.5t24.5 -109q0 -93 -73 -163q-71 -70 -192 -70q-131 0 -206 97t-75 248q0 162 93 269q93 106 219 106q75 0 142 -40q68 -41 68 -98q0 -38 -36 -38q-27 0 -43 37l-11 33l-9 41l-6 32q-50 22 -110 22q-111 0 -178 -94t-67 -270v-18
q90 146 231 146zM360 4q81 0 135 58t54 162q0 65 -22 112.5t-60 69.5q-66 39 -138 39q-122 0 -202 -164q11 -136 73.5 -206.5t159.5 -70.5z" />
    <glyph glyph-name="seven" unicode="7" horiz-adv-x="502" 
d="M499 700l2 -8q-229 -296 -327 -537q27 -43 36.5 -84.5t0.5 -65t-31 -21.5q-42 0 -46 46q-5 55 43 162q103 234 301 482l-266 -44q-90 -15 -143 8q-51 23 -30 76h4q2 -33 50.5 -41t163.5 4z" />
    <glyph glyph-name="eight" unicode="8" horiz-adv-x="619" 
d="M392 353l21 -9q71 -30 110.5 -75.5t39.5 -96.5q0 -79 -72 -130q-70 -51 -184 -51q-113 0 -178 48t-65 130q0 114 164 210q-133 70 -133 170q0 67 63 114q65 47 150 47q107 0 165 -45.5t58 -120.5q0 -98 -139 -191zM143 569q0 -62 33.5 -101t114.5 -73l90 -37
q101 78 101 180q0 78 -47 118.5t-137 40.5q-60 0 -108 -36q-47 -36 -47 -92zM322 13q96 0 144.5 37.5t48.5 102.5q0 107 -150 167l-86 35l-41 18q-126 -81 -126 -196q0 -73 56.5 -118.5t153.5 -45.5z" />
    <glyph glyph-name="nine" unicode="9" horiz-adv-x="656" 
d="M312 710q131 0 206 -98t75 -247q0 -162 -93 -269q-93 -106 -219 -106q-76 0 -143 40t-67 98q0 38 36 38q29 0 42 -38q9 -23 11 -33q5 -14 9 -40l7 -32q50 -22 110 -22q110 0 177 94q68 95 68 270v18q-90 -146 -231 -146q-42 0 -84.5 14t-81 41.5t-63 75.5t-24.5 109
q0 93 72 163q73 70 193 70zM327 255q122 0 202 164q-11 136 -73.5 206.5t-159.5 70.5q-81 0 -135 -59t-54 -161q0 -65 22 -113t60 -70q67 -38 138 -38z" />
    <glyph glyph-name="colon" unicode=":" horiz-adv-x="234" 
d="M117 426q-16 0 -28.5 12t-12.5 29q0 19 11.5 30.5t29.5 11.5q16 0 28.5 -12t12.5 -30q0 -17 -11.5 -29t-29.5 -12zM117 -10q-16 0 -28.5 12t-12.5 29q0 19 11.5 30.5t29.5 11.5q16 0 28.5 -12t12.5 -30q0 -17 -11.5 -29t-29.5 -12z" />
    <glyph glyph-name="semicolon" unicode=";" horiz-adv-x="252" 
d="M117 427q-16 0 -28.5 12t-12.5 29q0 19 11.5 30.5t29.5 11.5q16 0 28.5 -12t12.5 -30q0 -17 -11.5 -29t-29.5 -12zM82 -151l-6 8q34 25 60 69q24 40 26 71q-12 -5 -27 -5q-19 0 -30 11t-11 28q0 18 11 30.5t28 12.5q20 0 31.5 -12.5t11.5 -32.5q0 -54 -30 -104
q-32 -52 -64 -76z" />
    <glyph glyph-name="less" unicode="&#x3c;" horiz-adv-x="445" 
d="M402 60l-6 -9l-350 209l350 208l6 -9l-335 -199z" />
    <glyph glyph-name="equal" unicode="=" horiz-adv-x="374" 
d="M10 364v10h354v-10h-354zM10 194v10h354v-10h-354z" />
    <glyph glyph-name="greater" unicode="&#x3e;" horiz-adv-x="445" 
d="M399 260l-350 -209l-6 9l335 200l-335 199l6 9z" />
    <glyph glyph-name="question" unicode="?" horiz-adv-x="411" 
d="M151 715q45 0 94 -24q51 -23 88 -75q39 -52 39 -119q0 -83 -39.5 -122.5t-121.5 -39.5h-57q-11 0 -11 -34v-133q0 -3 -5 -3.5t-5 3.5v151q0 34 6.5 46t22.5 12h68q60 0 96 34t36 86q0 48 -22 87.5t-57 56.5q-72 -23 -128 -19q-59 5 -59 46q0 47 55 47zM138 -10
q-19 0 -33 13.5t-14 33.5q0 21 13.5 34t33.5 13q19 0 33 -13.5t14 -33.5q0 -19 -13.5 -33t-33.5 -14z" />
    <glyph glyph-name="at" unicode="@" horiz-adv-x="906" 
d="M420 -157q-162 0 -268 95q-104 95 -104 251q0 124 67 228q68 106 174 164q108 60 226 60q67 0 124.5 -19.5t97 -51t68 -72.5t42 -83.5t13.5 -84.5q0 -124 -76 -207q-76 -84 -196 -84q-81 0 -81 76q0 39 38 130q-133 -199 -219 -199q-34 0 -53.5 28t-19.5 80q0 114 89 206
q90 92 182 92q64 0 126 -49q-88 -188 -88 -279q0 -26 13 -47t31 -23q103 0 173 79q71 80 71 197q0 111 -83 203q-41 45 -108.5 71.5t-149.5 26.5q-115 0 -218 -58q-104 -57 -168 -160q-65 -104 -65 -225q0 -152 103 -243q104 -92 260 -92q137 0 256 88q3 -3 4 -6
q-113 -92 -261 -92zM353 83q45 0 123 102q77 101 115 192q-9 28 -34 42.5t-50 14.5q-83 0 -141 -84q-58 -83 -58 -183q0 -34 11.5 -59t33.5 -25z" />
    <glyph glyph-name="A" unicode="A" 
d="M739 4q3 0 3 -3.5t-3 -3.5q-16 0 -32.5 0.5t-28 1.5t-13.5 1h-33l-38 -2q-37 -1 -68 -1q-4 0 -4 3q1 3 4 4q59 0 68 28.5t-25 100.5l-30 74h-171h-192l-32 -66q-31 -63 -14.5 -100t78.5 -37q4 0 4 -3q-1 -3 -4 -4q-26 0 -78 2q-26 1 -47 1q-1 0 -13.5 -0.5t-30 -1.5
t-31.5 -1q-3 0 -3 3.5t3 3.5q34 0 62 32t63 105l230 477q-12 29 -30 62q-1 1 1 3q35 15 41 27q1 1 2 0l241 -577q30 -73 55 -102q24 -27 66 -27zM181 218h186h168q-106 263 -166 389z" />
    <glyph glyph-name="B" unicode="B" horiz-adv-x="699" 
d="M421 0h-280l-37 -2q-38 -1 -69 -1q-3 0 -5 3q1 3 5 4q39 0 53.5 3t25.5 17q12 14 15.5 39t3.5 81v412q0 56 -3.5 81t-15.5 39q-11 14 -25.5 17t-53.5 3q-3 0 -5 3q1 3 5 4q31 0 69 -1l37 -2h253q94 0 158 -40q66 -40 66 -113q0 -43 -25 -76t-69.5 -52.5t-97.5 -30
t-117 -13.5v-3q138 0 237 -34q56 -19 87 -57t31 -91q0 -85 -70 -137q-70 -53 -173 -53zM179 543v-166h52q158 0 242.5 43.5t84.5 126.5q0 67 -60 104q-60 39 -134 39h-177q-8 -40 -8 -147zM233 367h-54v-179q0 -132 8 -177h214q82 0 142 51q61 52 61 129q-7 108 -106 143
q-64 23 -135 28q-39 4 -67 4q-15 1 -63 1z" />
    <glyph glyph-name="C" unicode="C" horiz-adv-x="727" 
d="M390 -9q-138 0 -244 97t-106 250q0 166 100 269t245 103q40 0 93 -11q50 -10 61 -10q23 0 40 45q2 3 5 0l82 -282q0 -4 -4 -4t-4 4q-88 247 -282 247q-113 0 -194 -91q-81 -92 -81 -242q0 -155 95 -253q94 -96 231 -96q194 0 288 226q4 5 8.5 1.5t1.5 -8.5
q-113 -245 -335 -245z" />
    <glyph glyph-name="D" unicode="D" horiz-adv-x="784" 
d="M316 0h-175l-37 -2q-38 -1 -69 -1q-3 0 -5 3q1 3 5 4q39 0 53.5 3t25.5 17q12 14 15.5 39t3.5 81v412q0 56 -3.5 81t-15.5 39q-11 14 -25.5 17t-53.5 3q-3 0 -5 3q1 3 5 4q31 0 69 -1l37 -2h173q204 0 317 -93q113 -92 113 -257t-112 -258q-113 -92 -316 -92zM188 10h129
q165 0 266 92t101 248t-102 248q-103 92 -269 92h-126q-8 -53 -8 -153v-373q0 -103 9 -154z" />
    <glyph glyph-name="E" unicode="E" horiz-adv-x="702" 
d="M663 261q0 3 4 3t4 -3l-66 -295q-1 -4 -5 0q-11 13 -16 17q-19 17 -98 17h-345l-37 -2q-38 -1 -69 -1q-3 0 -5 3q1 3 5 4q39 0 53.5 3t25.5 17q12 14 15.5 39t3.5 81v412q0 56 -3.5 81t-15.5 39q-11 14 -25.5 17t-53.5 3q-3 0 -5 3q1 3 5 4q31 0 69 -1l37 -2h304
q41 0 65 6q27 8 30 11l15 17q3 3 5 0l60 -271q0 -2 -1.5 -3t-3.5 0t-3 3q-44 139 -93 183t-144 44h-196v-323h179q43 0 62.5 22t19.5 74q0 2 1 3.5t3 0.5q3 -1 3 -4v-205q0 -2 -1 -3.5t-3 -0.5q-3 2 -3 4q0 58 -18 78t-64 20h-179v-346h222q67 0 99 7q36 8 65 37
q31 30 49 73q17 38 49 134z" />
    <glyph glyph-name="F" unicode="F" horiz-adv-x="632" 
d="M550 734l60 -271q0 -2 -1.5 -3t-3.5 0t-3 3q-40 135 -91 181q-49 46 -146 46h-186v-323h189q43 0 62.5 22t19.5 74q0 2 1 3.5t3 0.5q3 -1 3 -4v-205q0 -2 -1 -3.5t-3 -0.5q-3 2 -3 4q0 58 -18 78t-64 20h-189v-212q0 -56 4 -81t18 -39q15 -14 32 -17t64 -3q3 0 5 -3
q-1 -3 -5 -4q-38 0 -83 1l-45 2h-28l-37 -2q-38 -1 -69 -1q-3 0 -5 3q1 3 5 4q39 0 53.5 3t25.5 17q12 14 15.5 39t3.5 81v412q0 56 -3.5 81t-15.5 39q-11 14 -25.5 17t-53.5 3q-3 0 -5 3q1 3 5 4q31 0 69 -1l37 -2h294q40 0 65 5q22 5 29 10t16 19q1 3 4 2z" />
    <glyph glyph-name="G" unicode="G" horiz-adv-x="746" 
d="M401 -9q-147 0 -254 97q-107 98 -107 254q0 154 92 261t243 107q29 0 93 -11q60 -10 68 -10q31 0 43 45q1 4 5 0l82 -279q1 -4 -2.5 -5.5t-5.5 2.5l-15 35q-15 35 -24 53q-12 23 -34 54q-25 34 -51 53q-65 52 -160 52q-125 0 -199 -95t-74 -239q0 -128 79 -235
q40 -53 104.5 -83.5t142.5 -30.5q109 0 193 36v133q0 56 -3.5 81t-15.5 39q-11 14 -25.5 17t-53.5 3q-4 0 -5 3q1 3 5 4q31 0 68 -2l38 -1h32q2 0 15 0.5t32 1.5t37 1q5 0 4 -4q-2 -3 -4 -3q-20 -1 -24.5 -1t-17 -3.5t-14 -5t-8.5 -10.5t-6.5 -15.5t-2.5 -25t-3.5 -33.5
t-1.5 -46v-199q-2 -2 -3 0q-6 18 -18.5 33.5t-24.5 15.5q-2 0 -32.5 -11t-82 -22t-104.5 -11z" />
    <glyph glyph-name="H" unicode="H" horiz-adv-x="821" 
d="M786 4q4 0 5 -3q-1 -3 -5 -4q-31 0 -68 1l-38 2h-30l-38 -2q-37 -1 -68 -1q-4 0 -5 3q1 3 5 4q39 0 53.5 3t25.5 17q12 14 15.5 39t3.5 81v219q-57 0 -106 -1q-48 -1 -120 -1t-131 1t-106 1v-219q0 -98 18 -120q12 -14 26.5 -17t53.5 -3q3 0 5 -3q-1 -3 -5 -4
q-31 0 -69 1l-37 2h-30l-37 -2q-38 -1 -69 -1q-3 0 -5 3q1 3 5 4q39 0 53.5 3t25.5 17q12 14 15.5 39t3.5 81v412q0 56 -3.5 81t-15.5 39q-11 14 -25.5 17t-53.5 3q-3 0 -5 3q1 3 5 4q31 0 69 -1l37 -2h30l37 2q38 1 69 1q3 0 5 -3q-1 -3 -5 -4q-39 0 -53.5 -3t-26.5 -17
q-18 -22 -18 -120v-186h119q55 1 117 1q73 0 122 -1h105v186q0 56 -3.5 81t-15.5 39q-11 14 -25.5 17t-53.5 3q-4 0 -5 3q1 3 5 4q31 0 68 -1l38 -2h30l38 2q37 1 68 1q4 0 5 -3q-1 -3 -5 -4q-39 0 -53.5 -3t-26.5 -17q-18 -22 -18 -120v-412q0 -98 18 -120q12 -14 26.5 -17
t53.5 -3z" />
    <glyph glyph-name="I" unicode="I" horiz-adv-x="312" 
d="M141 700h30l37 2q38 1 69 1q3 0 5 -3q-1 -3 -5 -4q-39 0 -53.5 -3t-26.5 -17q-18 -22 -18 -120v-412q0 -98 18 -120q12 -14 26.5 -17t53.5 -3q3 0 5 -3q-1 -3 -5 -4q-31 0 -69 1l-37 2h-30l-37 -2q-38 -1 -69 -1q-3 0 -5 3q1 3 5 4q39 0 53.5 3t25.5 17q12 14 15.5 39
t3.5 81v412q0 56 -3.5 81t-15.5 39q-11 14 -25.5 17t-53.5 3q-3 0 -5 3q1 3 5 4q31 0 69 -1z" />
    <glyph glyph-name="J" unicode="J" horiz-adv-x="331" 
d="M33 -93q-2 0 -2.5 2.5t1.5 3.5q70 29 100 83q32 56 32 165v395q0 58 -4 82t-20 38q-15 14 -33.5 17t-69.5 3q-5 0 -6 3q1 2 6 4q30 0 61 -0.5t51.5 -1.5t24.5 -1h28l38 2q37 1 68 1q4 0 5 -3q-1 -3 -5 -4q-39 0 -53.5 -3t-26.5 -17q-18 -22 -18 -120v-392
q0 -109 -47 -168t-130 -89z" />
    <glyph glyph-name="K" unicode="K" horiz-adv-x="709" 
d="M716 4q4 0 4 -3q-1 -3 -4 -4q-31 0 -68 1l-38 2h-32q-18 40 -40 106l-11 33l-23 66q-10 28 -20 53q-14 33 -24 47q-39 64 -92 59q-52 0 -103 -21.5t-86 -55.5v-143q0 -98 18 -120q12 -14 26.5 -17t53.5 -3q3 0 5 -3q-1 -3 -5 -4q-31 0 -69 1l-37 2h-30l-37 -2
q-38 -1 -69 -1q-3 0 -5 3q1 3 5 4q39 0 53.5 3t25.5 17q12 14 15.5 39t3.5 81v412q0 56 -3.5 81t-15.5 39q-11 14 -25.5 17t-53.5 3q-3 0 -5 3q1 3 5 4q31 0 69 -1l37 -2h30l37 2q38 1 69 1q3 0 5 -3q-1 -3 -5 -4q-39 0 -53.5 -3t-26.5 -17q-18 -22 -18 -120v-255l266 270
q55 55 45.5 90t-77.5 35q-3 0 -5 3q1 3 5 4q28 0 86 -2q29 -1 52 -1h4q2 0 16.5 1t35 1.5t36.5 0.5q3 0 3 -3.5t-3 -3.5q-26 0 -57 -17q-29 -16 -52 -36q-30 -28 -62 -61l-251 -252q73 44 148 44q72 0 118 -47.5t80 -155.5l11 -33q24 -77 51 -106q27 -28 87 -28z" />
    <glyph glyph-name="L" unicode="L" horiz-adv-x="653" 
d="M179 556v-546h192q129 0 180 61q17 21 32 57q26 62 52 183q3 7 7 3q1 -1 1 -3l-76 -345q-1 -4 -5 0q-16 24 -53 30q-7 0 -17 1.5t-20 2.5h-18h-39h-274l-37 -2q-38 -1 -69 -1q-3 0 -5 3q1 3 5 4q39 0 53.5 3t25.5 17q12 14 15.5 39t3.5 81v411q0 56 -3.5 81t-15.5 39
q-11 14 -25.5 17t-53.5 3q-3 0 -5 3q1 3 5 4q31 0 69 -2l37 -1l27 1q5 0 49 2.5t78 3.5q5 0 6 -3q-1 -3 -5 -4q-7 0 -22.5 -0.5t-21.5 -1.5q-38 -2 -53 -20q-20 -25 -20 -121z" />
    <glyph glyph-name="M" unicode="M" horiz-adv-x="962" 
d="M927 5q3 0 5 -3q-1 -3 -5 -4q-31 0 -69 2l-37 1l-29 -1q-3 0 -39.5 -2t-66.5 -3q-4 0 -5 3q1 3 5 4q59 5 72 14q18 13 22 74q1 17 3 54v497l-283 -396l32 -41q-24 -21 -29 -32q-2 -3 -5 0l-348 445v-463q0 -150 118 -150q4 0 4 -3q-1 -3 -4 -4q-25 0 -77 2q-26 1 -46 1
q-19 0 -42 -1q-46 -2 -69 -2q-4 0 -4 3q1 3 4 4q106 0 106 135l-1 417q0 56 -3.5 81t-15.5 39q-11 14 -25.5 17t-53.5 3q-3 0 -5 3q1 3 5 4q31 0 69 -1l37 -2h7l339 -447l319 447h9l37 2q38 1 69 1q3 0 5 -3q-1 -3 -5 -4q-39 0 -53.5 -3t-26.5 -17q-18 -22 -18 -120v-411
q0 -56 3.5 -81t14.5 -39q12 -14 26.5 -17t53.5 -3z" />
    <glyph glyph-name="N" unicode="N" horiz-adv-x="809" 
d="M795 703q4 0 4 -3q-1 -3 -4 -4q-106 0 -106 -135v-560q0 -3 -3 -3.5t-5 2.5l-531 624v-470q0 -150 106 -150q4 0 4 -3q-1 -3 -4 -4q-23 0 -69 2q-23 1 -42 1t-42 -1q-46 -2 -69 -2q-4 0 -4 3q1 3 4 4q106 0 106 135v388q0 68 -3.5 97.5t-15.5 46.5q-11 17 -25.5 20.5
t-53.5 3.5q-3 0 -4.5 2.5t0 4.5t4.5 2q31 0 68 -2l38 -2h-1l532 -629v475q0 150 -106 150q-4 0 -4 3q1 3 4 4q23 0 69 -2q23 -1 42 -1t42 1q46 2 69 2z" />
    <glyph glyph-name="O" unicode="O" horiz-adv-x="784" 
d="M392 710q160 0 256 -96t96 -256q0 -156 -105 -262q-103 -106 -257 -106t-248 96q-94 95 -94 252t103 264q103 108 249 108zM402 2q122 0 201 93q81 93 81 243q0 155 -86 258q-86 102 -216 102q-120 0 -201 -95t-81 -245q0 -152 86 -255q86 -101 216 -101z" />
    <glyph glyph-name="P" unicode="P" horiz-adv-x="650" 
d="M318 298h-139v-140q0 -63 4.5 -90t21.5 -42t37.5 -18.5t73.5 -3.5q6 0 7 -3q1 -1 -3 -3q-1 -1 -4 -1q-44 0 -96 1l-52 2h-27l-37 -2q-38 -1 -69 -1q-3 0 -5 3q1 3 5 4q39 0 53.5 3t25.5 17q12 14 15.5 39t3.5 81v412q0 56 -3.5 81t-15.5 39q-11 14 -25.5 17t-53.5 3
q-3 0 -5 3q1 3 5 4q31 0 69 -1l37 -2h161q151 0 235 -53.5t84 -148.5t-79.5 -147.5t-223.5 -52.5zM309 690h-122q-8 -29 -8 -118v-264h122q123 0 191.5 50.5t68.5 140.5q0 88 -67 139.5t-185 51.5z" />
    <glyph glyph-name="Q" unicode="Q" horiz-adv-x="784" 
d="M1149 -94l10 -4q-46 -80 -78 -109q-31 -28 -82 -28q-69 0 -322 82q-253 81 -301 81q-28 0 -87 -44q-14 -53 -50 -53q-14 0 -12 14q5 23 54 48l96 97q-150 1 -244 97q-93 96 -93 251q0 157 103 264q103 108 249 108q160 0 256 -96t96 -256q0 -153 -102 -260
q-102 -105 -252 -108l-76 -79q57 36 89 36q43 0 296 -66q255 -66 307 -66q45 0 76 17q29 16 67 74zM100 358q0 -152 86 -255q86 -101 216 -101q122 0 201 93q81 93 81 243q0 155 -86 258q-86 102 -216 102q-120 0 -201 -95t-81 -245z" />
    <glyph glyph-name="R" unicode="R" horiz-adv-x="730" 
d="M731 4q4 0 4 -3q-1 -3 -4 -4q-21 0 -42.5 0.5t-35.5 1.5t-17 1h-26q-29 15 -71 114l-28 67q-37 88 -105 115t-211 27h-16v-165q0 -63 4.5 -90t21.5 -42t37.5 -18.5t73.5 -3.5q6 0 7 -3q1 -1 -3 -3q-1 -1 -4 -1q-44 0 -96 1l-52 2h-27l-37 -2q-38 -1 -69 -1q-3 0 -5 3
q1 3 5 4q39 0 53.5 3t25.5 17q12 14 15.5 39t3.5 81v412q0 56 -3.5 81t-15.5 39q-11 14 -25.5 17t-53.5 3q-3 0 -5 3q1 3 5 4q31 0 69 -1l37 -2h161q309 0 309 -182q0 -78 -67.5 -126.5t-193.5 -62.5q78 -6 125 -33t74 -86l37 -79q35 -74 63 -101q29 -26 82 -26zM179 567
v-234h42q160 0 245 46.5t85 139.5q0 89 -58 127.5t-184 38.5h-122q-8 -29 -8 -118z" />
    <glyph glyph-name="S" unicode="S" horiz-adv-x="678" 
d="M384 -10q-59 0 -113 10q-60 11 -63 11q-27 0 -40 -43q-2 -3 -5 0l-89 308q-2 5 2 6q4 0 5 -4q50 -135 125 -206t168 -71q86 0 144 44q58 43 58 113q0 69 -41 102q-32 28 -159 73l-29 10l-1 1h-1h-1l-1 1h-1h-1l-1 1h-1l-1 1h-1h-1l-1 1h-1h-1l-1 1h-1h-1l-2 1l-73 27
q-32 14 -60 28q-37 20 -53 36q-42 48 -42 105q0 67 57 115q58 49 147 49q44 0 96 -11q49 -10 60 -10q14 0 25 12.5t15 30.5q1 2 2.5 2t2.5 -2l81 -280q1 -4 -3 -4.5t-5 4.5q-86 248 -279 248q-65 0 -108 -40q-44 -41 -44 -93q1 -63 39 -98t163 -77l48 -15q32 -9 55 -17
l50 -20q44 -17 85 -58q37 -34 37 -97q0 -79 -62 -138q-62 -57 -178 -57z" />
    <glyph glyph-name="T" unicode="T" horiz-adv-x="692" 
d="M358 0h-24l-52 -2q-52 -1 -96 -1q-6 0 -7 3q2 2 7 4q54 0 74 3t37 17t21.5 38.5t4.5 81.5v546h-60q-99 0 -147 -49q-48 -51 -92 -200q-1 -3 -4 -2q-2 2 -1 4l63 291q1 4 5 0q15 -23 40 -29q28 -5 84 -5h270q41 0 53 1q20 1 41 9.5t30 23.5q4 4 5 0l63 -291q1 -2 -1 -4
q-3 -1 -4 2q-45 150 -93 200q-46 49 -146 49h-60v-546q0 -57 4.5 -81.5t21.5 -38.5t37 -17t74 -3q6 0 7 -3q1 -1 -3 -3q-1 -1 -4 -1q-44 0 -96 1z" />
    <glyph glyph-name="U" unicode="U" horiz-adv-x="781" 
d="M752 703q4 0 4 -3q-1 -3 -4 -4q-106 0 -106 -135v-236q0 -36 -1 -49q0 -15 -5 -58q-4 -38 -14 -65q-24 -77 -71 -113q-60 -49 -158 -49q-117 0 -193 72t-76 230v263q0 56 -3.5 81t-15.5 39q-11 14 -25.5 17t-53.5 3q-4 0 -5 3q1 3 5 4q31 0 68 -1l38 -2h30l38 2
q37 1 68 1q4 0 5 -3q-1 -3 -5 -4q-39 0 -53.5 -3t-26.5 -17q-18 -22 -18 -120v-235q0 -307 233 -307q122 0 176 76t54 232v178q0 195 -130 195q-3 0 -4.5 2.5t0 4.5t4.5 2q26 0 84 -2q12 0 24 -0.5t18.5 -1t8.5 -0.5q19 0 42 1q46 2 68 2z" />
    <glyph glyph-name="V" unicode="V" horiz-adv-x="767" 
d="M758 703q3 0 3 -3.5t-3 -3.5q-40 0 -70.5 -34t-60.5 -106l-214 -513l-21 -53h-5l-237 575q-31 75 -59 103q-27 27 -81 27q-5 0 -4 4q2 3 4 3q21 0 42.5 -1t35.5 -1.5t17 -0.5h35l38 1q37 2 68 2q4 0 4 -3q-1 -3 -4 -4q-59 0 -69 -29t23 -101l207 -508l190 455
q36 85 18.5 134t-85.5 49q-3 0 -4.5 2.5t0 4.5t4.5 2q28 0 86 -2q12 0 24.5 -0.5t19 -1t9.5 -0.5h1q2 0 16.5 1t35 1.5t36.5 0.5z" />
    <glyph glyph-name="W" unicode="W" horiz-adv-x="1108" 
d="M1098 703q5 0 4 -4q-2 -3 -4 -3q-40 0 -70.5 -34t-58.5 -107l-206 -512l-21 -53h-5l-179 438l-155 -385l-21 -53h-5l-229 575q-30 76 -57 103t-81 27q-5 0 -4 4q2 3 4 3q21 0 42.5 -1t35.5 -1.5t17 -0.5l394 1l38 2q38 1 69 1q4 0 4 -3q-1 -3 -4 -4q-60 0 -69.5 -30.5
t23.5 -106.5l198 -503l182 456q36 85 18 134t-86 49q-3 0 -4.5 2.5t0 4.5t4.5 2q28 0 86 -2q12 0 24.5 -0.5t19 -1t8.5 -0.5t17 1t35 1.5t36 0.5zM158 666l240 -610l154 386l-91 224q-25 13 -52 18q-26 5 -85 6q-73 -2 -93 -5q-29 -5 -73 -19z" />
    <glyph glyph-name="X" unicode="X" horiz-adv-x="736" 
d="M713 4q3 0 3 -3.5t-3 -3.5q-16 0 -33 0.5t-28 1.5t-13 1h-46l-37 -2q-38 -1 -69 -1q-4 0 -4 3q1 3 4 4q42 0 55.5 11.5t5 35t-39.5 68.5l-158 227l-146 -192q-34 -45 -42 -79t10 -52t59 -18q3 0 4.5 -2t0 -4.5t-4.5 -2.5q-25 0 -79 2q-11 0 -22 0.5t-17 1t-8 0.5h-7
q-1 0 -13.5 -0.5t-30 -1.5t-31.5 -1q-3 0 -3 3.5t3 3.5q32 0 63 27t84 97l173 227l-158 226q-44 64 -76 91q-29 24 -70 24q-3 0 -3 3.5t3 3.5q16 0 33 -0.5t28 -1.5t13 -1h45l38 2q37 1 68 1q4 0 4 -3q-1 -3 -4 -4q-61 0 -63.5 -25t43.5 -90l135 -193l129 160
q53 66 46.5 106t-69.5 40q-3 0 -4.5 2t0 4.5t4.5 2.5q26 0 78 -2q11 0 22.5 -0.5t17.5 -1t8 -0.5h5q1 0 13.5 0.5t30 1.5t31.5 1q3 0 3 -3.5t-3 -3.5q-35 0 -66 -28q-33 -30 -84 -94l-156 -194l181 -260q48 -67 76 -91q29 -24 71 -24z" />
    <glyph glyph-name="Y" unicode="Y" horiz-adv-x="731" 
d="M722 703q3 0 3 -3.5t-3 -3.5q-40 0 -72 -31t-72 -103l-176 -316v-102q0 -57 4.5 -81.5t21.5 -38.5t37 -17t74 -3q5 0 7 -3q2 -1 -3 -3q-1 -1 -4 -1q-44 0 -96 1l-52 2h-24l-52 -2q-52 -1 -96 -1q-5 0 -7 3q2 2 7 4q54 0 74 3t37 17t21.5 38.5t4.5 81.5v101l-190 329
q-41 72 -71 96q-32 26 -85 26q-5 0 -4 4q2 3 4 3q21 0 43 -0.5t36 -1.5t17 -1h36l38 2q37 1 68 1q4 0 4 -3q-1 -3 -4 -4q-59 0 -65.5 -27t35.5 -95l182 -312l159 286q38 68 21.5 108t-84.5 40q-4 0 -4 3q1 3 4 4q28 0 86 -2q29 -1 52 -1q2 0 16.5 1t35 1.5t36.5 0.5z" />
    <glyph glyph-name="Z" unicode="Z" horiz-adv-x="693" 
d="M625 697l-497 -687h263q53 0 84 9.5t60 37.5q56 53 101 234q1 3 3.5 4t5 -0.5t2.5 -3.5l-75 -325q-1 -4 -5 0q-11 14 -18 18q-21 16 -81 16h-404q-2 0 -2.5 1t0.5 2l497 687h-145q-34 0 -68 -2q-65 -2 -97 -20q-37 -18 -63.5 -64t-58.5 -141q-1 -4 -5 -2l-1 4l59 269
q1 4 5 0q16 -19 34.5 -26.5t60.5 -7.5h344q1 0 1.5 -1t-0.5 -2z" />
    <glyph glyph-name="bracketleft" unicode="[" horiz-adv-x="299" 
d="M271 -226h-191v979h191v-10h-181v-959h181v-10z" />
    <glyph glyph-name="backslash" unicode="\" horiz-adv-x="400" 
d="M11 730l394 -911h-12l-394 911h12z" />
    <glyph glyph-name="bracketright" unicode="]" horiz-adv-x="299" 
d="M219 753v-979h-191v10h181v959h-181v10h191z" />
    <glyph glyph-name="asciicircum" unicode="^" horiz-adv-x="555" 
d="M86 365h-12l203 325h3l201 -325h-11l-191 311z" />
    <glyph glyph-name="underscore" unicode="_" horiz-adv-x="512" 
d="M512 -65h-512v10h512v-10z" />
    <glyph glyph-name="grave" unicode="`" horiz-adv-x="468" 
d="M329 606l-3 -3q-134 60 -134 94q0 21 21 21q16 0 26 -13q4 -4 18.5 -23t33 -39.5t38.5 -36.5z" />
    <glyph glyph-name="a" unicode="a" horiz-adv-x="592" 
d="M214 -9q-64 0 -102.5 32t-38.5 86q0 67 82 116q83 49 282 78v51q0 74 -43.5 108.5t-93.5 34.5q-52 0 -121 -32q-16 -75 -30 -92q-11 -15 -30 -15q-12 0 -20.5 7.5t-8.5 19.5q0 41 70 83t147 42q172 0 172 -151v-300q0 -47 34 -47q33 0 53 29q2 2 5 -1l1 -4
q-37 -46 -77 -46q-58 0 -58 73v118h-1q-23 -73 -84 -131q-62 -59 -138 -59zM233 27q66 0 120 48t84 116v102q-153 -17 -231 -60q-86 -45 -86 -109q0 -43 32.5 -70t80.5 -27z" />
    <glyph glyph-name="b" unicode="b" horiz-adv-x="607" 
d="M324 -10q-36 0 -79.5 15t-74 30.5t-34.5 15.5q-11 0 -26.5 -16.5t-20.5 -34.5q-2 -3 -4 -2l-1 2q8 62 8 97v518q0 42 -18 57t-61 4q-3 0 -3 2.5t3 2.5q62 23 115 59q6 6 6 -3v-253l-2 -116h2q55 71 109 106.5t123 35.5q88 0 150 -63q61 -62 61 -169q0 -110 -75 -199
t-178 -89zM324 0q93 0 146 65t53 197q0 40 -10 77.5t-31.5 71t-60.5 54t-92 20.5q-46 0 -92 -32t-103 -97v-250q33 -39 89 -73q55 -33 101 -33z" />
    <glyph glyph-name="c" unicode="c" horiz-adv-x="551" 
d="M273 -9q-111 0 -177 71q-66 72 -66 181q0 113 81 190q82 77 188 77q68 0 124 -35q55 -34 55 -73q0 -13 -8.5 -21t-22.5 -8q-44 0 -61 110q-36 17 -90 17q-94 0 -157 -65q-62 -65 -62 -158q0 -108 60 -180q61 -72 159 -72q167 0 239 195q3 4 7.5 1.5t3.5 -6.5
q-43 -103 -114 -163.5t-159 -60.5z" />
    <glyph glyph-name="d" unicode="d" horiz-adv-x="625" 
d="M246 -9q-86 0 -151 57.5t-65 169.5q0 120 81 206t189 86q49 0 96 -20.5t77 -49.5v180q0 42 -18 57t-61 4q-3 0 -3 2.5t3 2.5q62 23 115 59q1 4 5 0q1 -1 1 -3v-582q0 -69 14 -94.5t53 -26.5q3 0 3 -3t-3 -3q-7 1 -21.5 -4.5t-27 -12.5t-26 -16t-14.5 -9h-6
q-11 75 -11 142h-2q-35 -42 -46 -53q-19 -19 -46 -42q-57 -47 -136 -47zM271 16q45 -5 107 34q12 7 29 24q5 6 10 11l9 9l4 3l24 27l19 23v214q-29 59 -81 96.5t-113 37.5q-89 0 -143 -68q-53 -68 -53 -182q0 -105 51.5 -167t136.5 -62z" />
    <glyph glyph-name="e" unicode="e" horiz-adv-x="556" 
d="M535 220q4 3 8.5 1.5t2.5 -6.5q-101 -224 -278 -224q-107 0 -173 72q-65 74 -65 181q0 111 80 188q80 78 189 78q79 0 135 -49q57 -49 57 -119q0 -16 -4 -33h-409q-1 -6 -1 -27q0 -108 57 -183q59 -74 162 -74q167 0 239 195zM290 499q-40 0 -84 -18q-45 -19 -81 -62.5
t-45 -99.5h318q37 0 37 42q0 63 -36.5 100.5t-108.5 37.5z" />
    <glyph glyph-name="f" unicode="f" horiz-adv-x="357" 
d="M169 490v-386q0 -62 16 -81t82 -19q6 0 6 -3.5t-6 -3.5q-32 0 -67.5 1.5t-36.5 1.5h-31l-30 -2q-30 -1 -57 -1q-4 0 -4 3q1 3 4 4q55 0 68 19q14 20 14 81v386h-55l5 10h50q0 135 58 193q51 52 112 52q50 0 84 -18.5t34 -40.5q0 -9 -7 -16t-19 -7q-13 0 -23 10
q-4 4 -37 57q-15 4 -31 4q-129 0 -129 -175v-59h117l-5 -10h-112z" />
    <glyph glyph-name="g" unicode="g" horiz-adv-x="539" 
d="M513 529q-17 -9 -45 -9q-7 0 -23.5 0.5t-19.5 0.5q-28 -14 -53 -33q45 -23 71.5 -65t26.5 -91q0 -75 -56 -128q-56 -51 -158 -51q-29 0 -59 8q-20 -8 -34.5 -27t-14.5 -32q0 -25 27 -31l196 -43q154 -34 154 -113q2 -49 -48.5 -96.5t-124.5 -75.5t-141 -26q-84 0 -148 32
q-62 32 -62 68q0 30 12 54q14 26 55 72l5 -5q-40 -49 -40 -61q0 -54 71 -93q71 -40 155 -40q88 0 156 41q69 41 69 99q0 64 -118 95l-210 54q-49 13 -49 53q0 17 22 40.5t57 37.5q-56 19 -90 65t-34 102q0 76 56 127q56 52 159 52q50 0 89 -19q75 58 122 82q36 18 46 -3
q12 -25 -21 -41zM420 326q0 79 -43.5 125.5t-123.5 46.5q-63 0 -101.5 -45t-38.5 -118q0 -79 44 -125t128 -46q60 0 97.5 46t37.5 116z" />
    <glyph glyph-name="h" unicode="h" horiz-adv-x="624" 
d="M142 0h-31l-30 -2q-30 -1 -57 -1q-4 0 -4 3q1 3 4 4q55 0 68 19q14 20 14 81l-1 515q0 42 -18 57t-61 4q-3 0 -3 2.5t3 2.5q62 23 115 59q1 4 5 0q1 -1 1 -3v-248l-2 -123h2q43 58 108 99q67 41 118 41q81 0 115.5 -51.5t34.5 -167.5v-187q0 -62 13 -81t69 -19q4 0 4 -3
q-1 -3 -4 -4q-27 0 -57 1l-30 2h-32l-30 -2q-30 -1 -57 -1q-4 0 -4 3q1 3 4 4q55 0 68 19q14 20 14 81v206q0 100 -34 134q-35 35 -93 35q-110 0 -207 -120v-255q0 -62 13 -81t69 -19q4 0 4 -3q-1 -3 -4 -4q-20 0 -39.5 0.5t-32 1.5t-15.5 1z" />
    <glyph glyph-name="i" unicode="i" horiz-adv-x="254" 
d="M121 614q-24 0 -33.5 22t7.5 39t39.5 8t22.5 -33q0 -15 -10 -25.5t-26 -10.5zM143 0h-32l-30 -2q-30 -1 -57 -1q-4 0 -4 3q1 3 4 4q55 0 68 19q14 20 14 81v264q0 65 -14 79t-55 14q-2 1 -1 5l2 1q35 7 51 15l18 8l19 11l15 9q7 1 7 -3v-403q0 -62 13 -81t69 -19
q4 0 4 -3q-1 -3 -4 -4q-27 0 -57 1z" />
    <glyph glyph-name="j" unicode="j" horiz-adv-x="248" 
d="M130 614q-24 0 -33.5 22t7.5 39t39.5 8t22.5 -33q0 -15 -10 -25.5t-26 -10.5zM143 510q7 2 7 -3v-515q-2 -129 -52 -187q-51 -59 -118 -59q-50 0 -84 18.5t-34 40.5q0 9 7 16t19 7q13 0 23 -10q4 -4 37 -57q15 -4 31 -4q129 0 129 175v60v355q0 75 -11 95q-10 21 -58 19
q-5 0 -1 4q2 2 3 2q55 7 102 43z" />
    <glyph glyph-name="k" unicode="k" horiz-adv-x="609" 
d="M604 4q5 0 4 -4q-2 -3 -4 -3q-18 0 -37 0.5t-32 1.5t-15 1h-23q-10 4 -43 55l-34 68q-9 19 -19 39l-17 38q-38 81 -99 81q-65 0 -114 -37l-23 -17v-123q0 -62 13 -81t69 -19q4 0 4 -3q-1 -3 -4 -4q-27 0 -57 1l-30 2h-32l-30 -2q-30 -1 -57 -1q-4 0 -4 3q1 3 4 4
q55 0 68 19q14 20 14 81v516q0 42 -18 57t-61 4q-3 0 -3 2.5t3 2.5q62 23 115 59q6 6 6 -3v-502l206 159q57 43 51.5 70t-73.5 27q-4 0 -5 3q1 3 5 4q28 0 86 -2q29 -1 52 -1h1q19 0 43 1q48 2 71 2q5 0 4 -4q-1 -3 -4 -3q-50 0 -98.5 -23t-115.5 -74l-145 -112q36 15 71 15
q83 0 128 -91l40 -81q39 -76 64 -100q29 -26 75 -26z" />
    <glyph glyph-name="l" unicode="l" horiz-adv-x="254" 
d="M143 0h-32l-30 -2q-30 -1 -57 -1q-4 0 -4 3q1 3 4 4q55 0 68 19q14 20 14 81v516q0 42 -18 57t-61 4q-3 0 -3 2.5t3 2.5q62 23 115 59q6 6 6 -3v-638q0 -62 13 -81t69 -19q4 0 4 -3q-1 -3 -4 -4q-27 0 -57 1z" />
    <glyph glyph-name="m" unicode="m" horiz-adv-x="964" 
d="M945 4q4 0 4 -3q-1 -3 -4 -4q-20 0 -39.5 0.5t-32 1.5t-15.5 1h-32l-30 -2q-30 -1 -57 -1q-4 0 -4 3q1 3 4 4q55 0 68 19q14 20 14 81v174q0 201 -118 201q-54 0 -99.5 -27t-99.5 -93q3 -32 3 -68v-187q0 -61 11 -81q10 -19 55 -19q3 0 3 -3.5t-3 -3.5q-16 0 -32 0.5
t-26 1.5t-12 1h-34q-2 0 -12 -0.5t-26 -1.5t-32 -1q-3 0 -3 3.5t3 3.5q45 0 55 19q11 20 11 81v199q0 176 -118 176q-52 0 -98.5 -27.5t-100.5 -91.5v-256q0 -62 13 -81t69 -19q4 0 4 -3q-1 -3 -4 -4q-27 0 -57 1l-30 2h-32l-30 -2q-30 -1 -57 -1q-4 0 -4 3q1 3 4 4
q55 0 68 19q14 20 14 81v251q0 57 -14.5 81.5t-52.5 24.5q-3 0 -3 2.5t3 3.5q35 9 79 43q2 2 5 0q23 -43 23 -140h1q39 59 100 100q58 40 113 40q67 0 100.5 -34t42.5 -107q41 62 99 101q58 40 114 40q82 0 114.5 -52t32.5 -167v-187q0 -62 13 -81t69 -19z" />
    <glyph glyph-name="n" unicode="n" horiz-adv-x="625" 
d="M143 0h-32l-30 -2q-30 -1 -57 -1q-4 0 -4 3q1 3 4 4q55 0 68 19q14 20 14 81v239q0 66 -13.5 92t-53.5 26q-2 1 -2 3t2 3q39 10 78 43q3 3 6 0q24 -36 24 -140h1q44 58 108 99q67 41 118 41q84 0 117 -49.5t33 -163.5v-193q0 -62 13 -81t69 -19q4 0 4 -3q-1 -3 -4 -4
q-27 0 -57 1l-30 2h-32l-30 -2q-30 -1 -57 -1q-4 0 -4 3q1 3 4 4q55 0 68 19q14 20 14 81v190q0 108 -31 146q-31 39 -93 39q-112 0 -210 -120v-255q0 -62 13 -81t69 -19q4 0 4 -3q-1 -3 -4 -4q-27 0 -57 1z" />
    <glyph glyph-name="o" unicode="o" horiz-adv-x="579" 
d="M281 -10q-113 0 -183 68q-68 70 -68 183t78 191t192 78q113 0 181 -68t68 -181t-78 -193q-77 -78 -190 -78zM297 2q77 0 138 64t61 173q0 114 -63 189q-63 74 -163 70q-74 -5 -130 -68q-57 -64 -57 -169q0 -111 59 -185q60 -74 155 -74z" />
    <glyph glyph-name="p" unicode="p" horiz-adv-x="610" 
d="M374 509q72 0 135 -51q33 -25 52 -71.5t19 -104.5q0 -124 -83 -209q-83 -83 -176 -83q-58 0 -107.5 20.5t-75.5 51.5v-208q0 -62 18 -81t89 -19q3 0 5 -3q-1 -3 -5 -4q-26 0 -52 0.5t-42 1.5t-19 1h-31q-3 0 -15.5 -1t-32 -1.5t-39.5 -0.5q-4 0 -4 3q1 3 4 4q55 0 68 19
q14 20 14 81v486q0 69 -13.5 94.5t-52.5 26.5q-3 1 -2.5 3t2.5 3q38 9 77 43q5 4 6 0q6 -12 10.5 -25t7 -21.5t3.5 -25.5t1 -22v-26v-24h2q40 50 61 72q28 28 75.5 49.5t100.5 21.5zM333 485q-41 0 -81 -24q-38 -23 -61 -47q-29 -31 -53 -62v-219q25 -48 79 -87
q52 -37 111 -37q98 0 147.5 63.5t49.5 179.5q0 113 -55 172q-54 61 -137 61z" />
    <glyph glyph-name="q" unicode="q" horiz-adv-x="597" 
d="M285 510q32 1 76 -14.5t75.5 -31.5t34.5 -15q11 0 26 17t21 34q3 5 5 0q-8 -64 -8 -102v-544q0 -62 13 -81t69 -19q4 0 4 -3q-1 -3 -4 -4q-27 0 -57 1l-30 2h-30l-40 -2q-39 -1 -74 -1q-4 0 -5 3q1 3 5 4q73 0 89 19q18 19 18 81v275q-106 -139 -227 -139q-96 0 -156 62
t-60 170q0 125 80 207q80 81 175 81zM283 500q-87 0 -142 -61t-55 -201q0 -95 52 -159q53 -65 143 -65q87 0 192 127v253q-41 46 -92.5 76t-97.5 30z" />
    <glyph glyph-name="r" unicode="r" horiz-adv-x="400" 
d="M142 0h-31l-30 -2q-30 -1 -57 -1q-4 0 -4 3q1 3 4 4q55 0 68 19q14 20 14 81v234q0 58 -9 86q-11 37 -58 37q-2 1 -2.5 3t2.5 3q19 5 33 12q28 13 46 31q4 4 6 0q26 -52 21 -147h1q24 68 77 107q52 40 98 40q28 0 48 -12.5t20 -30.5q0 -11 -9 -19t-22 -8q-46 0 -96 42h-2
q-6 0 -26 -14q-18 -13 -46 -48q-27 -37 -40 -78v-238q0 -62 18 -81t89 -19q3 0 5 -3q-1 -3 -5 -4q-26 0 -52 0.5t-42 1.5t-19 1z" />
    <glyph glyph-name="s" unicode="s" horiz-adv-x="527" 
d="M285 -10q-32 0 -81 11q-46 12 -60 12t-22 -5t-13.5 -13.5t-6.5 -9.5q-3 -3 -4 0l-39 227q0 3 2.5 3t3.5 -3q24 -106 85 -159q62 -53 127 -53q70 0 113.5 31.5t43.5 81.5t-25 72q-26 23 -95 42l-109 30q-131 35 -131 128q0 36 15.5 62t42 39t53 18.5t55.5 5.5q24 0 71 -12
q49 -11 57 -11q11 0 18 4q9 4 16.5 12t7.5 12q3 3 4 0l39 -227q0 -3 -4 -2q-2 0 -2 2q-17 75 -53 122q-66 90 -153 90q-53 0 -89 -28t-36 -74q0 -43 22.5 -64.5t82.5 -37.5l86 -23q47 -12 84 -28q36 -14 60.5 -42.5t24.5 -65.5q0 -51 -30 -86q-54 -61 -161 -61z" />
    <glyph glyph-name="t" unicode="t" horiz-adv-x="355" 
d="M209 -10q-91 0 -91 118v382h-75v5q100 37 112 165q1 3 5 2q1 -1 1 -2v-160h130l-5 -10h-126v-375q0 -48 17.5 -75.5t46.5 -27.5q50 0 94 75q2 2 3.5 0.5t0.5 -3.5q-29 -49 -54.5 -71.5t-58.5 -22.5z" />
    <glyph glyph-name="u" unicode="u" horiz-adv-x="615" 
d="M506 508v-351q0 -65 13.5 -91.5t53.5 -26.5q2 -1 2 -3t-2 -3q-36 -11 -90 -43q-5 -3 -6 0q-11 71 -11 140h-1q-44 -60 -110 -100q-65 -40 -118 -40q-89 0 -120 55q-32 56 -32 158v156q0 57 -9 79q-10 27 -59 23q-2 1 -2 3t2 3q42 6 105 43q5 2 5 -2v-302
q0 -102 30 -143.5t96 -41.5q113 0 211 120v219q0 62 -12 84q-10 22 -57 17q-2 1 -2 3t2 3q37 4 105 43q6 2 6 -2z" />
    <glyph glyph-name="v" unicode="v" horiz-adv-x="581" 
d="M584 503q2 0 2 -3.5t-2 -3.5q-35 0 -65 -33.5t-61 -104.5l-163 -368h-7l-163 377q-33 77 -57 102q-24 27 -66 27q-3 0 -3 3.5t3 3.5q16 0 32.5 -0.5t28 -1.5t13.5 -1h29l37 2q38 1 69 1q4 0 4 -3q-1 -3 -4 -4q-61 -3 -68.5 -29t25.5 -99l143 -318l135 308q30 64 13.5 101
t-76.5 37q-4 0 -4 3q1 3 4 4q26 0 78 -2q26 -1 47 -1l28 2q29 1 48 1z" />
    <glyph glyph-name="w" unicode="w" horiz-adv-x="879" 
d="M882 503q3 0 3 -3.5t-3 -3.5q-35 0 -64 -34t-59 -105l-153 -367h-8l-154 376v1l-158 -377h-8l-154 376q-30 73 -55 103q-23 27 -65 27q-5 0 -4 4q2 3 4 3q16 0 32.5 -0.5t28 -1.5t13.5 -1h29l37 2q38 1 69 1q4 0 4 -3q-1 -3 -4 -4q-59 0 -68.5 -29t23.5 -100l132 -317
l137 331q-28 67 -51 91q-22 24 -62 24q-5 0 -4 4q2 3 4 3q16 0 32.5 -0.5t28 -1.5t13.5 -1h29l37 2q38 1 69 1q4 0 4 -3q-1 -3 -4 -4q-59 0 -68.5 -29t23.5 -100l132 -317l127 306q28 65 11 102.5t-77 37.5q-4 0 -4 3q1 3 4 4q26 0 78 -2q27 -1 48 -1q1 0 13.5 1t30 1.5
t31.5 0.5z" />
    <glyph glyph-name="x" unicode="x" horiz-adv-x="606" 
d="M594 3q4 0 3 -4l-4 -3q-17 0 -36.5 1t-32 2t-15.5 1l-41 1h-8t-18 -0.5t-25 -0.5h-31.5h-34.5q-5 0 -4 4q1 3 5 3q65 -1 71 24t-41 90l-88 126l-110 -126q-48 -53 -41 -84.5t69 -31.5q4 0 4 -3q-1 -3 -4 -4q-25 0 -79 2q-26 1 -47 1h-1l-29 -1q-28 -2 -47 -2q-3 0 -3 3.5
t3 3.5q34 0 71 27.5t90 88.5l118 134l-87 125q-47 69 -78 92q-30 24 -78 24q-5 0 -4 4l4 3q19 0 38.5 -0.5t32 -1.5t14.5 -1h32q3 0 20.5 1t44 1.5t51.5 0.5q4 0 5 -3q-1 -3 -5 -4q-65 0 -71 -25.5t43 -89.5l70 -98l76 93q46 55 37.5 87.5t-70.5 32.5q-4 0 -4 3q1 3 4 4
q26 0 78 -2q27 -1 48 -1h1l28 2q29 1 48 1q3 0 3 -3.5t-3 -3.5q-34 0 -70 -28t-87 -91l-84 -102l111 -156q49 -69 79 -92q32 -23 79 -24z" />
    <glyph glyph-name="y" unicode="y" horiz-adv-x="581" 
d="M584 503q2 0 2 -3.5t-2 -3.5q-35 0 -65 -33.5t-61 -104.5l-163 -368q-38 -95 -83 -143t-108 -48q-38 0 -67 16q-30 17 -30 36q0 12 8.5 21t23.5 9q25 0 46 -25q22 -24 31 -48q47 0 91 48.5t77 133.5l2 5l-161 372q-33 77 -57 102q-24 27 -66 27q-3 0 -3 3.5t3 3.5
q16 0 32.5 -0.5t28 -1.5t13.5 -1h29l37 2q38 1 69 1q4 0 4 -3q-1 -3 -4 -4q-61 -3 -68.5 -29t25.5 -99l143 -318l135 308q30 64 13.5 101t-76.5 37q-4 0 -4 3q1 3 4 4q26 0 78 -2q26 -1 47 -1l28 2q29 1 48 1z" />
    <glyph glyph-name="z" unicode="z" horiz-adv-x="543" 
d="M491 500v-3l-378 -487h133q98 0 130 13q52 21 85 103q18 47 35 117q1 3 3 4t3.5 -0.5t1.5 -3.5l-53 -256q0 -4 -5 -2q-39 15 -120 15h-273v2l383 488h-69q-130 0 -166 -10q-57 -15 -82 -73q-19 -41 -32 -114q-1 -3 -4 -2l-1 2l30 215q0 4 3 2q16 -10 134 -10h242z" />
    <glyph glyph-name="braceleft" unicode="{" horiz-adv-x="343" 
d="M330 737h-51q-93 0 -141 -29t-48 -98q0 -52 15 -133t15 -127q0 -38 -12.5 -59.5t-46.5 -30.5q36 -11 47.5 -30.5t11.5 -58.5q0 -45 -15 -127t-15 -133q0 -69 48 -98t141 -29h51v-10h-51q-107 0 -153 34.5t-46 110.5q0 41 15 125q15 85 15 127q0 16 -3 28.5t-12.5 26.5
t-31 21.5t-53.5 7.5v10q32 0 53.5 7.5t31 21.5t12.5 26.5t3 28.5q0 41 -15 126t-15 127q0 76 46 110.5t153 34.5h51v-10z" />
    <glyph glyph-name="bar" unicode="|" horiz-adv-x="210" 
d="M110 -178h-10v919h10v-919z" />
    <glyph glyph-name="braceright" unicode="}" horiz-adv-x="343" 
d="M64 737h-51v10h51q107 0 153 -34.5t46 -110.5q0 -42 -15 -127t-15 -126q0 -16 3 -28.5t12.5 -26.5t31 -21.5t53.5 -7.5v-10q-32 0 -53.5 -7.5t-31 -21.5t-12.5 -26.5t-3 -28.5q0 -41 15 -127q15 -84 15 -125q0 -76 -46 -110.5t-153 -34.5h-51v10h51q93 0 141 29t48 98
q0 51 -15 133t-15 127q0 39 11.5 58.5t47.5 30.5q-34 9 -46.5 30.5t-12.5 59.5q0 46 15 127t15 133q0 69 -48 98t-141 29z" />
    <glyph glyph-name="asciitilde" unicode="~" horiz-adv-x="461" 
d="M401 334q-10 -35 -39 -60.5t-65 -25.5q-20 0 -64 14l-44 14q-26 10 -59 10q-26 0 -38.5 -12.5t-22.5 -44.5q-7 0 -9 2q10 34 39 60t64 26q21 0 65 -14l44 -14q30 -10 59 -10q25 0 38 12.5t23 44.5q2 -2 9 -2z" />
    <glyph glyph-name="exclamdown" unicode="&#xa1;" horiz-adv-x="251" 
d="M136 510q20 0 33.5 -14t13.5 -33q0 -20 -14 -33.5t-33 -13.5q-20 0 -33.5 13t-13.5 34q0 20 14 33.5t33 13.5zM141 325q0 -207 12 -338q13 -127 13 -152q0 -45 -31 -45q-30 0 -30 45q0 13 13 144t13 346q0 2 5 2t5 -2z" />
    <glyph glyph-name="cent" unicode="&#xa2;" horiz-adv-x="551" 
d="M535 220q3 4 7.5 1.5t3.5 -6.5q-40 -95 -104.5 -154.5t-143.5 -68.5v-166h-10v165h-15q-111 0 -177 71q-66 72 -66 181q0 111 77 186q76 76 181 81v141h10v-141h1q68 0 124 -35q55 -34 55 -73q0 -13 -8.5 -21t-22.5 -8q-44 0 -61 110q-36 17 -88 17v-475q165 1 237 195z
M77 277q0 -106 58 -177q59 -70 153 -75v475q-91 -3 -151 -67q-60 -65 -60 -156z" />
    <glyph glyph-name="sterling" unicode="&#xa3;" horiz-adv-x="644" 
d="M616 228h9l-9 -43q-4 -24 -8 -43q-5 -25 -10 -40q-8 -26 -13 -38q-20 -40 -40 -55q-29 -20 -68 -20q-71 0 -152 50q-80 51 -145 51q-41 0 -86 -30q52 -22 52 -44q0 -26 -29 -26q-16 0 -26 15t-10 42q0 18 65 83q27 27 46.5 69t19.5 84q0 31 -20 69h-171v9h166l-22 36
l-24 43q-23 51 -23 93q0 83 66 130q67 47 172 47q76 0 152 -46q78 -45 72 -101q-5 -32 -40 -32q-23 0 -33 27.5t-19 104.5q-65 36 -127 36q-80 0 -132 -46q-51 -45 -51 -118q0 -39 36 -97t43 -77h218v-9h-215q11 -33 11 -68q0 -45 -23 -84t-56 -61q-88 -55 -96 -71
q43 37 103 37q38 0 116 -29q77 -28 153 -28q53 0 91 48t57 132z" />
    <glyph glyph-name="currency" unicode="&#xa4;" horiz-adv-x="451" 
d="M342 305q0 -46 -30 -79l39 -36l-8 -9l-38 37q-35 -33 -81 -33t-81 31l-35 -35l-8 9l36 33q-33 35 -33 82t32 82l-35 31l8 9l34 -33q35 31 82 31q48 0 82 -34l37 36l8 -9l-38 -34q29 -35 29 -79zM224 197q43 0 75 32t32 76t-32 76t-75 32q-45 0 -77 -31.5t-32 -76.5
q0 -44 32 -76t77 -32z" />
    <glyph glyph-name="yen" unicode="&#xa5;" horiz-adv-x="731" 
d="M722 703q3 0 3 -3.5t-3 -3.5q-40 0 -72 -31t-72 -103l-154 -277h167v-10h-173l-16 -29v-51h189v-10h-189v-41q0 -57 4.5 -81.5t21.5 -38.5t37 -17t74 -3q5 0 7 -3q2 -1 -3 -3q-1 -1 -4 -1q-44 0 -96 1l-52 2h-24l-52 -2q-52 -1 -96 -1q-5 0 -7 3q2 2 7 4q54 0 74 3t37 17
t21.5 38.5t4.5 81.5v41h-219v10h219v50l-17 30h-202v10h196l-167 289q-41 72 -71 96q-32 26 -85 26q-5 0 -4 4q2 3 4 3q21 0 43 -0.5t36 -1.5t17 -1h36l38 2q37 1 68 1q4 0 4 -3q-1 -3 -4 -4q-59 0 -65.5 -27t35.5 -95l169 -289h26l146 263q38 68 21.5 108t-84.5 40
q-4 0 -4 3q1 3 4 4q28 0 86 -2q29 -1 52 -1q2 0 16.5 1t35 1.5t36.5 0.5zM393 275l7 -13l7 13h-14z" />
    <glyph glyph-name="brokenbar" unicode="&#xa6;" horiz-adv-x="210" 
d="M110 392h-10v319h10v-319zM110 -178h-10v319h10v-319z" />
    <glyph glyph-name="section" unicode="&#xa7;" horiz-adv-x="418" 
d="M169 -51q-18 0 -51 11q-20 6 -33 24t-13 42q0 10 7 18.5t16 8.5q41 0 41 -38q0 -15 -12 -48q22 -8 52 -8q43 0 69 24t26 70q0 26 -16 57q-24 46 -84 115l-13 15l-25 28l-27 32l-22 30q-14 20 -21 37q-17 46 -17 77q0 109 59 188q60 78 151 78q16 0 32 -4q22 -4 43 -24.5
t21 -48.5q0 -12 -7 -19.5t-16 -7.5q-41 0 -41 38q0 28 12 48q-19 8 -52 8q-44 0 -69.5 -24t-25.5 -70q0 -49 45 -103l46 -48l17.5 -17.5l15 -15l8.5 -8.5q46 -49 71 -97q22 -43 22 -107q0 -102 -58 -181q-59 -80 -151 -80zM298 15q19 16 38 60q21 45 21 79q0 46 -31 109
q-32 66 -81 115q-136 136 -136 221q0 25 17 45q-18 -15 -39 -60q-20 -45 -20 -76q0 -27 17 -66q16 -32 32 -58q15 -24 48 -65l37 -46l26 -35q21 -25 26 -34q7 -9 20 -29q17 -25 30 -57q12 -23 12 -58q0 -25 -17 -45z" />
    <glyph glyph-name="dieresis" unicode="&#xa8;" horiz-adv-x="468" 
d="M236 684q13 0 23.5 -10t10.5 -24t-10 -24t-24 -10q-20 0 -29 17t-0.5 34t29.5 17zM411 684q13 0 23.5 -10t10.5 -24t-10 -24t-24 -10q-20 0 -29 17t-0.5 34t29.5 17z" />
    <glyph glyph-name="copyright" unicode="&#xa9;" horiz-adv-x="789" 
d="M395 -7q-147 0 -251 104t-104 251q0 146 104 250t251 104q146 0 250 -104t104 -250q0 -147 -104 -251t-250 -104zM395 3q142 0 243 101q101 103 101 244q0 142 -101 243t-243 101q-141 0 -244 -101q-101 -101 -101 -243q0 -141 101 -244q101 -101 244 -101zM388 143
q-90 0 -144 57q-53 58 -53 145q0 91 67 152q68 62 154 62q56 0 102 -31q48 -32 48 -63q0 -11 -7.5 -19t-18.5 -8q-18 0 -27.5 19.5t-14.5 68.5q-31 25 -86 25q-73 0 -121 -49q-47 -49 -47 -127q0 -87 46 -143q47 -56 124 -56q58 0 97 25t80 84l6 -4q-77 -138 -205 -138z" />
    <glyph glyph-name="ordfeminine" unicode="&#xaa;" horiz-adv-x="302" 
d="M103 455q-31 0 -51 17t-20 44q0 69 179 98v24q0 34 -19 53t-45 19q-23 0 -50 -13q-11 -62 -37 -62q-7 0 -12.5 5t-5.5 12q0 23 35 44q36 21 77 21q94 0 94 -83v-141q0 -15 7.5 -20.5t18.5 -1t19 15.5q1 1 2 -1l1 -2q-24 -29 -48 -29q-37 0 -37 40v49h-1q-12 -35 -42 -62
t-65 -27zM122 480q27 0 50.5 19.5t38.5 50.5v59q-143 -20 -143 -82q0 -21 15.5 -34t38.5 -13zM294 416v-10h-255v10h255z" />
    <glyph glyph-name="guillemotleft" unicode="&#xab;" horiz-adv-x="506" 
d="M267 39l-7 -8l-214 209l214 208l7 -7l-206 -201zM463 39l-7 -8l-214 209l214 208l7 -7l-206 -201z" />
    <glyph glyph-name="logicalnot" unicode="&#xac;" horiz-adv-x="469" 
d="M10 287v10h409v-210h-10v200h-399z" />
    <glyph glyph-name="uni00AD" unicode="&#xad;" horiz-adv-x="386" 
d="M376 268h-366v10h366v-10z" />
    <glyph glyph-name="registered" unicode="&#xae;" horiz-adv-x="536" 
d="M506 473q0 -99 -70 -169t-168 -70t-168 70t-70 169q0 98 70 167q70 70 168 70t168 -70q70 -69 70 -167zM496 473q0 93 -67 160t-161 67t-161 -67t-67 -160q0 -95 67 -162t161 -67t161 67t67 162zM355 426l13 -30q10 -23 17 -33q9 -14 32 -14h3v-6h-39q-4 0 -8 1t-7 1.5
t-6 3t-5 4t-4.5 5t-4 5t-3.5 6.5t-3 6t-3.5 6.5t-2.5 6.5l-11 25q-27 61 -101 61h-19v-63q0 -45 10 -55q11 -11 46 -11v-3q-17 0 -38.5 0.5t-22.5 0.5h-28l-15 -1h-27v3q25 0 32 10.5t7 49.5v156q0 39 -7 49.5t-32 10.5v3h27l15 -1h82q130 0 130 -74q0 -29 -27 -48t-74 -25
q56 -9 74 -50zM203 570v-91h26q49 0 80 19.5t31 51.5q0 66 -96 66h-38q-3 -15 -3 -46z" />
    <glyph glyph-name="overscore" unicode="&#xaf;" horiz-adv-x="474" 
d="M449 642v-10h-255v10h255z" />
    <glyph glyph-name="degree" unicode="&#xb0;" horiz-adv-x="325" 
d="M256 483q-39 -39 -94 -39t-94 39q-38 40 -38 94t38 94q39 39 94 39t94 -39t39 -94t-39 -94zM76 490q36 -36 86 -36t86 36q37 37 37 87t-37 86q-36 37 -86 37t-86 -37q-36 -36 -36 -86q0 -49 36 -87z" />
    <glyph glyph-name="plusminus" unicode="&#xb1;" horiz-adv-x="374" 
d="M192 503v-192h172v-10h-172v-192h-10v192h-172v10h172v192h10zM364 0h-354v10h354v-10z" />
    <glyph glyph-name="uni00B2" unicode="&#xb2;" horiz-adv-x="326" 
d="M306 579h5l-7 -35q-3 -37 -16 -57q-24 -42 -54 -37q-32 0 -81 28q-47 28 -76 28q-24 0 -44 -17l3 -3q24 -12 24 -22q0 -14 -15 -14q-19 0 -19 32q0 21 26 44q26 22 99 69q52 33 74 61t22 63q0 38 -24 61.5t-61 23.5q-28 0 -57 -16q-10 -44 -18 -59.5t-23 -15.5
q-19 0 -19 18q0 30 41 54q41 25 82 25q55 0 88 -24.5t33 -67.5q-6 -55 -56 -89l-29 -19l-30 -16l-21 -10q-107 -56 -120 -90q28 23 63 23q21 0 60 -15t74 -15q55 0 76 92z" />
    <glyph glyph-name="uni00B3" unicode="&#xb3;" horiz-adv-x="313" 
d="M145 450q-50 0 -83 23t-33 57q0 25 16 38.5t39 8.5q-6 -4 -12 -19.5t-6 -30.5q0 -23 22 -48q23 -24 56 -24q47 0 75.5 29.5t28.5 71.5q0 34 -22.5 60.5t-54.5 26.5q-15 0 -30 -5q-5 -2 -14.5 -6t-16.5 -7t-10 -3q-10 0 -10 8t12.5 13t26.5 5q50 10 72.5 30t22.5 58
q0 68 -77 68q-28 0 -52 -15q-3 -10 -8 -30q-11 -46 -31 -46q-19 0 -19 21q0 26 36 51q37 25 78 25q51 0 82 -18t31 -53q0 -41 -39 -62q-28 -15 -84 -32q38 5 45 5q44 0 73.5 -26t29.5 -68q0 -41 -39 -74q-40 -32 -105 -32z" />
    <glyph glyph-name="acute" unicode="&#xb4;" horiz-adv-x="468" 
d="M189 603l-3 3q34 28 56 57q4 5 10.5 13.5t9 12t7 9t7 8t6 5.5t6.5 4t6.5 2t7.5 1q21 0 21 -21q0 -34 -134 -94z" />
    <glyph glyph-name="uni00B5" unicode="&#xb5;" horiz-adv-x="615" 
d="M574 39q2 -1 2 -3t-2 -3q-36 -11 -90 -43q-4 -3 -6 0q-11 71 -11 140h-1q-44 -60 -110 -100q-65 -40 -118 -40q-74 0 -110 42v-178q0 -62 18 -81t89 -19q3 0 5 -3q-1 -3 -5 -4q-35 0 -74 1l-39 2h-31q-3 0 -15.5 -1t-32 -1.5t-39.5 -0.5q-4 0 -4 3q1 3 4 4q55 0 68 19
q14 20 14 81v505q0 57 -9 79q-10 27 -59 23q-2 1 -2 3t2 3q42 6 105 43q5 2 5 -2v-302q0 -102 30 -143.5t96 -41.5q114 0 211 120v219q0 62 -12 84q-10 22 -57 17q-2 1 -2 3t2 3q37 4 105 43q6 2 6 -2v-351q0 -65 13.5 -91.5t53.5 -26.5z" />
    <glyph glyph-name="paragraph" unicode="&#xb6;" horiz-adv-x="610" 
d="M54 519q0 75 54 128q55 53 138 53h196l38 2q37 1 68 1q4 0 5 -3q-1 -3 -5 -4q-39 0 -53.5 -3t-26.5 -17q-18 -22 -18 -120v-443q0 -127 -48 -196q-53 -81 -221 -81q-46 0 -83 19q-36 18 -36 47q0 13 8.5 21.5t23.5 8.5q17 0 33 -10t23 -22q1 -1 31 -54q17 -3 31.5 -3.5
t25 3l19.5 6.5t15 11.5t10 14t7 17.5t4.5 18.5t2 20.5t0.5 20v21v9v21v330h-50q-83 0 -138 53q-54 52 -54 131zM342 690v-647v-33q2 -27 0 -33q0 -2 -0.5 -5.5t-1 -10t-0.5 -11.5q-2 -23 -5 -28q-17 -39 -25 -45q-28 -21 -55 -30q78 15 116 55q15 15 23 46q7 28 9 50
q1 13 1 61v631h-62z" />
    <glyph glyph-name="middot" unicode="&#xb7;" horiz-adv-x="232" 
d="M124 275q-24 0 -33.5 22.5t7.5 38.5q17 17 39.5 8t22.5 -33q0 -15 -10 -25.5t-26 -10.5z" />
    <glyph glyph-name="cedilla" unicode="&#xb8;" horiz-adv-x="438" 
d="M193 -198q-26 0 -49.5 11.5t-23.5 24.5q0 18 15 18q3 0 10 -4.5t18 -12t21 -12.5q19 -10 42 -10t23 16q0 27 -17.5 45.5t-63.5 29.5l50 83h8l-33 -65q85 -18 85 -60q0 -29 -24 -46.5t-61 -17.5z" />
    <glyph glyph-name="uni00B9" unicode="&#xb9;" horiz-adv-x="171" 
d="M103 455h-28q-1 0 -9 -0.5t-19.5 -1.5t-23.5 -1q-3 0 -3 3.5t3 3.5q34 0 41 19q8 21 8 81v214q-17 -10 -52 -16l-2 5q66 10 84 48h5l-1 -251q0 -60 8 -81q7 -19 41 -19q3 0 3 -3.5t-3 -3.5q-12 0 -23.5 1t-19.5 1.5t-9 0.5z" />
    <glyph glyph-name="ordmasculine" unicode="&#xba;" horiz-adv-x="300" 
d="M146 455q-60 0 -96 34.5t-36 91.5t41 96q40 40 101 40q58 0 94 -35t36 -92q0 -55 -41 -96q-41 -39 -99 -39zM156 461q37 0 62.5 30.5t25.5 80.5q0 60 -31 100q-30 40 -72 39q-37 -2 -61 -32.5t-24 -79.5q0 -56 28 -97q29 -41 72 -41zM279 414v-10h-255v10h255z" />
    <glyph glyph-name="guillemotright" unicode="&#xbb;" horiz-adv-x="506" 
d="M264 240l-214 -209l-7 8l206 201l-206 201l7 7zM460 240l-214 -209l-7 8l206 201l-206 201l7 7z" />
    <glyph glyph-name="questiondown" unicode="&#xbf;" horiz-adv-x="411" 
d="M273 507q19 0 33 -13.5t14 -33.5q0 -21 -13.5 -34t-33.5 -13q-19 0 -33 13.5t-14 33.5q0 19 13.5 33t33.5 14zM260 -218q-46 0 -95 24q-49 22 -88 75q-38 53 -38 119q0 83 39.5 122.5t121.5 39.5h57q11 0 11 34v133q0 3 5 3.5t5 -3.5v-151q0 -34 -6.5 -46t-22.5 -12h-68
q-60 0 -96 -34t-36 -86q0 -48 22 -87.5t57 -56.5q72 23 128 19q59 -5 59 -46q0 -47 -55 -47z" />
    <glyph glyph-name="Agrave" unicode="&#xc0;" 
d="M431 806l-3 -3q-134 60 -134 94q0 21 21 21q16 0 26 -13q4 -4 18.5 -23t33 -39.5t38.5 -36.5zM739 4q3 0 3 -3.5t-3 -3.5q-16 0 -32.5 0.5t-28 1.5t-13.5 1h-33l-38 -2q-37 -1 -68 -1q-4 0 -4 3q1 3 4 4q59 0 68 28.5t-25 100.5l-30 74h-171h-192l-32 -66
q-31 -63 -14.5 -100t78.5 -37q4 0 4 -3q-1 -3 -4 -4q-26 0 -78 2q-26 1 -47 1q-1 0 -13.5 -0.5t-30 -1.5t-31.5 -1q-3 0 -3 3.5t3 3.5q34 0 62 32t63 105l230 477q-12 29 -30 62q-1 1 1 3q35 15 41 27q1 1 2 0l241 -577q30 -73 55 -102q24 -27 66 -27zM181 218h186h168
q-106 263 -166 389z" />
    <glyph glyph-name="Aacute" unicode="&#xc1;" 
d="M425 897q0 -34 -134 -94l-3 3q34 28 56 57q4 5 10.5 13.5t9 12t7 9t7 8t6 5.5t6.5 4t6.5 2t7.5 1q21 0 21 -21zM739 4q3 0 3 -3.5t-3 -3.5q-16 0 -32.5 0.5t-28 1.5t-13.5 1h-33l-38 -2q-37 -1 -68 -1q-4 0 -4 3q1 3 4 4q59 0 68 28.5t-25 100.5l-30 74h-171h-192
l-32 -66q-31 -63 -14.5 -100t78.5 -37q4 0 4 -3q-1 -3 -4 -4q-26 0 -78 2q-26 1 -47 1q-1 0 -13.5 -0.5t-30 -1.5t-31.5 -1q-3 0 -3 3.5t3 3.5q34 0 62 32t63 105l230 477q-12 29 -30 62q-1 1 1 3q35 15 41 27q1 1 2 0l241 -577q30 -73 55 -102q24 -27 66 -27zM181 218h186
h168q-106 263 -166 389z" />
    <glyph glyph-name="Acircumflex" unicode="&#xc2;" 
d="M360 854q-62 -59 -124 -90l-3 3q66 60 111 128h32q45 -68 111 -128l-3 -3q-63 31 -124 90zM739 4q3 0 3 -3.5t-3 -3.5q-16 0 -32.5 0.5t-28 1.5t-13.5 1h-33l-38 -2q-37 -1 -68 -1q-4 0 -4 3q1 3 4 4q59 0 68 28.5t-25 100.5l-30 74h-171h-192l-32 -66
q-31 -63 -14.5 -100t78.5 -37q4 0 4 -3q-1 -3 -4 -4q-26 0 -78 2q-26 1 -47 1q-1 0 -13.5 -0.5t-30 -1.5t-31.5 -1q-3 0 -3 3.5t3 3.5q34 0 62 32t63 105l230 477q-12 29 -30 62q-1 1 1 3q35 15 41 27q1 1 2 0l241 -577q30 -73 55 -102q24 -27 66 -27zM181 218h186h168
q-106 263 -166 389z" />
    <glyph glyph-name="Atilde" unicode="&#xc3;" 
d="M282 836q-20 0 -30 -11.5t-17 -40.5q-1 0 -4 1l-3 1q7 30 30.5 54t49.5 24q18 0 50 -13l34 -13q27 -9 46 -9q20 0 30 11.5t17 40.5q1 -1 4 -1t3 -1q-7 -31 -29.5 -54.5t-50.5 -23.5q-17 0 -50 13l-34 13q-22 9 -46 9zM739 4q3 0 3 -3.5t-3 -3.5q-16 0 -32.5 0.5t-28 1.5
t-13.5 1h-33l-38 -2q-37 -1 -68 -1q-4 0 -4 3q1 3 4 4q59 0 68 28.5t-25 100.5l-30 74h-171h-192l-32 -66q-31 -63 -14.5 -100t78.5 -37q4 0 4 -3q-1 -3 -4 -4q-26 0 -78 2q-26 1 -47 1q-1 0 -13.5 -0.5t-30 -1.5t-31.5 -1q-3 0 -3 3.5t3 3.5q34 0 62 32t63 105l230 477
q-12 29 -30 62q-1 1 1 3q35 15 41 27q1 1 2 0l241 -577q30 -73 55 -102q24 -27 66 -27zM181 218h186h168q-106 263 -166 389z" />
    <glyph glyph-name="Adieresis" unicode="&#xc4;" 
d="M272 884q13 0 23.5 -10t10.5 -24t-10 -24t-24 -10q-20 0 -29 17t-0.5 34t29.5 17zM447 884q13 0 23.5 -10t10.5 -24t-10 -24t-24 -10q-20 0 -29 17t-0.5 34t29.5 17zM739 4q3 0 3 -3.5t-3 -3.5q-16 0 -32.5 0.5t-28 1.5t-13.5 1h-33l-38 -2q-37 -1 -68 -1q-4 0 -4 3
q1 3 4 4q59 0 68 28.5t-25 100.5l-30 74h-171h-192l-32 -66q-31 -63 -14.5 -100t78.5 -37q4 0 4 -3q-1 -3 -4 -4q-26 0 -78 2q-26 1 -47 1q-1 0 -13.5 -0.5t-30 -1.5t-31.5 -1q-3 0 -3 3.5t3 3.5q34 0 62 32t63 105l230 477q-12 29 -30 62q-1 1 1 3q35 15 41 27q1 1 2 0
l241 -577q30 -73 55 -102q24 -27 66 -27zM181 218h186h168q-106 263 -166 389z" />
    <glyph glyph-name="Aring" unicode="&#xc5;" 
d="M361 782q-30 0 -51 20t-21 49t21 49.5t51 20.5q29 0 49 -20.5t20 -49.5t-20 -49t-49 -20zM361 911q-26 0 -43.5 -17.5t-17.5 -42.5t17 -42t44 -17q26 0 42.5 17t16.5 42q0 23 -17.5 41.5t-41.5 18.5zM739 4q3 0 3 -3.5t-3 -3.5q-16 0 -32.5 0.5t-28 1.5t-13.5 1h-33
l-38 -2q-37 -1 -68 -1q-4 0 -4 3q1 3 4 4q59 0 68 28.5t-25 100.5l-30 74h-171h-192l-32 -66q-31 -63 -14.5 -100t78.5 -37q4 0 4 -3q-1 -3 -4 -4q-26 0 -78 2q-26 1 -47 1q-1 0 -13.5 -0.5t-30 -1.5t-31.5 -1q-3 0 -3 3.5t3 3.5q34 0 62 32t63 105l230 477q-12 29 -30 62
q-1 1 1 3q35 15 41 27q1 1 2 0l241 -577q30 -73 55 -102q24 -27 66 -27zM181 218h186h168q-106 263 -166 389z" />
    <glyph glyph-name="AE" unicode="&#xc6;" horiz-adv-x="1129" 
d="M1090 261q0 4 3.5 3.5t4.5 -3.5l-39 -295q-1 -4 -5 0q-12 12 -20 17q-22 17 -101 17h-324l-37 -2q-38 -1 -69 -1q-3 0 -5 3q1 3 5 4q50 0 71 11q31 16 9 127l-13 66q-23 0 -84.5 -0.5t-88.5 -0.5l-189 1v8l-51 -81q-38 -60 -24.5 -95.5t75.5 -35.5q4 0 4 -3q-1 -3 -4 -4
q-26 0 -78 2q-26 1 -47 1q-1 0 -29 -1.5t-46 -1.5q-3 0 -3 3.5t3 3.5q34 0 63.5 29.5t74.5 101.5l332 523q-11 24 -29 31t-62 7q-3 0 -5 3q1 3 5 4q31 0 69 -1l37 -2h315q42 0 64 6q8 2 13.5 4t8.5 3t6 4l4 4t3.5 6.5t3.5 6.5q3 3 5 0l92 -271q1 -3 -2.5 -3.5t-5.5 3.5
q-58 142 -114 185q-52 42 -146 42h-216l62 -323h181q43 0 62.5 22t19.5 74q0 2 1 3.5t3 0.5q3 -1 3 -4v-205q0 -2 -1 -3.5t-3 -0.5q-3 2 -3 4q0 58 -18 78t-64 20h-179l66 -346h192q67 0 102.5 9.5t62.5 38.5q27 28 44 74q14 38 35 129zM398 218q27 0 87.5 -0.5t83.5 -0.5
l-20 101l-29 151l-17 89q-13 68 -21 90l-273 -431h107q41 1 82 1z" />
    <glyph glyph-name="Ccedilla" unicode="&#xc7;" horiz-adv-x="727" 
d="M715 243q4 5 8.5 1.5t1.5 -8.5q-113 -245 -334 -245l-30 -61q85 -18 85 -60q0 -29 -24 -46.5t-61 -17.5q-26 0 -49.5 11.5t-23.5 24.5q0 18 15 18q3 0 10 -4.5t18 -12t21 -12.5q19 -10 42 -10t23 16q0 27 -17.5 45.5t-63.5 29.5l46 79q-136 3 -239 100t-103 247
q0 166 100 269t245 103q40 0 93 -11q50 -10 61 -10q23 0 40 45q2 3 5 0l82 -282q0 -4 -4 -4t-4 4q-88 247 -282 247q-113 0 -194 -91q-81 -92 -81 -242q0 -155 95 -253q94 -96 231 -96q194 0 288 226z" />
    <glyph glyph-name="Egrave" unicode="&#xc8;" horiz-adv-x="702" 
d="M402 806l-3 -3q-134 60 -134 94q0 21 21 21q16 0 26 -13q4 -4 18.5 -23t33 -39.5t38.5 -36.5zM663 261q0 3 4 3t4 -3l-66 -295q-1 -4 -5 0q-11 13 -16 17q-19 17 -98 17h-345l-37 -2q-38 -1 -69 -1q-3 0 -5 3q1 3 5 4q39 0 53.5 3t25.5 17q12 14 15.5 39t3.5 81v412
q0 56 -3.5 81t-15.5 39q-11 14 -25.5 17t-53.5 3q-3 0 -5 3q1 3 5 4q31 0 69 -1l37 -2h304q41 0 65 6q27 8 30 11l15 17q3 3 5 0l60 -271q0 -2 -1.5 -3t-3.5 0t-3 3q-44 139 -93 183t-144 44h-196v-323h179q43 0 62.5 22t19.5 74q0 2 1 3.5t3 0.5q3 -1 3 -4v-205
q0 -2 -1 -3.5t-3 -0.5q-3 2 -3 4q0 58 -18 78t-64 20h-179v-346h222q67 0 99 7q36 8 65 37q31 30 49 73q17 38 49 134z" />
    <glyph glyph-name="Eacute" unicode="&#xc9;" horiz-adv-x="702" 
d="M396 897q0 -34 -134 -94l-3 3q34 28 56 57q4 5 10.5 13.5t9 12t7 9t7 8t6 5.5t6.5 4t6.5 2t7.5 1q21 0 21 -21zM663 261q0 3 4 3t4 -3l-66 -295q-1 -4 -5 0q-11 13 -16 17q-19 17 -98 17h-345l-37 -2q-38 -1 -69 -1q-3 0 -5 3q1 3 5 4q39 0 53.5 3t25.5 17q12 14 15.5 39
t3.5 81v412q0 56 -3.5 81t-15.5 39q-11 14 -25.5 17t-53.5 3q-3 0 -5 3q1 3 5 4q31 0 69 -1l37 -2h304q41 0 65 6q27 8 30 11l15 17q3 3 5 0l60 -271q0 -2 -1.5 -3t-3.5 0t-3 3q-44 139 -93 183t-144 44h-196v-323h179q43 0 62.5 22t19.5 74q0 2 1 3.5t3 0.5q3 -1 3 -4v-205
q0 -2 -1 -3.5t-3 -0.5q-3 2 -3 4q0 58 -18 78t-64 20h-179v-346h222q67 0 99 7q36 8 65 37q31 30 49 73q17 38 49 134z" />
    <glyph glyph-name="Ecircumflex" unicode="&#xca;" horiz-adv-x="702" 
d="M331 854q-61 -59 -124 -90l-3 3q66 60 111 128h32q45 -68 111 -128l-3 -3q-63 31 -124 90zM663 261q0 3 4 3t4 -3l-66 -295q-1 -4 -5 0q-11 13 -16 17q-19 17 -98 17h-345l-37 -2q-38 -1 -69 -1q-3 0 -5 3q1 3 5 4q39 0 53.5 3t25.5 17q12 14 15.5 39t3.5 81v412
q0 56 -3.5 81t-15.5 39q-11 14 -25.5 17t-53.5 3q-3 0 -5 3q1 3 5 4q31 0 69 -1l37 -2h304q41 0 65 6q27 8 30 11l15 17q3 3 5 0l60 -271q0 -2 -1.5 -3t-3.5 0t-3 3q-44 139 -93 183t-144 44h-196v-323h179q43 0 62.5 22t19.5 74q0 2 1 3.5t3 0.5q3 -1 3 -4v-205
q0 -2 -1 -3.5t-3 -0.5q-3 2 -3 4q0 58 -18 78t-64 20h-179v-346h222q67 0 99 7q36 8 65 37q31 30 49 73q17 38 49 134z" />
    <glyph glyph-name="Edieresis" unicode="&#xcb;" horiz-adv-x="702" 
d="M243 884q13 0 23.5 -10t10.5 -24t-10 -24t-24 -10q-20 0 -29 17t-0.5 34t29.5 17zM418 884q13 0 23.5 -10t10.5 -24t-10 -24t-24 -10q-20 0 -29 17t-0.5 34t29.5 17zM663 261q0 3 4 3t4 -3l-66 -295q-1 -4 -5 0q-11 13 -16 17q-19 17 -98 17h-345l-37 -2q-38 -1 -69 -1
q-3 0 -5 3q1 3 5 4q39 0 53.5 3t25.5 17q12 14 15.5 39t3.5 81v412q0 56 -3.5 81t-15.5 39q-11 14 -25.5 17t-53.5 3q-3 0 -5 3q1 3 5 4q31 0 69 -1l37 -2h304q41 0 65 6q27 8 30 11l15 17q3 3 5 0l60 -271q0 -2 -1.5 -3t-3.5 0t-3 3q-44 139 -93 183t-144 44h-196v-323h179
q43 0 62.5 22t19.5 74q0 2 1 3.5t3 0.5q3 -1 3 -4v-205q0 -2 -1 -3.5t-3 -0.5q-3 2 -3 4q0 58 -18 78t-64 20h-179v-346h222q67 0 99 7q36 8 65 37q31 30 49 73q17 38 49 134z" />
    <glyph glyph-name="Igrave" unicode="&#xcc;" horiz-adv-x="312" 
d="M227 806l-3 -3q-134 60 -134 94q0 21 21 21q16 0 26 -13q4 -4 18.5 -23t33 -39.5t38.5 -36.5zM141 700h30l37 2q38 1 69 1q3 0 5 -3q-1 -3 -5 -4q-39 0 -53.5 -3t-26.5 -17q-18 -22 -18 -120v-412q0 -98 18 -120q12 -14 26.5 -17t53.5 -3q3 0 5 -3q-1 -3 -5 -4
q-31 0 -69 1l-37 2h-30l-37 -2q-38 -1 -69 -1q-3 0 -5 3q1 3 5 4q39 0 53.5 3t25.5 17q12 14 15.5 39t3.5 81v412q0 56 -3.5 81t-15.5 39q-11 14 -25.5 17t-53.5 3q-3 0 -5 3q1 3 5 4q31 0 69 -1z" />
    <glyph glyph-name="Iacute" unicode="&#xcd;" horiz-adv-x="312" 
d="M87 803l-3 3q34 28 56 57q4 5 10.5 13.5t9 12t7 9t7 8t6 5.5t6.5 4t6.5 2t7.5 1q21 0 21 -21q0 -34 -134 -94zM141 700h30l37 2q38 1 69 1q3 0 5 -3q-1 -3 -5 -4q-39 0 -53.5 -3t-26.5 -17q-18 -22 -18 -120v-412q0 -98 18 -120q12 -14 26.5 -17t53.5 -3q3 0 5 -3
q-1 -3 -5 -4q-31 0 -69 1l-37 2h-30l-37 -2q-38 -1 -69 -1q-3 0 -5 3q1 3 5 4q39 0 53.5 3t25.5 17q12 14 15.5 39t3.5 81v412q0 56 -3.5 81t-15.5 39q-11 14 -25.5 17t-53.5 3q-3 0 -5 3q1 3 5 4q31 0 69 -1z" />
    <glyph glyph-name="Icircumflex" unicode="&#xce;" horiz-adv-x="312" 
d="M283 767l-3 -3q-63 31 -124 90q-61 -59 -124 -90l-3 3q66 60 111 128h32q45 -68 111 -128zM141 700h30l37 2q38 1 69 1q3 0 5 -3q-1 -3 -5 -4q-39 0 -53.5 -3t-26.5 -17q-18 -22 -18 -120v-412q0 -98 18 -120q12 -14 26.5 -17t53.5 -3q3 0 5 -3q-1 -3 -5 -4q-31 0 -69 1
l-37 2h-30l-37 -2q-38 -1 -69 -1q-3 0 -5 3q1 3 5 4q39 0 53.5 3t25.5 17q12 14 15.5 39t3.5 81v412q0 56 -3.5 81t-15.5 39q-11 14 -25.5 17t-53.5 3q-3 0 -5 3q1 3 5 4q31 0 69 -1z" />
    <glyph glyph-name="Idieresis" unicode="&#xcf;" horiz-adv-x="312" 
d="M68 884q13 0 23.5 -10t10.5 -24t-10 -24t-24 -10q-20 0 -29 17t-0.5 34t29.5 17zM243 884q13 0 23.5 -10t10.5 -24t-10 -24t-24 -10q-20 0 -29 17t-0.5 34t29.5 17zM141 700h30l37 2q38 1 69 1q3 0 5 -3q-1 -3 -5 -4q-39 0 -53.5 -3t-26.5 -17q-18 -22 -18 -120v-412
q0 -98 18 -120q12 -14 26.5 -17t53.5 -3q3 0 5 -3q-1 -3 -5 -4q-31 0 -69 1l-37 2h-30l-37 -2q-38 -1 -69 -1q-3 0 -5 3q1 3 5 4q39 0 53.5 3t25.5 17q12 14 15.5 39t3.5 81v412q0 56 -3.5 81t-15.5 39q-11 14 -25.5 17t-53.5 3q-3 0 -5 3q1 3 5 4q31 0 69 -1z" />
    <glyph glyph-name="Eth" unicode="&#xd0;" horiz-adv-x="784" 
d="M141 700h173q204 0 317 -93q113 -92 113 -257t-112 -258q-113 -92 -316 -92h-175l-37 -2q-38 -1 -69 -1q-3 0 -5 3q1 3 5 4q39 0 53.5 3t25.5 17q12 14 15.5 39t3.5 81v201h-91v10h91v201q0 56 -3.5 81t-15.5 39q-11 14 -25.5 17t-53.5 3q-3 0 -5 3q1 3 5 4q31 0 69 -1z
M188 10h129q165 0 266 92t101 248t-102 248q-103 92 -269 92h-126q-8 -53 -8 -153v-182h95v-10h-95v-181q0 -103 9 -154z" />
    <glyph glyph-name="Ntilde" unicode="&#xd1;" horiz-adv-x="809" 
d="M327 836q-20 0 -30 -11.5t-17 -40.5l-3 1q-3 1 -4 1q7 30 30.5 54t49.5 24q18 0 50 -13l34 -13q27 -9 46 -9q20 0 30 11.5t17 40.5q0 -1 3 -1t4 -1q-7 -31 -29.5 -54.5t-50.5 -23.5q-17 0 -50 13l-34 13q-22 9 -46 9zM795 703q4 0 4 -3q-1 -3 -4 -4q-106 0 -106 -135
v-560q0 -3 -3 -3.5t-5 2.5l-531 624v-470q0 -150 106 -150q4 0 4 -3q-1 -3 -4 -4q-23 0 -69 2q-23 1 -42 1t-42 -1q-46 -2 -69 -2q-4 0 -4 3q1 3 4 4q106 0 106 135v388q0 68 -3.5 97.5t-15.5 46.5q-11 17 -25.5 20.5t-53.5 3.5q-3 0 -4.5 2.5t0 4.5t4.5 2q31 0 68 -2l38 -2
h-1l532 -629v475q0 150 -106 150q-4 0 -4 3q1 3 4 4q23 0 69 -2q23 -1 42 -1t42 1q46 2 69 2z" />
    <glyph glyph-name="Ograve" unicode="&#xd2;" horiz-adv-x="784" 
d="M463 806l-3 -3q-134 60 -134 94q0 21 21 21q16 0 26 -13q4 -4 18.5 -23t33 -39.5t38.5 -36.5zM392 710q160 0 256 -96t96 -256q0 -156 -105 -262q-103 -106 -257 -106t-248 96q-94 95 -94 252t103 264q103 108 249 108zM402 2q122 0 201 93q81 93 81 243q0 155 -86 258
q-86 102 -216 102q-120 0 -201 -95t-81 -245q0 -152 86 -255q86 -101 216 -101z" />
    <glyph glyph-name="Oacute" unicode="&#xd3;" horiz-adv-x="784" 
d="M323 803l-3 3q34 28 56 57q4 5 10.5 13.5t9 12t7 9t7 8t6 5.5t6.5 4t6.5 2t7.5 1q21 0 21 -21q0 -34 -134 -94zM392 710q160 0 256 -96t96 -256q0 -156 -105 -262q-103 -106 -257 -106t-248 96q-94 95 -94 252t103 264q103 108 249 108zM402 2q122 0 201 93q81 93 81 243
q0 155 -86 258q-86 102 -216 102q-120 0 -201 -95t-81 -245q0 -152 86 -255q86 -101 216 -101z" />
    <glyph glyph-name="Ocircumflex" unicode="&#xd4;" horiz-adv-x="784" 
d="M519 767l-3 -3q-63 31 -124 90q-61 -59 -124 -90l-3 3q66 60 111 128h32q45 -68 111 -128zM392 710q160 0 256 -96t96 -256q0 -156 -105 -262q-103 -106 -257 -106t-248 96q-94 95 -94 252t103 264q103 108 249 108zM402 2q122 0 201 93q81 93 81 243q0 155 -86 258
q-86 102 -216 102q-120 0 -201 -95t-81 -245q0 -152 86 -255q86 -101 216 -101z" />
    <glyph glyph-name="Otilde" unicode="&#xd5;" horiz-adv-x="784" 
d="M524 879q-7 -31 -29.5 -54.5t-50.5 -23.5q-17 0 -50 13l-34 13q-22 9 -46 9q-20 0 -30 -11.5t-17 -40.5q-1 0 -4 1l-3 1q7 30 30.5 54t49.5 24q18 0 50 -13l34 -13q27 -9 46 -9q20 0 30 11.5t17 40.5q1 -1 4 -1t3 -1zM392 710q160 0 256 -96t96 -256q0 -156 -105 -262
q-103 -106 -257 -106t-248 96q-94 95 -94 252t103 264q103 108 249 108zM402 2q122 0 201 93q81 93 81 243q0 155 -86 258q-86 102 -216 102q-120 0 -201 -95t-81 -245q0 -152 86 -255q86 -101 216 -101z" />
    <glyph glyph-name="Odieresis" unicode="&#xd6;" horiz-adv-x="784" 
d="M304 884q13 0 23.5 -10t10.5 -24t-10 -24t-24 -10q-20 0 -29 17t-0.5 34t29.5 17zM479 884q13 0 23.5 -10t10.5 -24t-10 -24t-24 -10q-20 0 -29 17t-0.5 34t29.5 17zM392 710q160 0 256 -96t96 -256q0 -156 -105 -262q-103 -106 -257 -106t-248 96q-94 95 -94 252
t103 264q103 108 249 108zM402 2q122 0 201 93q81 93 81 243q0 155 -86 258q-86 102 -216 102q-120 0 -201 -95t-81 -245q0 -152 86 -255q86 -101 216 -101z" />
    <glyph glyph-name="multiply" unicode="&#xd7;" horiz-adv-x="306" 
d="M289 432l7 -7l-136 -136l136 -136l-7 -7l-136 136l-136 -136l-7 7l136 136l-136 136l7 7l136 -136z" />
    <glyph glyph-name="Oslash" unicode="&#xd8;" horiz-adv-x="784" 
d="M669 760l-70 -106q70 -45 107.5 -121.5t37.5 -174.5q0 -156 -105 -262q-103 -106 -257 -106q-106 0 -189 49l-71 -107l-9 5l71 108q-69 45 -106.5 121t-37.5 172q0 157 103 264q103 108 249 108q112 0 198 -50l69 105zM100 358q0 -174 108 -277l360 546q-80 71 -186 71
q-120 0 -201 -95t-81 -245zM402 2q122 0 201 93q81 93 81 243q0 178 -108 281l-361 -546q80 -71 187 -71z" />
    <glyph glyph-name="Ugrave" unicode="&#xd9;" horiz-adv-x="781" 
d="M462 806l-3 -3q-134 60 -134 94q0 21 21 21q16 0 26 -13q4 -4 18.5 -23t33 -39.5t38.5 -36.5zM752 703q4 0 4 -3q-1 -3 -4 -4q-106 0 -106 -135v-236q0 -36 -1 -49q0 -15 -5 -58q-4 -38 -14 -65q-24 -77 -71 -113q-60 -49 -158 -49q-117 0 -193 72t-76 230v263
q0 56 -3.5 81t-15.5 39q-11 14 -25.5 17t-53.5 3q-4 0 -5 3q1 3 5 4q31 0 68 -1l38 -2h30l38 2q37 1 68 1q4 0 5 -3q-1 -3 -5 -4q-39 0 -53.5 -3t-26.5 -17q-18 -22 -18 -120v-235q0 -307 233 -307q122 0 176 76t54 232v178q0 195 -130 195q-3 0 -4.5 2.5t0 4.5t4.5 2
q26 0 84 -2q12 0 24 -0.5t18.5 -1t8.5 -0.5q19 0 42 1q46 2 68 2z" />
    <glyph glyph-name="Uacute" unicode="&#xda;" horiz-adv-x="781" 
d="M456 897q0 -34 -134 -94l-3 3q34 28 56 57q4 5 10.5 13.5t9 12t7 9t7 8t6 5.5t6.5 4t6.5 2t7.5 1q21 0 21 -21zM752 703q4 0 4 -3q-1 -3 -4 -4q-106 0 -106 -135v-236q0 -36 -1 -49q0 -15 -5 -58q-4 -38 -14 -65q-24 -77 -71 -113q-60 -49 -158 -49q-117 0 -193 72
t-76 230v263q0 56 -3.5 81t-15.5 39q-11 14 -25.5 17t-53.5 3q-4 0 -5 3q1 3 5 4q31 0 68 -1l38 -2h30l38 2q37 1 68 1q4 0 5 -3q-1 -3 -5 -4q-39 0 -53.5 -3t-26.5 -17q-18 -22 -18 -120v-235q0 -307 233 -307q122 0 176 76t54 232v178q0 195 -130 195q-3 0 -4.5 2.5t0 4.5
t4.5 2q26 0 84 -2q12 0 24 -0.5t18.5 -1t8.5 -0.5q19 0 42 1q46 2 68 2z" />
    <glyph glyph-name="Ucircumflex" unicode="&#xdb;" horiz-adv-x="781" 
d="M391 854q-62 -59 -124 -90l-3 3q66 60 111 128h32q45 -68 111 -128l-3 -3q-63 31 -124 90zM752 703q4 0 4 -3q-1 -3 -4 -4q-106 0 -106 -135v-236q0 -36 -1 -49q0 -15 -5 -58q-4 -38 -14 -65q-24 -77 -71 -113q-60 -49 -158 -49q-117 0 -193 72t-76 230v263q0 56 -3.5 81
t-15.5 39q-11 14 -25.5 17t-53.5 3q-4 0 -5 3q1 3 5 4q31 0 68 -1l38 -2h30l38 2q37 1 68 1q4 0 5 -3q-1 -3 -5 -4q-39 0 -53.5 -3t-26.5 -17q-18 -22 -18 -120v-235q0 -307 233 -307q122 0 176 76t54 232v178q0 195 -130 195q-3 0 -4.5 2.5t0 4.5t4.5 2q26 0 84 -2
q12 0 24 -0.5t18.5 -1t8.5 -0.5q19 0 42 1q46 2 68 2z" />
    <glyph glyph-name="Udieresis" unicode="&#xdc;" horiz-adv-x="781" 
d="M303 884q13 0 23.5 -10t10.5 -24t-10 -24t-24 -10q-20 0 -29 17t-0.5 34t29.5 17zM478 884q13 0 23.5 -10t10.5 -24t-10 -24t-24 -10q-20 0 -29 17t-0.5 34t29.5 17zM752 703q4 0 4 -3q-1 -3 -4 -4q-106 0 -106 -135v-236q0 -36 -1 -49q0 -15 -5 -58q-4 -38 -14 -65
q-24 -77 -71 -113q-60 -49 -158 -49q-117 0 -193 72t-76 230v263q0 56 -3.5 81t-15.5 39q-11 14 -25.5 17t-53.5 3q-4 0 -5 3q1 3 5 4q31 0 68 -1l38 -2h30l38 2q37 1 68 1q4 0 5 -3q-1 -3 -5 -4q-39 0 -53.5 -3t-26.5 -17q-18 -22 -18 -120v-235q0 -307 233 -307
q122 0 176 76t54 232v178q0 195 -130 195q-3 0 -4.5 2.5t0 4.5t4.5 2q26 0 84 -2q12 0 24 -0.5t18.5 -1t8.5 -0.5q19 0 42 1q46 2 68 2z" />
    <glyph glyph-name="Yacute" unicode="&#xdd;" horiz-adv-x="731" 
d="M437 897q0 -34 -134 -94l-3 3q34 28 56 57q4 5 10.5 13.5t9 12t7 9t7 8t6 5.5t6.5 4t6.5 2t7.5 1q21 0 21 -21zM722 703q3 0 3 -3.5t-3 -3.5q-40 0 -72 -31t-72 -103l-176 -316v-102q0 -57 4.5 -81.5t21.5 -38.5t37 -17t74 -3q5 0 7 -3q2 -1 -3 -3q-1 -1 -4 -1
q-44 0 -96 1l-52 2h-24l-52 -2q-52 -1 -96 -1q-5 0 -7 3q2 2 7 4q54 0 74 3t37 17t21.5 38.5t4.5 81.5v101l-190 329q-41 72 -71 96q-32 26 -85 26q-5 0 -4 4q2 3 4 3q21 0 43 -0.5t36 -1.5t17 -1h36l38 2q37 1 68 1q4 0 4 -3q-1 -3 -4 -4q-59 0 -65.5 -27t35.5 -95
l182 -312l159 286q38 68 21.5 108t-84.5 40q-4 0 -4 3q1 3 4 4q28 0 86 -2q29 -1 52 -1q2 0 16.5 1t35 1.5t36.5 0.5z" />
    <glyph glyph-name="Thorn" unicode="&#xde;" horiz-adv-x="625" 
d="M179 573h98q151 0 235 -53.5t84 -148.5t-79.5 -147.5t-223.5 -52.5h-114v-27q0 -98 18 -120q12 -14 26.5 -17t53.5 -3q3 0 5 -3q-1 -3 -5 -4q-31 0 -69 1l-37 2h-30l-37 -2q-38 -1 -69 -1q-3 0 -5 3q1 3 5 4q39 0 53.5 3t25.5 17q12 14 15.5 39t3.5 81v412q0 56 -3.5 81
t-15.5 39q-11 14 -25.5 17t-53.5 3q-3 0 -5 3q1 3 5 4q31 0 69 -1l37 -2h30l37 2q38 1 69 1q3 0 5 -3q-1 -3 -5 -4q-36 0 -50 -3t-28 -15q-20 -19 -20 -105zM179 181h97q123 0 191.5 50.5t68.5 140.5q0 88 -67 139.5t-185 51.5h-105v-7v-375z" />
    <glyph glyph-name="germandbls" unicode="&#xdf;" horiz-adv-x="639" 
d="M428 -10q-103 0 -151 48q-39 39 -39 63q0 14 10 22.5t24 8.5q39 0 45 -106l7 -4q12 -8 32 -14q27 -8 73 -8q61 0 97.5 30t36.5 79q0 43 -25 74q-26 33 -94 87l-41 33q-46 37 -60 49q-15 14 -32 36q-10 16 -10 39q0 42 73 85q30 17 51.5 46t21.5 61q0 49 -42 73
q-40 25 -92 25q-74 0 -110 -51q-15 -21 -22 -53q-12 -47 -12 -115l-1 -394q0 -62 13 -81t69 -19q4 0 4 -3q-1 -3 -4 -4q-27 0 -57 1l-30 2h-31l-30 -2q-30 -1 -57 -1q-4 0 -4 3q1 3 4 4q55 0 68 19q14 20 14 81v366h-51l-11 30h66q0 95 60 170q61 75 165 75q50 0 87 -27
q38 -26 38 -79q0 -61 -53 -108q-32 -26 -47 -37q-27 -19 -55 -35l-10 -6q10 -37 44 -68q3 -2 15 -12t34 -27.5t45 -36.5l22 -18q7 -5 26 -20q26 -19 50 -45q29 -29 39 -48q15 -28 15 -51q0 -66 -52 -102q-53 -35 -126 -35z" />
    <glyph glyph-name="agrave" unicode="&#xe0;" horiz-adv-x="592" 
d="M372 606l-3 -3q-134 60 -134 94q0 21 21 21q16 0 26 -13q4 -4 18.5 -23t33 -39.5t38.5 -36.5zM214 -9q-64 0 -102.5 32t-38.5 86q0 67 82 116q83 49 282 78v51q0 74 -43.5 108.5t-93.5 34.5q-52 0 -121 -32q-16 -75 -30 -92q-11 -15 -30 -15q-12 0 -20.5 7.5t-8.5 19.5
q0 41 70 83t147 42q172 0 172 -151v-300q0 -47 34 -47q33 0 53 29q2 2 5 -1l1 -4q-37 -46 -77 -46q-58 0 -58 73v118h-1q-23 -73 -84 -131q-62 -59 -138 -59zM233 27q66 0 120 48t84 116v102q-153 -17 -231 -60q-86 -45 -86 -109q0 -43 32.5 -70t80.5 -27z" />
    <glyph glyph-name="aacute" unicode="&#xe1;" horiz-adv-x="592" 
d="M232 603l-3 3q34 28 56 57q4 5 10.5 13.5t9 12t7 9t7 8t6 5.5t6.5 4t6.5 2t7.5 1q21 0 21 -21q0 -34 -134 -94zM214 -9q-64 0 -102.5 32t-38.5 86q0 67 82 116q83 49 282 78v51q0 74 -43.5 108.5t-93.5 34.5q-52 0 -121 -32q-16 -75 -30 -92q-11 -15 -30 -15
q-12 0 -20.5 7.5t-8.5 19.5q0 41 70 83t147 42q172 0 172 -151v-300q0 -47 34 -47q33 0 53 29q2 2 5 -1l1 -4q-37 -46 -77 -46q-58 0 -58 73v118h-1q-23 -73 -84 -131q-62 -59 -138 -59zM233 27q66 0 120 48t84 116v102q-153 -17 -231 -60q-86 -45 -86 -109q0 -43 32.5 -70
t80.5 -27z" />
    <glyph glyph-name="acircumflex" unicode="&#xe2;" horiz-adv-x="592" 
d="M428 567l-3 -3q-62 31 -124 90q-62 -59 -124 -90l-3 3q66 60 111 128h32q45 -68 111 -128zM214 -9q-64 0 -102.5 32t-38.5 86q0 67 82 116q83 49 282 78v51q0 74 -43.5 108.5t-93.5 34.5q-52 0 -121 -32q-16 -75 -30 -92q-11 -15 -30 -15q-12 0 -20.5 7.5t-8.5 19.5
q0 41 70 83t147 42q172 0 172 -151v-300q0 -47 34 -47q33 0 53 29q2 2 5 -1l1 -4q-37 -46 -77 -46q-58 0 -58 73v118h-1q-23 -73 -84 -131q-62 -59 -138 -59zM233 27q66 0 120 48t84 116v102q-153 -17 -231 -60q-86 -45 -86 -109q0 -43 32.5 -70t80.5 -27z" />
    <glyph glyph-name="atilde" unicode="&#xe3;" horiz-adv-x="592" 
d="M433 679q-7 -31 -29.5 -54.5t-50.5 -23.5q-17 0 -50 13l-34 13q-22 9 -46 9q-20 0 -30 -11.5t-17 -40.5l-3 1q-3 1 -4 1q7 30 30.5 54t49.5 24q18 0 50 -13l34 -13q27 -9 46 -9q20 0 30 11.5t17 40.5q0 -1 3 -1t4 -1zM214 -9q-64 0 -102.5 32t-38.5 86q0 67 82 116
q83 49 282 78v51q0 74 -43.5 108.5t-93.5 34.5q-52 0 -121 -32q-16 -75 -30 -92q-11 -15 -30 -15q-12 0 -20.5 7.5t-8.5 19.5q0 41 70 83t147 42q172 0 172 -151v-300q0 -47 34 -47q33 0 53 29q2 2 5 -1l1 -4q-37 -46 -77 -46q-58 0 -58 73v118h-1q-23 -73 -84 -131
q-62 -59 -138 -59zM233 27q66 0 120 48t84 116v102q-153 -17 -231 -60q-86 -45 -86 -109q0 -43 32.5 -70t80.5 -27z" />
    <glyph glyph-name="adieresis" unicode="&#xe4;" horiz-adv-x="592" 
d="M213 684q13 0 23.5 -10t10.5 -24t-10 -24t-24 -10q-20 0 -29 17t-0.5 34t29.5 17zM388 684q13 0 23.5 -10t10.5 -24t-10 -24t-24 -10q-20 0 -29 17t-0.5 34t29.5 17zM214 -9q-64 0 -102.5 32t-38.5 86q0 67 82 116q83 49 282 78v51q0 74 -43.5 108.5t-93.5 34.5
q-52 0 -121 -32q-16 -75 -30 -92q-11 -15 -30 -15q-12 0 -20.5 7.5t-8.5 19.5q0 41 70 83t147 42q172 0 172 -151v-300q0 -47 34 -47q33 0 53 29q2 2 5 -1l1 -4q-37 -46 -77 -46q-58 0 -58 73v118h-1q-23 -73 -84 -131q-62 -59 -138 -59zM233 27q66 0 120 48t84 116v102
q-153 -17 -231 -60q-86 -45 -86 -109q0 -43 32.5 -70t80.5 -27z" />
    <glyph glyph-name="aring" unicode="&#xe5;" horiz-adv-x="592" 
d="M302 582q-30 0 -51 20t-21 49t21 49.5t51 20.5q29 0 49 -20.5t20 -49.5t-20.5 -49t-48.5 -20zM302 711q-26 0 -43.5 -17.5t-17.5 -42.5t17.5 -42t43.5 -17t42.5 17t16.5 42q0 23 -17.5 41.5t-41.5 18.5zM214 -9q-64 0 -102.5 32t-38.5 86q0 67 82 116q83 49 282 78v51
q0 74 -43.5 108.5t-93.5 34.5q-52 0 -121 -32q-16 -75 -30 -92q-11 -15 -30 -15q-12 0 -20.5 7.5t-8.5 19.5q0 41 70 83t147 42q172 0 172 -151v-300q0 -47 34 -47q33 0 53 29q2 2 5 -1l1 -4q-37 -46 -77 -46q-58 0 -58 73v118h-1q-23 -73 -84 -131q-62 -59 -138 -59z
M233 27q66 0 120 48t84 116v102q-153 -17 -231 -60q-86 -45 -86 -109q0 -43 32.5 -70t80.5 -27z" />
    <glyph glyph-name="ae" unicode="&#xe6;" horiz-adv-x="977" 
d="M956 220q4 3 8.5 1.5t2.5 -6.5q-101 -224 -278 -224q-85 0 -145.5 47t-82.5 126q-34 -65 -106 -120q-71 -53 -145 -53q-62 0 -99.5 35.5t-37.5 90.5q0 57 37 99q24 26 63 42q94 41 278 35v91q0 55 -44 84t-93 29q-52 0 -121 -32q-16 -75 -30 -92q-11 -15 -30 -15
q-12 0 -20.5 7.5t-8.5 19.5q0 41 70 83t147 42q162 0 171 -124q36 57 94.5 90.5t123.5 33.5q84 0 142 -52q60 -51 60 -116q0 -16 -4 -33h-409q-1 -6 -1 -27q0 -108 57 -183q59 -74 162 -74q167 0 239 195zM701 499q-59 0 -124 -48q-62 -46 -76 -132h318q37 0 37 42
q0 55 -38 96q-38 42 -117 42zM249 21q55 0 114 45q60 48 95 110q-7 35 -7 68v39q-172 4 -256 -35q-33 -14 -49 -39q-11 -16 -16 -29t-5.5 -20t-0.5 -25q0 -54 36 -84t89 -30z" />
    <glyph glyph-name="ccedilla" unicode="&#xe7;" horiz-adv-x="551" 
d="M535 220q3 4 7.5 1.5t3.5 -6.5q-44 -103 -113 -163t-156 -61l-30 -61q85 -18 85 -60q0 -29 -24 -46.5t-61 -17.5q-26 0 -49.5 11.5t-23.5 24.5q0 18 15 18q3 0 10 -4.5t18 -12t21 -12.5q19 -10 42 -10t23 16q0 27 -17.5 45.5t-63.5 29.5l46 79q-109 1 -174 73
q-64 70 -64 179q0 113 81 190q82 77 188 77q68 0 124 -35q55 -34 55 -73q0 -13 -8.5 -21t-22.5 -8q-44 0 -61 110q-36 17 -90 17q-94 0 -157 -65q-62 -65 -62 -158q0 -108 60 -180q61 -72 159 -72q167 0 239 195z" />
    <glyph glyph-name="egrave" unicode="&#xe8;" horiz-adv-x="556" 
d="M357 606l-3 -3q-134 60 -134 94q0 21 21 21q16 0 26 -13q4 -4 18.5 -23t33 -39.5t38.5 -36.5zM535 220q4 3 8.5 1.5t2.5 -6.5q-101 -224 -278 -224q-107 0 -173 72q-65 74 -65 181q0 111 80 188q80 78 189 78q79 0 135 -49q57 -49 57 -119q0 -16 -4 -33h-409
q-1 -6 -1 -27q0 -108 57 -183q59 -74 162 -74q167 0 239 195zM290 499q-40 0 -84 -18q-45 -19 -81 -62.5t-45 -99.5h318q37 0 37 42q0 63 -36.5 100.5t-108.5 37.5z" />
    <glyph glyph-name="eacute" unicode="&#xe9;" horiz-adv-x="556" 
d="M351 697q0 -34 -134 -94l-3 3q34 28 56 57q4 5 10.5 13.5t9 12t7 9t7 8t6 5.5t6.5 4t6.5 2t7.5 1q21 0 21 -21zM535 220q4 3 8.5 1.5t2.5 -6.5q-101 -224 -278 -224q-107 0 -173 72q-65 74 -65 181q0 111 80 188q80 78 189 78q79 0 135 -49q57 -49 57 -119q0 -16 -4 -33
h-409q-1 -6 -1 -27q0 -108 57 -183q59 -74 162 -74q167 0 239 195zM290 499q-40 0 -84 -18q-45 -19 -81 -62.5t-45 -99.5h318q37 0 37 42q0 63 -36.5 100.5t-108.5 37.5z" />
    <glyph glyph-name="ecircumflex" unicode="&#xea;" horiz-adv-x="556" 
d="M286 654q-62 -59 -124 -90l-3 3q66 60 111 128h32q45 -68 111 -128l-3 -3q-63 31 -124 90zM535 220q4 3 8.5 1.5t2.5 -6.5q-101 -224 -278 -224q-107 0 -173 72q-65 74 -65 181q0 111 80 188q80 78 189 78q79 0 135 -49q57 -49 57 -119q0 -16 -4 -33h-409q-1 -6 -1 -27
q0 -108 57 -183q59 -74 162 -74q167 0 239 195zM290 499q-40 0 -84 -18q-45 -19 -81 -62.5t-45 -99.5h318q37 0 37 42q0 63 -36.5 100.5t-108.5 37.5z" />
    <glyph glyph-name="edieresis" unicode="&#xeb;" horiz-adv-x="556" 
d="M198 684q13 0 23.5 -10t10.5 -24t-10 -24t-24 -10q-20 0 -29 17t-0.5 34t29.5 17zM373 684q13 0 23.5 -10t10.5 -24t-10 -24t-24 -10q-20 0 -29 17t-0.5 34t29.5 17zM535 220q4 3 8.5 1.5t2.5 -6.5q-101 -224 -278 -224q-107 0 -173 72q-65 74 -65 181q0 111 80 188
q80 78 189 78q79 0 135 -49q57 -49 57 -119q0 -16 -4 -33h-409q-1 -6 -1 -27q0 -108 57 -183q59 -74 162 -74q167 0 239 195zM290 499q-40 0 -84 -18q-45 -19 -81 -62.5t-45 -99.5h318q37 0 37 42q0 63 -36.5 100.5t-108.5 37.5z" />
    <glyph glyph-name="igrave" unicode="&#xec;" horiz-adv-x="254" 
d="M192 606l-3 -3q-134 60 -134 94q0 21 21 21q16 0 26 -13q4 -4 18.5 -23t33 -39.5t38.5 -36.5zM143 0h-32l-30 -2q-30 -1 -57 -1q-4 0 -4 3q1 3 4 4q55 0 68 19q14 20 14 81v264q0 65 -14 79t-55 14q-2 1 -1 5l2 1q35 7 51 15l18 8l19 11l15 9q7 1 7 -3v-403q0 -62 13 -81
t69 -19q4 0 4 -3q-1 -3 -4 -4q-27 0 -57 1z" />
    <glyph glyph-name="iacute" unicode="&#xed;" horiz-adv-x="254" 
d="M52 603l-3 3q34 28 56 57q4 5 10.5 13.5t9 12t7 9t7 8t6 5.5t6.5 4t6.5 2t7.5 1q21 0 21 -21q0 -34 -134 -94zM143 0h-32l-30 -2q-30 -1 -57 -1q-4 0 -4 3q1 3 4 4q55 0 68 19q14 20 14 81v264q0 65 -14 79t-55 14q-2 1 -1 5l2 1q35 7 51 15l18 8l19 11l15 9q7 1 7 -3
v-403q0 -62 13 -81t69 -19q4 0 4 -3q-1 -3 -4 -4q-27 0 -57 1z" />
    <glyph glyph-name="icircumflex" unicode="&#xee;" horiz-adv-x="254" 
d="M248 567l-3 -3q-62 31 -124 90q-62 -59 -124 -90l-3 3q66 60 111 128h32q45 -68 111 -128zM143 0h-32l-30 -2q-30 -1 -57 -1q-4 0 -4 3q1 3 4 4q55 0 68 19q14 20 14 81v264q0 65 -14 79t-55 14q-2 1 -1 5l2 1q35 7 51 15l18 8l19 11l15 9q7 1 7 -3v-403q0 -62 13 -81
t69 -19q4 0 4 -3q-1 -3 -4 -4q-27 0 -57 1z" />
    <glyph glyph-name="idieresis" unicode="&#xef;" horiz-adv-x="254" 
d="M33 684q13 0 23.5 -10t10.5 -24t-10 -24t-24 -10q-20 0 -29 17t-0.5 34t29.5 17zM208 684q13 0 23.5 -10t10.5 -24t-10 -24t-24 -10q-20 0 -29 17t-0.5 34t29.5 17zM143 0h-32l-30 -2q-30 -1 -57 -1q-4 0 -4 3q1 3 4 4q55 0 68 19q14 20 14 81v264q0 65 -14 79t-55 14
q-2 1 -1 5l2 1q35 7 51 15l18 8l19 11l15 9q7 1 7 -3v-403q0 -62 13 -81t69 -19q4 0 4 -3q-1 -3 -4 -4q-27 0 -57 1z" />
    <glyph glyph-name="eth" unicode="&#xf0;" horiz-adv-x="569" 
d="M406 745l-74 -62q95 -77 153 -191q59 -116 59 -231q0 -113 -78 -193q-76 -78 -190 -78q-113 0 -183 68q-68 70 -68 183t78 191t192 78q37 0 72 -11t43 -16q5 -3 35 -24q-50 122 -133 207l-84 -70l-7 7l84 70q-47 45 -91 68q-2 1 -2 3t2 3.5t3 1.5q56 -22 107 -60l75 63z
M292 2q77 0 138 64t61 173q0 69 -20 143q-30 37 -38 45q-14 15 -38 34q-44 37 -130 37q-74 -5 -130 -68q-57 -64 -57 -169q0 -111 59 -185q60 -74 155 -74z" />
    <glyph glyph-name="ntilde" unicode="&#xf1;" horiz-adv-x="625" 
d="M443 679q-7 -31 -29.5 -54.5t-50.5 -23.5q-17 0 -50 13l-34 13q-22 9 -46 9q-20 0 -30 -11.5t-17 -40.5l-3 1q-3 1 -4 1q7 30 30.5 54t49.5 24q18 0 50 -13l34 -13q27 -9 46 -9q20 0 30 11.5t17 40.5q0 -1 3 -1t4 -1zM143 0h-32l-30 -2q-30 -1 -57 -1q-4 0 -4 3q1 3 4 4
q55 0 68 19q14 20 14 81v239q0 66 -13.5 92t-53.5 26q-2 1 -2 3t2 3q39 10 78 43q3 3 6 0q24 -36 24 -140h1q44 58 108 99q67 41 118 41q84 0 117 -49.5t33 -163.5v-193q0 -62 13 -81t69 -19q4 0 4 -3q-1 -3 -4 -4q-27 0 -57 1l-30 2h-32l-30 -2q-30 -1 -57 -1q-4 0 -4 3
q1 3 4 4q55 0 68 19q14 20 14 81v190q0 108 -31 146q-31 39 -93 39q-112 0 -210 -120v-255q0 -62 13 -81t69 -19q4 0 4 -3q-1 -3 -4 -4q-27 0 -57 1z" />
    <glyph glyph-name="ograve" unicode="&#xf2;" horiz-adv-x="579" 
d="M361 606l-3 -3q-134 60 -134 94q0 21 21 21q16 0 26 -13q4 -4 18.5 -23t33 -39.5t38.5 -36.5zM281 -10q-113 0 -183 68q-68 70 -68 183t78 191t192 78q113 0 181 -68t68 -181t-78 -193q-77 -78 -190 -78zM297 2q77 0 138 64t61 173q0 114 -63 189q-63 74 -163 70
q-74 -5 -130 -68q-57 -64 -57 -169q0 -111 59 -185q60 -74 155 -74z" />
    <glyph glyph-name="oacute" unicode="&#xf3;" horiz-adv-x="579" 
d="M221 603l-3 3q34 28 56 57q4 5 10.5 13.5t9 12t7 9t7 8t6 5.5t6.5 4t6.5 2t7.5 1q21 0 21 -21q0 -34 -134 -94zM281 -10q-113 0 -183 68q-68 70 -68 183t78 191t192 78q113 0 181 -68t68 -181t-78 -193q-77 -78 -190 -78zM297 2q77 0 138 64t61 173q0 114 -63 189
q-63 74 -163 70q-74 -5 -130 -68q-57 -64 -57 -169q0 -111 59 -185q60 -74 155 -74z" />
    <glyph glyph-name="ocircumflex" unicode="&#xf4;" horiz-adv-x="579" 
d="M417 567l-3 -3q-63 31 -124 90q-61 -59 -124 -90l-3 3q66 60 111 128h32q45 -68 111 -128zM281 -10q-113 0 -183 68q-68 70 -68 183t78 191t192 78q113 0 181 -68t68 -181t-78 -193q-77 -78 -190 -78zM297 2q77 0 138 64t61 173q0 114 -63 189q-63 74 -163 70
q-74 -5 -130 -68q-57 -64 -57 -169q0 -111 59 -185q60 -74 155 -74z" />
    <glyph glyph-name="otilde" unicode="&#xf5;" horiz-adv-x="579" 
d="M422 679q-7 -31 -29.5 -54.5t-50.5 -23.5q-17 0 -50 13l-34 13q-22 9 -46 9q-20 0 -30 -11.5t-17 -40.5q-1 0 -4 1l-3 1q7 30 30.5 54t49.5 24q18 0 50 -13l34 -13q27 -9 46 -9q20 0 30 11.5t17 40.5q1 -1 4 -1t3 -1zM281 -10q-113 0 -183 68q-68 70 -68 183t78 191
t192 78q113 0 181 -68t68 -181t-78 -193q-77 -78 -190 -78zM297 2q77 0 138 64t61 173q0 114 -63 189q-63 74 -163 70q-74 -5 -130 -68q-57 -64 -57 -169q0 -111 59 -185q60 -74 155 -74z" />
    <glyph glyph-name="odieresis" unicode="&#xf6;" horiz-adv-x="579" 
d="M202 684q13 0 23.5 -10t10.5 -24t-10 -24t-24 -10q-20 0 -29 17t-0.5 34t29.5 17zM377 684q13 0 23.5 -10t10.5 -24t-10 -24t-24 -10q-20 0 -29 17t-0.5 34t29.5 17zM281 -10q-113 0 -183 68q-68 70 -68 183t78 191t192 78q113 0 181 -68t68 -181t-78 -193
q-77 -78 -190 -78zM297 2q77 0 138 64t61 173q0 114 -63 189q-63 74 -163 70q-74 -5 -130 -68q-57 -64 -57 -169q0 -111 59 -185q60 -74 155 -74z" />
    <glyph glyph-name="divide" unicode="&#xf7;" horiz-adv-x="386" 
d="M194 364q-16 0 -28.5 12t-12.5 29q0 19 11.5 30.5t29.5 11.5q16 0 28.5 -12t12.5 -30q0 -17 -11.5 -29t-29.5 -12zM376 268h-366v10h366v-10zM194 90q-16 0 -28.5 12t-12.5 29q0 19 11.5 30.5t29.5 11.5q16 0 28.5 -12t12.5 -30q0 -17 -11.5 -29t-29.5 -12z" />
    <glyph glyph-name="oslash" unicode="&#xf8;" horiz-adv-x="579" 
d="M515 547l-58 -84q92 -68 92 -202q0 -113 -78 -193q-77 -78 -190 -78q-73 0 -130 30l-53 -76l-9 5l53 76q-112 66 -112 216q0 113 78 191t192 78q84 0 148 -41l57 83zM83 261q0 -133 79 -206l263 382q-62 65 -155 61q-74 -5 -130 -68q-57 -64 -57 -169zM297 2q77 0 138 64
t61 173q0 115 -63 189l-263 -380q53 -46 127 -46z" />
    <glyph glyph-name="ugrave" unicode="&#xf9;" horiz-adv-x="615" 
d="M372 606l-3 -3q-134 60 -134 94q0 21 21 21q16 0 26 -13q4 -4 18.5 -23t33 -39.5t38.5 -36.5zM506 508v-351q0 -65 13.5 -91.5t53.5 -26.5q2 -1 2 -3t-2 -3q-36 -11 -90 -43q-5 -3 -6 0q-11 71 -11 140h-1q-44 -60 -110 -100q-65 -40 -118 -40q-89 0 -120 55
q-32 56 -32 158v156q0 57 -9 79q-10 27 -59 23q-2 1 -2 3t2 3q42 6 105 43q5 2 5 -2v-302q0 -102 30 -143.5t96 -41.5q113 0 211 120v219q0 62 -12 84q-10 22 -57 17q-2 1 -2 3t2 3q37 4 105 43q6 2 6 -2z" />
    <glyph glyph-name="uacute" unicode="&#xfa;" horiz-adv-x="615" 
d="M232 603l-3 3q34 28 56 57q4 5 10.5 13.5t9 12t7 9t7 8t6 5.5t6.5 4t6.5 2t7.5 1q21 0 21 -21q0 -34 -134 -94zM506 508v-351q0 -65 13.5 -91.5t53.5 -26.5q2 -1 2 -3t-2 -3q-36 -11 -90 -43q-5 -3 -6 0q-11 71 -11 140h-1q-44 -60 -110 -100q-65 -40 -118 -40
q-89 0 -120 55q-32 56 -32 158v156q0 57 -9 79q-10 27 -59 23q-2 1 -2 3t2 3q42 6 105 43q5 2 5 -2v-302q0 -102 30 -143.5t96 -41.5q113 0 211 120v219q0 62 -12 84q-10 22 -57 17q-2 1 -2 3t2 3q37 4 105 43q6 2 6 -2z" />
    <glyph glyph-name="ucircumflex" unicode="&#xfb;" horiz-adv-x="615" 
d="M428 567l-3 -3q-62 31 -124 90q-62 -59 -124 -90l-3 3q66 60 111 128h32q45 -68 111 -128zM506 508v-351q0 -65 13.5 -91.5t53.5 -26.5q2 -1 2 -3t-2 -3q-36 -11 -90 -43q-5 -3 -6 0q-11 71 -11 140h-1q-44 -60 -110 -100q-65 -40 -118 -40q-89 0 -120 55q-32 56 -32 158
v156q0 57 -9 79q-10 27 -59 23q-2 1 -2 3t2 3q42 6 105 43q5 2 5 -2v-302q0 -102 30 -143.5t96 -41.5q113 0 211 120v219q0 62 -12 84q-10 22 -57 17q-2 1 -2 3t2 3q37 4 105 43q6 2 6 -2z" />
    <glyph glyph-name="udieresis" unicode="&#xfc;" horiz-adv-x="615" 
d="M213 684q13 0 23.5 -10t10.5 -24t-10 -24t-24 -10q-20 0 -29 17t-0.5 34t29.5 17zM388 684q13 0 23.5 -10t10.5 -24t-10 -24t-24 -10q-20 0 -29 17t-0.5 34t29.5 17zM506 508v-351q0 -65 13.5 -91.5t53.5 -26.5q2 -1 2 -3t-2 -3q-36 -11 -90 -43q-5 -3 -6 0
q-11 71 -11 140h-1q-44 -60 -110 -100q-65 -40 -118 -40q-89 0 -120 55q-32 56 -32 158v156q0 57 -9 79q-10 27 -59 23q-2 1 -2 3t2 3q42 6 105 43q5 2 5 -2v-302q0 -102 30 -143.5t96 -41.5q113 0 211 120v219q0 62 -12 84q-10 22 -57 17q-2 1 -2 3t2 3q37 4 105 43
q6 2 6 -2z" />
    <glyph glyph-name="yacute" unicode="&#xfd;" horiz-adv-x="581" 
d="M359 697q0 -34 -134 -94l-3 3q34 28 56 57q4 5 10.5 13.5t9 12t7 9t7 8t6 5.5t6.5 4t6.5 2t7.5 1q21 0 21 -21zM584 503q2 0 2 -3.5t-2 -3.5q-35 0 -65 -33.5t-61 -104.5l-163 -368q-38 -95 -83 -143t-108 -48q-38 0 -67 16q-30 17 -30 36q0 12 8.5 21t23.5 9
q25 0 46 -25q22 -24 31 -48q47 0 91 48.5t77 133.5l2 5l-161 372q-33 77 -57 102q-24 27 -66 27q-3 0 -3 3.5t3 3.5q16 0 32.5 -0.5t28 -1.5t13.5 -1h29l37 2q38 1 69 1q4 0 4 -3q-1 -3 -4 -4q-61 -3 -68.5 -29t25.5 -99l143 -318l135 308q30 64 13.5 101t-76.5 37
q-4 0 -4 3q1 3 4 4q26 0 78 -2q26 -1 47 -1l28 2q29 1 48 1z" />
    <glyph glyph-name="thorn" unicode="&#xfe;" horiz-adv-x="620" 
d="M331 -10q-58 0 -107.5 20.5t-75.5 51.5v-208q0 -62 18 -81t89 -19q3 0 5 -3q-1 -3 -5 -4q-26 0 -52 0.5t-42 1.5t-19 1h-31l-30 -2q-30 -1 -57 -1q-4 0 -4 3q1 3 4 4q55 0 68 19q14 20 14 81v766q0 42 -18 57t-61 4q-3 0 -3 2.5t3 2.5q62 23 115 59q6 6 6 -3v-364l-3 -12
h2q40 50 61 72q28 28 75.5 49.5t100.5 21.5q72 0 135 -51q33 -25 52 -71.5t19 -104.5q0 -124 -83 -209q-83 -83 -176 -83zM338 9q98 0 147.5 63.5t49.5 179.5q0 113 -55 172q-54 61 -137 61q-41 0 -81 -24q-38 -23 -61 -47q-29 -31 -53 -62v-219q25 -48 79 -87
q52 -37 111 -37z" />
    <glyph glyph-name="ydieresis" unicode="&#xff;" horiz-adv-x="581" 
d="M206 684q13 0 23.5 -10t10.5 -24t-10 -24t-24 -10q-20 0 -29 17t-0.5 34t29.5 17zM381 684q13 0 23.5 -10t10.5 -24t-10 -24t-24 -10q-20 0 -29 17t-0.5 34t29.5 17zM584 503q2 0 2 -3.5t-2 -3.5q-35 0 -65 -33.5t-61 -104.5l-163 -368q-38 -95 -83 -143t-108 -48
q-38 0 -67 16q-30 17 -30 36q0 12 8.5 21t23.5 9q25 0 46 -25q22 -24 31 -48q47 0 91 48.5t77 133.5l2 5l-161 372q-33 77 -57 102q-24 27 -66 27q-3 0 -3 3.5t3 3.5q16 0 32.5 -0.5t28 -1.5t13.5 -1h29l37 2q38 1 69 1q4 0 4 -3q-1 -3 -4 -4q-61 -3 -68.5 -29t25.5 -99
l143 -318l135 308q30 64 13.5 101t-76.5 37q-4 0 -4 3q1 3 4 4q26 0 78 -2q26 -1 47 -1l28 2q29 1 48 1z" />
    <glyph glyph-name="Amacron" unicode="&#x100;" 
d="M232 852h255v-10h-255v10zM739 4q3 0 3 -3.5t-3 -3.5q-16 0 -32.5 0.5t-28 1.5t-13.5 1h-33l-38 -2q-37 -1 -68 -1q-4 0 -4 3q1 3 4 4q59 0 68 28.5t-25 100.5l-30 74h-171h-192l-32 -66q-31 -63 -14.5 -100t78.5 -37q4 0 4 -3q-1 -3 -4 -4q-26 0 -78 2q-26 1 -47 1
q-1 0 -13.5 -0.5t-30 -1.5t-31.5 -1q-3 0 -3 3.5t3 3.5q34 0 62 32t63 105l230 477q-12 29 -30 62q-1 1 1 3q35 15 41 27q1 1 2 0l241 -577q30 -73 55 -102q24 -27 66 -27zM181 218h186h168q-106 263 -166 389z" />
    <glyph glyph-name="amacron" unicode="&#x101;" horiz-adv-x="592" 
d="M428 652v-10h-255v10h255zM214 -9q-64 0 -102.5 32t-38.5 86q0 67 82 116q83 49 282 78v51q0 74 -43.5 108.5t-93.5 34.5q-52 0 -121 -32q-16 -75 -30 -92q-11 -15 -30 -15q-12 0 -20.5 7.5t-8.5 19.5q0 41 70 83t147 42q172 0 172 -151v-300q0 -47 34 -47q33 0 53 29
q2 2 5 -1l1 -4q-37 -46 -77 -46q-58 0 -58 73v118h-1q-23 -73 -84 -131q-62 -59 -138 -59zM233 27q66 0 120 48t84 116v102q-153 -17 -231 -60q-86 -45 -86 -109q0 -43 32.5 -70t80.5 -27z" />
    <glyph glyph-name="Abreve" unicode="&#x102;" 
d="M237 907l4 1q28 -81 119 -81q90 0 119 81l4 -1q-2 -52 -40 -81.5t-83 -29.5t-83 29.5t-40 81.5zM739 4q3 0 3 -3.5t-3 -3.5q-16 0 -32.5 0.5t-28 1.5t-13.5 1h-33l-38 -2q-37 -1 -68 -1q-4 0 -4 3q1 3 4 4q59 0 68 28.5t-25 100.5l-30 74h-171h-192l-32 -66
q-31 -63 -14.5 -100t78.5 -37q4 0 4 -3q-1 -3 -4 -4q-26 0 -78 2q-26 1 -47 1q-1 0 -13.5 -0.5t-30 -1.5t-31.5 -1q-3 0 -3 3.5t3 3.5q34 0 62 32t63 105l230 477q-12 29 -30 62q-1 1 1 3q35 15 41 27q1 1 2 0l241 -577q30 -73 55 -102q24 -27 66 -27zM181 218h186h168
q-106 263 -166 389z" />
    <glyph glyph-name="abreve" unicode="&#x103;" horiz-adv-x="592" 
d="M178 707l4 1q29 -81 119 -81q91 0 119 81l4 -1q-2 -52 -40 -81.5t-83 -29.5t-83 29.5t-40 81.5zM214 -9q-64 0 -102.5 32t-38.5 86q0 67 82 116q83 49 282 78v51q0 74 -43.5 108.5t-93.5 34.5q-52 0 -121 -32q-16 -75 -30 -92q-11 -15 -30 -15q-12 0 -20.5 7.5t-8.5 19.5
q0 41 70 83t147 42q172 0 172 -151v-300q0 -47 34 -47q33 0 53 29q2 2 5 -1l1 -4q-37 -46 -77 -46q-58 0 -58 73v118h-1q-23 -73 -84 -131q-62 -59 -138 -59zM233 27q66 0 120 48t84 116v102q-153 -17 -231 -60q-86 -45 -86 -109q0 -43 32.5 -70t80.5 -27z" />
    <glyph glyph-name="Aogonek" unicode="&#x104;" 
d="M739 4q3 0 3 -3.5t-3 -3.5q-24 0 -66 3q-53 -46 -53 -92q0 -51 48 -51q32 0 60 23l4 -4q-41 -41 -76 -41q-28 0 -44.5 15.5t-16.5 44.5q0 51 70 105h-33l-38 -2q-37 -1 -68 -1q-4 0 -4 3q1 3 4 4q59 0 68 28.5t-25 100.5l-30 74h-171h-192l-32 -66q-31 -63 -14.5 -100
t78.5 -37q4 0 4 -3q-1 -3 -4 -4q-26 0 -78 2q-26 1 -47 1q-1 0 -13.5 -0.5t-30 -1.5t-31.5 -1q-3 0 -3 3.5t3 3.5q34 0 62 32t63 105l230 477q-12 29 -30 62q-1 1 1 3q35 15 41 27q1 1 2 0l241 -577q30 -73 55 -102q24 -27 66 -27zM181 218h186h168q-106 263 -166 389z" />
    <glyph glyph-name="aogonek" unicode="&#x105;" horiz-adv-x="592" 
d="M593 -114l4 -4q-41 -41 -76 -41q-28 0 -44.5 15.5t-16.5 44.5q0 46 54 92q-9 -3 -19 -3q-58 0 -58 73v118h-1q-23 -73 -84 -131q-62 -59 -138 -59q-64 0 -102.5 32t-38.5 86q0 67 82 116q83 49 282 78v51q0 74 -43.5 108.5t-93.5 34.5q-52 0 -121 -32q-16 -75 -30 -92
q-11 -15 -30 -15q-12 0 -20.5 7.5t-8.5 19.5q0 41 70 83t147 42q172 0 172 -151v-300q0 -47 34 -47q33 0 53 29q2 2 5 -1l1 -4q-21 -25 -41 -36q-46 -42 -46 -86q0 -51 48 -51q32 0 60 23zM437 191v102q-153 -17 -231 -60q-86 -45 -86 -109q0 -43 32.5 -70t80.5 -27
q66 0 120 48t84 116z" />
    <glyph glyph-name="Cacute" unicode="&#x106;" horiz-adv-x="727" 
d="M339 803l-3 3q34 28 56 57q4 5 10.5 13.5t9 12t7 9t7 8t6 5.5t6.5 4t6.5 2t7.5 1q21 0 21 -21q0 -34 -134 -94zM390 -9q-138 0 -244 97t-106 250q0 166 100 269t245 103q40 0 93 -11q50 -10 61 -10q23 0 40 45q2 3 5 0l82 -282q0 -4 -4 -4t-4 4q-88 247 -282 247
q-113 0 -194 -91q-81 -92 -81 -242q0 -155 95 -253q94 -96 231 -96q194 0 288 226q4 5 8.5 1.5t1.5 -8.5q-113 -245 -335 -245z" />
    <glyph glyph-name="cacute" unicode="&#x107;" horiz-adv-x="551" 
d="M231 603l-3 3q34 28 56 57q4 5 10.5 13.5t9 12t7 9t7 8t6 5.5t6.5 4t6.5 2t7.5 1q21 0 21 -21q0 -34 -134 -94zM273 -9q-111 0 -177 71q-66 72 -66 181q0 113 81 190q82 77 188 77q68 0 124 -35q55 -34 55 -73q0 -13 -8.5 -21t-22.5 -8q-44 0 -61 110q-36 17 -90 17
q-94 0 -157 -65q-62 -65 -62 -158q0 -108 60 -180q61 -72 159 -72q167 0 239 195q3 4 7.5 1.5t3.5 -6.5q-43 -103 -114 -163.5t-159 -60.5z" />
    <glyph glyph-name="Ccircumflex" unicode="&#x108;" horiz-adv-x="727" 
d="M535 767l-3 -3q-62 31 -124 90q-61 -59 -124 -90l-3 3q66 60 111 128h32q45 -68 111 -128zM390 -9q-138 0 -244 97t-106 250q0 166 100 269t245 103q40 0 93 -11q50 -10 61 -10q23 0 40 45q2 3 5 0l82 -282q0 -4 -4 -4t-4 4q-88 247 -282 247q-113 0 -194 -91
q-81 -92 -81 -242q0 -155 95 -253q94 -96 231 -96q194 0 288 226q4 5 8.5 1.5t1.5 -8.5q-113 -245 -335 -245z" />
    <glyph glyph-name="ccircumflex" unicode="&#x109;" horiz-adv-x="551" 
d="M427 567l-3 -3q-62 31 -124 90q-61 -59 -124 -90l-3 3q66 60 111 128h32q45 -68 111 -128zM273 -9q-111 0 -177 71q-66 72 -66 181q0 113 81 190q82 77 188 77q68 0 124 -35q55 -34 55 -73q0 -13 -8.5 -21t-22.5 -8q-44 0 -61 110q-36 17 -90 17q-94 0 -157 -65
q-62 -65 -62 -158q0 -108 60 -180q61 -72 159 -72q167 0 239 195q3 4 7.5 1.5t3.5 -6.5q-43 -103 -114 -163.5t-159 -60.5z" />
    <glyph glyph-name="Cdotaccent" unicode="&#x10a;" horiz-adv-x="727" 
d="M408 814q-24 0 -33.5 22t7.5 39t39.5 8t22.5 -33q0 -15 -10 -25.5t-26 -10.5zM390 -9q-138 0 -244 97t-106 250q0 166 100 269t245 103q40 0 93 -11q50 -10 61 -10q23 0 40 45q2 3 5 0l82 -282q0 -4 -4 -4t-4 4q-88 247 -282 247q-113 0 -194 -91q-81 -92 -81 -242
q0 -155 95 -253q94 -96 231 -96q194 0 288 226q4 5 8.5 1.5t1.5 -8.5q-113 -245 -335 -245z" />
    <glyph glyph-name="cdotaccent" unicode="&#x10b;" horiz-adv-x="551" 
d="M300 614q-24 0 -33.5 22t7.5 39t39.5 8t22.5 -33q0 -15 -10 -25.5t-26 -10.5zM273 -9q-111 0 -177 71q-66 72 -66 181q0 113 81 190q82 77 188 77q68 0 124 -35q55 -34 55 -73q0 -13 -8.5 -21t-22.5 -8q-44 0 -61 110q-36 17 -90 17q-94 0 -157 -65q-62 -65 -62 -158
q0 -108 60 -180q61 -72 159 -72q167 0 239 195q3 4 7.5 1.5t3.5 -6.5q-43 -103 -114 -163.5t-159 -60.5z" />
    <glyph glyph-name="Ccaron" unicode="&#x10c;" horiz-adv-x="727" 
d="M532 925l3 -3q-66 -60 -111 -128h-32q-45 68 -111 128l3 3q63 -31 124 -90q62 59 124 90zM390 -9q-138 0 -244 97t-106 250q0 166 100 269t245 103q40 0 93 -11q50 -10 61 -10q23 0 40 45q2 3 5 0l82 -282q0 -4 -4 -4t-4 4q-88 247 -282 247q-113 0 -194 -91
q-81 -92 -81 -242q0 -155 95 -253q94 -96 231 -96q194 0 288 226q4 5 8.5 1.5t1.5 -8.5q-113 -245 -335 -245z" />
    <glyph glyph-name="ccaron" unicode="&#x10d;" horiz-adv-x="551" 
d="M424 725l3 -3q-66 -60 -111 -128h-32q-45 68 -111 128l3 3q62 -31 124 -90q62 59 124 90zM273 -9q-111 0 -177 71q-66 72 -66 181q0 113 81 190q82 77 188 77q68 0 124 -35q55 -34 55 -73q0 -13 -8.5 -21t-22.5 -8q-44 0 -61 110q-36 17 -90 17q-94 0 -157 -65
q-62 -65 -62 -158q0 -108 60 -180q61 -72 159 -72q167 0 239 195q3 4 7.5 1.5t3.5 -6.5q-43 -103 -114 -163.5t-159 -60.5z" />
    <glyph glyph-name="Dcaron" unicode="&#x10e;" horiz-adv-x="784" 
d="M363 925l3 -3q-66 -60 -111 -128h-32q-45 68 -111 128l3 3q62 -31 124 -90q61 59 124 90zM316 0h-175l-37 -2q-38 -1 -69 -1q-3 0 -5 3q1 3 5 4q39 0 53.5 3t25.5 17q12 14 15.5 39t3.5 81v412q0 56 -3.5 81t-15.5 39q-11 14 -25.5 17t-53.5 3q-3 0 -5 3q1 3 5 4
q31 0 69 -1l37 -2h173q204 0 317 -93q113 -92 113 -257t-112 -258q-113 -92 -316 -92zM188 10h129q165 0 266 92t101 248t-102 248q-103 92 -269 92h-126q-8 -53 -8 -153v-373q0 -103 9 -154z" />
    <glyph glyph-name="dcaron" unicode="&#x10f;" horiz-adv-x="625" 
d="M246 -9q-86 0 -151 57.5t-65 169.5q0 120 81 206t189 86q49 0 96 -20.5t77 -49.5v180q0 42 -18 57t-61 4q-3 0 -3 2.5t3 2.5q62 23 115 59q1 4 5 0q1 -1 1 -3v-582q0 -69 14 -94.5t53 -26.5q3 0 3 -3t-3 -3q-7 1 -21.5 -4.5t-27 -12.5t-26 -16t-14.5 -9h-6
q-11 75 -11 142h-2q-35 -42 -46 -53q-19 -19 -46 -42q-57 -47 -136 -47zM617 589h-8q0 30 -8 75l-9 52q0 29 21 29q22 0 22 -29q0 -14 -9 -55t-9 -72zM271 16q45 -5 107 34q12 7 29 24q5 6 10 11l9 9l4 3l24 27l19 23v214q-29 59 -81 96.5t-113 37.5q-89 0 -143 -68
q-53 -68 -53 -182q0 -105 51.5 -167t136.5 -62z" />
    <glyph glyph-name="Dcroat" unicode="&#x110;" horiz-adv-x="784" 
d="M141 700h173q204 0 317 -93q113 -92 113 -257t-112 -258q-113 -92 -316 -92h-175l-37 -2q-38 -1 -69 -1q-3 0 -5 3q1 3 5 4q39 0 53.5 3t25.5 17q12 14 15.5 39t3.5 81v201h-91v10h91v201q0 56 -3.5 81t-15.5 39q-11 14 -25.5 17t-53.5 3q-3 0 -5 3q1 3 5 4q31 0 69 -1z
M188 10h129q165 0 266 92t101 248t-102 248q-103 92 -269 92h-126q-8 -53 -8 -153v-182h95v-10h-95v-181q0 -103 9 -154z" />
    <glyph glyph-name="dslash" unicode="&#x111;" horiz-adv-x="625" 
d="M585 619v-10h-70v-449q0 -69 14 -94.5t53 -26.5q3 0 3 -3t-3 -3q-7 1 -21.5 -4.5t-27 -12.5t-26 -16t-14.5 -9h-6q-11 75 -11 142h-2q-35 -42 -46 -53q-19 -19 -46 -42q-57 -47 -136 -47q-86 0 -151 57.5t-65 169.5q0 120 81 206t189 86q49 0 96 -20.5t77 -49.5v169h-120
v10h120v1q0 42 -18 57t-61 4q-3 0 -3 2.5t3 2.5q62 23 115 59q1 4 5 0q1 -1 1 -3v-123h70zM454 124l19 23v214q-29 59 -81 96.5t-113 37.5q-89 0 -143 -68q-53 -68 -53 -182q0 -105 51.5 -167t136.5 -62q45 -5 107 34q12 7 29 24q5 6 10 11l9 9l4 3z" />
    <glyph glyph-name="Emacron" unicode="&#x112;" horiz-adv-x="702" 
d="M203 852h255v-10h-255v10zM663 261q0 3 4 3t4 -3l-66 -295q-1 -4 -5 0q-11 13 -16 17q-19 17 -98 17h-345l-37 -2q-38 -1 -69 -1q-3 0 -5 3q1 3 5 4q39 0 53.5 3t25.5 17q12 14 15.5 39t3.5 81v412q0 56 -3.5 81t-15.5 39q-11 14 -25.5 17t-53.5 3q-3 0 -5 3q1 3 5 4
q31 0 69 -1l37 -2h304q41 0 65 6q27 8 30 11l15 17q3 3 5 0l60 -271q0 -2 -1.5 -3t-3.5 0t-3 3q-44 139 -93 183t-144 44h-196v-323h179q43 0 62.5 22t19.5 74q0 2 1 3.5t3 0.5q3 -1 3 -4v-205q0 -2 -1 -3.5t-3 -0.5q-3 2 -3 4q0 58 -18 78t-64 20h-179v-346h222q67 0 99 7
q36 8 65 37q31 30 49 73q17 38 49 134z" />
    <glyph glyph-name="emacron" unicode="&#x113;" horiz-adv-x="556" 
d="M158 652h255v-10h-255v10zM535 220q4 3 8.5 1.5t2.5 -6.5q-101 -224 -278 -224q-107 0 -173 72q-65 74 -65 181q0 111 80 188q80 78 189 78q79 0 135 -49q57 -49 57 -119q0 -16 -4 -33h-409q-1 -6 -1 -27q0 -108 57 -183q59 -74 162 -74q167 0 239 195zM290 499
q-40 0 -84 -18q-45 -19 -81 -62.5t-45 -99.5h318q37 0 37 42q0 63 -36.5 100.5t-108.5 37.5z" />
    <glyph glyph-name="Ebreve" unicode="&#x114;" horiz-adv-x="702" 
d="M208 907l4 1q29 -81 119 -81q91 0 119 81l4 -1q-2 -52 -40 -81.5t-83 -29.5t-83 29.5t-40 81.5zM663 261q0 3 4 3t4 -3l-66 -295q-1 -4 -5 0q-11 13 -16 17q-19 17 -98 17h-345l-37 -2q-38 -1 -69 -1q-3 0 -5 3q1 3 5 4q39 0 53.5 3t25.5 17q12 14 15.5 39t3.5 81v412
q0 56 -3.5 81t-15.5 39q-11 14 -25.5 17t-53.5 3q-3 0 -5 3q1 3 5 4q31 0 69 -1l37 -2h304q41 0 65 6q27 8 30 11l15 17q3 3 5 0l60 -271q0 -2 -1.5 -3t-3.5 0t-3 3q-44 139 -93 183t-144 44h-196v-323h179q43 0 62.5 22t19.5 74q0 2 1 3.5t3 0.5q3 -1 3 -4v-205
q0 -2 -1 -3.5t-3 -0.5q-3 2 -3 4q0 58 -18 78t-64 20h-179v-346h222q67 0 99 7q36 8 65 37q31 30 49 73q17 38 49 134z" />
    <glyph glyph-name="ebreve" unicode="&#x115;" horiz-adv-x="556" 
d="M163 707l4 1q28 -81 119 -81q90 0 119 81l4 -1q-2 -52 -40 -81.5t-83 -29.5t-83 29.5t-40 81.5zM535 220q4 3 8.5 1.5t2.5 -6.5q-101 -224 -278 -224q-107 0 -173 72q-65 74 -65 181q0 111 80 188q80 78 189 78q79 0 135 -49q57 -49 57 -119q0 -16 -4 -33h-409
q-1 -6 -1 -27q0 -108 57 -183q59 -74 162 -74q167 0 239 195zM290 499q-40 0 -84 -18q-45 -19 -81 -62.5t-45 -99.5h318q37 0 37 42q0 63 -36.5 100.5t-108.5 37.5z" />
    <glyph glyph-name="Edotaccent" unicode="&#x116;" horiz-adv-x="702" 
d="M331 814q-24 0 -33.5 22t7.5 39t39.5 8t22.5 -33q0 -15 -10 -25.5t-26 -10.5zM663 261q0 3 4 3t4 -3l-66 -295q-1 -4 -5 0q-11 13 -16 17q-19 17 -98 17h-345l-37 -2q-38 -1 -69 -1q-3 0 -5 3q1 3 5 4q39 0 53.5 3t25.5 17q12 14 15.5 39t3.5 81v412q0 56 -3.5 81
t-15.5 39q-11 14 -25.5 17t-53.5 3q-3 0 -5 3q1 3 5 4q31 0 69 -1l37 -2h304q41 0 65 6q27 8 30 11l15 17q3 3 5 0l60 -271q0 -2 -1.5 -3t-3.5 0t-3 3q-44 139 -93 183t-144 44h-196v-323h179q43 0 62.5 22t19.5 74q0 2 1 3.5t3 0.5q3 -1 3 -4v-205q0 -2 -1 -3.5t-3 -0.5
q-3 2 -3 4q0 58 -18 78t-64 20h-179v-346h222q67 0 99 7q36 8 65 37q31 30 49 73q17 38 49 134z" />
    <glyph glyph-name="edotaccent" unicode="&#x117;" horiz-adv-x="556" 
d="M286 614q-24 0 -33.5 22t7.5 39t39.5 8t22.5 -33q0 -15 -10 -25.5t-26 -10.5zM535 220q4 3 8.5 1.5t2.5 -6.5q-101 -224 -278 -224q-107 0 -173 72q-65 74 -65 181q0 111 80 188q80 78 189 78q79 0 135 -49q57 -49 57 -119q0 -16 -4 -33h-409q-1 -6 -1 -27
q0 -108 57 -183q59 -74 162 -74q167 0 239 195zM290 499q-40 0 -84 -18q-45 -19 -81 -62.5t-45 -99.5h318q37 0 37 42q0 63 -36.5 100.5t-108.5 37.5z" />
    <glyph glyph-name="Eogonek" unicode="&#x118;" horiz-adv-x="702" 
d="M599 -178q32 0 60 23l4 -4q-41 -41 -76 -41q-28 0 -44.5 15.5t-16.5 44.5q0 52 73 107q-11 13 -16 17q-21 16 -97 16h-345l-37 -2q-38 -1 -69 -1q-3 0 -5 3q1 3 5 4q39 0 53.5 3t25.5 17q12 14 15.5 39t3.5 81v412q0 56 -3.5 81t-15.5 39q-11 14 -25.5 17t-53.5 3
q-3 0 -5 3q1 3 5 4q31 0 69 -1l37 -2h304q41 0 65 6q27 8 30 11l15 17q3 3 5 0l60 -271q0 -2 -1.5 -3t-3.5 0t-3 3q-44 139 -93 183t-144 44h-196v-323h179q43 0 62.5 22t19.5 74q0 2 1 3.5t3 0.5q3 -1 3 -4v-205q0 -2 -1 -3.5t-3 -0.5q-3 2 -3 4q0 58 -18 78t-64 20h-179
v-346h222q67 0 99 7q36 8 65 37q31 30 49 73q17 38 49 134q0 3 4 3t4 -3l-66 -295l-2 -2q-52 -45 -52 -91q0 -51 48 -51z" />
    <glyph glyph-name="eogonek" unicode="&#x119;" horiz-adv-x="556" 
d="M546 215q-51 -113 -125 -171l5 -1q-54 -47 -54 -93q0 -51 48 -51q32 0 60 23l4 -4q-41 -41 -76 -41q-28 0 -44.5 15.5t-16.5 44.5q0 48 59 96q-64 -42 -138 -42q-107 0 -173 72q-65 74 -65 181q0 111 80 188q80 78 189 78q79 0 135 -49q57 -49 57 -119q0 -16 -4 -33h-409
q-1 -6 -1 -27q0 -108 57 -183q59 -74 162 -74q167 0 239 195q4 3 8.5 1.5t2.5 -6.5zM290 499q-40 0 -84 -18q-45 -19 -81 -62.5t-45 -99.5h318q37 0 37 42q0 63 -36.5 100.5t-108.5 37.5z" />
    <glyph glyph-name="Ecaron" unicode="&#x11a;" horiz-adv-x="702" 
d="M347 794h-32q-45 68 -111 128l3 3q62 -31 124 -90q62 59 124 90l3 -3q-66 -60 -111 -128zM663 261q0 3 4 3t4 -3l-66 -295q-1 -4 -5 0q-11 13 -16 17q-19 17 -98 17h-345l-37 -2q-38 -1 -69 -1q-3 0 -5 3q1 3 5 4q39 0 53.5 3t25.5 17q12 14 15.5 39t3.5 81v412
q0 56 -3.5 81t-15.5 39q-11 14 -25.5 17t-53.5 3q-3 0 -5 3q1 3 5 4q31 0 69 -1l37 -2h304q41 0 65 6q27 8 30 11l15 17q3 3 5 0l60 -271q0 -2 -1.5 -3t-3.5 0t-3 3q-44 139 -93 183t-144 44h-196v-323h179q43 0 62.5 22t19.5 74q0 2 1 3.5t3 0.5q3 -1 3 -4v-205
q0 -2 -1 -3.5t-3 -0.5q-3 2 -3 4q0 58 -18 78t-64 20h-179v-346h222q67 0 99 7q36 8 65 37q31 30 49 73q17 38 49 134z" />
    <glyph glyph-name="ecaron" unicode="&#x11b;" horiz-adv-x="556" 
d="M302 594h-32q-45 68 -111 128l3 3q63 -31 124 -90q61 59 124 90l3 -3q-66 -60 -111 -128zM535 220q4 3 8.5 1.5t2.5 -6.5q-101 -224 -278 -224q-107 0 -173 72q-65 74 -65 181q0 111 80 188q80 78 189 78q79 0 135 -49q57 -49 57 -119q0 -16 -4 -33h-409q-1 -6 -1 -27
q0 -108 57 -183q59 -74 162 -74q167 0 239 195zM290 499q-40 0 -84 -18q-45 -19 -81 -62.5t-45 -99.5h318q37 0 37 42q0 63 -36.5 100.5t-108.5 37.5z" />
    <glyph glyph-name="Gcircumflex" unicode="&#x11c;" horiz-adv-x="746" 
d="M536 797l-3 -3q-63 31 -124 90q-62 -59 -124 -90l-3 3q66 60 111 128h32q45 -68 111 -128zM401 -9q-147 0 -254 97q-107 98 -107 254q0 154 92 261t243 107q29 0 93 -11q60 -10 68 -10q31 0 43 45q1 4 5 0l82 -279q1 -4 -2.5 -5.5t-5.5 2.5l-15 35q-15 35 -24 53
q-12 23 -34 54q-25 34 -51 53q-65 52 -160 52q-125 0 -199 -95t-74 -239q0 -128 79 -235q40 -53 104.5 -83.5t142.5 -30.5q109 0 193 36v133q0 56 -3.5 81t-15.5 39q-11 14 -25.5 17t-53.5 3q-4 0 -5 3q1 3 5 4q31 0 68 -2l38 -1h32q2 0 15 0.5t32 1.5t37 1q5 0 4 -4
q-2 -3 -4 -3q-20 -1 -24.5 -1t-17 -3.5t-14 -5t-8.5 -10.5t-6.5 -15.5t-2.5 -25t-3.5 -33.5t-1.5 -46v-199q-2 -2 -3 0q-6 18 -18.5 33.5t-24.5 15.5q-2 0 -32.5 -11t-82 -22t-104.5 -11z" />
    <glyph glyph-name="gcircumflex" unicode="&#x11d;" horiz-adv-x="539" 
d="M270 654q-61 -59 -124 -90l-3 3q66 60 111 128h32q45 -68 111 -128l-3 -3q-63 31 -124 90zM513 529q-17 -9 -45 -9q-7 0 -23.5 0.5t-19.5 0.5q-28 -14 -53 -33q45 -23 71.5 -65t26.5 -91q0 -75 -56 -128q-56 -51 -158 -51q-29 0 -59 8q-20 -8 -34.5 -27t-14.5 -32
q0 -25 27 -31l196 -43q154 -34 154 -113q2 -49 -48.5 -96.5t-124.5 -75.5t-141 -26q-84 0 -148 32q-62 32 -62 68q0 30 12 54q14 26 55 72l5 -5q-40 -49 -40 -61q0 -54 71 -93q71 -40 155 -40q88 0 156 41q69 41 69 99q0 64 -118 95l-210 54q-49 13 -49 53q0 17 22 40.5
t57 37.5q-56 19 -90 65t-34 102q0 76 56 127q56 52 159 52q50 0 89 -19q75 58 122 82q36 18 46 -3q12 -25 -21 -41zM420 326q0 79 -43.5 125.5t-123.5 46.5q-63 0 -101.5 -45t-38.5 -118q0 -79 44 -125t128 -46q60 0 97.5 46t37.5 116z" />
    <glyph glyph-name="Gbreve" unicode="&#x11e;" horiz-adv-x="746" 
d="M286 937l4 1q29 -81 119 -81q91 0 119 81l4 -1q-2 -52 -40 -81.5t-83 -29.5t-83 29.5t-40 81.5zM401 -9q-147 0 -254 97q-107 98 -107 254q0 154 92 261t243 107q29 0 93 -11q60 -10 68 -10q31 0 43 45q1 4 5 0l82 -279q1 -4 -2.5 -5.5t-5.5 2.5l-15 35q-15 35 -24 53
q-12 23 -34 54q-25 34 -51 53q-65 52 -160 52q-125 0 -199 -95t-74 -239q0 -128 79 -235q40 -53 104.5 -83.5t142.5 -30.5q109 0 193 36v133q0 56 -3.5 81t-15.5 39q-11 14 -25.5 17t-53.5 3q-4 0 -5 3q1 3 5 4q31 0 68 -2l38 -1h32q2 0 15 0.5t32 1.5t37 1q5 0 4 -4
q-2 -3 -4 -3q-20 -1 -24.5 -1t-17 -3.5t-14 -5t-8.5 -10.5t-6.5 -15.5t-2.5 -25t-3.5 -33.5t-1.5 -46v-199q-2 -2 -3 0q-6 18 -18.5 33.5t-24.5 15.5q-2 0 -32.5 -11t-82 -22t-104.5 -11z" />
    <glyph glyph-name="gbreve" unicode="&#x11f;" horiz-adv-x="539" 
d="M147 707l4 1q29 -81 119 -81t119 81l4 -1q-2 -52 -40 -81.5t-83 -29.5t-83 29.5t-40 81.5zM513 529q-17 -9 -45 -9q-7 0 -23.5 0.5t-19.5 0.5q-28 -14 -53 -33q45 -23 71.5 -65t26.5 -91q0 -75 -56 -128q-56 -51 -158 -51q-29 0 -59 8q-20 -8 -34.5 -27t-14.5 -32
q0 -25 27 -31l196 -43q154 -34 154 -113q2 -49 -48.5 -96.5t-124.5 -75.5t-141 -26q-84 0 -148 32q-62 32 -62 68q0 30 12 54q14 26 55 72l5 -5q-40 -49 -40 -61q0 -54 71 -93q71 -40 155 -40q88 0 156 41q69 41 69 99q0 64 -118 95l-210 54q-49 13 -49 53q0 17 22 40.5
t57 37.5q-56 19 -90 65t-34 102q0 76 56 127q56 52 159 52q50 0 89 -19q75 58 122 82q36 18 46 -3q12 -25 -21 -41zM420 326q0 79 -43.5 125.5t-123.5 46.5q-63 0 -101.5 -45t-38.5 -118q0 -79 44 -125t128 -46q60 0 97.5 46t37.5 116z" />
    <glyph glyph-name="Gdotaccent" unicode="&#x120;" horiz-adv-x="746" 
d="M409 844q-24 0 -33.5 22t7.5 39t39.5 8t22.5 -33q0 -15 -10 -25.5t-26 -10.5zM401 -9q-147 0 -254 97q-107 98 -107 254q0 154 92 261t243 107q29 0 93 -11q60 -10 68 -10q31 0 43 45q1 4 5 0l82 -279q1 -4 -2.5 -5.5t-5.5 2.5l-15 35q-15 35 -24 53q-12 23 -34 54
q-25 34 -51 53q-65 52 -160 52q-125 0 -199 -95t-74 -239q0 -128 79 -235q40 -53 104.5 -83.5t142.5 -30.5q109 0 193 36v133q0 56 -3.5 81t-15.5 39q-11 14 -25.5 17t-53.5 3q-4 0 -5 3q1 3 5 4q31 0 68 -2l38 -1h32q2 0 15 0.5t32 1.5t37 1q5 0 4 -4q-2 -3 -4 -3
q-20 -1 -24.5 -1t-17 -3.5t-14 -5t-8.5 -10.5t-6.5 -15.5t-2.5 -25t-3.5 -33.5t-1.5 -46v-199q-2 -2 -3 0q-6 18 -18.5 33.5t-24.5 15.5q-2 0 -32.5 -11t-82 -22t-104.5 -11z" />
    <glyph glyph-name="gdotaccent" unicode="&#x121;" horiz-adv-x="539" 
d="M270 614q-24 0 -33.5 22t7.5 39t39.5 8t22.5 -33q0 -15 -10 -25.5t-26 -10.5zM513 529q-17 -9 -45 -9q-7 0 -23.5 0.5t-19.5 0.5q-28 -14 -53 -33q45 -23 71.5 -65t26.5 -91q0 -75 -56 -128q-56 -51 -158 -51q-29 0 -59 8q-20 -8 -34.5 -27t-14.5 -32q0 -25 27 -31
l196 -43q154 -34 154 -113q2 -49 -48.5 -96.5t-124.5 -75.5t-141 -26q-84 0 -148 32q-62 32 -62 68q0 30 12 54q14 26 55 72l5 -5q-40 -49 -40 -61q0 -54 71 -93q71 -40 155 -40q88 0 156 41q69 41 69 99q0 64 -118 95l-210 54q-49 13 -49 53q0 17 22 40.5t57 37.5
q-56 19 -90 65t-34 102q0 76 56 127q56 52 159 52q50 0 89 -19q75 58 122 82q36 18 46 -3q12 -25 -21 -41zM420 326q0 79 -43.5 125.5t-123.5 46.5q-63 0 -101.5 -45t-38.5 -118q0 -79 44 -125t128 -46q60 0 97.5 46t37.5 116z" />
    <glyph glyph-name="uni0122" unicode="&#x122;" horiz-adv-x="746" 
d="M401 -9q-147 0 -254 97q-107 98 -107 254q0 154 92 261t243 107q29 0 93 -11q60 -10 68 -10q31 0 43 45q1 4 5 0l82 -279q1 -4 -2.5 -5.5t-5.5 2.5l-15 35q-15 35 -24 53q-12 23 -34 54q-25 34 -51 53q-65 52 -160 52q-125 0 -199 -95t-74 -239q0 -128 79 -235
q40 -53 104.5 -83.5t142.5 -30.5q109 0 193 36v133q0 56 -3.5 81t-15.5 39q-11 14 -25.5 17t-53.5 3q-4 0 -5 3q1 3 5 4q31 0 68 -2l38 -1h32q2 0 15 0.5t32 1.5t37 1q5 0 4 -4q-2 -3 -4 -3q-20 -1 -24.5 -1t-17 -3.5t-14 -5t-8.5 -10.5t-6.5 -15.5t-2.5 -25t-3.5 -33.5
t-1.5 -46v-199q-2 -2 -3 0q-6 18 -18.5 33.5t-24.5 15.5q-2 0 -32.5 -11t-82 -22t-104.5 -11zM389 -248l-5 7q32 24 54 63q22 37 24 64q-9 -4 -25 -4q-17 0 -27 10t-10 25q0 17 10 28t26 11q18 0 28.5 -11.5t10.5 -29.5q0 -51 -28 -95q-28 -46 -58 -68z" />
    <glyph glyph-name="uni0123" unicode="&#x123;" horiz-adv-x="539" 
d="M262 603q-32 0 -32 33q0 39 20.5 75.5t49.5 58.5l5 -6q-26 -18 -45 -50t-19 -54q7 4 20 4q30 0 30 -29q0 -14 -8 -23t-21 -9zM513 529q-17 -9 -45 -9q-7 0 -23.5 0.5t-19.5 0.5q-28 -14 -53 -33q45 -23 71.5 -65t26.5 -91q0 -75 -56 -128q-56 -51 -158 -51q-29 0 -59 8
q-20 -8 -34.5 -27t-14.5 -32q0 -25 27 -31l196 -43q154 -34 154 -113q2 -49 -48.5 -96.5t-124.5 -75.5t-141 -26q-84 0 -148 32q-62 32 -62 68q0 30 12 54q14 26 55 72l5 -5q-40 -49 -40 -61q0 -54 71 -93q71 -40 155 -40q88 0 156 41q69 41 69 99q0 64 -118 95l-210 54
q-49 13 -49 53q0 17 22 40.5t57 37.5q-56 19 -90 65t-34 102q0 76 56 127q56 52 159 52q50 0 89 -19q75 58 122 82q36 18 46 -3q12 -25 -21 -41zM420 326q0 79 -43.5 125.5t-123.5 46.5q-63 0 -101.5 -45t-38.5 -118q0 -79 44 -125t128 -46q60 0 97.5 46t37.5 116z" />
    <glyph glyph-name="Hcircumflex" unicode="&#x124;" horiz-adv-x="821" 
d="M411 854q-62 -59 -124 -90l-3 3q66 60 111 128h32q45 -68 111 -128l-3 -3q-63 31 -124 90zM786 4q4 0 5 -3q-1 -3 -5 -4q-31 0 -68 1l-38 2h-30l-38 -2q-37 -1 -68 -1q-4 0 -5 3q1 3 5 4q39 0 53.5 3t25.5 17q12 14 15.5 39t3.5 81v219q-57 0 -106 -1q-48 -1 -120 -1
t-131 1t-106 1v-219q0 -98 18 -120q12 -14 26.5 -17t53.5 -3q3 0 5 -3q-1 -3 -5 -4q-31 0 -69 1l-37 2h-30l-37 -2q-38 -1 -69 -1q-3 0 -5 3q1 3 5 4q39 0 53.5 3t25.5 17q12 14 15.5 39t3.5 81v412q0 56 -3.5 81t-15.5 39q-11 14 -25.5 17t-53.5 3q-3 0 -5 3q1 3 5 4
q31 0 69 -1l37 -2h30l37 2q38 1 69 1q3 0 5 -3q-1 -3 -5 -4q-39 0 -53.5 -3t-26.5 -17q-18 -22 -18 -120v-186h119q55 1 117 1q73 0 122 -1h105v186q0 56 -3.5 81t-15.5 39q-11 14 -25.5 17t-53.5 3q-4 0 -5 3q1 3 5 4q31 0 68 -1l38 -2h30l38 2q37 1 68 1q4 0 5 -3
q-1 -3 -5 -4q-39 0 -53.5 -3t-26.5 -17q-18 -22 -18 -120v-412q0 -98 18 -120q12 -14 26.5 -17t53.5 -3z" />
    <glyph glyph-name="hcircumflex" unicode="&#x125;" horiz-adv-x="624" 
d="M244 765l-3 -3q-62 31 -124 90q-62 -59 -124 -90l-3 3q66 60 111 128h32q45 -68 111 -128zM142 0h-31l-30 -2q-30 -1 -57 -1q-4 0 -4 3q1 3 4 4q55 0 68 19q14 20 14 81l-1 515q0 42 -18 57t-61 4q-3 0 -3 2.5t3 2.5q62 23 115 59q1 4 5 0q1 -1 1 -3v-248l-2 -123h2
q43 58 108 99q67 41 118 41q81 0 115.5 -51.5t34.5 -167.5v-187q0 -62 13 -81t69 -19q4 0 4 -3q-1 -3 -4 -4q-27 0 -57 1l-30 2h-32l-30 -2q-30 -1 -57 -1q-4 0 -4 3q1 3 4 4q55 0 68 19q14 20 14 81v206q0 100 -34 134q-35 35 -93 35q-110 0 -207 -120v-255q0 -62 13 -81
t69 -19q4 0 4 -3q-1 -3 -4 -4q-20 0 -39.5 0.5t-32 1.5t-15.5 1z" />
    <glyph glyph-name="Hbar" unicode="&#x126;" horiz-adv-x="821" 
d="M786 4q4 0 5 -3q-1 -3 -5 -4q-31 0 -68 1l-38 2h-30l-38 -2q-37 -1 -68 -1q-4 0 -5 3q1 3 5 4q39 0 53.5 3t25.5 17q12 14 15.5 39t3.5 81v219q-57 0 -106 -1q-48 -1 -120 -1t-131 1t-106 1v-219q0 -98 18 -120q12 -14 26.5 -17t53.5 -3q3 0 5 -3q-1 -3 -5 -4
q-31 0 -69 1l-37 2h-30l-37 -2q-38 -1 -69 -1q-3 0 -5 3q1 3 5 4q39 0 53.5 3t25.5 17q12 14 15.5 39t3.5 81v412q0 56 -3.5 81t-15.5 39q-11 14 -25.5 17t-53.5 3q-3 0 -5 3q1 3 5 4q31 0 69 -1l37 -2h30l37 2q38 1 69 1q3 0 5 -3q-1 -3 -5 -4q-39 0 -53.5 -3t-26.5 -17
q-18 -22 -18 -120v-16h463v16q0 56 -3.5 81t-15.5 39q-11 14 -25.5 17t-53.5 3q-4 0 -5 3q1 3 5 4q31 0 68 -1l38 -2h30l38 2q37 1 68 1q4 0 5 -3q-1 -3 -5 -4q-39 0 -53.5 -3t-26.5 -17q-18 -22 -18 -120v-412q0 -98 18 -120q12 -14 26.5 -17t53.5 -3zM415 371q73 0 122 -1
h105v160h-463v-160h119q55 1 117 1z" />
    <glyph glyph-name="hbar" unicode="&#x127;" horiz-adv-x="624" 
d="M605 4q4 0 4 -3q-1 -3 -4 -4q-27 0 -57 1l-30 2h-32l-30 -2q-30 -1 -57 -1q-4 0 -4 3q1 3 4 4q55 0 68 19q14 20 14 81v206q0 100 -34 134q-35 35 -93 35q-110 0 -207 -120v-255q0 -62 13 -81t69 -19q4 0 4 -3q-1 -3 -4 -4q-20 0 -39.5 0.5t-32 1.5t-15.5 1h-31l-30 -2
q-30 -1 -57 -1q-4 0 -4 3q1 3 4 4q55 0 68 19q14 20 14 81l-1 500h-93v10h93v5q0 42 -18 57t-61 4q-3 0 -3 2.5t3 2.5q62 23 115 59q1 4 5 0q1 -1 1 -3v-127h97v-10h-97v-111l-2 -123h2q43 58 108 99q67 41 118 41q81 0 115.5 -51.5t34.5 -167.5v-187q0 -62 13 -81t69 -19z
" />
    <glyph glyph-name="Itilde" unicode="&#x128;" horiz-adv-x="312" 
d="M288 879q-7 -31 -29.5 -54.5t-50.5 -23.5q-17 0 -50 13l-34 13q-22 9 -46 9q-20 0 -30 -11.5t-17 -40.5q-1 0 -4 1l-3 1q7 30 30.5 54t49.5 24q18 0 50 -13l34 -13q27 -9 46 -9q20 0 30 11.5t17 40.5q1 -1 4 -1t3 -1zM141 700h30l37 2q38 1 69 1q3 0 5 -3q-1 -3 -5 -4
q-39 0 -53.5 -3t-26.5 -17q-18 -22 -18 -120v-412q0 -98 18 -120q12 -14 26.5 -17t53.5 -3q3 0 5 -3q-1 -3 -5 -4q-31 0 -69 1l-37 2h-30l-37 -2q-38 -1 -69 -1q-3 0 -5 3q1 3 5 4q39 0 53.5 3t25.5 17q12 14 15.5 39t3.5 81v412q0 56 -3.5 81t-15.5 39q-11 14 -25.5 17
t-53.5 3q-3 0 -5 3q1 3 5 4q31 0 69 -1z" />
    <glyph glyph-name="itilde" unicode="&#x129;" horiz-adv-x="254" 
d="M253 679q-7 -31 -29.5 -54.5t-50.5 -23.5q-17 0 -50 13l-34 13q-22 9 -46 9q-20 0 -30 -11.5t-17 -40.5l-3 1q-3 1 -4 1q7 30 30.5 54t49.5 24q18 0 50 -13l34 -13q27 -9 46 -9q20 0 30 11.5t17 40.5q0 -1 3 -1t4 -1zM143 0h-32l-30 -2q-30 -1 -57 -1q-4 0 -4 3q1 3 4 4
q55 0 68 19q14 20 14 81v264q0 65 -14 79t-55 14q-2 1 -1 5l2 1q35 7 51 15l18 8l19 11l15 9q7 1 7 -3v-403q0 -62 13 -81t69 -19q4 0 4 -3q-1 -3 -4 -4q-27 0 -57 1z" />
    <glyph glyph-name="Imacron" unicode="&#x12a;" horiz-adv-x="312" 
d="M283 852v-10h-255v10h255zM141 700h30l37 2q38 1 69 1q3 0 5 -3q-1 -3 -5 -4q-39 0 -53.5 -3t-26.5 -17q-18 -22 -18 -120v-412q0 -98 18 -120q12 -14 26.5 -17t53.5 -3q3 0 5 -3q-1 -3 -5 -4q-31 0 -69 1l-37 2h-30l-37 -2q-38 -1 -69 -1q-3 0 -5 3q1 3 5 4q39 0 53.5 3
t25.5 17q12 14 15.5 39t3.5 81v412q0 56 -3.5 81t-15.5 39q-11 14 -25.5 17t-53.5 3q-3 0 -5 3q1 3 5 4q31 0 69 -1z" />
    <glyph glyph-name="imacron" unicode="&#x12b;" horiz-adv-x="254" 
d="M248 652v-10h-255v10h255zM143 0h-32l-30 -2q-30 -1 -57 -1q-4 0 -4 3q1 3 4 4q55 0 68 19q14 20 14 81v264q0 65 -14 79t-55 14q-2 1 -1 5l2 1q35 7 51 15l18 8l19 11l15 9q7 1 7 -3v-403q0 -62 13 -81t69 -19q4 0 4 -3q-1 -3 -4 -4q-27 0 -57 1z" />
    <glyph glyph-name="Ibreve" unicode="&#x12c;" horiz-adv-x="312" 
d="M33 907l4 1q28 -81 119 -81q90 0 119 81l4 -1q-2 -52 -40 -81.5t-83 -29.5t-83 29.5t-40 81.5zM141 700h30l37 2q38 1 69 1q3 0 5 -3q-1 -3 -5 -4q-39 0 -53.5 -3t-26.5 -17q-18 -22 -18 -120v-412q0 -98 18 -120q12 -14 26.5 -17t53.5 -3q3 0 5 -3q-1 -3 -5 -4
q-31 0 -69 1l-37 2h-30l-37 -2q-38 -1 -69 -1q-3 0 -5 3q1 3 5 4q39 0 53.5 3t25.5 17q12 14 15.5 39t3.5 81v412q0 56 -3.5 81t-15.5 39q-11 14 -25.5 17t-53.5 3q-3 0 -5 3q1 3 5 4q31 0 69 -1z" />
    <glyph glyph-name="ibreve" unicode="&#x12d;" horiz-adv-x="254" 
d="M-2 707l4 1q29 -81 119 -81t119 81l4 -1q-2 -52 -40 -81.5t-83 -29.5t-83 29.5t-40 81.5zM143 0h-32l-30 -2q-30 -1 -57 -1q-4 0 -4 3q1 3 4 4q55 0 68 19q14 20 14 81v264q0 65 -14 79t-55 14q-2 1 -1 5l2 1q35 7 51 15l18 8l19 11l15 9q7 1 7 -3v-403q0 -62 13 -81
t69 -19q4 0 4 -3q-1 -3 -4 -4q-27 0 -57 1z" />
    <glyph glyph-name="Iogonek" unicode="&#x12e;" horiz-adv-x="312" 
d="M277 4q3 0 5 -3q-1 -3 -5 -4q-35 0 -98 3q-54 -46 -54 -93q0 -51 48 -51q32 0 60 23l4 -4q-41 -41 -76 -41q-28 0 -44.5 15.5t-16.5 44.5q0 52 72 106h-1h-30l-37 -2q-38 -1 -69 -1q-3 0 -5 3q1 3 5 4q39 0 53.5 3t25.5 17q12 14 15.5 39t3.5 81v412q0 56 -3.5 81
t-15.5 39q-11 14 -25.5 17t-53.5 3q-3 0 -5 3q1 3 5 4q31 0 69 -1l37 -2h30l37 2q38 1 69 1q3 0 5 -3q-1 -3 -5 -4q-39 0 -53.5 -3t-26.5 -17q-18 -22 -18 -120v-412q0 -98 18 -120q12 -14 26.5 -17t53.5 -3z" />
    <glyph glyph-name="iogonek" unicode="&#x12f;" horiz-adv-x="254" 
d="M121 614q-24 0 -33.5 22t7.5 39t39.5 8t22.5 -33q0 -15 -10 -25.5t-26 -10.5zM230 4q4 0 4 -3q-1 -3 -4 -4q-19 0 -37.5 0.5t-30.5 1.5t-14 1q-54 -46 -54 -93q0 -51 48 -51q32 0 60 23l4 -4q-41 -41 -76 -41q-28 0 -44.5 15.5t-16.5 44.5q0 52 72 106h-30l-30 -2
q-30 -1 -57 -1q-4 0 -4 3q1 3 4 4q55 0 68 19q14 20 14 81v264q0 65 -14 79t-55 14q-2 1 -1 5l2 1q35 7 51 15l18 8l19 11l15 9q7 1 7 -3v-403q0 -62 13 -81t69 -19z" />
    <glyph glyph-name="Idot" unicode="&#x130;" horiz-adv-x="312" 
d="M156 814q-24 0 -33.5 22t7.5 39t39.5 8t22.5 -33q0 -15 -10 -25.5t-26 -10.5zM141 700h30l37 2q38 1 69 1q3 0 5 -3q-1 -3 -5 -4q-39 0 -53.5 -3t-26.5 -17q-18 -22 -18 -120v-412q0 -98 18 -120q12 -14 26.5 -17t53.5 -3q3 0 5 -3q-1 -3 -5 -4q-31 0 -69 1l-37 2h-30
l-37 -2q-38 -1 -69 -1q-3 0 -5 3q1 3 5 4q39 0 53.5 3t25.5 17q12 14 15.5 39t3.5 81v412q0 56 -3.5 81t-15.5 39q-11 14 -25.5 17t-53.5 3q-3 0 -5 3q1 3 5 4q31 0 69 -1z" />
    <glyph glyph-name="dotlessi" unicode="&#x131;" horiz-adv-x="254" 
d="M143 0h-32l-30 -2q-30 -1 -57 -1q-4 0 -4 3q1 3 4 4q55 0 68 19q14 20 14 81v264q0 65 -14 79t-55 14q-2 1 -1 5l2 1q35 7 51 15l18 8l19 11l15 9q7 1 7 -3v-403q0 -62 13 -81t69 -19q4 0 4 -3q-1 -3 -4 -4q-27 0 -57 1z" />
    <glyph glyph-name="IJ" unicode="&#x132;" horiz-adv-x="643" 
d="M141 700h30l37 2q38 1 69 1q3 0 5 -3q-1 -3 -5 -4q-39 0 -53.5 -3t-26.5 -17q-18 -22 -18 -120v-412q0 -98 18 -120q12 -14 26.5 -17t53.5 -3q3 0 5 -3q-1 -3 -5 -4q-31 0 -69 1l-37 2h-30l-37 -2q-38 -1 -69 -1q-3 0 -5 3q1 3 5 4q39 0 53.5 3t25.5 17q12 14 15.5 39
t3.5 81v412q0 56 -3.5 81t-15.5 39q-11 14 -25.5 17t-53.5 3q-3 0 -5 3q1 3 5 4q31 0 69 -1zM345 -93q-2 0 -2.5 2.5t1.5 3.5q70 29 100 83q32 56 32 165v395q0 58 -4 82t-20 38q-15 14 -33.5 17t-69.5 3q-5 0 -6 3q1 2 6 4q30 0 61 -0.5t51.5 -1.5t24.5 -1h28l38 2
q37 1 68 1q4 0 5 -3q-1 -3 -5 -4q-39 0 -53.5 -3t-26.5 -17q-18 -22 -18 -120v-392q0 -109 -47 -168t-130 -89z" />
    <glyph glyph-name="ij" unicode="&#x133;" horiz-adv-x="502" 
d="M121 614q-24 0 -33.5 22t7.5 39t39.5 8t22.5 -33q0 -15 -10 -25.5t-26 -10.5zM384 614q-24 0 -33.5 22t7.5 39t39.5 8t22.5 -33q0 -15 -10 -25.5t-26 -10.5zM143 0h-32l-30 -2q-30 -1 -57 -1q-4 0 -4 3q1 3 4 4q55 0 68 19q14 20 14 81v264q0 65 -14 79t-55 14q-2 1 -1 5
l2 1q35 7 51 15l18 8l19 11l15 9q7 1 7 -3v-403q0 -62 13 -81t69 -19q4 0 4 -3q-1 -3 -4 -4q-27 0 -57 1zM397 510q7 2 7 -3v-515q-2 -129 -52 -187q-51 -59 -118 -59q-50 0 -84 18.5t-34 40.5q0 9 7 16t19 7q13 0 23 -10q4 -4 37 -57q15 -4 31 -4q129 0 129 175v60v355
q0 75 -11 95q-10 21 -58 19q-5 0 -1 4q2 2 3 2q55 7 102 43z" />
    <glyph glyph-name="Jcircumflex" unicode="&#x134;" horiz-adv-x="471" 
d="M456 767l-3 -3q-63 31 -124 90q-61 -59 -124 -90l-3 3q66 60 111 128h32q45 -68 111 -128zM188 -10q-48 0 -83 19.5t-35 46.5q0 12 9 21t23 9q33 0 56 -33q8 -10 18 -31l13 -22q60 0 87.5 53.5t27.5 170.5v332q0 58 -4 82t-20 38q-15 14 -33.5 17t-69.5 3q-5 0 -6 3
q1 2 6 4q30 0 61 -0.5t51.5 -1.5t24.5 -1h28l38 2q37 1 68 1q4 0 5 -3q-1 -3 -5 -4q-39 0 -53.5 -3t-26.5 -17q-18 -22 -18 -120v-329q0 -113 -44 -175t-118 -62z" />
    <glyph glyph-name="jcircumflex" unicode="&#x135;" horiz-adv-x="248" 
d="M257 567l-3 -3q-62 31 -124 90q-61 -59 -124 -90l-3 3q66 60 111 128h32q45 -68 111 -128zM143 510q7 2 7 -3v-515q-2 -129 -52 -187q-51 -59 -118 -59q-50 0 -84 18.5t-34 40.5q0 9 7 16t19 7q13 0 23 -10q4 -4 37 -57q15 -4 31 -4q129 0 129 175v60v355q0 75 -11 95
q-10 21 -58 19q-5 0 -1 4q2 2 3 2q55 7 102 43z" />
    <glyph glyph-name="uni0136" unicode="&#x136;" horiz-adv-x="709" 
d="M716 4q4 0 4 -3q-1 -3 -4 -4q-31 0 -68 1l-38 2h-32q-18 40 -40 106l-11 33l-23 66q-10 28 -20 53q-14 33 -24 47q-39 64 -92 59q-52 0 -103 -21.5t-86 -55.5v-143q0 -98 18 -120q12 -14 26.5 -17t53.5 -3q3 0 5 -3q-1 -3 -5 -4q-31 0 -69 1l-37 2h-30l-37 -2
q-38 -1 -69 -1q-3 0 -5 3q1 3 5 4q39 0 53.5 3t25.5 17q12 14 15.5 39t3.5 81v412q0 56 -3.5 81t-15.5 39q-11 14 -25.5 17t-53.5 3q-3 0 -5 3q1 3 5 4q31 0 69 -1l37 -2h30l37 2q38 1 69 1q3 0 5 -3q-1 -3 -5 -4q-39 0 -53.5 -3t-26.5 -17q-18 -22 -18 -120v-255l266 270
q55 55 45.5 90t-77.5 35q-3 0 -5 3q1 3 5 4q28 0 86 -2q29 -1 52 -1h4q2 0 16.5 1t35 1.5t36.5 0.5q3 0 3 -3.5t-3 -3.5q-26 0 -57 -17q-29 -16 -52 -36q-30 -28 -62 -61l-251 -252q73 44 148 44q72 0 118 -47.5t80 -155.5l11 -33q24 -77 51 -106q27 -28 87 -28zM372 -65
q18 0 28.5 -11.5t10.5 -29.5q0 -51 -28 -95q-28 -46 -58 -68l-5 7q32 24 54 63q22 37 24 64q-9 -4 -25 -4q-17 0 -27 10t-10 25q0 17 10 28t26 11z" />
    <glyph glyph-name="uni0137" unicode="&#x137;" horiz-adv-x="609" 
d="M604 4q5 0 4 -4q-2 -3 -4 -3q-18 0 -37 0.5t-32 1.5t-15 1h-23q-10 4 -43 55l-34 68q-9 19 -19 39l-17 38q-38 81 -99 81q-65 0 -114 -37l-23 -17v-123q0 -62 13 -81t69 -19q4 0 4 -3q-1 -3 -4 -4q-27 0 -57 1l-30 2h-32l-30 -2q-30 -1 -57 -1q-4 0 -4 3q1 3 4 4
q55 0 68 19q14 20 14 81v516q0 42 -18 57t-61 4q-3 0 -3 2.5t3 2.5q62 23 115 59q6 6 6 -3v-502l206 159q57 43 51.5 70t-73.5 27q-4 0 -5 3q1 3 5 4q28 0 86 -2q29 -1 52 -1h1q19 0 43 1q48 2 71 2q5 0 4 -4q-1 -3 -4 -3q-50 0 -98.5 -23t-115.5 -74l-145 -112q36 15 71 15
q83 0 128 -91l40 -81q39 -76 64 -100q29 -26 75 -26zM317 -65q18 0 28.5 -11.5t10.5 -29.5q0 -51 -28 -95q-28 -46 -58 -68l-5 7q31 24 54 63q22 37 24 64q-9 -4 -25 -4q-17 0 -27 10t-10 25q0 17 10 28t26 11z" />
    <glyph glyph-name="kgreenlandic" unicode="&#x138;" horiz-adv-x="609" 
d="M604 4q5 0 4 -4q-2 -3 -4 -3q-18 0 -37 0.5t-32 1.5t-15 1h-23q-10 4 -43 55l-34 68q-9 19 -19 39l-17 38q-38 81 -99 81q-65 0 -114 -37l-23 -17v-123q0 -62 13 -81t69 -19q4 0 4 -3q-1 -3 -4 -4q-27 0 -57 1l-30 2h-32l-30 -2q-30 -1 -57 -1q-4 0 -4 3q1 3 4 4
q55 0 68 19q14 20 14 81v282q0 42 -18 57t-61 4q-3 0 -3 2.5t3 2.5q62 23 115 59q6 6 6 -3v-268l206 159q57 43 51.5 70t-73.5 27q-4 0 -5 3q1 3 5 4q28 0 86 -2q29 -1 52 -1h1q19 0 43 1q48 2 71 2q5 0 4 -4q-1 -3 -4 -3q-50 0 -98.5 -23t-115.5 -74l-145 -112q36 15 71 15
q83 0 128 -91l40 -81q39 -76 64 -100q29 -26 75 -26z" />
    <glyph glyph-name="Lacute" unicode="&#x139;" horiz-adv-x="653" 
d="M88 803l-3 3q34 28 56 57q4 5 10.5 13.5t9 12t7 9t7 8t6 5.5t6.5 4t6.5 2t7.5 1q21 0 21 -21q0 -34 -134 -94zM179 556v-546h192q129 0 180 61q17 21 32 57q26 62 52 183q3 7 7 3q1 -1 1 -3l-76 -345q-1 -4 -5 0q-16 24 -53 30q-7 0 -17 1.5t-20 2.5h-18h-39h-274l-37 -2
q-38 -1 -69 -1q-3 0 -5 3q1 3 5 4q39 0 53.5 3t25.5 17q12 14 15.5 39t3.5 81v411q0 56 -3.5 81t-15.5 39q-11 14 -25.5 17t-53.5 3q-3 0 -5 3q1 3 5 4q31 0 69 -2l37 -1l27 1q5 0 49 2.5t78 3.5q5 0 6 -3q-1 -3 -5 -4q-7 0 -22.5 -0.5t-21.5 -1.5q-38 -2 -53 -20
q-20 -25 -20 -121z" />
    <glyph glyph-name="lacute" unicode="&#x13a;" horiz-adv-x="254" 
d="M58 773l-3 3q34 28 56 57q4 5 10.5 13.5t9 12t7 9t7 8t6 5.5t6.5 4t6.5 2t7.5 1q21 0 21 -21q0 -34 -134 -94zM143 0h-32l-30 -2q-30 -1 -57 -1q-4 0 -4 3q1 3 4 4q55 0 68 19q14 20 14 81v516q0 42 -18 57t-61 4q-3 0 -3 2.5t3 2.5q62 23 115 59q6 6 6 -3v-638
q0 -62 13 -81t69 -19q4 0 4 -3q-1 -3 -4 -4q-27 0 -57 1z" />
    <glyph glyph-name="uni013B" unicode="&#x13b;" horiz-adv-x="653" 
d="M179 556v-546h192q129 0 180 61q17 21 32 57q26 62 52 183q3 7 7 3q1 -1 1 -3l-76 -345q-1 -4 -5 0q-16 24 -53 30q-7 0 -17 1.5t-20 2.5h-18h-39h-274l-37 -2q-38 -1 -69 -1q-3 0 -5 3q1 3 5 4q39 0 53.5 3t25.5 17q12 14 15.5 39t3.5 81v411q0 56 -3.5 81t-15.5 39
q-11 14 -25.5 17t-53.5 3q-3 0 -5 3q1 3 5 4q31 0 69 -2l37 -1l27 1q5 0 49 2.5t78 3.5q5 0 6 -3q-1 -3 -5 -4q-7 0 -22.5 -0.5t-21.5 -1.5q-38 -2 -53 -20q-20 -25 -20 -121zM282 -269l-5 7q31 24 54 63q22 37 24 64q-9 -4 -25 -4q-17 0 -27 10t-10 25q0 17 10 28t26 11
q18 0 28.5 -11.5t10.5 -29.5q0 -51 -28 -95q-28 -46 -58 -68z" />
    <glyph glyph-name="uni013C" unicode="&#x13c;" horiz-adv-x="254" 
d="M143 0h-32l-30 -2q-30 -1 -57 -1q-4 0 -4 3q1 3 4 4q55 0 68 19q14 20 14 81v516q0 42 -18 57t-61 4q-3 0 -3 2.5t3 2.5q62 23 115 59q6 6 6 -3v-638q0 -62 13 -81t69 -19q4 0 4 -3q-1 -3 -4 -4q-27 0 -57 1zM90 -269l-5 7q31 24 54 63q22 37 24 64q-9 -4 -25 -4
q-17 0 -27 10t-10 25q0 17 10 28t26 11q18 0 28.5 -11.5t10.5 -29.5q0 -51 -28 -95q-28 -46 -58 -68z" />
    <glyph glyph-name="Lcaron" unicode="&#x13d;" horiz-adv-x="653" 
d="M179 556v-546h192q129 0 180 61q17 21 32 57q26 62 52 183q3 7 7 3q1 -1 1 -3l-76 -345q-1 -4 -5 0q-16 24 -53 30q-7 0 -17 1.5t-20 2.5h-18h-39h-274l-37 -2q-38 -1 -69 -1q-3 0 -5 3q1 3 5 4q39 0 53.5 3t25.5 17q12 14 15.5 39t3.5 81v411q0 56 -3.5 81t-15.5 39
q-11 14 -25.5 17t-53.5 3q-3 0 -5 3q1 3 5 4q31 0 69 -2l37 -1l27 1q5 0 49 2.5t78 3.5q5 0 6 -3q-1 -3 -5 -4q-7 0 -22.5 -0.5t-21.5 -1.5q-38 -2 -53 -20q-20 -25 -20 -121zM511 544h-8q0 30 -8 75l-9 52q0 29 21 29q22 0 22 -29q0 -13 -9 -54t-9 -73z" />
    <glyph glyph-name="lcaron" unicode="&#x13e;" horiz-adv-x="254" 
d="M143 0h-32l-30 -2q-30 -1 -57 -1q-4 0 -4 3q1 3 4 4q55 0 68 19q14 20 14 81v516q0 42 -18 57t-61 4q-3 0 -3 2.5t3 2.5q62 23 115 59q6 6 6 -3v-638q0 -62 13 -81t69 -19q4 0 4 -3q-1 -3 -4 -4q-27 0 -57 1zM284 584h-8q0 30 -8 75l-9 52q0 29 21 29q22 0 22 -29
q0 -13 -9 -54t-9 -73z" />
    <glyph glyph-name="Ldot" unicode="&#x13f;" horiz-adv-x="653" 
d="M179 556v-546h192q129 0 180 61q17 21 32 57q26 62 52 183q3 7 7 3q1 -1 1 -3l-76 -345q-1 -4 -5 0q-16 24 -53 30q-7 0 -17 1.5t-20 2.5h-18h-39h-274l-37 -2q-38 -1 -69 -1q-3 0 -5 3q1 3 5 4q39 0 53.5 3t25.5 17q12 14 15.5 39t3.5 81v411q0 56 -3.5 81t-15.5 39
q-11 14 -25.5 17t-53.5 3q-3 0 -5 3q1 3 5 4q31 0 69 -2l37 -1l27 1q5 0 49 2.5t78 3.5q5 0 6 -3q-1 -3 -5 -4q-7 0 -22.5 -0.5t-21.5 -1.5q-38 -2 -53 -20q-20 -25 -20 -121zM360 312q-24 0 -33.5 22t7.5 39t39.5 8t22.5 -33q0 -15 -10 -25.5t-26 -10.5z" />
    <glyph glyph-name="ldot" unicode="&#x140;" horiz-adv-x="254" 
d="M143 0h-32l-30 -2q-30 -1 -57 -1q-4 0 -4 3q1 3 4 4q55 0 68 19q14 20 14 81v516q0 42 -18 57t-61 4q-3 0 -3 2.5t3 2.5q62 23 115 59q6 6 6 -3v-638q0 -62 13 -81t69 -19q4 0 4 -3q-1 -3 -4 -4q-27 0 -57 1zM331 327q-24 0 -33.5 22.5t7.5 38.5q17 17 39.5 8t22.5 -33
q0 -15 -10 -25.5t-26 -10.5z" />
    <glyph glyph-name="Lslash" unicode="&#x141;" horiz-adv-x="653" 
d="M635 311q3 7 7 3q1 -1 1 -3l-76 -345q-1 -4 -5 0q-16 24 -53 30q-7 0 -17 1.5t-20 2.5h-18h-39h-274l-37 -2q-38 -1 -69 -1q-3 0 -5 3q1 3 5 4q39 0 53.5 3t25.5 17q12 14 15.5 39t3.5 81v187l-74 -43l-5 8l79 46v213q0 56 -3.5 81t-15.5 39q-11 14 -25.5 17t-53.5 3
q-3 0 -5 3q1 3 5 4q31 0 69 -2l37 -1l27 1q5 0 49 2.5t78 3.5q5 0 6 -3q-1 -3 -5 -4q-7 0 -22.5 -0.5t-21.5 -1.5q-38 -2 -53 -20q-20 -25 -20 -121v-188l76 44l5 -8l-81 -47v-347h192q129 0 180 61q17 21 32 57q26 62 52 183z" />
    <glyph glyph-name="lslash" unicode="&#x142;" horiz-adv-x="254" 
d="M230 4q4 0 4 -3q-1 -3 -4 -4q-27 0 -57 1l-30 2h-32l-30 -2q-30 -1 -57 -1q-4 0 -4 3q1 3 4 4q55 0 68 19q14 20 14 81v243l-76 -44l-5 8l81 47v262q0 42 -18 57t-61 4q-3 0 -3 2.5t3 2.5q62 23 115 59q6 6 6 -3v-360l78 45l5 -8l-83 -48v-267q0 -62 13 -81t69 -19z" />
    <glyph glyph-name="Nacute" unicode="&#x143;" horiz-adv-x="809" 
d="M470 897q0 -34 -134 -94l-3 3q34 28 56 57q4 5 10.5 13.5t9 12t7 9t7 8t6 5.5t6.5 4t6.5 2t7.5 1q21 0 21 -21zM795 703q4 0 4 -3q-1 -3 -4 -4q-106 0 -106 -135v-560q0 -3 -3 -3.5t-5 2.5l-531 624v-470q0 -150 106 -150q4 0 4 -3q-1 -3 -4 -4q-23 0 -69 2q-23 1 -42 1
t-42 -1q-46 -2 -69 -2q-4 0 -4 3q1 3 4 4q106 0 106 135v388q0 68 -3.5 97.5t-15.5 46.5q-11 17 -25.5 20.5t-53.5 3.5q-3 0 -4.5 2.5t0 4.5t4.5 2q31 0 68 -2l38 -2h-1l532 -629v475q0 150 -106 150q-4 0 -4 3q1 3 4 4q23 0 69 -2q23 -1 42 -1t42 1q46 2 69 2z" />
    <glyph glyph-name="nacute" unicode="&#x144;" horiz-adv-x="625" 
d="M242 603l-3 3q34 28 56 57q4 5 10.5 13.5t9 12t7 9t7 8t6 5.5t6.5 4t6.5 2t7.5 1q21 0 21 -21q0 -34 -134 -94zM143 0h-32l-30 -2q-30 -1 -57 -1q-4 0 -4 3q1 3 4 4q55 0 68 19q14 20 14 81v239q0 66 -13.5 92t-53.5 26q-2 1 -2 3t2 3q39 10 78 43q3 3 6 0
q24 -36 24 -140h1q44 58 108 99q67 41 118 41q84 0 117 -49.5t33 -163.5v-193q0 -62 13 -81t69 -19q4 0 4 -3q-1 -3 -4 -4q-27 0 -57 1l-30 2h-32l-30 -2q-30 -1 -57 -1q-4 0 -4 3q1 3 4 4q55 0 68 19q14 20 14 81v190q0 108 -31 146q-31 39 -93 39q-112 0 -210 -120v-255
q0 -62 13 -81t69 -19q4 0 4 -3q-1 -3 -4 -4q-27 0 -57 1z" />
    <glyph glyph-name="uni0145" unicode="&#x145;" horiz-adv-x="809" 
d="M795 703q4 0 4 -3q-1 -3 -4 -4q-106 0 -106 -135v-560q0 -3 -3 -3.5t-5 2.5l-531 624v-470q0 -150 106 -150q4 0 4 -3q-1 -3 -4 -4q-23 0 -69 2q-23 1 -42 1t-42 -1q-46 -2 -69 -2q-4 0 -4 3q1 3 4 4q106 0 106 135v388q0 68 -3.5 97.5t-15.5 46.5q-11 17 -25.5 20.5
t-53.5 3.5q-3 0 -4.5 2.5t0 4.5t4.5 2q31 0 68 -2l38 -2h-1l532 -629v475q0 150 -106 150q-4 0 -4 3q1 3 4 4q23 0 69 -2q23 -1 42 -1t42 1q46 2 69 2zM415 -65q18 0 28.5 -11.5t10.5 -29.5q0 -51 -28 -95q-28 -46 -58 -68l-5 7q31 24 54 63q22 37 24 64q-9 -4 -25 -4
q-17 0 -27 10t-10 25q0 17 10 28t26 11z" />
    <glyph glyph-name="uni0146" unicode="&#x146;" horiz-adv-x="625" 
d="M143 0h-32l-30 -2q-30 -1 -57 -1q-4 0 -4 3q1 3 4 4q55 0 68 19q14 20 14 81v239q0 66 -13.5 92t-53.5 26q-2 1 -2 3t2 3q39 10 78 43q3 3 6 0q24 -36 24 -140h1q44 58 108 99q67 41 118 41q84 0 117 -49.5t33 -163.5v-193q0 -62 13 -81t69 -19q4 0 4 -3q-1 -3 -4 -4
q-27 0 -57 1l-30 2h-32l-30 -2q-30 -1 -57 -1q-4 0 -4 3q1 3 4 4q55 0 68 19q14 20 14 81v190q0 108 -31 146q-31 39 -93 39q-112 0 -210 -120v-255q0 -62 13 -81t69 -19q4 0 4 -3q-1 -3 -4 -4q-27 0 -57 1zM274 -269l-5 7q31 24 54 63q22 37 24 64q-9 -4 -25 -4
q-17 0 -27 10t-10 25q0 17 10 28t26 11q18 0 28.5 -11.5t10.5 -29.5q0 -51 -28 -95q-28 -46 -58 -68z" />
    <glyph glyph-name="Ncaron" unicode="&#x147;" horiz-adv-x="809" 
d="M421 794h-32q-45 68 -111 128l3 3q63 -31 124 -90q62 59 124 90l3 -3q-66 -60 -111 -128zM795 703q4 0 4 -3q-1 -3 -4 -4q-106 0 -106 -135v-560q0 -3 -3 -3.5t-5 2.5l-531 624v-470q0 -150 106 -150q4 0 4 -3q-1 -3 -4 -4q-23 0 -69 2q-23 1 -42 1t-42 -1q-46 -2 -69 -2
q-4 0 -4 3q1 3 4 4q106 0 106 135v388q0 68 -3.5 97.5t-15.5 46.5q-11 17 -25.5 20.5t-53.5 3.5q-3 0 -4.5 2.5t0 4.5t4.5 2q31 0 68 -2l38 -2h-1l532 -629v475q0 150 -106 150q-4 0 -4 3q1 3 4 4q23 0 69 -2q23 -1 42 -1t42 1q46 2 69 2z" />
    <glyph glyph-name="ncaron" unicode="&#x148;" horiz-adv-x="625" 
d="M435 725l3 -3q-66 -60 -111 -128h-32q-45 68 -111 128l3 3q62 -31 124 -90q62 59 124 90zM143 0h-32l-30 -2q-30 -1 -57 -1q-4 0 -4 3q1 3 4 4q55 0 68 19q14 20 14 81v239q0 66 -13.5 92t-53.5 26q-2 1 -2 3t2 3q39 10 78 43q3 3 6 0q24 -36 24 -140h1q44 58 108 99
q67 41 118 41q84 0 117 -49.5t33 -163.5v-193q0 -62 13 -81t69 -19q4 0 4 -3q-1 -3 -4 -4q-27 0 -57 1l-30 2h-32l-30 -2q-30 -1 -57 -1q-4 0 -4 3q1 3 4 4q55 0 68 19q14 20 14 81v190q0 108 -31 146q-31 39 -93 39q-112 0 -210 -120v-255q0 -62 13 -81t69 -19q4 0 4 -3
q-1 -3 -4 -4q-27 0 -57 1z" />
    <glyph glyph-name="Eng" unicode="&#x14a;" horiz-adv-x="809" 
d="M795 703q4 0 4 -3q-1 -3 -4 -4q-106 0 -106 -135v-560v-1q0 -109 -47 -168t-130 -89l-1 6q70 29 100 83q32 56 32 165v48l-493 579v-501q0 -120 106 -120q2 0 4 -2l-4 -3q-46 0 -69 1t-42 1t-42 -1q-46 -2 -69 -2q-4 0 -4 3q1 3 4 4q106 0 106 135v388q0 68 -3.5 97.5
t-15.5 46.5q-11 17 -25.5 20.5t-53.5 3.5q-3 0 -4.5 2.5t0 4.5t4.5 2q31 0 68 -2l38 -2h-1l532 -629v506q0 120 -106 120q-2 0 -4 2l4 3q46 0 69 -1t42 -1t42 1q46 2 69 2z" />
    <glyph glyph-name="eng" unicode="&#x14b;" horiz-adv-x="588" 
d="M373 510q82 0 116 -51.5t34 -161.5v-297q0 -128 -51 -186q-50 -59 -118 -59q-32 0 -61 15t-29 33q0 26 26 26q23 0 64 -63h10q59 0 88 47.5t29 128.5v58v294q0 108 -31 146q-32 39 -93 39q-113 0 -210 -120v-255q0 -62 13 -81t69 -19q4 0 4 -3q-1 -3 -4 -4
q-20 0 -39.5 0.5t-32 1.5t-15.5 1h-31l-30 -2q-30 -1 -57 -1q-4 0 -4 3q1 3 4 4q55 0 68 19q14 20 14 81v239q0 48 -4 72q-4 47 -50 61q-2 1 -2 3t2 3q40 10 62 28q3 3 6 0q27 -42 27 -140q43 58 108 99q67 41 118 41z" />
    <glyph glyph-name="Omacron" unicode="&#x14c;" horiz-adv-x="784" 
d="M519 852v-10h-255v10h255zM392 710q160 0 256 -96t96 -256q0 -156 -105 -262q-103 -106 -257 -106t-248 96q-94 95 -94 252t103 264q103 108 249 108zM402 2q122 0 201 93q81 93 81 243q0 155 -86 258q-86 102 -216 102q-120 0 -201 -95t-81 -245q0 -152 86 -255
q86 -101 216 -101z" />
    <glyph glyph-name="omacron" unicode="&#x14d;" horiz-adv-x="579" 
d="M417 652v-10h-255v10h255zM281 -10q-113 0 -183 68q-68 70 -68 183t78 191t192 78q113 0 181 -68t68 -181t-78 -193q-77 -78 -190 -78zM297 2q77 0 138 64t61 173q0 114 -63 189q-63 74 -163 70q-74 -5 -130 -68q-57 -64 -57 -169q0 -111 59 -185q60 -74 155 -74z" />
    <glyph glyph-name="Obreve" unicode="&#x14e;" horiz-adv-x="784" 
d="M269 907l4 1q29 -81 119 -81t119 81l4 -1q-2 -52 -40 -81.5t-83 -29.5t-83 29.5t-40 81.5zM392 710q160 0 256 -96t96 -256q0 -156 -105 -262q-103 -106 -257 -106t-248 96q-94 95 -94 252t103 264q103 108 249 108zM402 2q122 0 201 93q81 93 81 243q0 155 -86 258
q-86 102 -216 102q-120 0 -201 -95t-81 -245q0 -152 86 -255q86 -101 216 -101z" />
    <glyph glyph-name="obreve" unicode="&#x14f;" horiz-adv-x="579" 
d="M167 707l4 1q29 -81 119 -81t119 81l4 -1q-2 -52 -40 -81.5t-83 -29.5t-83 29.5t-40 81.5zM281 -10q-113 0 -183 68q-68 70 -68 183t78 191t192 78q113 0 181 -68t68 -181t-78 -193q-77 -78 -190 -78zM297 2q77 0 138 64t61 173q0 114 -63 189q-63 74 -163 70
q-74 -5 -130 -68q-57 -64 -57 -169q0 -111 59 -185q60 -74 155 -74z" />
    <glyph glyph-name="Ohungarumlaut" unicode="&#x150;" horiz-adv-x="784" 
d="M258 980l-3 3q34 28 56 57q4 5 10.5 13.5t9 12t7 9t7 8t6 5.5t6.5 4t6.5 2t7.5 1q21 0 21 -21q0 -34 -134 -94zM258 792l-3 3q34 28 56 57q4 5 10.5 13.5t9 12t7 9t7 8t6 5.5t6.5 4t6.5 2t7.5 1q21 0 21 -21q0 -34 -134 -94zM392 710q160 0 256 -96t96 -256
q0 -156 -105 -262q-103 -106 -257 -106t-248 96q-94 95 -94 252t103 264q103 108 249 108zM402 2q122 0 201 93q81 93 81 243q0 155 -86 258q-86 102 -216 102q-120 0 -201 -95t-81 -245q0 -152 86 -255q86 -101 216 -101z" />
    <glyph glyph-name="ohungarumlaut" unicode="&#x151;" horiz-adv-x="579" 
d="M156 780l-3 3q34 28 56 57q4 5 10.5 13.5t9 12t7 9t7 8t6 5.5t6.5 4t6.5 2t7.5 1q21 0 21 -21q0 -34 -134 -94zM156 592l-3 3q34 28 56 57q4 5 10.5 13.5t9 12t7 9t7 8t6 5.5t6.5 4t6.5 2t7.5 1q21 0 21 -21q0 -34 -134 -94zM281 -10q-113 0 -183 68q-68 70 -68 183
t78 191t192 78q113 0 181 -68t68 -181t-78 -193q-77 -78 -190 -78zM297 2q77 0 138 64t61 173q0 114 -63 189q-63 74 -163 70q-74 -5 -130 -68q-57 -64 -57 -169q0 -111 59 -185q60 -74 155 -74z" />
    <glyph glyph-name="OE" unicode="&#x152;" horiz-adv-x="1097" 
d="M1058 261q0 3 4 3t4 -3l-66 -295q-1 -4 -5 0q-11 13 -16 17q-19 17 -98 17h-345q-7 0 -36 -1.5t-43 -1.5q-32 -7 -74 -7q-153 0 -248 96q-94 95 -94 252t103 264q104 108 249 108q38 0 84 -8q12 0 33.5 -1t25.5 -1h304q41 0 65 6q27 8 30 11l15 17q3 3 5 0l60 -271
q0 -2 -1.5 -3t-3.5 0t-3 3q-43 139 -93 183q-49 44 -144 44h-196v-323h179q43 0 62.5 22t19.5 74q0 2 1 3.5t3 0.5q3 -1 3 -4v-205q0 -2 -1 -3.5t-3 -0.5q-3 2 -3 4q0 58 -18 78t-64 20h-179v-346h222q67 0 99 7q36 8 65 37q31 30 49 73q17 38 49 134zM101 358
q0 -152 86 -255q86 -101 216 -101q19 0 24 1q0 1 3 1h6q39 4 75 21q17 25 17 119v412q0 83 -11 108q-61 34 -134 34q-121 0 -202 -95q-80 -95 -80 -245z" />
    <glyph glyph-name="oe" unicode="&#x153;" horiz-adv-x="1024" 
d="M1003 220q4 3 8.5 1.5t2.5 -6.5q-101 -224 -278 -224q-76 0 -133 38t-84 105q-34 -66 -97.5 -105t-140.5 -39q-113 0 -183 68q-68 70 -68 183t78 191t192 78q83 0 143 -37.5t86 -104.5q36 64 100 103t138 39q79 0 135 -49q57 -49 57 -119q0 -16 -4 -33h-409v-4
q3 -21 3 -44q0 -20 -1 -25q12 -91 68 -152q56 -59 148 -59q167 0 239 195zM297 2q77 0 138 64t61 173q0 114 -63 189q-63 74 -163 70q-74 -5 -130 -68q-57 -64 -57 -169q0 -111 59 -185q60 -74 155 -74zM758 499q-40 0 -84 -18q-45 -19 -81 -62.5t-45 -99.5h318q37 0 37 42
q0 63 -36.5 100.5t-108.5 37.5z" />
    <glyph glyph-name="Racute" unicode="&#x154;" horiz-adv-x="730" 
d="M326 897q0 -34 -134 -94l-3 3q34 28 56 57q4 5 10.5 13.5t9 12t7 9t7 8t6 5.5t6.5 4t6.5 2t7.5 1q21 0 21 -21zM731 4q4 0 4 -3q-1 -3 -4 -4q-21 0 -42.5 0.5t-35.5 1.5t-17 1h-26q-29 15 -71 114l-28 67q-37 88 -105 115t-211 27h-16v-165q0 -63 4.5 -90t21.5 -42
t37.5 -18.5t73.5 -3.5q6 0 7 -3q1 -1 -3 -3q-1 -1 -4 -1q-44 0 -96 1l-52 2h-27l-37 -2q-38 -1 -69 -1q-3 0 -5 3q1 3 5 4q39 0 53.5 3t25.5 17q12 14 15.5 39t3.5 81v412q0 56 -3.5 81t-15.5 39q-11 14 -25.5 17t-53.5 3q-3 0 -5 3q1 3 5 4q31 0 69 -1l37 -2h161
q309 0 309 -182q0 -78 -67.5 -126.5t-193.5 -62.5q78 -6 125 -33t74 -86l37 -79q35 -74 63 -101q29 -26 82 -26zM179 567v-234h42q160 0 245 46.5t85 139.5q0 89 -58 127.5t-184 38.5h-122q-8 -29 -8 -118z" />
    <glyph glyph-name="racute" unicode="&#x155;" horiz-adv-x="400" 
d="M133 603l-3 3q34 28 56 57q4 5 10.5 13.5t9 12t7 9t7 8t6 5.5t6.5 4t6.5 2t7.5 1q21 0 21 -21q0 -34 -134 -94zM142 0h-31l-30 -2q-30 -1 -57 -1q-4 0 -4 3q1 3 4 4q55 0 68 19q14 20 14 81v234q0 58 -9 86q-11 37 -58 37q-2 1 -2.5 3t2.5 3q19 5 33 12q28 13 46 31
q4 4 6 0q26 -52 21 -147h1q24 68 77 107q52 40 98 40q28 0 48 -12.5t20 -30.5q0 -11 -9 -19t-22 -8q-46 0 -96 42h-2q-6 0 -26 -14q-18 -13 -46 -48q-27 -37 -40 -78v-238q0 -62 18 -81t89 -19q3 0 5 -3q-1 -3 -5 -4q-26 0 -52 0.5t-42 1.5t-19 1z" />
    <glyph glyph-name="uni0156" unicode="&#x156;" horiz-adv-x="730" 
d="M731 4q4 0 4 -3q-1 -3 -4 -4q-21 0 -42.5 0.5t-35.5 1.5t-17 1h-26q-29 15 -71 114l-28 67q-37 88 -105 115t-211 27h-16v-165q0 -63 4.5 -90t21.5 -42t37.5 -18.5t73.5 -3.5q6 0 7 -3q1 -1 -3 -3q-1 -1 -4 -1q-44 0 -96 1l-52 2h-27l-37 -2q-38 -1 -69 -1q-3 0 -5 3
q1 3 5 4q39 0 53.5 3t25.5 17q12 14 15.5 39t3.5 81v412q0 56 -3.5 81t-15.5 39q-11 14 -25.5 17t-53.5 3q-3 0 -5 3q1 3 5 4q31 0 69 -1l37 -2h161q309 0 309 -182q0 -78 -67.5 -126.5t-193.5 -62.5q78 -6 125 -33t74 -86l37 -79q35 -74 63 -101q29 -26 82 -26zM179 567
v-234h42q160 0 245 46.5t85 139.5q0 89 -58 127.5t-184 38.5h-122q-8 -29 -8 -118zM405 -65q18 0 28.5 -11.5t10.5 -29.5q0 -51 -28 -95q-28 -46 -58 -68l-5 7q31 24 54 63q22 37 24 64q-9 -4 -25 -4q-17 0 -27 10t-10 25q0 17 10 28t26 11z" />
    <glyph glyph-name="uni0157" unicode="&#x157;" horiz-adv-x="400" 
d="M142 0h-31l-30 -2q-30 -1 -57 -1q-4 0 -4 3q1 3 4 4q55 0 68 19q14 20 14 81v234q0 58 -9 86q-11 37 -58 37q-2 1 -2.5 3t2.5 3q19 5 33 12q28 13 46 31q4 4 6 0q26 -52 21 -147h1q24 68 77 107q52 40 98 40q28 0 48 -12.5t20 -30.5q0 -11 -9 -19t-22 -8q-46 0 -96 42h-2
q-6 0 -26 -14q-18 -13 -46 -48q-27 -37 -40 -78v-238q0 -62 18 -81t89 -19q3 0 5 -3q-1 -3 -5 -4q-26 0 -52 0.5t-42 1.5t-19 1zM84 -268l-5 7q31 24 54 63q22 37 24 64q-9 -4 -25 -4q-17 0 -27 10t-10 25q0 17 10 28t26 11q18 0 28.5 -11.5t10.5 -29.5q0 -51 -28 -95
q-28 -46 -58 -68z" />
    <glyph glyph-name="Rcaron" unicode="&#x158;" horiz-adv-x="730" 
d="M277 794h-32q-45 68 -111 128l3 3q62 -31 124 -90q62 59 124 90l3 -3q-66 -60 -111 -128zM731 4q4 0 4 -3q-1 -3 -4 -4q-21 0 -42.5 0.5t-35.5 1.5t-17 1h-26q-29 15 -71 114l-28 67q-37 88 -105 115t-211 27h-16v-165q0 -63 4.5 -90t21.5 -42t37.5 -18.5t73.5 -3.5
q6 0 7 -3q1 -1 -3 -3q-1 -1 -4 -1q-44 0 -96 1l-52 2h-27l-37 -2q-38 -1 -69 -1q-3 0 -5 3q1 3 5 4q39 0 53.5 3t25.5 17q12 14 15.5 39t3.5 81v412q0 56 -3.5 81t-15.5 39q-11 14 -25.5 17t-53.5 3q-3 0 -5 3q1 3 5 4q31 0 69 -1l37 -2h161q309 0 309 -182
q0 -78 -67.5 -126.5t-193.5 -62.5q78 -6 125 -33t74 -86l37 -79q35 -74 63 -101q29 -26 82 -26zM179 567v-234h42q160 0 245 46.5t85 139.5q0 89 -58 127.5t-184 38.5h-122q-8 -29 -8 -118z" />
    <glyph glyph-name="rcaron" unicode="&#x159;" horiz-adv-x="400" 
d="M326 725l3 -3q-66 -60 -111 -128h-32q-45 68 -111 128l3 3q63 -31 124 -90q61 59 124 90zM142 0h-31l-30 -2q-30 -1 -57 -1q-4 0 -4 3q1 3 4 4q55 0 68 19q14 20 14 81v234q0 58 -9 86q-11 37 -58 37q-2 1 -2.5 3t2.5 3q19 5 33 12q28 13 46 31q4 4 6 0q26 -52 21 -147h1
q24 68 77 107q52 40 98 40q28 0 48 -12.5t20 -30.5q0 -11 -9 -19t-22 -8q-46 0 -96 42h-2q-6 0 -26 -14q-18 -13 -46 -48q-27 -37 -40 -78v-238q0 -62 18 -81t89 -19q3 0 5 -3q-1 -3 -5 -4q-26 0 -52 0.5t-42 1.5t-19 1z" />
    <glyph glyph-name="Sacute" unicode="&#x15a;" horiz-adv-x="678" 
d="M265 803l-3 3q34 28 56 57q4 5 10.5 13.5t9 12t7 9t7 8t6 5.5t6.5 4t6.5 2t7.5 1q21 0 21 -21q0 -34 -134 -94zM384 -10q-59 0 -113 10q-60 11 -63 11q-27 0 -40 -43q-2 -3 -5 0l-89 308q-2 5 2 6q4 0 5 -4q50 -135 125 -206t168 -71q86 0 144 44q58 43 58 113
q0 69 -41 102q-32 28 -159 73l-29 10l-1 1h-1h-1l-1 1h-1h-1l-1 1h-1l-1 1h-1h-1l-1 1h-1h-1l-1 1h-1h-1l-2 1l-73 27q-32 14 -60 28q-37 20 -53 36q-42 48 -42 105q0 67 57 115q58 49 147 49q44 0 96 -11q49 -10 60 -10q14 0 25 12.5t15 30.5q1 2 2.5 2t2.5 -2l81 -280
q1 -4 -3 -4.5t-5 4.5q-86 248 -279 248q-65 0 -108 -40q-44 -41 -44 -93q1 -63 39 -98t163 -77l48 -15q32 -9 55 -17l50 -20q44 -17 85 -58q37 -34 37 -97q0 -79 -62 -138q-62 -57 -178 -57z" />
    <glyph glyph-name="sacute" unicode="&#x15b;" horiz-adv-x="527" 
d="M185 603l-3 3q34 28 56 57q4 5 10.5 13.5t9 12t7 9t7 8t6 5.5t6.5 4t6.5 2t7.5 1q21 0 21 -21q0 -34 -134 -94zM285 -10q-32 0 -81 11q-46 12 -60 12t-22 -5t-13.5 -13.5t-6.5 -9.5q-3 -3 -4 0l-39 227q0 3 2.5 3t3.5 -3q24 -106 85 -159q62 -53 127 -53q70 0 113.5 31.5
t43.5 81.5t-25 72q-26 23 -95 42l-109 30q-131 35 -131 128q0 36 15.5 62t42 39t53 18.5t55.5 5.5q24 0 71 -12q49 -11 57 -11q11 0 18 4q9 4 16.5 12t7.5 12q3 3 4 0l39 -227q0 -3 -4 -2q-2 0 -2 2q-17 75 -53 122q-66 90 -153 90q-53 0 -89 -28t-36 -74q0 -43 22.5 -64.5
t82.5 -37.5l86 -23q47 -12 84 -28q36 -14 60.5 -42.5t24.5 -65.5q0 -51 -30 -86q-54 -61 -161 -61z" />
    <glyph glyph-name="Scircumflex" unicode="&#x15c;" horiz-adv-x="678" 
d="M461 767l-3 -3q-62 31 -124 90q-61 -59 -124 -90l-3 3q66 60 111 128h32q45 -68 111 -128zM384 -10q-59 0 -113 10q-60 11 -63 11q-27 0 -40 -43q-2 -3 -5 0l-89 308q-2 5 2 6q4 0 5 -4q50 -135 125 -206t168 -71q86 0 144 44q58 43 58 113q0 69 -41 102q-32 28 -159 73
l-29 10l-1 1h-1h-1l-1 1h-1h-1l-1 1h-1l-1 1h-1h-1l-1 1h-1h-1l-1 1h-1h-1l-2 1l-73 27q-32 14 -60 28q-37 20 -53 36q-42 48 -42 105q0 67 57 115q58 49 147 49q44 0 96 -11q49 -10 60 -10q14 0 25 12.5t15 30.5q1 2 2.5 2t2.5 -2l81 -280q1 -4 -3 -4.5t-5 4.5
q-86 248 -279 248q-65 0 -108 -40q-44 -41 -44 -93q1 -63 39 -98t163 -77l48 -15q32 -9 55 -17l50 -20q44 -17 85 -58q37 -34 37 -97q0 -79 -62 -138q-62 -57 -178 -57z" />
    <glyph glyph-name="scircumflex" unicode="&#x15d;" horiz-adv-x="527" 
d="M381 567l-3 -3q-62 31 -124 90q-61 -59 -124 -90l-3 3q66 60 111 128h32q45 -68 111 -128zM285 -10q-32 0 -81 11q-46 12 -60 12t-22 -5t-13.5 -13.5t-6.5 -9.5q-3 -3 -4 0l-39 227q0 3 2.5 3t3.5 -3q24 -106 85 -159q62 -53 127 -53q70 0 113.5 31.5t43.5 81.5t-25 72
q-26 23 -95 42l-109 30q-131 35 -131 128q0 36 15.5 62t42 39t53 18.5t55.5 5.5q24 0 71 -12q49 -11 57 -11q11 0 18 4q9 4 16.5 12t7.5 12q3 3 4 0l39 -227q0 -3 -4 -2q-2 0 -2 2q-17 75 -53 122q-66 90 -153 90q-53 0 -89 -28t-36 -74q0 -43 22.5 -64.5t82.5 -37.5l86 -23
q47 -12 84 -28q36 -14 60.5 -42.5t24.5 -65.5q0 -51 -30 -86q-54 -61 -161 -61z" />
    <glyph glyph-name="Scedilla" unicode="&#x15e;" horiz-adv-x="678" 
d="M384 -10h-25l-29 -60q85 -18 85 -60q0 -29 -24 -46.5t-61 -17.5q-26 0 -49.5 11.5t-23.5 24.5q0 18 15 18q3 0 10 -4.5t18 -12t21 -12.5q19 -10 42 -10t23 16q0 27 -17.5 45.5t-63.5 29.5l46 79q-39 1 -89 11q-45 9 -54 9q-27 0 -40 -43q-2 -3 -5 0l-89 308q-2 5 2 6
q4 0 5 -4q50 -135 125 -206t168 -71q86 0 144 44q58 43 58 113q0 69 -41 102q-32 28 -159 73l-29 10l-1 1h-1h-1l-1 1h-1h-1l-1 1h-1l-1 1h-1h-1l-1 1h-1h-1l-1 1h-1h-1l-2 1l-73 27q-32 14 -60 28q-37 20 -53 36q-42 48 -42 105q0 67 57 115q58 49 147 49q44 0 96 -11
q49 -10 60 -10q14 0 25 12.5t15 30.5q1 2 2.5 2t2.5 -2l81 -280q1 -4 -3 -4.5t-5 4.5q-86 248 -279 248q-65 0 -108 -40q-44 -41 -44 -93q1 -63 39 -98t163 -77l48 -15q32 -9 55 -17l50 -20q44 -17 85 -58q37 -34 37 -97q0 -79 -62 -138q-62 -57 -178 -57z" />
    <glyph glyph-name="scedilla" unicode="&#x15f;" horiz-adv-x="527" 
d="M285 -10h-5l-29 -60q85 -18 85 -60q0 -29 -24 -46.5t-61 -17.5q-26 0 -49.5 11.5t-23.5 24.5q0 18 15 18q3 0 10 -4.5t18 -12t21 -12.5q19 -10 42 -10t23 16q0 27 -17.5 45.5t-63.5 29.5l45 78q-31 2 -71 12q-42 11 -56 11t-22 -5t-13.5 -13.5t-6.5 -9.5q-3 -3 -4 0
l-39 227q0 3 2.5 3t3.5 -3q24 -106 85 -159q62 -53 127 -53q70 0 113.5 31.5t43.5 81.5t-25 72q-26 23 -95 42l-109 30q-131 35 -131 128q0 36 15.5 62t42 39t53 18.5t55.5 5.5q24 0 71 -12q49 -11 57 -11q11 0 18 4q9 4 16.5 12t7.5 12q3 3 4 0l39 -227q0 -3 -4 -2
q-2 0 -2 2q-17 75 -53 122q-66 90 -153 90q-53 0 -89 -28t-36 -74q0 -43 22.5 -64.5t82.5 -37.5l86 -23q47 -12 84 -28q36 -14 60.5 -42.5t24.5 -65.5q0 -51 -30 -86q-54 -61 -161 -61z" />
    <glyph glyph-name="Scaron" unicode="&#x160;" horiz-adv-x="678" 
d="M458 925l3 -3q-66 -60 -111 -128h-32q-45 68 -111 128l3 3q62 -31 124 -90q62 59 124 90zM384 -10q-59 0 -113 10q-60 11 -63 11q-27 0 -40 -43q-2 -3 -5 0l-89 308q-2 5 2 6q4 0 5 -4q50 -135 125 -206t168 -71q86 0 144 44q58 43 58 113q0 69 -41 102q-32 28 -159 73
l-29 10l-1 1h-1h-1l-1 1h-1h-1l-1 1h-1l-1 1h-1h-1l-1 1h-1h-1l-1 1h-1h-1l-2 1l-73 27q-32 14 -60 28q-37 20 -53 36q-42 48 -42 105q0 67 57 115q58 49 147 49q44 0 96 -11q49 -10 60 -10q14 0 25 12.5t15 30.5q1 2 2.5 2t2.5 -2l81 -280q1 -4 -3 -4.5t-5 4.5
q-86 248 -279 248q-65 0 -108 -40q-44 -41 -44 -93q1 -63 39 -98t163 -77l48 -15q32 -9 55 -17l50 -20q44 -17 85 -58q37 -34 37 -97q0 -79 -62 -138q-62 -57 -178 -57z" />
    <glyph glyph-name="scaron" unicode="&#x161;" horiz-adv-x="527" 
d="M378 725l3 -3q-66 -60 -111 -128h-32q-45 68 -111 128l3 3q63 -31 124 -90q62 59 124 90zM285 -10q-32 0 -81 11q-46 12 -60 12t-22 -5t-13.5 -13.5t-6.5 -9.5q-3 -3 -4 0l-39 227q0 3 2.5 3t3.5 -3q24 -106 85 -159q62 -53 127 -53q70 0 113.5 31.5t43.5 81.5t-25 72
q-26 23 -95 42l-109 30q-131 35 -131 128q0 36 15.5 62t42 39t53 18.5t55.5 5.5q24 0 71 -12q49 -11 57 -11q11 0 18 4q9 4 16.5 12t7.5 12q3 3 4 0l39 -227q0 -3 -4 -2q-2 0 -2 2q-17 75 -53 122q-66 90 -153 90q-53 0 -89 -28t-36 -74q0 -43 22.5 -64.5t82.5 -37.5l86 -23
q47 -12 84 -28q36 -14 60.5 -42.5t24.5 -65.5q0 -51 -30 -86q-54 -61 -161 -61z" />
    <glyph glyph-name="uni0162" unicode="&#x162;" horiz-adv-x="692" 
d="M610 734l63 -291q1 -2 -1 -4q-3 -1 -4 2q-45 150 -93 200q-46 49 -146 49h-60v-546q0 -57 4.5 -81.5t21.5 -38.5t37 -17t74 -3q6 0 7 -3q1 -1 -3 -3q-1 -1 -4 -1q-44 0 -96 1l-52 2h-12l-34 -70q85 -18 85 -60q0 -29 -24 -46.5t-61 -17.5q-26 0 -49.5 11.5t-23.5 24.5
q0 18 15 18q3 0 10 -4.5t18 -12t21 -12.5q19 -10 42 -10t23 16q0 27 -17.5 45.5t-63.5 29.5l51 88h-4l-52 -2q-52 -1 -96 -1q-6 0 -7 3q2 2 7 4q54 0 74 3t37 17t21.5 38.5t4.5 81.5v546h-60q-99 0 -147 -49q-48 -51 -92 -200q-1 -3 -4 -2q-2 2 -1 4l63 291q1 4 5 0
q15 -23 40 -29q28 -5 84 -5h270q41 0 53 1q20 1 41 9.5t30 23.5q4 4 5 0z" />
    <glyph glyph-name="uni0163" unicode="&#x163;" horiz-adv-x="355" 
d="M318 87q2 2 3.5 0.5t0.5 -3.5q-29 -49 -54.5 -71t-57.5 -23l-29 -60q85 -18 85 -60q0 -29 -24 -46.5t-61 -17.5q-26 0 -49.5 11.5t-23.5 24.5q0 18 15 18q3 0 10 -4.5t18 -12t21 -12.5q19 -10 42 -10t23 16q0 27 -17.5 45.5t-63.5 29.5l45 78q-83 5 -83 118v382h-75v5
q100 37 112 165q1 3 5 2q1 -1 1 -2v-160h130l-5 -10h-126v-375q0 -48 17.5 -75.5t46.5 -27.5q50 0 94 75z" />
    <glyph glyph-name="Tcaron" unicode="&#x164;" horiz-adv-x="692" 
d="M470 925l3 -3q-66 -60 -111 -128h-32q-45 68 -111 128l3 3q63 -31 124 -90q62 59 124 90zM358 0h-24l-52 -2q-52 -1 -96 -1q-6 0 -7 3q2 2 7 4q54 0 74 3t37 17t21.5 38.5t4.5 81.5v546h-60q-99 0 -147 -49q-48 -51 -92 -200q-1 -3 -4 -2q-2 2 -1 4l63 291q1 4 5 0
q15 -23 40 -29q28 -5 84 -5h270q41 0 53 1q20 1 41 9.5t30 23.5q4 4 5 0l63 -291q1 -2 -1 -4q-3 -1 -4 2q-45 150 -93 200q-46 49 -146 49h-60v-546q0 -57 4.5 -81.5t21.5 -38.5t37 -17t74 -3q6 0 7 -3q1 -1 -3 -3q-1 -1 -4 -1q-44 0 -96 1z" />
    <glyph glyph-name="tcaron" unicode="&#x165;" horiz-adv-x="355" 
d="M287 585h-8q0 30 -8 75l-9 52q0 29 21 29q22 0 22 -29q0 -14 -9 -54q-9 -41 -9 -73zM209 -10q-91 0 -91 118v382h-75v5q100 37 112 165q1 3 5 2q1 -1 1 -2v-160h130l-5 -10h-126v-375q0 -48 17.5 -75.5t46.5 -27.5q50 0 94 75q2 2 3.5 0.5t0.5 -3.5q-29 -49 -54.5 -71.5
t-58.5 -22.5z" />
    <glyph glyph-name="Tbar" unicode="&#x166;" horiz-adv-x="692" 
d="M610 734l63 -291q1 -2 -1 -4q-3 -1 -4 2q-45 150 -93 200q-46 49 -146 49h-60v-335h93v-10h-93v-201q0 -57 4.5 -81.5t21.5 -38.5t37 -17t74 -3q6 0 7 -3q1 -1 -3 -3q-1 -1 -4 -1q-44 0 -96 1l-52 2h-24l-52 -2q-52 -1 -96 -1q-6 0 -7 3q2 2 7 4q54 0 74 3t37 17
t21.5 38.5t4.5 81.5v201h-93v10h93v335h-60q-99 0 -147 -49q-48 -51 -92 -200q-1 -3 -4 -2q-2 2 -1 4l63 291q1 4 5 0q15 -23 40 -29q28 -5 84 -5h270q41 0 53 1q20 1 41 9.5t30 23.5q4 4 5 0z" />
    <glyph glyph-name="tbar" unicode="&#x167;" horiz-adv-x="355" 
d="M318 87q2 2 3.5 0.5t0.5 -3.5q-29 -49 -54.5 -71.5t-58.5 -22.5q-91 0 -91 118v168h-92v10h92v204h-75v5q100 37 112 165q1 3 5 2q1 -1 1 -2v-160h130l-5 -10h-126v-204h98v-10h-98v-161q0 -48 17.5 -75.5t46.5 -27.5q50 0 94 75z" />
    <glyph glyph-name="Utilde" unicode="&#x168;" horiz-adv-x="781" 
d="M313 836q-20 0 -30 -11.5t-17 -40.5l-3 1q-3 1 -4 1q7 30 30.5 54t49.5 24q18 0 50 -13l34 -13q27 -9 46 -9q20 0 30 11.5t17 40.5q0 -1 3 -1t4 -1q-7 -31 -29.5 -54.5t-50.5 -23.5q-17 0 -50 13l-34 13q-22 9 -46 9zM752 703q4 0 4 -3q-1 -3 -4 -4q-106 0 -106 -135
v-236q0 -36 -1 -49q0 -15 -5 -58q-4 -38 -14 -65q-24 -77 -71 -113q-60 -49 -158 -49q-117 0 -193 72t-76 230v263q0 56 -3.5 81t-15.5 39q-11 14 -25.5 17t-53.5 3q-4 0 -5 3q1 3 5 4q31 0 68 -1l38 -2h30l38 2q37 1 68 1q4 0 5 -3q-1 -3 -5 -4q-39 0 -53.5 -3t-26.5 -17
q-18 -22 -18 -120v-235q0 -307 233 -307q122 0 176 76t54 232v178q0 195 -130 195q-3 0 -4.5 2.5t0 4.5t4.5 2q26 0 84 -2q12 0 24 -0.5t18.5 -1t8.5 -0.5q19 0 42 1q46 2 68 2z" />
    <glyph glyph-name="utilde" unicode="&#x169;" horiz-adv-x="615" 
d="M433 679q-7 -31 -29.5 -54.5t-50.5 -23.5q-17 0 -50 13l-34 13q-22 9 -46 9q-20 0 -30 -11.5t-17 -40.5l-3 1q-3 1 -4 1q7 30 30.5 54t49.5 24q18 0 50 -13l34 -13q27 -9 46 -9q20 0 30 11.5t17 40.5q0 -1 3 -1t4 -1zM506 508v-351q0 -65 13.5 -91.5t53.5 -26.5
q2 -1 2 -3t-2 -3q-36 -11 -90 -43q-5 -3 -6 0q-11 71 -11 140h-1q-44 -60 -110 -100q-65 -40 -118 -40q-89 0 -120 55q-32 56 -32 158v156q0 57 -9 79q-10 27 -59 23q-2 1 -2 3t2 3q42 6 105 43q5 2 5 -2v-302q0 -102 30 -143.5t96 -41.5q113 0 211 120v219q0 62 -12 84
q-10 22 -57 17q-2 1 -2 3t2 3q37 4 105 43q6 2 6 -2z" />
    <glyph glyph-name="Umacron" unicode="&#x16a;" horiz-adv-x="781" 
d="M263 852h255v-10h-255v10zM752 703q4 0 4 -3q-1 -3 -4 -4q-106 0 -106 -135v-236q0 -36 -1 -49q0 -15 -5 -58q-4 -38 -14 -65q-24 -77 -71 -113q-60 -49 -158 -49q-117 0 -193 72t-76 230v263q0 56 -3.5 81t-15.5 39q-11 14 -25.5 17t-53.5 3q-4 0 -5 3q1 3 5 4
q31 0 68 -1l38 -2h30l38 2q37 1 68 1q4 0 5 -3q-1 -3 -5 -4q-39 0 -53.5 -3t-26.5 -17q-18 -22 -18 -120v-235q0 -307 233 -307q122 0 176 76t54 232v178q0 195 -130 195q-3 0 -4.5 2.5t0 4.5t4.5 2q26 0 84 -2q12 0 24 -0.5t18.5 -1t8.5 -0.5q19 0 42 1q46 2 68 2z" />
    <glyph glyph-name="umacron" unicode="&#x16b;" horiz-adv-x="615" 
d="M428 652v-10h-255v10h255zM506 508v-351q0 -65 13.5 -91.5t53.5 -26.5q2 -1 2 -3t-2 -3q-36 -11 -90 -43q-5 -3 -6 0q-11 71 -11 140h-1q-44 -60 -110 -100q-65 -40 -118 -40q-89 0 -120 55q-32 56 -32 158v156q0 57 -9 79q-10 27 -59 23q-2 1 -2 3t2 3q42 6 105 43
q5 2 5 -2v-302q0 -102 30 -143.5t96 -41.5q113 0 211 120v219q0 62 -12 84q-10 22 -57 17q-2 1 -2 3t2 3q37 4 105 43q6 2 6 -2z" />
    <glyph glyph-name="Ubreve" unicode="&#x16c;" horiz-adv-x="781" 
d="M268 907l4 1q29 -81 119 -81q91 0 119 81l4 -1q-2 -52 -40 -81.5t-83 -29.5t-83 29.5t-40 81.5zM752 703q4 0 4 -3q-1 -3 -4 -4q-106 0 -106 -135v-236q0 -36 -1 -49q0 -15 -5 -58q-4 -38 -14 -65q-24 -77 -71 -113q-60 -49 -158 -49q-117 0 -193 72t-76 230v263
q0 56 -3.5 81t-15.5 39q-11 14 -25.5 17t-53.5 3q-4 0 -5 3q1 3 5 4q31 0 68 -1l38 -2h30l38 2q37 1 68 1q4 0 5 -3q-1 -3 -5 -4q-39 0 -53.5 -3t-26.5 -17q-18 -22 -18 -120v-235q0 -307 233 -307q122 0 176 76t54 232v178q0 195 -130 195q-3 0 -4.5 2.5t0 4.5t4.5 2
q26 0 84 -2q12 0 24 -0.5t18.5 -1t8.5 -0.5q19 0 42 1q46 2 68 2z" />
    <glyph glyph-name="ubreve" unicode="&#x16d;" horiz-adv-x="615" 
d="M178 707l4 1q29 -81 119 -81q91 0 119 81l4 -1q-2 -52 -40 -81.5t-83 -29.5t-83 29.5t-40 81.5zM506 508v-351q0 -65 13.5 -91.5t53.5 -26.5q2 -1 2 -3t-2 -3q-36 -11 -90 -43q-5 -3 -6 0q-11 71 -11 140h-1q-44 -60 -110 -100q-65 -40 -118 -40q-89 0 -120 55
q-32 56 -32 158v156q0 57 -9 79q-10 27 -59 23q-2 1 -2 3t2 3q42 6 105 43q5 2 5 -2v-302q0 -102 30 -143.5t96 -41.5q113 0 211 120v219q0 62 -12 84q-10 22 -57 17q-2 1 -2 3t2 3q37 4 105 43q6 2 6 -2z" />
    <glyph glyph-name="Uring" unicode="&#x16e;" horiz-adv-x="781" 
d="M392 782q-30 0 -51 20t-21 49t21 49.5t51 20.5q29 0 49 -20.5t20 -49.5t-20.5 -49t-48.5 -20zM392 911q-26 0 -43.5 -17.5t-17.5 -42.5t17.5 -42t43.5 -17t42.5 17t16.5 42q0 23 -17.5 41.5t-41.5 18.5zM752 703q4 0 4 -3q-1 -3 -4 -4q-106 0 -106 -135v-236
q0 -36 -1 -49q0 -15 -5 -58q-4 -38 -14 -65q-24 -77 -71 -113q-60 -49 -158 -49q-117 0 -193 72t-76 230v263q0 56 -3.5 81t-15.5 39q-11 14 -25.5 17t-53.5 3q-4 0 -5 3q1 3 5 4q31 0 68 -1l38 -2h30l38 2q37 1 68 1q4 0 5 -3q-1 -3 -5 -4q-39 0 -53.5 -3t-26.5 -17
q-18 -22 -18 -120v-235q0 -307 233 -307q122 0 176 76t54 232v178q0 195 -130 195q-3 0 -4.5 2.5t0 4.5t4.5 2q26 0 84 -2q12 0 24 -0.5t18.5 -1t8.5 -0.5q19 0 42 1q46 2 68 2z" />
    <glyph glyph-name="uring" unicode="&#x16f;" horiz-adv-x="615" 
d="M302 582q-30 0 -51 20t-21 49t21 49.5t51 20.5q29 0 49 -20.5t20 -49.5t-20.5 -49t-48.5 -20zM302 711q-26 0 -43.5 -17.5t-17.5 -42.5t17.5 -42t43.5 -17t42.5 17t16.5 42q0 23 -17.5 41.5t-41.5 18.5zM506 508v-351q0 -65 13.5 -91.5t53.5 -26.5q2 -1 2 -3t-2 -3
q-36 -11 -90 -43q-5 -3 -6 0q-11 71 -11 140h-1q-44 -60 -110 -100q-65 -40 -118 -40q-89 0 -120 55q-32 56 -32 158v156q0 57 -9 79q-10 27 -59 23q-2 1 -2 3t2 3q42 6 105 43q5 2 5 -2v-302q0 -102 30 -143.5t96 -41.5q113 0 211 120v219q0 62 -12 84q-10 22 -57 17
q-2 1 -2 3t2 3q37 4 105 43q6 2 6 -2z" />
    <glyph glyph-name="Uhungarumlaut" unicode="&#x170;" horiz-adv-x="781" 
d="M391 1074q0 -34 -134 -94l-3 3q34 28 56 57q4 5 10.5 13.5t9 12t7 9t7 8t6 5.5t6.5 4t6.5 2t7.5 1q21 0 21 -21zM391 886q0 -34 -134 -94l-3 3q34 28 56 57q4 5 10.5 13.5t9 12t7 9t7 8t6 5.5t6.5 4t6.5 2t7.5 1q21 0 21 -21zM752 703q4 0 4 -3q-1 -3 -4 -4
q-106 0 -106 -135v-236q0 -36 -1 -49q0 -15 -5 -58q-4 -38 -14 -65q-24 -77 -71 -113q-60 -49 -158 -49q-117 0 -193 72t-76 230v263q0 56 -3.5 81t-15.5 39q-11 14 -25.5 17t-53.5 3q-4 0 -5 3q1 3 5 4q31 0 68 -1l38 -2h30l38 2q37 1 68 1q4 0 5 -3q-1 -3 -5 -4
q-39 0 -53.5 -3t-26.5 -17q-18 -22 -18 -120v-235q0 -307 233 -307q122 0 176 76t54 232v178q0 195 -130 195q-3 0 -4.5 2.5t0 4.5t4.5 2q26 0 84 -2q12 0 24 -0.5t18.5 -1t8.5 -0.5q19 0 42 1q46 2 68 2z" />
    <glyph glyph-name="uhungarumlaut" unicode="&#x171;" horiz-adv-x="615" 
d="M167 780l-3 3q34 28 56 57q4 5 10.5 13.5t9 12t7 9t7 8t6 5.5t6.5 4t6.5 2t7.5 1q21 0 21 -21q0 -34 -134 -94zM167 592l-3 3q34 28 56 57q4 5 10.5 13.5t9 12t7 9t7 8t6 5.5t6.5 4t6.5 2t7.5 1q21 0 21 -21q0 -34 -134 -94zM506 508v-351q0 -65 13.5 -91.5t53.5 -26.5
q2 -1 2 -3t-2 -3q-36 -11 -90 -43q-5 -3 -6 0q-11 71 -11 140h-1q-44 -60 -110 -100q-65 -40 -118 -40q-89 0 -120 55q-32 56 -32 158v156q0 57 -9 79q-10 27 -59 23q-2 1 -2 3t2 3q42 6 105 43q5 2 5 -2v-302q0 -102 30 -143.5t96 -41.5q113 0 211 120v219q0 62 -12 84
q-10 22 -57 17q-2 1 -2 3t2 3q37 4 105 43q6 2 6 -2z" />
    <glyph glyph-name="Uogonek" unicode="&#x172;" horiz-adv-x="781" 
d="M752 703q4 0 4 -3q-1 -3 -4 -4q-106 0 -106 -135v-236q0 -30 -2 -68q-1 -24 -11 -76q-17 -100 -89 -149q-46 -40 -46 -86q0 -51 48 -51q32 0 60 23l4 -4q-41 -41 -76 -41q-28 0 -44.5 15.5t-16.5 44.5q0 42 44 83q-49 -25 -120 -25q-117 0 -193 72t-76 230v263
q0 56 -3.5 81t-15.5 39q-11 14 -25.5 17t-53.5 3q-4 0 -5 3q1 3 5 4q31 0 68 -1l38 -2h30l38 2q37 1 68 1q4 0 5 -3q-1 -3 -5 -4q-39 0 -53.5 -3t-26.5 -17q-18 -22 -18 -120v-235q0 -307 233 -307q122 0 176 76t54 232v178q0 195 -130 195q-3 0 -4.5 2.5t0 4.5t4.5 2
q26 0 84 -2q12 0 24 -0.5t18.5 -1t8.5 -0.5q19 0 42 1q46 2 68 2z" />
    <glyph glyph-name="uogonek" unicode="&#x173;" horiz-adv-x="615" 
d="M506 508v-351q0 -65 13.5 -91.5t53.5 -26.5q2 -1 2 -3t-2 -3q-36 -11 -90 -43q-5 -3 -6 0q-11 71 -11 140h-1q-44 -60 -110 -100q-65 -40 -118 -40q-89 0 -120 55q-32 56 -32 158v156q0 57 -9 79q-10 27 -59 23q-2 1 -2 3t2 3q42 6 105 43q5 2 5 -2v-302
q0 -102 30 -143.5t96 -41.5q113 0 211 120v219q0 62 -12 84q-10 22 -57 17q-2 1 -2 3t2 3q37 4 105 43q6 2 6 -2zM552 -139q-28 0 -44.5 15.5t-16.5 44.5q0 52 73 107l6 -1q-54 -47 -54 -93q0 -51 48 -51q32 0 60 23l4 -4q-41 -41 -76 -41z" />
    <glyph glyph-name="Wcircumflex" unicode="&#x174;" horiz-adv-x="1108" 
d="M526 853q-62 -59 -124 -90l-3 3q66 60 111 128h32q45 -68 111 -128l-3 -3q-62 31 -124 90zM1098 703q5 0 4 -4q-2 -3 -4 -3q-40 0 -70.5 -34t-58.5 -107l-206 -512l-21 -53h-5l-179 438l-155 -385l-21 -53h-5l-229 575q-30 76 -57 103t-81 27q-5 0 -4 4q2 3 4 3
q21 0 42.5 -1t35.5 -1.5t17 -0.5l394 1l38 2q38 1 69 1q4 0 4 -3q-1 -3 -4 -4q-60 0 -69.5 -30.5t23.5 -106.5l198 -503l182 456q36 85 18 134t-86 49q-3 0 -4.5 2.5t0 4.5t4.5 2q28 0 86 -2q12 0 24.5 -0.5t19 -1t8.5 -0.5t17 1t35 1.5t36 0.5zM158 666l240 -610l154 386
l-91 224q-25 13 -52 18q-26 5 -85 6q-73 -2 -93 -5q-29 -5 -73 -19z" />
    <glyph glyph-name="wcircumflex" unicode="&#x175;" horiz-adv-x="879" 
d="M442 654q-61 -59 -124 -90l-3 3q66 60 111 128h32q45 -68 111 -128l-3 -3q-62 31 -124 90zM882 503q3 0 3 -3.5t-3 -3.5q-35 0 -64 -34t-59 -105l-153 -367h-8l-154 376v1l-158 -377h-8l-154 376q-30 73 -55 103q-23 27 -65 27q-5 0 -4 4q2 3 4 3q16 0 32.5 -0.5t28 -1.5
t13.5 -1h29l37 2q38 1 69 1q4 0 4 -3q-1 -3 -4 -4q-59 0 -68.5 -29t23.5 -100l132 -317l137 331q-28 67 -51 91q-22 24 -62 24q-5 0 -4 4q2 3 4 3q16 0 32.5 -0.5t28 -1.5t13.5 -1h29l37 2q38 1 69 1q4 0 4 -3q-1 -3 -4 -4q-59 0 -68.5 -29t23.5 -100l132 -317l127 306
q28 65 11 102.5t-77 37.5q-4 0 -4 3q1 3 4 4q26 0 78 -2q27 -1 48 -1q1 0 13.5 1t30 1.5t31.5 0.5z" />
    <glyph glyph-name="Ycircumflex" unicode="&#x176;" horiz-adv-x="731" 
d="M372 854q-61 -59 -124 -90l-3 3q66 60 111 128h32q45 -68 111 -128l-3 -3q-63 31 -124 90zM722 703q3 0 3 -3.5t-3 -3.5q-40 0 -72 -31t-72 -103l-176 -316v-102q0 -57 4.5 -81.5t21.5 -38.5t37 -17t74 -3q5 0 7 -3q2 -1 -3 -3q-1 -1 -4 -1q-44 0 -96 1l-52 2h-24l-52 -2
q-52 -1 -96 -1q-5 0 -7 3q2 2 7 4q54 0 74 3t37 17t21.5 38.5t4.5 81.5v101l-190 329q-41 72 -71 96q-32 26 -85 26q-5 0 -4 4q2 3 4 3q21 0 43 -0.5t36 -1.5t17 -1h36l38 2q37 1 68 1q4 0 4 -3q-1 -3 -4 -4q-59 0 -65.5 -27t35.5 -95l182 -312l159 286q38 68 21.5 108
t-84.5 40q-4 0 -4 3q1 3 4 4q28 0 86 -2q29 -1 52 -1q2 0 16.5 1t35 1.5t36.5 0.5z" />
    <glyph glyph-name="ycircumflex" unicode="&#x177;" horiz-adv-x="581" 
d="M294 654q-62 -59 -124 -90l-3 3q66 60 111 128h32q45 -68 111 -128l-3 -3q-63 31 -124 90zM584 503q2 0 2 -3.5t-2 -3.5q-35 0 -65 -33.5t-61 -104.5l-163 -368q-38 -95 -83 -143t-108 -48q-38 0 -67 16q-30 17 -30 36q0 12 8.5 21t23.5 9q25 0 46 -25q22 -24 31 -48
q47 0 91 48.5t77 133.5l2 5l-161 372q-33 77 -57 102q-24 27 -66 27q-3 0 -3 3.5t3 3.5q16 0 32.5 -0.5t28 -1.5t13.5 -1h29l37 2q38 1 69 1q4 0 4 -3q-1 -3 -4 -4q-61 -3 -68.5 -29t25.5 -99l143 -318l135 308q30 64 13.5 101t-76.5 37q-4 0 -4 3q1 3 4 4q26 0 78 -2
q26 -1 47 -1l28 2q29 1 48 1z" />
    <glyph glyph-name="Ydieresis" unicode="&#x178;" horiz-adv-x="731" 
d="M284 884q13 0 23.5 -10t10.5 -24t-10 -24t-24 -10q-20 0 -29 17t-0.5 34t29.5 17zM459 884q13 0 23.5 -10t10.5 -24t-10 -24t-24 -10q-20 0 -29 17t-0.5 34t29.5 17zM722 703q3 0 3 -3.5t-3 -3.5q-40 0 -72 -31t-72 -103l-176 -316v-102q0 -57 4.5 -81.5t21.5 -38.5
t37 -17t74 -3q5 0 7 -3q2 -1 -3 -3q-1 -1 -4 -1q-44 0 -96 1l-52 2h-24l-52 -2q-52 -1 -96 -1q-5 0 -7 3q2 2 7 4q54 0 74 3t37 17t21.5 38.5t4.5 81.5v101l-190 329q-41 72 -71 96q-32 26 -85 26q-5 0 -4 4q2 3 4 3q21 0 43 -0.5t36 -1.5t17 -1h36l38 2q37 1 68 1q4 0 4 -3
q-1 -3 -4 -4q-59 0 -65.5 -27t35.5 -95l182 -312l159 286q38 68 21.5 108t-84.5 40q-4 0 -4 3q1 3 4 4q28 0 86 -2q29 -1 52 -1q2 0 16.5 1t35 1.5t36.5 0.5z" />
    <glyph glyph-name="Zacute" unicode="&#x179;" horiz-adv-x="693" 
d="M273 803l-3 3q34 28 56 57q4 5 10.5 13.5t9 12t7 9t7 8t6 5.5t6.5 4t6.5 2t7.5 1q21 0 21 -21q0 -34 -134 -94zM625 697l-497 -687h263q53 0 84 9.5t60 37.5q56 53 101 234q1 3 3.5 4t5 -0.5t2.5 -3.5l-75 -325q-1 -4 -5 0q-11 14 -18 18q-21 16 -81 16h-404q-2 0 -2.5 1
t0.5 2l497 687h-145q-34 0 -68 -2q-65 -2 -97 -20q-37 -18 -63.5 -64t-58.5 -141q-1 -4 -5 -2l-1 4l59 269q1 4 5 0q16 -19 34.5 -26.5t60.5 -7.5h344q1 0 1.5 -1t-0.5 -2z" />
    <glyph glyph-name="zacute" unicode="&#x17a;" horiz-adv-x="543" 
d="M208 603l-3 3q34 28 56 57q4 5 10.5 13.5t9 12t7 9t7 8t6 5.5t6.5 4t6.5 2t7.5 1q21 0 21 -21q0 -34 -134 -94zM491 500v-3l-378 -487h133q98 0 130 13q52 21 85 103q18 47 35 117q1 3 3 4t3.5 -0.5t1.5 -3.5l-53 -256q0 -4 -5 -2q-39 15 -120 15h-273v2l383 488h-69
q-130 0 -166 -10q-57 -15 -82 -73q-19 -41 -32 -114q-1 -3 -4 -2l-1 2l30 215q0 4 3 2q16 -10 134 -10h242z" />
    <glyph glyph-name="Zdotaccent" unicode="&#x17b;" horiz-adv-x="693" 
d="M342 814q-24 0 -33.5 22t7.5 39t39.5 8t22.5 -33q0 -15 -10 -25.5t-26 -10.5zM625 697l-497 -687h263q53 0 84 9.5t60 37.5q56 53 101 234q1 3 3.5 4t5 -0.5t2.5 -3.5l-75 -325q-1 -4 -5 0q-11 14 -18 18q-21 16 -81 16h-404q-2 0 -2.5 1t0.5 2l497 687h-145
q-34 0 -68 -2q-65 -2 -97 -20q-37 -18 -63.5 -64t-58.5 -141q-1 -4 -5 -2l-1 4l59 269q1 4 5 0q16 -19 34.5 -26.5t60.5 -7.5h344q1 0 1.5 -1t-0.5 -2z" />
    <glyph glyph-name="zdotaccent" unicode="&#x17c;" horiz-adv-x="543" 
d="M277 614q-24 0 -33.5 22t7.5 39t39.5 8t22.5 -33q0 -15 -10 -25.5t-26 -10.5zM491 500v-3l-378 -487h133q98 0 130 13q52 21 85 103q18 47 35 117q1 3 3 4t3.5 -0.5t1.5 -3.5l-53 -256q0 -4 -5 -2q-39 15 -120 15h-273v2l383 488h-69q-130 0 -166 -10q-57 -15 -82 -73
q-19 -41 -32 -114q-1 -3 -4 -2l-1 2l30 215q0 4 3 2q16 -10 134 -10h242z" />
    <glyph glyph-name="Zcaron" unicode="&#x17d;" horiz-adv-x="693" 
d="M466 925l3 -3q-66 -60 -111 -128h-32q-45 68 -111 128l3 3q63 -31 124 -90q61 59 124 90zM625 697l-497 -687h263q53 0 84 9.5t60 37.5q56 53 101 234q1 3 3.5 4t5 -0.5t2.5 -3.5l-75 -325q-1 -4 -5 0q-11 14 -18 18q-21 16 -81 16h-404q-2 0 -2.5 1t0.5 2l497 687h-145
q-34 0 -68 -2q-65 -2 -97 -20q-37 -18 -63.5 -64t-58.5 -141q-1 -4 -5 -2l-1 4l59 269q1 4 5 0q16 -19 34.5 -26.5t60.5 -7.5h344q1 0 1.5 -1t-0.5 -2z" />
    <glyph glyph-name="zcaron" unicode="&#x17e;" horiz-adv-x="543" 
d="M401 725l3 -3q-66 -60 -111 -128h-32q-45 68 -111 128l3 3q63 -31 124 -90q62 59 124 90zM491 500v-3l-378 -487h133q98 0 130 13q52 21 85 103q18 47 35 117q1 3 3 4t3.5 -0.5t1.5 -3.5l-53 -256q0 -4 -5 -2q-39 15 -120 15h-273v2l383 488h-69q-130 0 -166 -10
q-57 -15 -82 -73q-19 -41 -32 -114q-1 -3 -4 -2l-1 2l30 215q0 4 3 2q16 -10 134 -10h242z" />
    <glyph glyph-name="florin" unicode="&#x192;" horiz-adv-x="490" 
d="M74 -109q-26 0 -57 15q-32 15 -32 38q0 30 27 30q19 0 39.5 -23t28.5 -52h4q55 1 89 116q8 24 16 76q11 71 13 84l12 97q10 77 13 99h-81v5h82q22 135 66 224q43 88 111 88q30 0 58 -16q30 -16 30 -37q0 -14 -8 -22.5t-19 -8.5q-19 0 -38 18.5t-30 51.5q-8 2 -13 2
q-82 -11 -113 -300h91v-5h-92q-16 -154 -41 -262q-50 -218 -156 -218z" />
    <glyph glyph-name="uni0218" unicode="&#x218;" horiz-adv-x="678" 
d="M384 -10q-59 0 -113 10q-60 11 -63 11q-27 0 -40 -43q-2 -3 -5 0l-89 308q-2 5 2 6q4 0 5 -4q50 -135 125 -206t168 -71q86 0 144 44q58 43 58 113q0 69 -41 102q-32 28 -159 73l-29 10l-1 1h-1h-1l-1 1h-1h-1l-1 1h-1l-1 1h-1h-1l-1 1h-1h-1l-1 1h-1h-1l-2 1l-73 27
q-32 14 -60 28q-37 20 -53 36q-42 48 -42 105q0 67 57 115q58 49 147 49q44 0 96 -11q49 -10 60 -10q14 0 25 12.5t15 30.5q1 2 2.5 2t2.5 -2l81 -280q1 -4 -3 -4.5t-5 4.5q-86 248 -279 248q-65 0 -108 -40q-44 -41 -44 -93q1 -63 39 -98t163 -77l48 -15q32 -9 55 -17
l50 -20q44 -17 85 -58q37 -34 37 -97q0 -79 -62 -138q-62 -57 -178 -57zM327 -269l-5 7q32 24 54 63q22 37 24 64q-9 -4 -25 -4q-17 0 -27 10t-10 25q0 17 10 28t26 11q18 0 28.5 -11.5t10.5 -29.5q0 -51 -28 -95q-28 -46 -58 -68z" />
    <glyph glyph-name="uni0219" unicode="&#x219;" horiz-adv-x="527" 
d="M285 -10q-32 0 -81 11q-46 12 -60 12t-22 -5t-13.5 -13.5t-6.5 -9.5q-3 -3 -4 0l-39 227q0 3 2.5 3t3.5 -3q24 -106 85 -159q62 -53 127 -53q70 0 113.5 31.5t43.5 81.5t-25 72q-26 23 -95 42l-109 30q-131 35 -131 128q0 36 15.5 62t42 39t53 18.5t55.5 5.5q24 0 71 -12
q49 -11 57 -11q11 0 18 4q9 4 16.5 12t7.5 12q3 3 4 0l39 -227q0 -3 -4 -2q-2 0 -2 2q-17 75 -53 122q-66 90 -153 90q-53 0 -89 -28t-36 -74q0 -43 22.5 -64.5t82.5 -37.5l86 -23q47 -12 84 -28q36 -14 60.5 -42.5t24.5 -65.5q0 -51 -30 -86q-54 -61 -161 -61zM248 -269
l-5 7q31 24 54 63q22 37 24 64q-9 -4 -25 -4q-17 0 -27 10t-10 25q0 17 10 28t26 11q18 0 28.5 -11.5t10.5 -29.5q0 -51 -28 -95q-28 -46 -58 -68z" />
    <glyph glyph-name="uni021A" unicode="&#x21a;" horiz-adv-x="692" 
d="M358 0h-24l-52 -2q-52 -1 -96 -1q-6 0 -7 3q2 2 7 4q54 0 74 3t37 17t21.5 38.5t4.5 81.5v546h-60q-99 0 -147 -49q-48 -51 -92 -200q-1 -3 -4 -2q-2 2 -1 4l63 291q1 4 5 0q15 -23 40 -29q28 -5 84 -5h270q41 0 53 1q20 1 41 9.5t30 23.5q4 4 5 0l63 -291q1 -2 -1 -4
q-3 -1 -4 2q-45 150 -93 200q-46 49 -146 49h-60v-546q0 -57 4.5 -81.5t21.5 -38.5t37 -17t74 -3q6 0 7 -3q1 -1 -3 -3q-1 -1 -4 -1q-44 0 -96 1zM309 -269l-5 7q32 24 54 63q22 37 24 64q-9 -4 -25 -4q-17 0 -27 10t-10 25q0 17 10 28t26 11q18 0 28.5 -11.5t10.5 -29.5
q0 -51 -28 -95q-28 -46 -58 -68z" />
    <glyph glyph-name="uni021B" unicode="&#x21b;" horiz-adv-x="355" 
d="M209 -10q-91 0 -91 118v382h-75v5q100 37 112 165q1 3 5 2q1 -1 1 -2v-160h130l-5 -10h-126v-375q0 -48 17.5 -75.5t46.5 -27.5q50 0 94 75q2 2 3.5 0.5t0.5 -3.5q-29 -49 -54.5 -71.5t-58.5 -22.5zM178 -269l-5 7q31 24 54 63q22 37 24 64q-9 -4 -25 -4q-17 0 -27 10
t-10 25q0 17 10 28t26 11q18 0 28.5 -11.5t10.5 -29.5q0 -51 -28 -95q-28 -46 -58 -68z" />
    <glyph glyph-name="uni0237" unicode="&#x237;" horiz-adv-x="248" 
d="M143 510q7 2 7 -3v-515q-2 -129 -52 -187q-51 -59 -118 -59q-50 0 -84 18.5t-34 40.5q0 9 7 16t19 7q13 0 23 -10q4 -4 37 -57q15 -4 31 -4q129 0 129 175v60v355q0 75 -11 95q-10 21 -58 19q-5 0 -1 4q2 2 3 2q55 7 102 43z" />
    <glyph glyph-name="uni02B0" unicode="&#x2b0;" horiz-adv-x="323" 
d="M85 460h-31q-1 0 -15.5 -0.5t-26.5 -0.5q-2 1 0 3q26 0 32.5 9.5t6.5 43.5v249q0 23 -10 33t-29 8q-2 1 0 3q33 7 73 28q2 0 3 -1v-127l-1 -59h1q20 29 51.5 48.5t58.5 19.5q41 0 59 -26.5t18 -84.5v-91q0 -34 6.5 -43.5t32.5 -9.5q2 -2 0 -3q-12 0 -27 1h-15h-32
q-1 0 -14.5 -0.5t-25.5 -0.5q-2 1 0 3q24 0 31 10t7 43v97q0 46 -14.5 64t-44.5 18q-49 0 -91 -51v-128q0 -34 6.5 -43.5t31.5 -9.5q2 -2 0 -3q-12 0 -26 0.5t-15 0.5z" />
    <glyph glyph-name="circumflex" unicode="&#x2c6;" horiz-adv-x="468" 
d="M365 567l-3 -3q-63 31 -124 90q-61 -59 -124 -90l-3 3q66 60 111 128h32q45 -68 111 -128z" />
    <glyph glyph-name="caron" unicode="&#x2c7;" horiz-adv-x="468" 
d="M362 725l3 -3q-66 -60 -111 -128h-32q-45 68 -111 128l3 3q62 -31 124 -90q61 59 124 90z" />
    <glyph glyph-name="breve" unicode="&#x2d8;" horiz-adv-x="602" 
d="M224 697l4 1q28 -81 119 -81t119 81l4 -1q-2 -52 -40 -81.5t-83 -29.5t-83 29.5t-40 81.5z" />
    <glyph glyph-name="dotaccent" unicode="&#x2d9;" horiz-adv-x="468" 
d="M236 684q13 0 23.5 -10t10.5 -24t-10 -24t-24 -10q-20 0 -29 17t-0.5 34t29.5 17z" />
    <glyph glyph-name="ring" unicode="&#x2da;" horiz-adv-x="468" 
d="M222 552q-30 0 -51 20t-21 49t21 49.5t51 20.5q29 0 49 -20.5t20 -49.5t-20.5 -49t-48.5 -20zM222 681q-26 0 -43.5 -17.5t-17.5 -42.5t17.5 -42t43.5 -17t42.5 17t16.5 42q0 23 -17.5 41.5t-41.5 18.5z" />
    <glyph glyph-name="ogonek" unicode="&#x2db;" horiz-adv-x="472" 
d="M234 -169q-28 0 -44.5 15.5t-16.5 44.5q0 51 76 109l3 -3q-54 -47 -54 -93q0 -51 48 -51q34 0 62 24l2 -5q-41 -41 -76 -41z" />
    <glyph glyph-name="tilde" unicode="&#x2dc;" horiz-adv-x="468" 
d="M353 679q-7 -31 -29.5 -54.5t-50.5 -23.5q-17 0 -50 13l-34 13q-22 9 -46 9q-20 0 -30 -11.5t-17 -40.5l-3 1q-3 1 -4 1q7 30 30.5 54t49.5 24q18 0 50 -13l34 -13q27 -9 46 -9q20 0 30 11.5t17 40.5q0 -1 3 -1t4 -1z" />
    <glyph glyph-name="hungarumlaut" unicode="&#x2dd;" horiz-adv-x="468" 
d="M129 791l-3 3q34 28 56 57q4 5 10.5 13.5t9 12t7 9t7 8t6 5.5t6.5 4t6.5 2t7.5 1q21 0 21 -21q0 -34 -134 -94zM129 603l-3 3q34 28 56 57q4 5 10.5 13.5t9 12t7 9t7 8t6 5.5t6.5 4t6.5 2t7.5 1q21 0 21 -21q0 -34 -134 -94z" />
    <glyph glyph-name="uni02E1" unicode="&#x2e1;" horiz-adv-x="139" 
d="M86 460h-32q-1 0 -15.5 -0.5t-26.5 -0.5q-2 1 0 3q26 0 32.5 9.5t6.5 43.5v250q0 23 -8.5 32.5t-29.5 7.5q-1 0 -1 1.5t1 1.5q47 15 72 29q1 1 2 0t1 -2v-320q0 -33 6.5 -43t32.5 -10q3 0 3 -1.5t-3 -1.5q-12 0 -26 0.5t-15 0.5z" />
    <glyph glyph-name="uni02E2" unicode="&#x2e2;" horiz-adv-x="265" 
d="M144 455q-14 0 -41 5t-31 5q-5 0 -9 -2t-6 -3.5t-4.5 -4.5t-3.5 -4q0 -6 -2 0l-20 116q1 1 3 0q14 -49 45.5 -78t66.5 -29q31 0 50.5 14.5t19.5 37.5q0 22 -13.5 33t-46.5 21l-49 14q-70 21 -70 69q0 33 25 50.5t62 17.5q14 0 36 -6q25 -5 29 -5q7 0 12.5 4t8 7.5
t3.5 2.5l19 -113q-2 -1 -3 0q-12 46 -43 75.5t-63 29.5q-24 0 -40.5 -13.5t-16.5 -34.5t11.5 -31t42.5 -19l40 -11q86 -23 86 -71q0 -37 -28 -57t-70 -20z" />
    <glyph glyph-name="gravecomb" unicode="&#x300;" horiz-adv-x="0" 
d="M-139 606l-3 -3q-134 60 -134 94q0 21 21 21q17 0 27 -13q2 -2 13 -16.5t20 -26t25 -28t31 -28.5z" />
    <glyph glyph-name="acutecomb" unicode="&#x301;" horiz-adv-x="0" 
d="M-279 603l-3 3q34 28 56 57q4 5 10.5 13.5t9 12t7 9t7 8t6 5.5t6.5 4t6.5 2t7.5 1q21 0 21 -21q0 -34 -134 -94z" />
    <glyph glyph-name="uni0302" unicode="&#x302;" horiz-adv-x="0" 
d="M-103 567l-3 -3q-62 31 -124 90q-61 -59 -124 -90l-3 3q66 60 111 128h32q45 -68 111 -128z" />
    <glyph glyph-name="tildecomb" unicode="&#x303;" horiz-adv-x="0" 
d="M-115 679q-7 -31 -29.5 -54.5t-50.5 -23.5q-17 0 -50 13l-34 13q-23 9 -46 9q-20 0 -30 -11.5t-17 -40.5l-3 1q-3 1 -4 1q7 30 30.5 54t49.5 24q18 0 50 -13l34 -13q27 -9 46 -9q20 0 30 11.5t17 40.5q0 -1 3 -1t4 -1z" />
    <glyph glyph-name="uni0304" unicode="&#x304;" horiz-adv-x="0" 
d="M-25 652v-10h-255v10h255z" />
    <glyph glyph-name="uni0306" unicode="&#x306;" horiz-adv-x="0" 
d="M-378 707l4 1q28 -81 119 -81t119 81l4 -1q-2 -52 -40 -81.5t-83 -29.5t-83 29.5t-40 81.5z" />
    <glyph glyph-name="uni0307" unicode="&#x307;" horiz-adv-x="0" 
d="M-127 614q-23 0 -33 22.5t8 38.5q16 17 38.5 8t22.5 -33q0 -15 -10 -25.5t-26 -10.5z" />
    <glyph glyph-name="uni0308" unicode="&#x308;" horiz-adv-x="0" 
d="M-332 684q13 0 23.5 -10t10.5 -24t-10 -24t-24 -10q-20 0 -29 17t-0.5 34t29.5 17zM-157 684q13 0 23.5 -10t10.5 -24t-10 -24t-24 -10q-20 0 -29 17t-0.5 34t29.5 17z" />
    <glyph glyph-name="uni030A" unicode="&#x30a;" horiz-adv-x="0" 
d="M-246 582q-30 0 -51 20t-21 49t21 49.5t51 20.5q29 0 49 -20.5t20 -49.5t-20.5 -49t-48.5 -20zM-246 711q-26 0 -43.5 -17.5t-17.5 -42.5t17.5 -42t43.5 -17t42.5 17t16.5 42q0 23 -17.5 41.5t-41.5 18.5z" />
    <glyph glyph-name="uni030B" unicode="&#x30b;" horiz-adv-x="0" 
d="M-339 780l-3 3q34 28 56 57q4 5 10.5 13.5t9 12t7 9t7 8t6 5.5t6.5 4t6.5 2t7.5 1q21 0 21 -21q0 -34 -134 -94zM-339 592l-3 3q34 28 56 57q4 5 10.5 13.5t9 12t7 9t7 8t6 5.5t6.5 4t6.5 2t7.5 1q21 0 21 -21q0 -34 -134 -94z" />
    <glyph glyph-name="uni030C" unicode="&#x30c;" horiz-adv-x="0" 
d="M-106 725l3 -3q-66 -60 -111 -128h-32q-45 68 -111 128l3 3q63 -31 124 -90q62 59 124 90z" />
    <glyph glyph-name="uni0312" unicode="&#x312;" horiz-adv-x="0" 
d="M-156 770l5 -6q-26 -18 -45 -50t-19 -54q7 4 20 4q30 0 30 -29q0 -14 -8 -23t-21 -9q-32 0 -32 33q0 39 20.5 75.5t49.5 58.5z" />
    <glyph glyph-name="dotbelowcomb" unicode="&#x323;" horiz-adv-x="0" 
d="M-90 -160q-23 0 -32.5 22.5t7.5 39.5q16 16 38.5 7t22.5 -33q0 -15 -10 -25.5t-26 -10.5z" />
    <glyph glyph-name="uni0326" unicode="&#x326;" horiz-adv-x="0" 
d="M-150 -269l-5 7q31 24 54 63q22 37 24 64q-9 -4 -25 -4q-17 0 -27 10t-10 25q0 17 10 28t26 11q18 0 28.5 -11.5t10.5 -29.5q0 -50 -27 -95q-30 -47 -59 -68z" />
    <glyph glyph-name="uni0327" unicode="&#x327;" horiz-adv-x="0" 
d="M-245 -198q-26 0 -49.5 11.5t-23.5 24.5q0 18 15 18q3 0 10 -4.5t18 -12t21 -12.5q19 -10 42 -10t23 16q0 27 -17.5 45.5t-63.5 29.5l51 88h8l-34 -70q85 -18 85 -60q0 -29 -24 -46.5t-61 -17.5z" />
    <glyph glyph-name="uni0328" unicode="&#x328;" horiz-adv-x="0" 
d="M-238 -169q-28 0 -44.5 15.5t-16.5 44.5q0 52 73 107l6 -1q-54 -47 -54 -93q0 -51 48 -51q32 0 60 23l4 -4q-41 -41 -76 -41z" />
    <glyph glyph-name="uni0335" unicode="&#x335;" horiz-adv-x="0" 
d="M-40 270h-232v10h232v-10z" />
    <glyph glyph-name="uni0336" unicode="&#x336;" horiz-adv-x="0" 
d="M-40 270h-342v10h342v-10z" />
    <glyph glyph-name="uni0337" unicode="&#x337;" horiz-adv-x="0" 
d="M-70 307l-201 -116l-5 8l201 116z" />
    <glyph glyph-name="uni0338" unicode="&#x338;" horiz-adv-x="0" 
d="M-657 -75l-9 5l546 828l10 -5z" />
    <glyph glyph-name="tonos" unicode="&#x384;" horiz-adv-x="468" 
d="M255 604l-2 3q15 21 20 55q8 49 15.5 58t23.5 9q14 0 21.5 -9t7.5 -22q0 -44 -86 -94z" />
    <glyph glyph-name="dieresistonos" unicode="&#x385;" horiz-adv-x="520" 
d="M187 607l-2 3q15 21 20 55q8 49 15.5 58t23.5 9q14 0 21.5 -9t7.5 -22q0 -44 -86 -94zM136 684q13 0 23.5 -10t10.5 -24t-10 -24t-24 -10q-20 0 -29 17t-0.5 34t29.5 17zM311 684q13 0 23.5 -10t10.5 -24t-10 -24t-24 -10q-20 0 -29 17t-0.5 34t29.5 17z" />
    <glyph glyph-name="Alphatonos" unicode="&#x386;" 
d="M739 4q3 0 3 -3.5t-3 -3.5q-16 0 -32.5 0.5t-28 1.5t-13.5 1h-33l-38 -2q-37 -1 -68 -1q-4 0 -4 3q1 3 4 4q59 0 68 28.5t-25 100.5l-30 74h-171h-192l-32 -66q-31 -63 -14.5 -100t78.5 -37q4 0 4 -3q-1 -3 -4 -4q-26 0 -78 2q-26 1 -47 1q-1 0 -13.5 -0.5t-30 -1.5
t-31.5 -1q-3 0 -3 3.5t3 3.5q34 0 62 32t63 105l230 477q-12 29 -30 62q-1 1 1 3q35 15 41 27q1 1 2 0l241 -577q30 -73 55 -102q24 -27 66 -27zM164 671q0 -44 -86 -94l-2 3q15 21 20 55q8 49 15.5 58t23.5 9q14 0 21.5 -9t7.5 -22zM181 218h186h168q-106 263 -166 389z
" />
    <glyph glyph-name="Epsilontonos" unicode="&#x388;" horiz-adv-x="702" 
d="M663 261q0 3 4 3t4 -3l-66 -295q-1 -4 -5 0q-11 13 -16 17q-19 17 -98 17h-345l-37 -2q-38 -1 -69 -1q-3 0 -5 3q1 3 5 4q39 0 53.5 3t25.5 17q12 14 15.5 39t3.5 81v412q0 56 -3.5 81t-15.5 39q-11 14 -25.5 17t-53.5 3q-3 0 -5 3q1 3 5 4q31 0 69 -1l37 -2h304
q41 0 65 6q27 8 30 11l15 17q3 3 5 0l60 -271q0 -2 -1.5 -3t-3.5 0t-3 3q-44 139 -93 183t-144 44h-196v-323h179q43 0 62.5 22t19.5 74q0 2 1 3.5t3 0.5q3 -1 3 -4v-205q0 -2 -1 -3.5t-3 -0.5q-3 2 -3 4q0 58 -18 78t-64 20h-179v-346h222q67 0 99 7q36 8 65 37
q31 30 49 73q17 38 49 134zM-34 702q14 0 21.5 -9t7.5 -22q0 -44 -86 -94l-2 3q16 22 21 55q3 28 5.5 38.5t10 19.5t22.5 9z" />
    <glyph glyph-name="Etatonos" unicode="&#x389;" horiz-adv-x="821" 
d="M786 4q4 0 5 -3q-1 -3 -5 -4q-31 0 -68 1l-38 2h-30l-38 -2q-37 -1 -68 -1q-4 0 -5 3q1 3 5 4q39 0 53.5 3t25.5 17q12 14 15.5 39t3.5 81v219q-57 0 -106 -1q-48 -1 -120 -1t-131 1t-106 1v-219q0 -98 18 -120q12 -14 26.5 -17t53.5 -3q3 0 5 -3q-1 -3 -5 -4
q-31 0 -69 1l-37 2h-30l-37 -2q-38 -1 -69 -1q-3 0 -5 3q1 3 5 4q39 0 53.5 3t25.5 17q12 14 15.5 39t3.5 81v412q0 56 -3.5 81t-15.5 39q-11 14 -25.5 17t-53.5 3q-3 0 -5 3q1 3 5 4q31 0 69 -1l37 -2h30l37 2q38 1 69 1q3 0 5 -3q-1 -3 -5 -4q-39 0 -53.5 -3t-26.5 -17
q-18 -22 -18 -120v-186h119q55 1 117 1q73 0 122 -1h105v186q0 56 -3.5 81t-15.5 39q-11 14 -25.5 17t-53.5 3q-4 0 -5 3q1 3 5 4q31 0 68 -1l38 -2h30l38 2q37 1 68 1q4 0 5 -3q-1 -3 -5 -4q-39 0 -53.5 -3t-26.5 -17q-18 -22 -18 -120v-412q0 -98 18 -120q12 -14 26.5 -17
t53.5 -3zM-27 702q14 0 21.5 -9t7.5 -22q0 -44 -86 -94l-2 3q16 22 21 55q3 28 5.5 38.5t10 19.5t22.5 9z" />
    <glyph glyph-name="Iotatonos" unicode="&#x38a;" horiz-adv-x="312" 
d="M141 700h30l37 2q38 1 69 1q3 0 5 -3q-1 -3 -5 -4q-39 0 -53.5 -3t-26.5 -17q-18 -22 -18 -120v-412q0 -98 18 -120q12 -14 26.5 -17t53.5 -3q3 0 5 -3q-1 -3 -5 -4q-31 0 -69 1l-37 2h-30l-37 -2q-38 -1 -69 -1q-3 0 -5 3q1 3 5 4q39 0 53.5 3t25.5 17q12 14 15.5 39
t3.5 81v412q0 56 -3.5 81t-15.5 39q-11 14 -25.5 17t-53.5 3q-3 0 -5 3q1 3 5 4q31 0 69 -1zM-84 577l-2 3q16 22 21 55q3 28 5.5 38.5t10 19.5t22.5 9q14 0 21.5 -9t7.5 -22q0 -44 -86 -94z" />
    <glyph glyph-name="Omicrontonos" unicode="&#x38c;" horiz-adv-x="784" 
d="M392 710q160 0 256 -96t96 -256q0 -156 -105 -262q-103 -106 -257 -106t-248 96q-94 95 -94 252t103 264q103 108 249 108zM-84 577l-2 3q16 22 21 55q3 28 5.5 38.5t10 19.5t22.5 9q14 0 21.5 -9t7.5 -22q0 -44 -86 -94zM402 2q122 0 201 93q81 93 81 243q0 155 -86 258
q-86 102 -216 102q-120 0 -201 -95t-81 -245q0 -152 86 -255q86 -101 216 -101z" />
    <glyph glyph-name="Upsilontonos" unicode="&#x38e;" horiz-adv-x="731" 
d="M722 703q3 0 3 -3.5t-3 -3.5q-40 0 -72 -31t-72 -103l-176 -316v-102q0 -57 4.5 -81.5t21.5 -38.5t37 -17t74 -3q5 0 7 -3q2 -1 -3 -3q-1 -1 -4 -1q-44 0 -96 1l-52 2h-24l-52 -2q-52 -1 -96 -1q-5 0 -7 3q2 2 7 4q54 0 74 3t37 17t21.5 38.5t4.5 81.5v101l-190 329
q-41 72 -71 96q-32 26 -85 26q-5 0 -4 4q2 3 4 3q21 0 43 -0.5t36 -1.5t17 -1h36l38 2q37 1 68 1q4 0 4 -3q-1 -3 -4 -4q-59 0 -65.5 -27t35.5 -95l182 -312l159 286q38 68 21.5 108t-84.5 40q-4 0 -4 3q1 3 4 4q28 0 86 -2q29 -1 52 -1q2 0 16.5 1t35 1.5t36.5 0.5z
M-27 702q14 0 21.5 -9t7.5 -22q0 -44 -86 -94l-2 3q16 22 21 55q3 28 5.5 38.5t10 19.5t22.5 9z" />
    <glyph glyph-name="Omegatonos" unicode="&#x38f;" horiz-adv-x="792" 
d="M71 681q0 -44 -86 -94l-2 3q15 21 20 55q8 49 15.5 58t23.5 9q14 0 21.5 -9t7.5 -22zM773 261q0 3 4 3t4 -3l-66 -295q-1 -4 -5 0q-11 13 -16 17q-19 17 -98 17h-142v117q235 46 235 290q0 93 -69 187q-34 47 -91.5 76.5t-125.5 29.5q-55 0 -102.5 -20t-79 -51.5
t-54.5 -71t-33.5 -78t-10.5 -72.5q0 -244 235 -290v-117h-142q-42 0 -67 -6q-16 -4 -24.5 -8t-11.5 -7t-11 -13q-4 -4 -5 0l-66 295q0 3 4 3t4 -3q31 -93 48 -134q20 -43 49 -73q31 -30 65 -37q32 -7 100 -7h47v103q-137 17 -212 98q-74 83 -74 194q0 117 79 207
q87 98 262 98q83 0 151.5 -26t110.5 -71q85 -90 85 -206q0 -113 -75 -195q-73 -82 -211 -99v-103h47q67 0 99 7q36 8 65 37q31 30 49 73q17 38 49 134z" />
    <glyph glyph-name="iotadieresistonos" unicode="&#x390;" horiz-adv-x="246" 
d="M66 607l-2 3q15 21 20 55q8 49 15.5 58t23.5 9q14 0 21.5 -9t7.5 -22q0 -44 -86 -94zM15 684q13 0 23.5 -10t10.5 -24t-10 -24t-24 -10q-20 0 -29 17t-0.5 34t29.5 17zM190 684q13 0 23.5 -10t10.5 -24t-10 -24t-24 -10q-20 0 -29 17t-0.5 34t29.5 17zM220 41q2 2 5 -1
l1 -4q-37 -46 -77 -46q-58 0 -58 73v305q0 65 -14 79t-55 14q-2 1 -1 5l2 1q35 7 51 15l18 8l19 11l15 9q7 1 7 -3v-448q0 -47 34 -47q33 0 53 29z" />
    <glyph glyph-name="Alpha" unicode="&#x391;" 
d="M739 4q3 0 3 -3.5t-3 -3.5q-16 0 -32.5 0.5t-28 1.5t-13.5 1h-33l-38 -2q-37 -1 -68 -1q-4 0 -4 3q1 3 4 4q59 0 68 28.5t-25 100.5l-30 74h-171h-192l-32 -66q-31 -63 -14.5 -100t78.5 -37q4 0 4 -3q-1 -3 -4 -4q-26 0 -78 2q-26 1 -47 1q-1 0 -13.5 -0.5t-30 -1.5
t-31.5 -1q-3 0 -3 3.5t3 3.5q34 0 62 32t63 105l230 477q-12 29 -30 62q-1 1 1 3q35 15 41 27q1 1 2 0l241 -577q30 -73 55 -102q24 -27 66 -27zM181 218h186h168q-106 263 -166 389z" />
    <glyph glyph-name="Beta" unicode="&#x392;" horiz-adv-x="699" 
d="M421 0h-280l-37 -2q-38 -1 -69 -1q-3 0 -5 3q1 3 5 4q39 0 53.5 3t25.5 17q12 14 15.5 39t3.5 81v412q0 56 -3.5 81t-15.5 39q-11 14 -25.5 17t-53.5 3q-3 0 -5 3q1 3 5 4q31 0 69 -1l37 -2h253q94 0 158 -40q66 -40 66 -113q0 -43 -25 -76t-69.5 -52.5t-97.5 -30
t-117 -13.5v-3q138 0 237 -34q56 -19 87 -57t31 -91q0 -85 -70 -137q-70 -53 -173 -53zM179 543v-166h52q158 0 242.5 43.5t84.5 126.5q0 67 -60 104q-60 39 -134 39h-177q-8 -40 -8 -147zM233 367h-54v-179q0 -132 8 -177h214q82 0 142 51q61 52 61 129q-7 108 -106 143
q-64 23 -135 28q-39 4 -67 4q-15 1 -63 1z" />
    <glyph glyph-name="Gamma" unicode="&#x393;" horiz-adv-x="550" 
d="M471 734l60 -271q0 -2 -1.5 -3t-3.5 0t-3 3q-43 139 -93 183q-49 44 -144 44h-98q-8 -40 -8 -147v-385q0 -63 4.5 -90t21.5 -42t37.5 -18.5t73.5 -3.5q5 0 7 -3q2 -1 -3 -3q-1 -1 -4 -1q-40 0 -148 3l-28 1h-7.5t-16.5 -0.5t-22.5 -0.5h-28.5h-31q-3 0 -5 3q1 3 5 4
q28 1 38 1t25 5.5t18 11t8.5 24t6.5 38l3 58.5v411q0 56 -3.5 81t-15.5 39q-11 14 -25.5 17t-53.5 3q-4 0 -5 3q1 3 5 4q31 0 68 -1l38 -2h214q41 0 65 6q27 8 30 11l15 17q3 3 5 0z" />
    <glyph glyph-name="uni0394" unicode="&#x394;" horiz-adv-x="619" 
d="M312 710l302 -710h-609l305 618q-12 29 -30 62q-1 1 1 3q20 8 29 27q1 1 2 0zM316 607l-295 -596h541q-41 92 -115 283q-68 180 -131 313z" />
    <glyph glyph-name="Epsilon" unicode="&#x395;" horiz-adv-x="702" 
d="M663 261q0 3 4 3t4 -3l-66 -295q-1 -4 -5 0q-11 13 -16 17q-19 17 -98 17h-345l-37 -2q-38 -1 -69 -1q-3 0 -5 3q1 3 5 4q39 0 53.5 3t25.5 17q12 14 15.5 39t3.5 81v412q0 56 -3.5 81t-15.5 39q-11 14 -25.5 17t-53.5 3q-3 0 -5 3q1 3 5 4q31 0 69 -1l37 -2h304
q41 0 65 6q27 8 30 11l15 17q3 3 5 0l60 -271q0 -2 -1.5 -3t-3.5 0t-3 3q-44 139 -93 183t-144 44h-196v-323h179q43 0 62.5 22t19.5 74q0 2 1 3.5t3 0.5q3 -1 3 -4v-205q0 -2 -1 -3.5t-3 -0.5q-3 2 -3 4q0 58 -18 78t-64 20h-179v-346h222q67 0 99 7q36 8 65 37
q31 30 49 73q17 38 49 134z" />
    <glyph glyph-name="Zeta" unicode="&#x396;" horiz-adv-x="693" 
d="M625 697l-497 -687h263q53 0 84 9.5t60 37.5q56 53 101 234q1 3 3.5 4t5 -0.5t2.5 -3.5l-75 -325q-1 -4 -5 0q-11 14 -18 18q-21 16 -81 16h-404q-2 0 -2.5 1t0.5 2l497 687h-145q-34 0 -68 -2q-65 -2 -97 -20q-37 -18 -63.5 -64t-58.5 -141q-1 -4 -5 -2l-1 4l59 269
q1 4 5 0q16 -19 34.5 -26.5t60.5 -7.5h344q1 0 1.5 -1t-0.5 -2z" />
    <glyph glyph-name="Eta" unicode="&#x397;" horiz-adv-x="821" 
d="M786 4q4 0 5 -3q-1 -3 -5 -4q-31 0 -68 1l-38 2h-30l-38 -2q-37 -1 -68 -1q-4 0 -5 3q1 3 5 4q39 0 53.5 3t25.5 17q12 14 15.5 39t3.5 81v219q-57 0 -106 -1q-48 -1 -120 -1t-131 1t-106 1v-219q0 -98 18 -120q12 -14 26.5 -17t53.5 -3q3 0 5 -3q-1 -3 -5 -4
q-31 0 -69 1l-37 2h-30l-37 -2q-38 -1 -69 -1q-3 0 -5 3q1 3 5 4q39 0 53.5 3t25.5 17q12 14 15.5 39t3.5 81v412q0 56 -3.5 81t-15.5 39q-11 14 -25.5 17t-53.5 3q-3 0 -5 3q1 3 5 4q31 0 69 -1l37 -2h30l37 2q38 1 69 1q3 0 5 -3q-1 -3 -5 -4q-39 0 -53.5 -3t-26.5 -17
q-18 -22 -18 -120v-186h119q55 1 117 1q73 0 122 -1h105v186q0 56 -3.5 81t-15.5 39q-11 14 -25.5 17t-53.5 3q-4 0 -5 3q1 3 5 4q31 0 68 -1l38 -2h30l38 2q37 1 68 1q4 0 5 -3q-1 -3 -5 -4q-39 0 -53.5 -3t-26.5 -17q-18 -22 -18 -120v-412q0 -98 18 -120q12 -14 26.5 -17
t53.5 -3z" />
    <glyph glyph-name="Theta" unicode="&#x398;" horiz-adv-x="784" 
d="M392 710q160 0 256 -96t96 -256q0 -156 -105 -262q-103 -106 -257 -106t-248 96q-94 95 -94 252t103 264q103 108 249 108zM402 2q122 0 201 93q81 93 81 243q0 155 -86 258q-86 102 -216 102q-120 0 -201 -95t-81 -245q0 -152 86 -255q86 -101 216 -101zM525 454
q0 4 3 5q3 -1 4 -5q0 -22 -1 -46t-1.5 -39t-0.5 -18t0.5 -18t1.5 -39t1 -46q0 -4 -3 -5q-3 1 -4 5q-1 22 -1 30t-3.5 22t-4.5 17t-10.5 10.5t-14.5 8t-23.5 4t-31.5 4t-44 2.5q-93 0 -115 -20q-13 -11 -16 -25t-3 -53q0 -4 -3 -5q-3 1 -4 5q0 22 0.5 46t1.5 39t1 18t-1 18
t-1.5 39t-0.5 46q0 4 3 5q3 -1 4 -5q0 -39 3 -53t16 -26q23 -19 115 -19q31 2 44 2.5t31.5 4t23.5 4t14.5 8t10.5 10.5t4.5 17t3.5 22t1 30z" />
    <glyph glyph-name="Iota" unicode="&#x399;" horiz-adv-x="312" 
d="M141 700h30l37 2q38 1 69 1q3 0 5 -3q-1 -3 -5 -4q-39 0 -53.5 -3t-26.5 -17q-18 -22 -18 -120v-412q0 -98 18 -120q12 -14 26.5 -17t53.5 -3q3 0 5 -3q-1 -3 -5 -4q-31 0 -69 1l-37 2h-30l-37 -2q-38 -1 -69 -1q-3 0 -5 3q1 3 5 4q39 0 53.5 3t25.5 17q12 14 15.5 39
t3.5 81v412q0 56 -3.5 81t-15.5 39q-11 14 -25.5 17t-53.5 3q-3 0 -5 3q1 3 5 4q31 0 69 -1z" />
    <glyph glyph-name="Kappa" unicode="&#x39a;" horiz-adv-x="709" 
d="M716 4q4 0 4 -3q-1 -3 -4 -4q-31 0 -68 1l-38 2h-32q-18 40 -40 106l-11 33l-23 66q-10 28 -20 53q-14 33 -24 47q-39 64 -92 59q-52 0 -103 -21.5t-86 -55.5v-143q0 -98 18 -120q12 -14 26.5 -17t53.5 -3q3 0 5 -3q-1 -3 -5 -4q-31 0 -69 1l-37 2h-30l-37 -2
q-38 -1 -69 -1q-3 0 -5 3q1 3 5 4q39 0 53.5 3t25.5 17q12 14 15.5 39t3.5 81v412q0 56 -3.5 81t-15.5 39q-11 14 -25.5 17t-53.5 3q-3 0 -5 3q1 3 5 4q31 0 69 -1l37 -2h30l37 2q38 1 69 1q3 0 5 -3q-1 -3 -5 -4q-39 0 -53.5 -3t-26.5 -17q-18 -22 -18 -120v-255l266 270
q55 55 45.5 90t-77.5 35q-3 0 -5 3q1 3 5 4q28 0 86 -2q29 -1 52 -1h4q2 0 16.5 1t35 1.5t36.5 0.5q3 0 3 -3.5t-3 -3.5q-26 0 -57 -17q-29 -16 -52 -36q-30 -28 -62 -61l-251 -252q73 44 148 44q72 0 118 -47.5t80 -155.5l11 -33q24 -77 51 -106q27 -28 87 -28z" />
    <glyph glyph-name="Lambda" unicode="&#x39b;" 
d="M739 4q3 0 3 -3.5t-3 -3.5q-16 0 -32.5 0.5t-28 1.5t-13.5 1h-33l-38 -2q-37 -1 -68 -1q-4 0 -4 3q1 3 4 4q59 0 68.5 28.5t-24.5 100.5q-28 69 -56 141q-72 193 -138 333l-230 -466q-33 -63 -16.5 -100t78.5 -37q4 0 4 -3q-1 -3 -4 -4q-26 0 -78 2q-26 1 -47 1
q-1 0 -29 -1.5t-46 -1.5q-3 0 -3 3.5t3 3.5q34 0 62 31.5t65 105.5l235 477q-12 29 -30 62q-1 1 1 3q20 8 29 27q1 1 2 0l245 -577q31 -74 56 -102q24 -27 66 -27z" />
    <glyph glyph-name="Mu" unicode="&#x39c;" horiz-adv-x="962" 
d="M927 5q3 0 5 -3q-1 -3 -5 -4q-31 0 -69 2l-37 1l-29 -1q-3 0 -39.5 -2t-66.5 -3q-4 0 -5 3q1 3 5 4q59 5 72 14q18 13 22 74q1 17 3 54v497l-283 -396l32 -41q-24 -21 -29 -32q-2 -3 -5 0l-348 445v-463q0 -150 118 -150q4 0 4 -3q-1 -3 -4 -4q-25 0 -77 2q-26 1 -46 1
q-19 0 -42 -1q-46 -2 -69 -2q-4 0 -4 3q1 3 4 4q106 0 106 135l-1 417q0 56 -3.5 81t-15.5 39q-11 14 -25.5 17t-53.5 3q-3 0 -5 3q1 3 5 4q31 0 69 -1l37 -2h7l339 -447l319 447h9l37 2q38 1 69 1q3 0 5 -3q-1 -3 -5 -4q-39 0 -53.5 -3t-26.5 -17q-18 -22 -18 -120v-411
q0 -56 3.5 -81t14.5 -39q12 -14 26.5 -17t53.5 -3z" />
    <glyph glyph-name="Nu" unicode="&#x39d;" horiz-adv-x="809" 
d="M795 703q4 0 4 -3q-1 -3 -4 -4q-106 0 -106 -135v-560q0 -3 -3 -3.5t-5 2.5l-531 624v-470q0 -150 106 -150q4 0 4 -3q-1 -3 -4 -4q-23 0 -69 2q-23 1 -42 1t-42 -1q-46 -2 -69 -2q-4 0 -4 3q1 3 4 4q106 0 106 135v388q0 68 -3.5 97.5t-15.5 46.5q-11 17 -25.5 20.5
t-53.5 3.5q-3 0 -4.5 2.5t0 4.5t4.5 2q31 0 68 -2l38 -2h-1l532 -629v475q0 150 -106 150q-4 0 -4 3q1 3 4 4q23 0 69 -2q23 -1 42 -1t42 1q46 2 69 2z" />
    <glyph glyph-name="Xi" unicode="&#x39e;" horiz-adv-x="703" 
d="M70 549q-1 -2 -3 -3t-3.5 0t-1.5 3l33 166q0 2 5 0q20 -15 120 -15h223q101 0 120 15q1 1 3 1t2 -1l33 -166q0 -2 -1.5 -3t-3.5 0t-3 3q-20 71 -70 93q-51 23 -150 23h-83q-99 0 -151 -23q-49 -22 -69 -93zM541 443q0 2 2 4l3 -4v-168q0 -2 -2 -4l-3 4q0 47 -14 63.5
t-48 16.5h-288q-34 0 -48 -16.5t-14 -63.5q0 -2 -2 -4l-3 4v168q0 2 2 4l3 -4q0 -42 14.5 -60t47.5 -18h288q33 0 47.5 18t14.5 60zM593 151q1 2 3 3t3.5 0t1.5 -3l-33 -166q0 -1 -2 -1t-3 1q-19 15 -120 15h-223q-100 0 -120 -15q-5 -2 -5 0l-33 166q0 2 1.5 3t3.5 0t3 -3
q20 -71 69 -93q52 -23 151 -23h83q99 0 150 23q50 22 70 93z" />
    <glyph glyph-name="Omicron" unicode="&#x39f;" horiz-adv-x="784" 
d="M392 710q160 0 256 -96t96 -256q0 -156 -105 -262q-103 -106 -257 -106t-248 96q-94 95 -94 252t103 264q103 108 249 108zM402 2q122 0 201 93q81 93 81 243q0 155 -86 258q-86 102 -216 102q-120 0 -201 -95t-81 -245q0 -152 86 -255q86 -101 216 -101z" />
    <glyph glyph-name="Pi" unicode="&#x3a0;" horiz-adv-x="821" 
d="M786 4q4 0 5 -3q-1 -3 -5 -4q-31 0 -68 1l-38 2h-30l-38 -2q-37 -1 -68 -1q-4 0 -5 3q1 3 5 4q39 0 53.5 3t25.5 17q12 14 15.5 39t3.5 81v546h-463v-546q0 -98 18 -120q12 -14 26.5 -17t53.5 -3q3 0 5 -3q-1 -3 -5 -4q-31 0 -69 1l-37 2h-30l-37 -2q-38 -1 -69 -1
q-3 0 -5 3q1 3 5 4q39 0 53.5 3t25.5 17q12 14 15.5 39t3.5 81v412q0 56 -3.5 81t-15.5 39q-11 14 -25.5 17t-53.5 3q-3 0 -5 3q1 3 5 4q31 0 69 -1l37 -2h539l38 2q37 1 68 1q4 0 5 -3q-1 -3 -5 -4q-39 0 -53.5 -3t-26.5 -17q-18 -22 -18 -120v-412q0 -98 18 -120
q12 -14 26.5 -17t53.5 -3z" />
    <glyph glyph-name="Rho" unicode="&#x3a1;" horiz-adv-x="650" 
d="M318 298h-139v-140q0 -63 4.5 -90t21.5 -42t37.5 -18.5t73.5 -3.5q6 0 7 -3q1 -1 -3 -3q-1 -1 -4 -1q-44 0 -96 1l-52 2h-27l-37 -2q-38 -1 -69 -1q-3 0 -5 3q1 3 5 4q39 0 53.5 3t25.5 17q12 14 15.5 39t3.5 81v412q0 56 -3.5 81t-15.5 39q-11 14 -25.5 17t-53.5 3
q-3 0 -5 3q1 3 5 4q31 0 69 -1l37 -2h161q151 0 235 -53.5t84 -148.5t-79.5 -147.5t-223.5 -52.5zM309 690h-122q-8 -29 -8 -118v-264h122q123 0 191.5 50.5t68.5 140.5q0 88 -67 139.5t-185 51.5z" />
    <glyph glyph-name="Sigma" unicode="&#x3a3;" horiz-adv-x="600" 
d="M588 261q0 3 4 3t4 -3l-66 -295q-1 -4 -5 0q-11 13 -16 17q-19 17 -98 17h-381v8l225 350l-215 334v8h330q41 0 65 6q27 8 30 11l15 17q3 3 5 0l60 -271q0 -2 -1.5 -3t-3.5 0t-3 3q-43 139 -93 183q-49 44 -144 44h-204l192 -299l-221 -345h259q121 0 168 38
q48 40 94 177z" />
    <glyph glyph-name="Tau" unicode="&#x3a4;" horiz-adv-x="692" 
d="M358 0h-24l-52 -2q-52 -1 -96 -1q-6 0 -7 3q2 2 7 4q54 0 74 3t37 17t21.5 38.5t4.5 81.5v546h-60q-99 0 -147 -49q-48 -51 -92 -200q-1 -3 -4 -2q-2 2 -1 4l63 291q1 4 5 0q15 -23 40 -29q28 -5 84 -5h270q41 0 53 1q20 1 41 9.5t30 23.5q4 4 5 0l63 -291q1 -2 -1 -4
q-3 -1 -4 2q-45 150 -93 200q-46 49 -146 49h-60v-546q0 -57 4.5 -81.5t21.5 -38.5t37 -17t74 -3q6 0 7 -3q1 -1 -3 -3q-1 -1 -4 -1q-44 0 -96 1z" />
    <glyph glyph-name="Upsilon" unicode="&#x3a5;" horiz-adv-x="731" 
d="M722 703q3 0 3 -3.5t-3 -3.5q-40 0 -72 -31t-72 -103l-176 -316v-102q0 -57 4.5 -81.5t21.5 -38.5t37 -17t74 -3q5 0 7 -3q2 -1 -3 -3q-1 -1 -4 -1q-44 0 -96 1l-52 2h-24l-52 -2q-52 -1 -96 -1q-5 0 -7 3q2 2 7 4q54 0 74 3t37 17t21.5 38.5t4.5 81.5v101l-190 329
q-41 72 -71 96q-32 26 -85 26q-5 0 -4 4q2 3 4 3q21 0 43 -0.5t36 -1.5t17 -1h36l38 2q37 1 68 1q4 0 4 -3q-1 -3 -4 -4q-59 0 -65.5 -27t35.5 -95l182 -312l159 286q38 68 21.5 108t-84.5 40q-4 0 -4 3q1 3 4 4q28 0 86 -2q29 -1 52 -1q2 0 16.5 1t35 1.5t36.5 0.5z" />
    <glyph glyph-name="Phi" unicode="&#x3a6;" horiz-adv-x="838" 
d="M444 73q4 -46 23 -58q20 -11 72 -11q3 0 5 -3q-1 -3 -5 -4q-31 0 -69 1l-37 2h-30l-37 -2q-38 -1 -69 -1q-3 0 -5 3q1 3 5 4q52 0 71 11q20 12 24 58q-152 1 -253 78q-99 77 -99 195t100 196q101 79 253 80q-5 50 -24 62q-18 12 -72 12q-3 0 -5 3q1 3 5 4q31 0 69 -1
l37 -2h30l37 2q38 1 69 1q3 0 5 -3q-1 -3 -5 -4q-53 0 -73 -12q-18 -12 -23 -62q154 -1 254 -79q101 -78 101 -197q0 -120 -100 -196q-99 -75 -254 -77zM443 80q130 2 212 75q83 75 83 191t-83 191q-81 75 -212 77q-2 -22 -2 -58v-412q0 -18 2 -64zM100 346q0 -115 82 -190
q84 -75 211 -76q2 46 2 64v412q0 36 -2 58q-130 -2 -211 -77q-82 -75 -82 -191z" />
    <glyph glyph-name="Chi" unicode="&#x3a7;" horiz-adv-x="736" 
d="M713 4q3 0 3 -3.5t-3 -3.5q-16 0 -33 0.5t-28 1.5t-13 1h-46l-37 -2q-38 -1 -69 -1q-4 0 -4 3q1 3 4 4q42 0 55.5 11.5t5 35t-39.5 68.5l-158 227l-146 -192q-34 -45 -42 -79t10 -52t59 -18q3 0 4.5 -2t0 -4.5t-4.5 -2.5q-25 0 -79 2q-11 0 -22 0.5t-17 1t-8 0.5h-7
q-1 0 -13.5 -0.5t-30 -1.5t-31.5 -1q-3 0 -3 3.5t3 3.5q32 0 63 27t84 97l173 227l-158 226q-44 64 -76 91q-29 24 -70 24q-3 0 -3 3.5t3 3.5q16 0 33 -0.5t28 -1.5t13 -1h45l38 2q37 1 68 1q4 0 4 -3q-1 -3 -4 -4q-61 0 -63.5 -25t43.5 -90l135 -193l129 160
q53 66 46.5 106t-69.5 40q-3 0 -4.5 2t0 4.5t4.5 2.5q26 0 78 -2q11 0 22.5 -0.5t17.5 -1t8 -0.5h5q1 0 13.5 0.5t30 1.5t31.5 1q3 0 3 -3.5t-3 -3.5q-35 0 -66 -28q-33 -30 -84 -94l-156 -194l181 -260q48 -67 76 -91q29 -24 71 -24z" />
    <glyph glyph-name="Psi" unicode="&#x3a8;" horiz-adv-x="818" 
d="M788 703q4 0 5 -3q-1 -3 -5 -4q-39 0 -53.5 -3t-26.5 -17q-18 -22 -18 -120v-63q0 -142 -66 -220t-192 -82v-47q0 -98 18 -120q12 -14 26.5 -17t53.5 -3q4 0 5 -3q-1 -3 -5 -4q-31 0 -68 1l-38 2h-30l-38 -2q-37 -1 -68 -1q-4 0 -5 3q1 3 5 4q39 0 53.5 3t25.5 17
q12 14 15.5 39t3.5 81v47q-126 4 -192 82t-66 220v63q0 56 -3.5 81t-15.5 39q-11 14 -25.5 17t-53.5 3q-4 0 -5 3q1 3 5 4q31 0 68 -1l38 -2h38v-179q0 -305 212 -319v354q0 56 -3.5 81t-15.5 39q-11 14 -25.5 17t-53.5 3q-4 0 -5 3q1 3 5 4q31 0 68 -1l38 -2h30l38 2
q37 1 68 1q4 0 5 -3q-1 -3 -5 -4q-39 0 -53.5 -3t-26.5 -17q-18 -22 -18 -120v-354q212 14 212 319v179h38l38 2q37 1 68 1z" />
    <glyph glyph-name="uni03A9" unicode="&#x3a9;" horiz-adv-x="812" 
d="M773 261q0 3 4 3t4 -3l-66 -295q-1 -4 -5 0q-11 13 -16 17q-19 17 -98 17h-142v117q235 46 235 290q0 93 -69 187q-34 47 -91.5 76.5t-125.5 29.5q-55 0 -102.5 -20t-79 -51.5t-54.5 -71t-33.5 -78t-10.5 -72.5q0 -244 235 -290v-117h-142q-42 0 -67 -6q-16 -4 -24.5 -8
t-11.5 -7t-11 -13q-4 -4 -5 0l-66 295q0 3 4 3t4 -3q31 -93 48 -134q20 -43 49 -73q31 -30 65 -37q32 -7 100 -7h47v103q-137 17 -212 98q-74 83 -74 194q0 117 79 207q87 98 262 98q83 0 151.5 -26t110.5 -71q85 -90 85 -206q0 -113 -75 -195q-73 -82 -211 -99v-103h47
q67 0 99 7q36 8 65 37q31 30 49 73q17 38 49 134z" />
    <glyph glyph-name="Iotadieresis" unicode="&#x3aa;" horiz-adv-x="312" 
d="M68 884q13 0 23.5 -10t10.5 -24t-10 -24t-24 -10q-20 0 -29 17t-0.5 34t29.5 17zM243 884q13 0 23.5 -10t10.5 -24t-10 -24t-24 -10q-20 0 -29 17t-0.5 34t29.5 17zM141 700h30l37 2q38 1 69 1q3 0 5 -3q-1 -3 -5 -4q-39 0 -53.5 -3t-26.5 -17q-18 -22 -18 -120v-412
q0 -98 18 -120q12 -14 26.5 -17t53.5 -3q3 0 5 -3q-1 -3 -5 -4q-31 0 -69 1l-37 2h-30l-37 -2q-38 -1 -69 -1q-3 0 -5 3q1 3 5 4q39 0 53.5 3t25.5 17q12 14 15.5 39t3.5 81v412q0 56 -3.5 81t-15.5 39q-11 14 -25.5 17t-53.5 3q-3 0 -5 3q1 3 5 4q31 0 69 -1z" />
    <glyph glyph-name="Upsilondieresis" unicode="&#x3ab;" horiz-adv-x="731" 
d="M263 884q13 0 23.5 -10t10.5 -24t-10 -24t-24 -10q-20 0 -29 17t-0.5 34t29.5 17zM438 884q13 0 23.5 -10t10.5 -24t-10 -24t-24 -10q-20 0 -29 17t-0.5 34t29.5 17zM722 703q3 0 3 -3.5t-3 -3.5q-40 0 -72 -31t-72 -103l-176 -316v-102q0 -57 4.5 -81.5t21.5 -38.5
t37 -17t74 -3q5 0 7 -3q2 -1 -3 -3q-1 -1 -4 -1q-44 0 -96 1l-52 2h-24l-52 -2q-52 -1 -96 -1q-5 0 -7 3q2 2 7 4q54 0 74 3t37 17t21.5 38.5t4.5 81.5v101l-190 329q-41 72 -71 96q-32 26 -85 26q-5 0 -4 4q2 3 4 3q21 0 43 -0.5t36 -1.5t17 -1h36l38 2q37 1 68 1q4 0 4 -3
q-1 -3 -4 -4q-59 0 -65.5 -27t35.5 -95l182 -312l159 286q38 68 21.5 108t-84.5 40q-4 0 -4 3q1 3 4 4q28 0 86 -2q29 -1 52 -1q2 0 16.5 1t35 1.5t36.5 0.5z" />
    <glyph glyph-name="alphatonos" unicode="&#x3ac;" horiz-adv-x="656" 
d="M278 604l-2 3q15 21 20 55q8 49 15.5 58t23.5 9q14 0 21.5 -9t7.5 -22q0 -44 -86 -94zM246 -10q-96 0 -156 62t-60 170q0 125 80 207q80 81 175 81q32 1 76 -14.5t75.5 -31.5t34.5 -15q11 0 26 17t21 34q3 5 5 0q-8 -64 -8 -102v-339q0 -47 34 -47q33 0 53 29q2 2 5 -1
l1 -4q-37 -46 -77 -46q-58 0 -58 73v66q-106 -139 -227 -139zM281 14q87 0 192 127v253q-41 46 -92.5 76t-97.5 30q-87 0 -142 -61t-55 -201q0 -95 52 -159q53 -65 143 -65z" />
    <glyph glyph-name="epsilontonos" unicode="&#x3ad;" horiz-adv-x="450" 
d="M197 604l-2 3q15 21 20 55q8 49 15.5 58t23.5 9q14 0 21.5 -9t7.5 -22q0 -44 -86 -94zM217 -10q-84 0 -138 45q-54 47 -54 108q0 62 47 100q46 37 110 37q12 0 57 -8q-98 30 -130 51q-48 31 -48 82q0 52 49 77q50 26 119 26q59 0 111 -37t52 -73q0 -17 -14 -23t-27 5
q-11 9 -23 44q-10 40 -14 52q-35 22 -80 22q-54 0 -84 -25t-30 -73q0 -52 33.5 -81t104.5 -42q7 -2 23.5 -5t23 -7t6.5 -13q0 -11 -14 -11q-4 0 -13.5 4t-23 10t-20.5 9q-24 6 -43 6q-47 0 -80 -38q-32 -38 -32 -87q0 -63 36.5 -104t98.5 -41q66 0 112 52q18 19 34 50
q23 42 37 92q0 2 3 2t3 -2l-36 -209q0 -1 -1.5 -1t-2.5 1q-15 27 -34 27q-10 0 -51 -11q-39 -11 -67 -11z" />
    <glyph glyph-name="etatonos" unicode="&#x3ae;" horiz-adv-x="589" 
d="M355 698q0 -44 -86 -94l-2 3q15 21 20 55q8 49 15.5 58t23.5 9q14 0 21.5 -9t7.5 -22zM374 510q84 0 117 -49.5t33 -163.5v-525q-24 -6 -37 -22h-5v544q0 108 -31 146q-31 39 -93 39q-112 0 -210 -120v-255q0 -62 13 -81t69 -19q4 0 4 -3q-1 -3 -4 -4q-27 0 -57 1l-30 2
h-32l-30 -2q-30 -1 -57 -1q-4 0 -4 3q1 3 4 4q55 0 68 19q14 20 14 81v239q0 66 -13.5 92t-53.5 26q-2 1 -2 3t2 3q39 10 78 43q3 3 6 0q24 -36 24 -140h1q44 58 108 99q67 41 118 41z" />
    <glyph glyph-name="iotatonos" unicode="&#x3af;" horiz-adv-x="246" 
d="M75 604l-2 3q15 21 20 55q8 49 15.5 58t23.5 9q14 0 21.5 -9t7.5 -22q0 -44 -86 -94zM220 41q2 2 5 -1l1 -4q-37 -46 -77 -46q-58 0 -58 73v305q0 65 -14 79t-55 14q-2 1 -1 5l2 1q35 7 51 15l18 8l19 11l15 9q7 1 7 -3v-448q0 -47 34 -47q33 0 53 29z" />
    <glyph glyph-name="upsilondieresistonos" unicode="&#x3b0;" horiz-adv-x="600" 
d="M263 607l-2 3q15 21 20 55q8 49 15.5 58t23.5 9q14 0 21.5 -9t7.5 -22q0 -44 -86 -94zM212 684q13 0 23.5 -10t10.5 -24t-10 -24t-24 -10q-20 0 -29 17t-0.5 34t29.5 17zM387 684q13 0 23.5 -10t10.5 -24t-10 -24t-24 -10q-20 0 -29 17t-0.5 34t29.5 17zM408 520
q30 -20 56 -40q17 -12 50 -49q56 -62 56 -170q0 -113 -78 -193q-76 -78 -190 -78q-112 0 -161.5 65.5t-49.5 199.5v113q0 65 -14 79t-55 14q-2 1 -1 5l2 1q35 7 51 15l18 8l19 11l15 9q7 1 7 -3v-252q0 -113 45 -184q46 -70 139 -70q77 0 138 66q62 68 62 179
q0 163 -116 268q-2 3 1 5.5t6 0.5z" />
    <glyph glyph-name="alpha" unicode="&#x3b1;" horiz-adv-x="628" 
d="M246 -10q-96 0 -156 62t-60 170q0 125 80 207q80 81 175 81q32 1 76 -14.5t75.5 -31.5t34.5 -15q11 0 26 17t21 34q3 5 5 0q-8 -64 -8 -102v-339q0 -47 34 -47q33 0 53 29q2 2 5 -1l1 -4q-37 -46 -77 -46q-58 0 -58 73v66q-106 -139 -227 -139zM281 14q87 0 192 127v253
q-41 46 -92.5 76t-97.5 30q-87 0 -142 -61t-55 -201q0 -95 52 -159q53 -65 143 -65z" />
    <glyph glyph-name="beta" unicode="&#x3b2;" horiz-adv-x="576" 
d="M358 409q73 0 131 -56q57 -55 57 -151q0 -88 -66 -150q-67 -62 -179 -62q-95 0 -189 74v-294q-17 -5 -38 -20h-4l1 674q0 146 59 234q60 87 184 87q78 0 133 -39q57 -37 57 -104q0 -70 -43 -117q-16 -19 -49 -37q-29 -17 -55 -27q-35 -14 -62 -23q61 11 63 11zM297 4
q92 0 140 58q49 58 49 146q0 72 -42 130t-98 58q-24 0 -51 -10q-8 -4 -25 -13.5t-28 -14.5t-14 -4q-17 0 -17 17q0 8 4 14t15.5 10t18 5.5t24.5 5.5q86 15 128.5 59.5t42.5 126.5q0 62 -36 100.5t-99 38.5q-197 0 -197 -316v-336q92 -75 185 -75z" />
    <glyph glyph-name="gamma" unicode="&#x3b3;" horiz-adv-x="585" 
d="M588 503q2 0 2 -3.5t-2 -3.5q-35 0 -65 -33.5t-61 -104.5l-146 -330v-251q-15 -5 -38 -27h-4v273l-149 344q-33 77 -57 102q-24 27 -66 27q-3 0 -3 3.5t3 3.5q16 0 32.5 -0.5t28 -1.5t13.5 -1h33l37 2q38 1 69 1q4 0 4 -3q-1 -3 -4 -4q-61 -3 -68.5 -29t25.5 -99
l143 -318l135 307q30 65 13.5 102t-76.5 37q-4 0 -4 3q1 3 4 4q26 0 78 -2q26 -1 47 -1l28 2q29 1 48 1z" />
    <glyph glyph-name="delta" unicode="&#x3b4;" horiz-adv-x="555" 
d="M267 535l90 -52q93 -53 131 -109q37 -53 37 -127q0 -104 -65 -181q-64 -75 -181 -75q-108 0 -179 68q-70 67 -70 187q0 97 61 161q62 65 154 93l-30 19q-34 21 -54.5 52.5t-20.5 65.5q0 46 32.5 76.5t99.5 30.5q60 0 104 -24q44 -23 44 -46q0 -20 -25 -20q-18 0 -33.5 16
t-36.5 56q-32 8 -53 8q-54 0 -80.5 -21.5t-26.5 -50.5q0 -69 102 -127zM287 2q178 0 178 234q0 128 -109 195l-100 62q-165 -53 -165 -239q0 -104 48 -178t148 -74z" />
    <glyph glyph-name="epsilon" unicode="&#x3b5;" horiz-adv-x="450" 
d="M217 -10q-84 0 -138 45q-54 47 -54 108q0 62 47 100q46 37 110 37q12 0 57 -8q-98 30 -130 51q-48 31 -48 82q0 52 49 77q50 26 119 26q59 0 111 -37t52 -73q0 -17 -14 -23t-27 5q-11 9 -23 44q-10 40 -14 52q-35 22 -80 22q-54 0 -84 -25t-30 -73q0 -52 33.5 -81
t104.5 -42q7 -2 23.5 -5t23 -7t6.5 -13q0 -11 -14 -11q-4 0 -13.5 4t-23 10t-20.5 9q-24 6 -43 6q-47 0 -80 -38q-32 -38 -32 -87q0 -63 36.5 -104t98.5 -41q66 0 112 52q18 19 34 50q23 42 37 92q0 2 3 2t3 -2l-36 -209q0 -1 -1.5 -1t-2.5 1q-15 27 -34 27q-10 0 -51 -11
q-39 -11 -67 -11z" />
    <glyph glyph-name="zeta" unicode="&#x3b6;" horiz-adv-x="400" 
d="M414 707l-53 -48q-35 -30 -69 -62q-31 -29 -69 -73q-42 -49 -66 -89q-62 -105 -62 -212q0 -116 117 -178l77 -41q71 -38 71 -76q0 -30 -30 -54t-79 -35q-2 2 -2 6q32 12 49.5 29t17.5 35q0 21 -10.5 34t-40.5 28l-82 41q-140 69 -140 180q0 224 299 464q-90 -35 -164 -35
q-45 0 -72 16.5t-27 47.5q0 29 39 57l1 -1q-12 -17 -12 -39q0 -19 27.5 -33t73.5 -14q18 0 145 10l59 45q1 0 2 -3z" />
    <glyph glyph-name="eta" unicode="&#x3b7;" horiz-adv-x="589" 
d="M374 510q84 0 117 -49.5t33 -163.5v-525q-24 -6 -37 -22h-5v544q0 108 -31 146q-31 39 -93 39q-112 0 -210 -120v-255q0 -62 13 -81t69 -19q4 0 4 -3q-1 -3 -4 -4q-27 0 -57 1l-30 2h-32l-30 -2q-30 -1 -57 -1q-4 0 -4 3q1 3 4 4q55 0 68 19q14 20 14 81v239
q0 66 -13.5 92t-53.5 26q-2 1 -2 3t2 3q39 10 78 43q3 3 6 0q24 -36 24 -140h1q44 58 108 99q67 41 118 41z" />
    <glyph glyph-name="theta" unicode="&#x3b8;" horiz-adv-x="570" 
d="M284 745q123 0 189 -107q67 -106 67 -272q2 -103 -27 -187.5t-88.5 -136.5t-137.5 -52q-120 0 -189 103q-68 104 -68 267q-2 158 69.5 272t184.5 113zM279 735q-91 0 -150 -99q-56 -98 -58 -250h427q-3 161 -61 255t-158 94zM498 376h-427q2 -170 58 -273
q57 -103 158 -103t156.5 98.5t54.5 277.5z" />
    <glyph glyph-name="iota" unicode="&#x3b9;" horiz-adv-x="246" 
d="M220 41q2 2 5 -1l1 -4q-37 -46 -77 -46q-58 0 -58 73v305q0 65 -14 79t-55 14q-2 1 -1 5l2 1q35 7 51 15l18 8l19 11l15 9q7 1 7 -3v-448q0 -47 34 -47q33 0 53 29z" />
    <glyph glyph-name="kappa" unicode="&#x3ba;" horiz-adv-x="621" 
d="M616 4q5 0 4 -4q-2 -3 -4 -3q-18 0 -37 0.5t-32 1.5t-15 1h-36q-3 0 -20.5 -0.5t-44 -1.5t-51.5 -1q-4 0 -5 3q1 3 5 4q65 0 69 24t-48 85l-147 181l-106 -90v-100q0 -62 13 -81t69 -19q4 0 4 -3q-1 -3 -4 -4q-27 0 -57 1l-30 2h-32l-30 -2q-30 -1 -57 -1q-4 0 -4 3
q1 3 4 4q55 0 68 19q14 20 14 81v264q0 65 -14 79t-55 14q-2 1 -1 5l2 1q35 7 51 15l18 8l19 11l15 9q7 1 7 -3v-290l205 176q54 47 47.5 75t-74.5 28q-4 0 -4 3q1 3 4 4q28 0 86 -2q29 -1 53 -1h1q19 0 42 1q48 2 71 2q4 0 4 -3q-1 -3 -4 -4q-50 0 -99 -24.5t-111 -77.5
l-94 -81l174 -202q53 -62 87 -85q32 -22 80 -22z" />
    <glyph glyph-name="lambda" unicode="&#x3bb;" horiz-adv-x="640" 
d="M639 27q3 1 4.5 -1t-0.5 -3q-35 -33 -69 -33q-46 0 -71 57l-2 4l-188 416l-154 -326q-31 -64 -15.5 -100.5t75.5 -36.5q4 0 4 -3q-1 -3 -4 -4q-26 0 -78 2q-26 1 -47 1q-1 0 -14 -0.5t-30 -1.5t-30 -1q-3 0 -3 3.5t3 3.5q63 0 128 137l160 338l-89 197q-21 47 -54 47
q-23 0 -42 -15q-2 -2 -4 0t0 4l7 7q9 9 17 14q16 12 38 12q53 0 78 -57l2 -4l278 -615q13 -30 26 -43.5t31 -13.5q24 0 43 15z" />
    <glyph glyph-name="uni03BC" unicode="&#x3bc;" horiz-adv-x="615" 
d="M574 39q2 -1 2 -3t-2 -3q-36 -11 -90 -43q-4 -3 -6 0q-11 71 -11 140h-1q-44 -60 -110 -100q-65 -40 -118 -40q-74 0 -110 42v-178q0 -62 18 -81t89 -19q3 0 5 -3q-1 -3 -5 -4q-35 0 -74 1l-39 2h-31q-3 0 -15.5 -1t-32 -1.5t-39.5 -0.5q-4 0 -4 3q1 3 4 4q55 0 68 19
q14 20 14 81v505q0 57 -9 79q-10 27 -59 23q-2 1 -2 3t2 3q42 6 105 43q5 2 5 -2v-302q0 -102 30 -143.5t96 -41.5q114 0 211 120v219q0 62 -12 84q-10 22 -57 17q-2 1 -2 3t2 3q37 4 105 43q6 2 6 -2v-351q0 -65 13.5 -91.5t53.5 -26.5z" />
    <glyph glyph-name="nu" unicode="&#x3bd;" horiz-adv-x="581" 
d="M584 503q2 0 2 -3.5t-2 -3.5q-35 0 -65 -33.5t-61 -104.5l-163 -368h-7l-163 377q-33 77 -57 102q-24 27 -66 27q-3 0 -3 3.5t3 3.5q16 0 32.5 -0.5t28 -1.5t13.5 -1h29l37 2q38 1 69 1q4 0 4 -3q-1 -3 -4 -4q-61 -3 -68.5 -29t25.5 -99l143 -318l135 308q30 64 13.5 101
t-76.5 37q-4 0 -4 3q1 3 4 4q26 0 78 -2q26 -1 47 -1l28 2q29 1 48 1z" />
    <glyph glyph-name="xi" unicode="&#x3be;" horiz-adv-x="422" 
d="M27 215q0 53 21 96.5t56 69.5q67 49 138 54q-67 31 -109 64q-50 39 -50 101q0 54 45 99q46 46 125 46q67 0 111 -28q46 -27 46 -60q0 -27 -26 -27q-18 0 -34 25q-2 5 -6.5 17t-5.5 15q-1 8 -7 32q-30 15 -73 15q-68 0 -101 -28.5t-33 -74.5q0 -48 21 -91q27 -55 120 -104
q30 -4 40 -7q35 -3 35 -24q0 -16 -19 -16q-21 0 -68 36q-65 0 -126 -54q-60 -53 -60 -131q0 -67 29 -104q32 -37 94 -73l100 -59q40 -24 55.5 -40t15.5 -36q0 -30 -30 -54t-79 -35q-2 2 -2 6q32 12 49.5 29t17.5 35t-10 31.5t-41 30.5l-105 59q-134 75 -134 185z" />
    <glyph glyph-name="omicron" unicode="&#x3bf;" horiz-adv-x="579" 
d="M281 -10q-113 0 -183 68q-68 70 -68 183t78 191t192 78q113 0 181 -68t68 -181t-78 -193q-77 -78 -190 -78zM297 2q77 0 138 64t61 173q0 114 -63 189q-63 74 -163 70q-74 -5 -130 -68q-57 -64 -57 -169q0 -111 59 -185q60 -74 155 -74z" />
    <glyph glyph-name="pi" unicode="&#x3c0;" horiz-adv-x="655" 
d="M619 32l11 8q3 2 5 -2l-1 -3q-35 -33 -58 -41q-11 -4 -25 -4q-36 0 -55.5 23.5t-19.5 59.5v418h-323v-387q0 -62 13 -81t69 -19q4 0 4 -3q-1 -3 -4 -4q-27 0 -57 1l-30 2h-31l-30 -2q-30 -1 -57 -1q-4 0 -4 3q1 3 4 4q55 0 68 19q14 20 14 81v387h-80l-1 9h567v-9h-81
v-422q0 -26 12 -41.5t30 -15.5q33 2 60 20z" />
    <glyph glyph-name="rho" unicode="&#x3c1;" horiz-adv-x="584" 
d="M554 261q0 -116 -73 -193q-73 -78 -185 -78q-88 0 -189 65v-283q-24 -6 -37 -22h-5v491q0 115 69 192t181 77q111 0 175 -67t64 -182zM311 1q76 0 133 66t57 179q0 110 -55 181q-54 72 -148 72q-75 0 -133 -70q-58 -68 -58 -183v-161q113 -84 204 -84z" />
    <glyph glyph-name="uni03C2" unicode="&#x3c2;" horiz-adv-x="493" 
d="M30 253q0 113 82 185t191 72q68 0 127 -39q58 -37 58 -76q0 -14 -8.5 -22.5t-21.5 -8.5q-20 0 -30 23t-14 80q-42 33 -114 33q-96 0 -158 -56q-61 -55 -61 -148q0 -103 50 -167q12 -14 39 -32q45 -26 101 -49l99 -41q71 -29 71 -79q0 -30 -30 -54t-79 -35q-3 0 -4 2.5
t2 3.5q32 12 49.5 29t17.5 35q1 12 -1 19.5t-14 19t-36 23.5l-135 57q-181 76 -181 225z" />
    </font>
</defs>
</svg>
