<?xml version="1.0" standalone="no"?>
<!DOCTYPE svg PUBLIC "-//W3C//DTD SVG 1.1//EN" "http://www.w3.org/Graphics/SVG/1.1/DTD/svg11.dtd" >
<svg xmlns="http://www.w3.org/2000/svg" xmlns:xlink="http://www.w3.org/1999/xlink" version="1.1">
<metadata>
Created by FontForge 20170731 at Mon Apr 29 07:13:32 2019
 By Aleksey,,,
Copyright (c) 2019 by Cosimo Lorenzo Pancini. All rights reserved. |DCNT
</metadata>
<defs>
<font id="LovelaceText-LightItalic" horiz-adv-x="0" >
  <font-face 
    font-family="Lovelace Text Light"
    font-weight="300"
    font-style="italic"
    font-stretch="normal"
    units-per-em="1000"
    panose-1="0 0 4 0 0 0 0 0 0 0"
    ascent="721"
    descent="-279"
    x-height="536"
    cap-height="700"
    bbox="-796 -285 1291.67 962"
    underline-thickness="50"
    underline-position="-175"
    slope="-20"
    unicode-range="U+0020-FB02"
  />
<missing-glyph horiz-adv-x="640" 
 />
    <glyph glyph-name="f_f" unicode="ff" horiz-adv-x="699" 
d="M827 749q51 0 92 -23t41 -52q0 -15 -19.5 -29t-45.5 -14q-7 0 -8 9q-6 39 -37 65t-79 26q-28 0 -72 -56t-72 -134l-6 -14l131 -1l-17 -27h-125l-165 -476q-34 -101 -101 -160q-65 -58 -126 -58q-36 0 -97 24q-60 22 -87 46q-39 -64 -91 -101t-99 -37q-46 0 -90 18
q-44 17 -44 38q0 14 14 33q14 18 24 18q6 0 9 -6q14 -29 55 -55q40 -26 72 -28q23 0 59 51q36 53 62 129l194 564h-48l16 28h43q44 103 120 162q76 60 147 60q43 0 72.5 -14.5t29.5 -37.5q0 -16 -19.5 -31t-44.5 -15q-7 0 -8 10q-13 70 -85 70q-28 0 -72 -56t-72 -134
l-6 -14l243 -1l1 1h43q43 103 120 162q77 60 148 60zM379 3l169 496h-287l-189 -543q-3 -11 -14 -35q24 -27 95 -62q74 -36 105 -37q24 0 58 52q36 52 63 129z" />
    <glyph glyph-name="f_f_i" unicode="ffi" horiz-adv-x="998" 
d="M771 731q-28 0 -72 -56t-72 -134l-6 -14l104 -1q33 1 70.5 3t61.5 4t27 2q24 0 41 -24q17 -23 3 -60l-134 -379q-8 -27 10 -27q21 12 52 43q33 33 52 62q4 4 13 -4t7 -12q-28 -41 -68 -81q-44 -45 -69 -58q-23 -11 -46 15q-23 27 -11 61q3 8 12 33.5t25 71.5t33 95
q15 45 32 93t24 67.5t8 24.5q5 15 -1.5 30t-17.5 14q-22 0 -47 -1h-67h-56h-1h-68l-165 -476q-34 -101 -101 -160q-65 -58 -126 -58q-36 0 -97 24q-60 22 -87 46q-39 -64 -91 -101t-99 -37q-46 0 -90 18q-44 17 -44 38q0 14 14 33q14 18 24 18q6 0 9 -6q14 -29 55 -55
q40 -26 72 -28q23 0 59 51q36 53 62 129l194 564h-48l16 28h43q44 103 120 162q76 60 147 60q43 0 72.5 -14.5t29.5 -37.5q0 -16 -19.5 -31t-44.5 -15q-7 0 -8 10q-13 70 -85 70q-28 0 -72 -56t-72 -134l-6 -14l243 -1l1 1h43q43 103 120 162q77 60 148 60q51 0 92 -23
t41 -52q0 -15 -19.5 -29t-45.5 -14q-7 0 -8 9q-6 39 -37 65t-79 26zM379 3l169 496h-287l-189 -543q-3 -11 -14 -35q24 -27 95 -62q74 -36 105 -37q24 0 58 52q36 52 63 129z" />
    <glyph glyph-name="f_f_l" unicode="ffl" horiz-adv-x="983" 
d="M1020 734q-8 -18 -123 -332q-117 -324 -119 -331q-8 -27 10 -27q21 12 52 43q33 33 52 62q4 4 12.5 -4t6.5 -12q-25 -38 -67 -81q-44 -45 -69 -58q-23 -11 -46 15q-23 27 -11 61q158 445 207 569q-24 30 -65.5 51t-80.5 21q-43 0 -86 -49q-44 -50 -68 -120l-5 -16h131
l-16 -27h-125l-165 -476q-34 -101 -101 -160q-65 -58 -126 -58q-36 0 -97 24q-60 22 -87 46q-39 -64 -91 -101t-99 -37q-46 0 -90 18q-44 17 -44 38q0 14 14 33q14 18 24 18q6 0 9 -6q14 -29 55 -55q40 -26 72 -28q23 0 59 51q36 53 62 129l194 564h-48l16 28h43
q44 103 120 162q76 60 147 60q43 0 72.5 -14.5t29.5 -37.5q0 -16 -19.5 -31t-44.5 -15q-7 0 -8 10q-13 70 -85 70q-28 0 -72 -56t-72 -134l-6 -14l285 -1q35 108 110 165q76 58 150 58q69 0 134 -47l1 1q22 24 63 45q5 1 6.5 -2.5t-1.5 -11.5zM379 3l169 496h-287l-189 -543
q-3 -11 -14 -35q24 -27 95 -62q74 -36 105 -37q24 0 58 52q36 52 63 129z" />
    <glyph glyph-name="f_i" unicode="fi" horiz-adv-x="643" 
d="M276 542l-5 -16h73q66 0 122 4l63 5q23 0 40 -24q18 -22 4 -60l-134 -379q-7 -27 9 -27q20 10 52 42q33 33 53 63q4 4 12.5 -4t6.5 -12q-25 -39 -67 -81q-44 -46 -70 -58q-23 -11 -45 15q-23 27 -11 61q18 55 134 385q5 15 -1.5 30t-17.5 14q-30 0 -67 -1h-98h-6h-1h-60
l-167 -480q-38 -108 -104 -168q-67 -61 -128 -61q-45 0 -88 18q-44 18 -44 40q0 14 14 34q13 18 24 18q7 0 9 -6q14 -26 48 -47q34 -20 70 -22q31 0 68 49.5t64 129.5l171 495h-48l15 27h43q35 108 110 165q76 58 150 58q49 0 90 -24q42 -24 42 -53q0 -15 -19.5 -29
t-43.5 -14q-7 0 -8 10q-5 34 -32 53t-68 19t-86 -49q-44 -50 -68 -120z" />
    <glyph glyph-name="f_l" unicode="fl" horiz-adv-x="634" 
d="M671 734q-11 -23 -123 -332q-117 -324 -119 -331q-8 -26 10 -26q20 10 52 42q34 34 52 63q4 3 12.5 -5t6.5 -11q-23 -37 -66 -80q-43 -45 -70 -59q-23 -12 -46 14q-23 27 -11 61q158 445 207 569q-24 30 -66 51t-80 21q-41 0 -86 -49q-44 -50 -68 -120l-5 -16h131
l-16 -27h-124l-167 -480q-38 -108 -104 -168q-67 -61 -128 -61q-45 0 -88 18q-44 18 -44 40q0 14 14 34q13 18 24 18q7 0 9 -6q14 -26 48 -47q34 -20 70 -22q31 0 68 49.5t64 129.5l171 495h-48l15 27h43q35 108 110 165q76 58 150 58q68 0 133 -47l1 1q23 24 63 45
q5 1 6.5 -2.5t-1.5 -11.5z" />
    <glyph glyph-name=".notdef" horiz-adv-x="640" 
 />
    <glyph glyph-name=".null" 
 />
    <glyph glyph-name="nonmarkingreturn" horiz-adv-x="333" 
 />
    <glyph glyph-name="space" unicode=" " horiz-adv-x="267" 
 />
    <glyph glyph-name="exclam" unicode="!" horiz-adv-x="320" 
d="M146 180q-1 -7 -25 -4q-7 1 -7 4q58 165 88 303q31 138 38 158q24 69 82 69q55 0 33 -69q-6 -17 -80 -164q-71 -141 -129 -297zM60 -10q-22 0 -32 15t-3 37q9 23 30 38t44 15q22 0 32.5 -15t1.5 -38q-9 -22 -29.5 -37t-43.5 -15z" />
    <glyph glyph-name="quotedbl" unicode="&#x22;" horiz-adv-x="304" 
d="M197 499h-33q13 36 24 91q10 49 22 83q12 37 47 37t22 -37q-9 -24 -40 -83q-27 -51 -42 -91zM320 499h-33q13 36 24 91q10 49 22 83q12 37 47 37t22 -37q-11 -30 -39 -83q-30 -56 -43 -91z" />
    <glyph glyph-name="numbersign" unicode="#" horiz-adv-x="748" 
d="M800 700h35l-187 -258h105l-12 -32h-116l-122 -168h117l-12 -32h-129l-149 -206h-35l149 206h-245l-149 -206h-35l149 206h-114l12 32h126l122 168h-127l12 32h138l187 258h35l-187 -258h245zM223 242h245l122 168h-245z" />
    <glyph glyph-name="dollar" unicode="$" horiz-adv-x="610" 
d="M662 734q7 4 19 0l-96 -267q-1 -2 -7 -3.5t-10.5 -1.5t-5.5 2q11 44 15.5 73t2.5 56t-14 43.5t-36 27t-62 13.5l-103 -284l28 -15l31 -17q30 -13 57 -37q32 -24 43 -46q17 -28 17 -59q0 -82 -82 -155q-83 -74 -208 -74q-26 0 -33 1l-37 -102h-32l38 104q-40 3 -75 10
q-36 7 -51 7q-24 0 -56 -44q-5 -5 -18 -2q-3 0 -3 2l104 284q2 6 16 6q8 2 6 -3q-34 -117 -17 -170q17 -50 105 -59l117 321q-75 39 -105 74.5t-30 81.5q0 21 7 45.5t26.5 54t48 53t77 39.5t109.5 17l36 98h32l-36 -98q34 -1 77 -11q41 -9 49 -9q9 0 18.5 5t14.5 10.5t13 16
t10 12.5zM244 522q0 -36 18 -59q19 -22 76 -55l99 270q-58 0 -100 -17.5t-61 -46.5q-32 -48 -32 -92zM473 192q0 68 -131 139l-112 -309h27q129 0 176 65q40 54 40 105z" />
    <glyph glyph-name="percent" unicode="%" horiz-adv-x="929" 
d="M854 720l-628 -759h-36l629 759h35zM217 343q-70 0 -95.5 50t4.5 134q30 83 92 133q64 50 134 50t95.5 -50t-4.5 -133q-31 -84 -92.5 -134t-133.5 -50zM224 362q48 0 93.5 45.5t72.5 119.5t14 119t-60 45q-48 0 -93 -44.5t-72 -119.5t-14.5 -120t59.5 -45zM640 -6
q-70 0 -95.5 50t4.5 134q30 83 92 133q64 50 134 50t95.5 -50t-4.5 -133q-31 -84 -92.5 -134t-133.5 -50zM647 13q48 0 93.5 45.5t72.5 119.5t14 119t-60 45q-48 0 -93 -44.5t-72 -119.5t-14.5 -120t59.5 -45z" />
    <glyph glyph-name="ampersand" unicode="&#x26;" horiz-adv-x="780" 
d="M777 715q54 0 73 -30.5t-2 -83.5q-39 -113 -221 -184q-42 -17 -79.5 -30t-75 -25t-46.5 -15q-47 -17 -96 -44q77 30 139.5 25.5t95.5 -45t12 -100.5q-24 -65 -87 -112q-112 -81 -266 -81q-52 0 -97.5 13t-80 39.5t-45 67t7.5 95.5q23 65 85 118q102 88 269 133
q-156 29 -117 135q18 51 76 88t140 37q64 0 95.5 -23t19.5 -57q-6 -16 -20.5 -26.5t-31.5 -10.5q-22 0 -31 22t-3 58q-13 7 -43 7q-47 0 -86 -22t-54 -61q-18 -48 10 -87q8 -9 40 -29q7 -4 21.5 -10.5t16.5 -7.5q50 21 79 21q12 0 17.5 -5.5t3.5 -12.5q-12 -28 -81 -21
l-74 -27q-38 -14 -77 -34q-47 -24 -76 -45q-78 -55 -102 -123q-20 -50 -16 -86t17 -59t39.5 -36.5t52.5 -18.5t55 -5q80 0 158 31q88 38 119 129q32 89 -37 114q-64 22 -161 -18q-44 -19 -83 -48l-1 -1q-27 -30 -42 -66q-13 -36 6 -59.5t59 -23.5q36 0 64 12q4 74 35 105
t66 31q20 0 27 -17.5t-3 -33.5q-16 -44 -56.5 -74t-76.5 -39.5t-65 -9.5q-129 0 -82 129q26 71 107 128q85 59 179 95q56 20 80 28q56 18 108 41q152 65 184 151q12 35 -2 50t-51 15q-16 0 -28 -4q-19 -35 -46.5 -59t-50.5 -24q-14 0 -20 11t-1 25q12 34 59 57q49 23 98 23z
" />
    <glyph glyph-name="quotesingle" unicode="'" horiz-adv-x="181" 
d="M197 499h-33q15 42 27 98q12 60 19 76q12 37 47 37t22 -37q-9 -21 -37 -76q-31 -61 -45 -98z" />
    <glyph glyph-name="parenleft" unicode="(" horiz-adv-x="332" 
d="M176 -206l-10 -16q-79 40 -116.5 116t-33.5 170.5t44 203.5q60 166 180 297q122 132 282 192l-1 -16q-258 -116 -389 -473q-129 -358 44 -474z" />
    <glyph glyph-name="parenright" unicode=")" horiz-adv-x="331" 
d="M157 737l10 16q79 -40 116.5 -116t33.5 -171t-44 -203q-60 -167 -181 -297q-120 -132 -281 -192l1 16q258 116 389 473q129 358 -44 474z" />
    <glyph glyph-name="asterisk" unicode="*" horiz-adv-x="368" 
d="M318 605h-12l5 65q4 40 38 40q13 0 15.5 -11.5t-7.5 -28.5zM284 588l-58 16q-16 4 -18 15.5t10 24.5q10 13 23.5 13.5t21.5 -12.5l30 -48zM401 603l-71 -18l-3 10l65 49q18 13 31 12.5t15 -13.5t-8.5 -24.5t-28.5 -15.5zM194 479q-7 6 -1 19.5t24 25.5l63 46l8 -4
l-44 -68q-10 -18 -26 -23.5t-24 4.5zM339 478q-16 -9 -27 -4t-10 22l3 67l9 4l36 -44q8 -12 5 -25t-16 -20z" />
    <glyph glyph-name="plus" unicode="+" horiz-adv-x="411" 
d="M242 307h164l-12 -32h-164l-67 -184h-33l67 184h-163l12 32h163l67 184h33z" />
    <glyph glyph-name="comma" unicode="," horiz-adv-x="296" 
d="M-43 -154l-7 17q43 24 86 65q40 39 54 68q-16 -6 -29 -6q-24 0 -33 13.5t-1 36.5q8 24 28 39t45 15q24 0 32.5 -16.5t-0.5 -41.5q-23 -62 -73 -110q-52 -52 -102 -80z" />
    <glyph glyph-name="hyphen" unicode="-" horiz-adv-x="418" 
d="M398 268h-366l4 10h366z" />
    <glyph glyph-name="period" unicode="." horiz-adv-x="275" 
d="M44 -10q-20 0 -29.5 14.5t-2.5 34.5q12 32 48.5 45t50.5 -11q16 -22 -9 -52.5t-58 -30.5z" />
    <glyph glyph-name="slash" unicode="/" horiz-adv-x="436" 
d="M-109 -179h-36l730 913h36z" />
    <glyph glyph-name="zero" unicode="0" horiz-adv-x="707" 
d="M90 350q60 164 176 262q118 98 250 98q133 0 178 -98q46 -96 -13 -262q-61 -165 -177 -262q-118 -98 -250 -98q-133 0 -178 97t14 263zM504 677q-97 0 -192 -91t-149 -237q-52 -144 -24 -235t126 -91q97 0 193 90q97 92 149 237q53 146 24 236q-28 91 -127 91z" />
    <glyph glyph-name="one" unicode="1" horiz-adv-x="350" 
d="M140 0h-81q-16 0 -106 2q-3 2 -2 15q2 14 4 14q81 -2 95 5q18 8 34 54l189 521q-43 -23 -114 -33q-3 1 -1 14.5t7 13.5q70 14 106 34q37 21 67 60q3 4 25 1q4 0 4 -1l-223 -609q-16 -43 0 -54q18 -9 100 -9q2 0 3 -7t0.5 -14t-2.5 -7h-105z" />
    <glyph glyph-name="two" unicode="2" horiz-adv-x="616" 
d="M346 259l-47 -21q-187 -88 -260 -142q54 23 98 23q32 0 103 -30t134 -30q57 0 103 41q43 39 113 146q3 4 18 3l4 -3l-29 -48l-28 -46l-25 -40q-18 -28 -26 -36q-32 -41 -52 -54q-47 -32 -95 -32q-77 0 -135 48t-127 48q-33 0 -84 -24q3 -1 5 -3q22 -15 22 -28
q0 -17 -13 -29t-30 -12q-12 0 -20 7t-8 19q0 16 8 37q12 37 78 80q69 47 255 143q112 58 173 108q63 51 81 90q19 38 19 87q0 47 -27 81q-26 35 -93 35q-93 0 -128 -39q-34 -38 -34 -103q0 -11 -8 -11q-26 0 -46 13.5t-20 27.5q0 41 59 90q65 54 186 56q57 0 114 -28
q33 -15 52.5 -46.5t19.5 -73.5q0 -49 -30 -101q-16 -30 -75 -84q-17 -15 -51 -36l-50 -30q-3 -2 -55 -29z" />
    <glyph glyph-name="three" unicode="3" horiz-adv-x="594" 
d="M441 711q94 0 144 -37q52 -36 26 -107q-20 -70 -112 -123q-18 -11 -57 -25q-16 -6 -58 -20q-19 -6 -65 -19q69 11 82 11q82 0 119 -52q38 -51 5 -139q-30 -82 -126 -146q-95 -64 -218 -64q-97 0 -144 46q-49 47 -23 115q16 46 58 75q41 28 82 19q-47 -34 -67 -87
q-19 -51 11 -93t96 -42q94 0 162 52q69 52 96 128q24 64 -5 111q-28 46 -90 46q-67 0 -88 -7q-55 -26 -77 -26q-13 0 -18.5 7t-2.5 16q13 36 85 35q235 45 281 175q23 62 -1.5 90t-97.5 28q-107 0 -140 -54q-26 -41 -24 -89q0 -11 -8 -11q-26 0 -46 13.5t-20 27.5
q0 44 68 95q69 51 173 51z" />
    <glyph glyph-name="four" unicode="4" horiz-adv-x="552" 
d="M314 0h-79h-106q-2 0 -2.5 6.5t0.5 13t3 6.5q77 0 95 8q17 7 34 52l26 76h-315l-1 9l343 302q76 68 92 121q15 46 15 102q0 18 15 18q37 0 60.5 -10.5t23.5 -28.5q0 -31 -33 -74q-28 -39 -139 -134l-317 -279h265l63 170l68 38l8 1l-76 -209h140l-9 -26h-140l-31 -84
q-14 -40 1 -47t89 -7q2 0 3 -6t0.5 -12t-2.5 -6h-94z" />
    <glyph glyph-name="five" unicode="5" horiz-adv-x="626" 
d="M203 -10q-38 0 -73 8.5t-65 28t-38.5 50.5t5.5 77q20 52 61 74q43 24 83 17q-50 -34 -76 -105q-19 -52 23 -85q44 -32 110 -32q90 0 168 57q77 57 109 144q32 86 -7.5 133t-137.5 47q-76 0 -240 -86l-28 5l243 387l188 -31q88 -18 135 -13q45 5 83 44q4 4 7 -1v-2
q-33 -59 -98 -80.5t-152 -4.5l-165 31l-185 -292q163 87 269 87q108 0 155 -59t11 -159q-40 -109 -145 -175q-106 -65 -240 -65z" />
    <glyph glyph-name="six" unicode="6" horiz-adv-x="640" 
d="M536 710q94 1 141 -58q46 -58 18 -109q-7 -12 -29.5 -16t-47.5 6q-6 4 -2 14q17 34 18 62.5t-24.5 47.5t-74.5 20q-112 0 -208.5 -88t-156.5 -252v-1l-1 -2q138 129 277 129q45 0 83 -13.5t66.5 -42.5t34 -74t-15.5 -108q-34 -95 -135 -165q-100 -70 -222 -70
q-90 0 -140.5 47t-54 123.5t29.5 174.5q58 160 190 268q131 107 254 107zM410 426q-57 0 -125.5 -36.5t-130.5 -107.5q-23 -84 -18 -144q12 -115 148 -115q83 0 151 50.5t104 146.5q16 44 18.5 79t-8 56.5t-25.5 36.5t-37 22t-40 9.5t-37 2.5z" />
    <glyph glyph-name="seven" unicode="7" horiz-adv-x="488" 
d="M650 701l-49 -40l-258 -42q-119 -20 -149 19q-20 29 16 76q1 2 4.5 2.5t7 -0.5t3.5 -2q-12 -37 32 -42q43 -5 132 4zM223 281q166 198 427 420l3 -21q-239 -210 -402 -408q-31 -37 -49.5 -75.5t-23.5 -68t-6.5 -60.5t0.5 -53q0 -17 -15 -18q-35 -3 -65 9q-29 12 -29 30
q0 60 160 245z" />
    <glyph glyph-name="eight" unicode="8" horiz-adv-x="596" 
d="M471 710q102 0 143 -46.5t14 -120.5q-28 -80 -184 -185q123 -67 82 -180q-28 -79 -118 -134q-88 -54 -188 -54q-117 0 -166.5 48.5t-19.5 130.5q21 58 79 114q57 57 130 101q-80 57 -43 160q25 69 106 118q80 48 165 48zM571 541q50 137 -111 137q-67 0 -123 -32.5
t-77 -90.5q-21 -53 -3 -85q18 -31 95 -69l63 -29q70 53 106 91t50 78zM465 162q21 58 -1.5 97.5t-98.5 68.5l-51 20q-20 7 -45 20q-144 -99 -178 -193q-25 -69 11.5 -111t124.5 -42q77 0 146 39q70 41 92 101z" />
    <glyph glyph-name="nine" unicode="9" horiz-adv-x="640" 
d="M456 710q90 0 140.5 -47t54 -123.5t-29.5 -174.5q-58 -162 -190 -269q-130 -106 -254 -106q-96 0 -142.5 58.5t-16.5 108.5q6 12 29 16t48 -6q5 -4 1 -14q-30 -50 -11 -89q20 -40 93 -41q112 0 208 87.5t157 252.5q0 2 1 3q-138 -129 -278 -129q-45 0 -83 13.5
t-66.5 42.5t-33.5 74t16 108q34 93 135 164t222 71zM559 418q22 81 17 144q-10 115 -148 115q-83 0 -151 -50.5t-103 -146.5q-42 -116 14 -172q37 -32 115 -34q56 0 124.5 36.5t131.5 107.5z" />
    <glyph glyph-name="colon" unicode=":" horiz-adv-x="279" 
d="M208 432q-20 0 -29 14.5t-2 35.5q8 21 27.5 35t40.5 14t30.5 -14.5t1.5 -34.5q-8 -21 -27.5 -35.5t-41.5 -14.5zM45 -10q-20 0 -29.5 14.5t-2.5 34.5q8 21 27.5 35t40.5 14t30.5 -14.5t1.5 -34.5q-8 -21 -27.5 -35t-40.5 -14z" />
    <glyph glyph-name="semicolon" unicode=";" horiz-adv-x="296" 
d="M210 432q-20 0 -29.5 14.5t-2.5 34.5q8 21 27 35t41 14q21 0 30.5 -14t1.5 -35t-27.5 -35t-40.5 -14zM-43 -154l-7 17q43 24 86 65q40 39 54 68q-16 -6 -29 -6q-24 0 -33 13.5t-1 36.5q8 24 28 39t45 15q24 0 32.5 -16.5t-0.5 -41.5q-23 -62 -73 -110q-52 -52 -102 -80z
" />
    <glyph glyph-name="less" unicode="&#x3c;" horiz-adv-x="445" 
d="M36 263l417 205l16 -30l-368 -179l234 -174l-24 -31z" />
    <glyph glyph-name="equal" unicode="=" horiz-adv-x="412" 
d="M63 353l12 32h360l-12 -32h-360zM1 184l12 32h360l-11 -32h-361z" />
    <glyph glyph-name="greater" unicode="&#x3e;" horiz-adv-x="446" 
d="M410 263l-417 -206l-16 31l367 178l-234 175l25 31z" />
    <glyph glyph-name="question" unicode="?" horiz-adv-x="446" 
d="M338 716q47 0 87 -25q41 -24 63 -73q22 -47 -4 -121q-62 -168 -227 -168h-45q-12 0 -22 -31l-45 -123q-1 -7 -24 -5q-8 2 -8 5l53 149q24 62 76 62h54q114 0 156 111q33 99 -30 135q-87 -29 -136 -13q-39 11 -25 47q20 50 77 50zM61 -10q-21 0 -31 15t-3 37q8 23 29 38
t44 15q22 0 32.5 -15t2.5 -38q-8 -22 -29.5 -37t-44.5 -15z" />
    <glyph glyph-name="at" unicode="@" horiz-adv-x="936" 
d="M290 -157q-158 0 -229 101q-69 101 -17 245q68 188 252 320t379 132q144 0 211 -91t21 -220q-43 -121 -152 -206t-219 -85q-45 0 -60 24.5t2 54.5q15 39 84 129q-206 -201 -290 -201q-75 0 -40 111q28 77 99 148q70 70 148 108q78 39 136 39q67 0 117 -50l-81 -100
q-23 -28 -67 -90q-39 -55 -51 -89q-12 -26 -4.5 -38.5t37.5 -12.5q90 0 179 72q90 75 130 186q42 116 -22 197q-63 82 -196 82q-179 0 -348 -123q-170 -123 -234 -298q-48 -131 16 -222t212 -91q56 0 137 23t136 54q8 -11 8 -17q-61 -38 -146 -65q-86 -27 -148 -27zM318 95
q45 0 157 97q111 96 180 185q0 46 -67 46q-83 0 -166 -74q-82 -73 -118 -172q-28 -82 14 -82z" />
    <glyph glyph-name="A" unicode="A" horiz-adv-x="761" 
d="M675 27q2 0 3 -6.5t0 -13.5t-2 -7h-83h-56h-97q-2 0 -2.5 7t0.5 13.5t3 6.5q65 0 77 13q14 14 9 75l-3 80h-178h-161l-78 -97q-36 -48 -29.5 -59.5t66.5 -11.5q1 0 2 -6.5t0.5 -13.5t-1.5 -7h-93h-43h-77q-1 0 -1 7t0.5 13.5t1.5 6.5q49 0 71 12q26 13 62 58l435 543
l-3 55q0 5 1 6l53 14q4 1 4 -2l35 -599q1 -60 15 -74q13 -13 69 -13zM210 227h147h165l-18 366z" />
    <glyph glyph-name="B" unicode="B" horiz-adv-x="689" 
d="M318 0h-246h-89q-1 0 -2 6.5t0 13t3 6.5q21 0 69 3q7 2 11.5 5l7.5 5t6 8l4.5 9t5.5 13t6 16l193 530q15 42 0 50q-15 9 -84 9q-1 0 -2 6.5t-0.5 13t1.5 6.5h89h220q92 0 143 -28t51 -82q0 -93 -83 -150q-83 -58 -204 -65l-1 -4q86 0 154 -25q41 -13 65.5 -41t24.5 -65
q0 -90 -99 -165t-244 -75zM315 520l-48 -133h23q342 0 342 196q0 85 -164 85h-91q-27 -48 -62 -148zM280 354h-25l-54 -148q-49 -128 -55 -174h152q124 0 206 64q83 65 83 148q1 39 -28.5 63t-76.5 34q-52 11 -91 12q-19 1 -43 1q-15 1 -40 0h-28z" />
    <glyph glyph-name="C" unicode="C" horiz-adv-x="740" 
d="M317 -9q-109 0 -180 60q-69 61 -69 165q0 124 69 238q70 114 186 185q118 71 246 71q44 0 84 -10t56 -10q28 0 59 46q1 4 18 2q3 -1 3.5 -1t-0.5 -1l-73 -284q0 -1 -5 -1.5t-10 0.5t-5 3q23 134 -8 178q-32 45 -140 45q-71 0 -145.5 -37t-132.5 -99q-58 -61 -93 -143
t-35 -164q0 -205 211 -205q76 0 159 47q83 46 153 119q4 3 9 0.5t9.5 -7t3.5 -6.5q-89 -90 -175 -142q-82 -49 -195 -49z" />
    <glyph glyph-name="D" unicode="D" horiz-adv-x="821" 
d="M260 0h-186h-90q-1 0 -1.5 6.5t0.5 13t2 6.5q21 0 69 3q7 2 11.5 5l7.5 5t6 8l4.5 9t5.5 13t6 16l193 530q15 42 0 50q-15 9 -84 9q-1 0 -2 6.5t-0.5 13t1.5 6.5h90h217q304 0 304 -223q0 -90 -38 -175.5t-107 -152.5q-71 -68 -178.5 -108.5t-230.5 -40.5zM147 32h119
q105 0 197 38t153 103q60 63 93.5 141.5t33.5 158.5q0 195 -251 195h-114q-28 -55 -65 -155l-118 -325q-39 -106 -48 -156z" />
    <glyph glyph-name="E" unicode="E" horiz-adv-x="737" 
d="M782 736q8 3 18 0l-69 -273q0 -3 -10 -3.5t-11 0.5q17 107 13 155q-6 35 -24.5 43t-68.5 10h-260l-103 -281h174q36 0 54.5 18.5t36.5 71.5q0 2 14.5 2t14.5 -2l-71 -212q0 -2 -14.5 -2t-14.5 2q19 57 13 74q-4 16 -44 16h-174l-118 -323h276q34 0 45 1q39 5 68 32
q11 10 34 41q21 28 39 60l51 89q5 8 19 2q4 -1 3 -3l-137 -290q-2 -2 -11 -2.5t-9 2.5q-5 14 -8 19q-14 17 -81 17h-353h-90q-1 0 -1.5 6.5t0.5 13t2 6.5q21 0 69 3q7 2 11.5 5l7.5 5t6 8l4.5 9t5.5 13t6 16l193 530q15 42 0 50q-15 9 -84 9q-1 0 -2 6.5t-0.5 13t1.5 6.5h90
h361q41 0 68 6q37 8 60 30z" />
    <glyph glyph-name="F" unicode="F" horiz-adv-x="690" 
d="M782 736q2 2 10 2t8 -2l-69 -273q-1 -3 -10.5 -4t-10.5 2q22 143 5 178q-4 11 -21 19q-23 10 -81 10h-243l-102 -279h203q40 0 59.5 18.5t40.5 71.5q0 3 16.5 3t16.5 -3l-78 -212q-1 -3 -26 -2q-6 1 -6 2q21 59 14 74q-6 16 -48 16l-204 -1l-97 -265q-16 -43 1 -54
q18 -9 101 -9q2 0 3 -7t0.5 -14t-2.5 -7h-107h-81h-90q-1 0 -1.5 6.5t0.5 13t2 6.5q21 0 69 3q7 2 11.5 5l7.5 5t6 8l4.5 9t5.5 13t6 16l193 530q15 42 0 50q-15 9 -84 9q-1 0 -2 6.5t-0.5 13t1.5 6.5h90h375q80 0 114 36z" />
    <glyph glyph-name="G" unicode="G" horiz-adv-x="813" 
d="M310 -9q-111 0 -179 60q-68 62 -68 164q0 80 42 167q41 86 110 160t166 120q97 48 200 48q46 0 90 -10t62 -10q44 0 71 46q0 6 18 1q3 0 2 -1l-70 -284q-1 -3 -7 -4.5t-12 -1t-6 2.5q5 71 3 121q0 107 -172 107q-68 0 -135.5 -30t-120.5 -81q-77 -75 -124 -175.5
t-47 -190.5q0 -84 51.5 -131t153.5 -47t234 64l59 159q15 43 -3 51q-18 9 -102 9q-2 0 -3 6.5t-0.5 13t2.5 6.5h109h78h84q1 0 1.5 -6.5t-0.5 -13t-2 -6.5q-61 0 -75 -8q-12 -7 -29 -51l-94 -261q-1 -2 -9.5 -2t-8.5 2t1.5 14.5t0.5 20.5t-6 12q-8 8 -52 -7
q-100 -34 -213 -34z" />
    <glyph glyph-name="H" unicode="H" horiz-adv-x="860" 
d="M852 700h89q2 0 2.5 -6.5t-0.5 -13t-3 -6.5q-47 0 -70 -4q-6 -2 -10.5 -4.5t-7.5 -4.5t-6 -7.5t-4.5 -9.5t-5 -13.5t-6.5 -15.5l-193 -530q-15 -42 0 -51q16 -8 84 -8q2 0 3 -6.5t0.5 -13t-2.5 -6.5h-89h-79h-90q-1 0 -1.5 6.5t0.5 13t2 6.5q21 0 69 3q7 2 11.5 5l7.5 5
t6 8l4.5 9t5.5 13t6 16l95 260h-190h-228l-95 -260q-15 -42 0 -51q16 -8 84 -8q2 0 3 -6.5t0 -13t-2 -6.5h-89h-79h-90q-1 0 -1.5 6.5t0.5 13t2 6.5q21 0 69 3q7 2 11.5 5l7.5 5t6 8l4.5 9t5.5 13t6 16l193 530q15 42 0 50q-15 9 -84 9q-1 0 -2 6.5t-0.5 13t1.5 6.5h90h79
h89q1 0 2 -6.5t0 -13t-3 -6.5q-47 0 -70 -4q-6 -2 -10.5 -4.5t-7.5 -4.5t-6 -7.5t-4.5 -9.5t-5 -13.5t-6.5 -15.5l-86 -237h227h191l86 237q15 42 0 50q-15 9 -84 9q-1 0 -2 6.5t-0.5 13t1.5 6.5h90h79z" />
    <glyph glyph-name="I" unicode="I" horiz-adv-x="380" 
d="M293 700h79h89q1 0 2 -6.5t0 -13t-3 -6.5q-47 0 -70 -4q-6 -2 -10.5 -4.5t-7.5 -4.5t-6 -7.5t-4.5 -9.5t-5 -13.5t-6.5 -15.5l-193 -530q-15 -42 0 -51q16 -8 84 -8q2 0 3 -6.5t0 -13t-2 -6.5h-89h-79h-90q-1 0 -1.5 6.5t0.5 13t2 6.5q21 0 69 3q7 2 11.5 5l7.5 5t6 8
l4.5 9t5.5 13t6 16l193 530q15 42 0 50q-15 9 -84 9q-1 0 -2 6.5t-0.5 13t1.5 6.5h90z" />
    <glyph glyph-name="J" unicode="J" horiz-adv-x="369" 
d="M-87 -98q-2 -1 -3.5 2.5t-2.5 11.5q-2 15 2 16q82 32 133.5 80.5t81.5 131.5l170 465q17 44 -2 53q-16 10 -100 10q-2 0 -3.5 7t-1 14t2.5 7h108h82h106q2 0 2.5 -7t-0.5 -14t-3 -7q-77 0 -95 -8q-17 -8 -34 -55l-160 -442q-44 -121 -126 -183q-68 -52 -157 -82z" />
    <glyph glyph-name="K" unicode="K" horiz-adv-x="738" 
d="M734 700h89q1 0 1.5 -7t-0.5 -14.5t-2 -7.5q-59 0 -86 -10q-29 -9 -80 -48l-329 -247q48 20 86 20q74 0 105.5 -37.5t36.5 -126.5l4 -54q5 -88 21 -113q17 -26 76 -26q2 0 3 -7.5t0.5 -14.5t-2.5 -7h-95h-36q-26 32 -27 118l-4 74q-3 85 -27.5 122t-88.5 37
q-67 0 -143 -52l-2 -2l-77 -211q-15 -42 -1 -51q16 -8 83 -8q1 0 2 -6.5t0.5 -13.5t-1.5 -7h-88h-79h-89q-1 0 -2 6.5t0 13t3 6.5q21 0 69 3q7 2 11.5 5l7.5 5t6 8l4.5 9t5.5 13t6 16l192 530q15 42 0 50q-15 9 -84 9q-1 0 -2 6.5t-0.5 13t1.5 6.5h90h79h90q1 0 2 -7
t0 -13.5t-3 -6.5q-65 0 -81 -8q-13 -7 -30 -51l-98 -270l346 259q32 25 42.5 37t2.5 18q-10 10 -90 10q-2 0 -3 8t-1 16t2 8h129h55z" />
    <glyph glyph-name="L" unicode="L" horiz-adv-x="683" 
d="M349 608l-209 -576h184q108 0 132 6q46 10 84 63q29 39 95 154q6 7 19 3q3 -2 3 -4l-138 -290q-2 -2 -10 -2.5t-10 2.5q-3 24 -35 33q-15 4 -43 4q-6 0 -25 -0.5t-24 -0.5h-297h-89q-3 0 -2.5 13t2.5 13q64 0 80 8q14 7 31 51l192 529q15 42 0 50q-14 9 -85 9
q-1 0 -2 6.5t-0.5 13.5t1.5 7h90h82h127q2 0 3 -7t-0.5 -14t-3.5 -7h-54q-45 0 -61 -8q-4 -1 -15 -11q-8 -8 -22 -45z" />
    <glyph glyph-name="M" unicode="M" horiz-adv-x="1010" 
d="M120 0h-38h-102q-2 0 -2.5 7t1 13.5t2.5 6.5q63 0 88 14q25 15 45 72l181 496q17 44 0 53q-16 10 -91 10q-1 0 -2 7t-0.5 14t1.5 7h96h87l139 -422l444 422h33h91q1 0 2 -7t0 -13.5t-3 -6.5q-66 0 -82 -8q-14 -7 -30 -51l-193 -528q-15 -42 -1 -51q16 -8 85 -8
q2 0 3 -6.5t0.5 -13.5t-2.5 -7h-89h-80h-92q-1 0 -2 6.5t0 13t3 6.5q70 2 82 8q14 7 31 52l188 517l-376 -355l-49 -47h-2l-149 437l-187 -518q-22 -62 -4 -77q19 -14 89 -14q1 0 2.5 -7.5t1 -14.5t-1.5 -7h-117z" />
    <glyph glyph-name="N" unicode="N" horiz-adv-x="858" 
d="M598 0l-263 632l-188 -517q-22 -59 -4 -74q17 -13 89 -13q2 0 3 -7t0.5 -14t-1.5 -7h-117h-37h-102q-2 0 -2.5 7t1 13.5t2.5 6.5q64 0 89 14q24 15 45 72l183 501q15 42 -1 51q-17 9 -91 9q-1 0 -2 6.5t-0.5 13t1.5 6.5h97h77l252 -613l186 512q16 51 0 64t-91 13
q-2 0 -3 6t-1 12t2 6h118h37h89q1 0 1.5 -7t-0.5 -13.5t-2 -6.5q-55 0 -78 -15q-21 -13 -43 -70l-213 -587q-2 -5 -15.5 -5.5t-17.5 4.5z" />
    <glyph glyph-name="O" unicode="O" horiz-adv-x="809" 
d="M305 -10q-113 0 -178 59t-65 161q0 83 40 170t107 162q67 74 162 120q96 48 197 48q111 0 175.5 -60t64.5 -162q0 -84 -40 -171q-40 -88 -106 -161q-66 -72 -161 -119q-96 -47 -196 -47zM737 501q0 83 -47.5 129.5t-133.5 46.5t-168 -47q-80 -47 -134 -119
q-55 -72 -87 -156t-32 -157q0 -83 47 -130q48 -45 135 -45t167 47q79 46 134 118q55 73 87 156.5t32 156.5z" />
    <glyph glyph-name="P" unicode="P" horiz-adv-x="685" 
d="M293 700h212q125 0 191.5 -37t66.5 -106q0 -42 -24 -88t-69.5 -88.5t-124.5 -69.5t-176 -27h-140l-67 -184q-16 -49 2 -59q19 -10 113 -10q2 0 3 -7.5t0.5 -15.5t-2.5 -8h-120h-84h-90q-1 0 -1.5 6.5t0.5 13t2 6.5q21 0 69 3q7 2 11.5 5l7.5 5t6 8l4.5 9t5.5 13t6 16
l193 530q15 42 0 50q-15 9 -84 9q-1 0 -2 6.5t-0.5 13t1.5 6.5h90zM241 317h116q147 0 241 71q93 70 93 169q0 111 -201 111h-112q-21 -32 -51 -117z" />
    <glyph glyph-name="Q" unicode="Q" horiz-adv-x="809" 
d="M1047 -94l17 -9q-74 -81 -118 -110q-46 -31 -98 -31q-71 0 -326 74q-250 73 -299 73q-17 0 -71 -27q-29 -62 -63 -62q-15 0 -11 21q10 31 54 58l131 99q-95 11 -148 69t-53 149q0 83 40 170t107 162q67 74 162 120q96 48 197 48q111 0 175.5 -60t64.5 -162
q0 -84 -40 -171q-40 -88 -106 -161q-66 -72 -161 -119q-96 -47 -196 -47h-7l-107 -78q65 25 76 25q46 0 303 -61q262 -62 310 -62q43 0 76 18q33 16 91 74zM135 198q0 -83 47 -130q48 -45 135 -45t167 47q79 46 134 118q55 73 87 156.5t32 156.5q0 83 -47.5 129.5
t-133.5 46.5t-168 -47q-80 -47 -134 -119q-55 -72 -87 -156t-32 -157z" />
    <glyph glyph-name="R" unicode="R" horiz-adv-x="814" 
d="M785 574q0 -77 -77 -148q-78 -72 -222 -100q93 -26 100 -116l9 -88q5 -66 21 -79q17 -14 86 -14q2 0 3 -7.5t0.5 -14.5t-1.5 -7h-104h-35q-15 14 -21 34t-10 67q0 2 -0.5 6t-0.5 7l-5 65q-5 66 -46 98q-18 13 -53 21q-55 11 -158 11h-16l-77 -210q-16 -49 2 -59
q20 -9 110 -9q2 0 3.5 -7.5t1 -15.5t-2.5 -8h-118h-86q-5 0 -104 3q-2 0 -2 7t1 14t3 7q79 -2 93 5q18 8 34 54l189 519q16 43 -1 53q-16 10 -97 10q-2 0 -3 7t-0.5 14t2.5 7h103h233q246 0 246 -126zM267 342h41q215 0 315 74q91 67 91 156q0 53 -55 74.5t-175 21.5h-90
q-21 -32 -51 -117z" />
    <glyph glyph-name="S" unicode="S" horiz-adv-x="610" 
d="M251 -10q-66 0 -123 10t-67 10q-24 0 -56 -44q-5 -5 -18 -2q-3 0 -3 2l104 284q2 6 16 6q8 2 6 -3q-39 -138 -11 -184q29 -47 158 -47t176 65q40 54 40 105q0 74 -156 152q-76 39 -106.5 75t-30.5 82q0 22 7.5 47t27.5 54.5t50 53t81 39t114 15.5q48 0 92 -10t54 -10
q9 0 18.5 5t14.5 10.5t13 16t10 12.5q7 4 19 0l-96 -267q-1 -2 -7 -3.5t-10.5 -1.5t-5.5 2q19 71 19.5 119t-33 71.5t-109.5 23.5q-120 0 -163 -63q-32 -48 -32 -93q0 -39 22 -62q24 -25 92 -63l33 -18q31 -16 36 -20q8 -4 33 -20q30 -18 57 -51q24 -28 24 -69
q0 -82 -82 -155q-83 -74 -208 -74z" />
    <glyph glyph-name="T" unicode="T" horiz-adv-x="670" 
d="M306 0h-86h-127q-2 0 -2.5 7t1 14t3.5 7h53q46 0 60 8q29 17 39 57l209 575h-74q-66 0 -106 -15q-24 -10 -43 -34q-45 -57 -101 -159q-3 -3 -12 -1t-9 4l130 273q1 2 9 2.5t9 -2.5q6 -21 29 -28.5t76 -7.5h271q52 0 80.5 7.5t48.5 28.5q8 5 19 0l-70 -273q0 -1 -5.5 -3
t-10 -2t-5.5 2q26 131 7 180q-4 11 -22 19q-23 9 -84 9h-74l-210 -575q-16 -46 4 -56q21 -9 118 -9q2 0 3.5 -7t0.5 -14t-3 -7h-126z" />
    <glyph glyph-name="U" unicode="U" horiz-adv-x="793" 
d="M323 -9q-54 0 -94 15t-67.5 50.5t-26 94t30.5 145.5l117 319q15 42 0 50q-15 9 -84 9q-2 0 -3 6.5t0 13t2 6.5h89h79h90q1 0 1.5 -6.5t-0.5 -13t-2 -6.5q-47 0 -70 -4q-6 -2 -10.5 -4.5t-7.5 -4.5t-6 -7.5t-4.5 -9.5t-5 -13.5t-6.5 -15.5l-107 -294q-110 -297 108 -297
q107 0 185 81q80 83 129 217l96 263q22 59 3 73q-16 14 -89 14q-2 0 -3 7t-1 14t2 7h118h37h88q1 0 1.5 -7t-0.5 -13.5t-2 -6.5q-56 0 -78 -15q-22 -14 -41 -69l-97 -266q-17 -45 -31 -75q-20 -42 -50 -85q-33 -50 -71 -86q-39 -37 -97.5 -61.5t-121.5 -24.5z" />
    <glyph glyph-name="V" unicode="V" horiz-adv-x="809" 
d="M868 700h76q1 0 1 -7t-0.5 -13.5t-1.5 -6.5q-48 0 -72 -12q-22 -12 -60 -59l-481 -612h-4l-37 595q-3 60 -18 74q-13 13 -77 13q-2 0 -3 7t-0.5 13.5t2.5 6.5h94h55h107q2 0 2.5 -6.5t-0.5 -13.5t-3 -7q-72 0 -85 -13q-14 -14 -10 -76l29 -476l376 477q15 22 22.5 34
t9 22.5t-1.5 14.5t-17 7.5t-29 4t-47 1.5q-2 0 -3 8t-1 16t2 8h128h47z" />
    <glyph glyph-name="W" unicode="W" horiz-adv-x="1156" 
d="M1214 700h76q1 0 1.5 -7t-0.5 -13.5t-2 -6.5q-49 0 -71 -12t-60 -59l-425 -555l-49 -57h-5l-23 446l-285 -380l-51 -66h-5l-26 564q-3 75 -20 98t-75 23q-1 0 -2.5 6t-1 12t2.5 6h95l412 1h116q2 0 2.5 -7.5t-0.5 -15t-3 -7.5q-72 0 -89 -27t-12 -122l17 -421l374 483
q24 31 30.5 46.5t-2.5 25.5q-13 13 -92 13q-2 0 -3 8t-1 16t2 8h128h47zM350 638l19 -535l285 381l-8 155q-36 37 -131 38q-111 -1 -165 -39z" />
    <glyph glyph-name="X" unicode="X" horiz-adv-x="828" 
d="M835 699h77q1 -1 1 -7.5t-1 -14t-2 -7.5q-47 0 -74 -11q-25 -10 -73 -51l-283 -245l95 -250q23 -59 40 -72q18 -12 71 -12q2 0 2 -15q0 -14 -2 -14h-76h-61h-107q-2 0 -2 7t1 14.5t3 7.5q70 0 78 12q8 13 -17 74l-81 215l-264 -235q-27 -26 -35 -37.5t0 -17.5
q15 -11 91 -11q2 0 3 -7.5t1 -14.5t-2 -7h-128h-52h-76q-1 0 -1.5 7t0.5 14.5t2 7.5q49 0 73 10q25 10 74 53l301 270l-85 225q-23 60 -40 71q-17 13 -70 13q-1 0 -2 7.5t-0.5 14.5t1.5 7h77h59h107q2 0 2.5 -7t-0.5 -14.5t-3 -7.5q-70 0 -79 -13q-8 -13 17 -73l72 -189
l245 209q28 25 36.5 36.5t-0.5 17.5q-13 11 -91 11q-2 0 -3 7t-1 14.5t2 7.5h129h51z" />
    <glyph glyph-name="Y" unicode="Y" horiz-adv-x="772" 
d="M830 700h77q1 0 1.5 -7t-0.5 -13.5t-2 -6.5q-49 0 -73 -12q-22 -9 -64 -55l-329 -359l-56 -154q-16 -46 4 -56q21 -9 118 -9q2 0 3.5 -7t0.5 -14t-3 -7h-126h-87h-146q-3 0 -3.5 7t1 14t3.5 7h54q62 3 67 5q3 1 9 3.5t10 4t8 4.5t6 7q12 20 20 42l54 151l-72 336
q-12 62 -29 76t-81 14q-2 0 -3 7.5t-0.5 14.5t2.5 7h94h56h107q2 0 2.5 -7t-0.5 -13.5t-3 -6.5q-71 0 -83 -13q-10 -12 3 -73l62 -304l292 320q43 47 27 58q-15 11 -92 11q-2 0 -3 7t-1 14t2 7h127h46z" />
    <glyph glyph-name="Z" unicode="Z" horiz-adv-x="642" 
d="M744 684l-685 -652h241q47 0 62 1q52 5 87 33q13 10 37 41q24 32 42 61q20 32 51 90q5 4 18 0q5 -2 3 -3l-136 -291q-2 -2 -9.5 -2t-8.5 2q-6 13 -12 19.5t-23 11.5t-48 5h-408q0 16 4 16l687 652h-187q-89 0 -116 -8q-44 -14 -87 -76q-27 -40 -75 -124q-5 -4 -18 0
q-5 2 -3 3l130 273q2 2 10 2t9 -2q6 -19 26.5 -27.5t66.5 -8.5h347q1 0 0 -3.5t-2.5 -7.5t-2.5 -5z" />
    <glyph glyph-name="bracketleft" unicode="[" horiz-adv-x="334" 
d="M124 -222h-203l356 979h203l-7 -20h-130l-346 -949h130z" />
    <glyph glyph-name="backslash" unicode="\" horiz-adv-x="436" 
d="M204 734l64 -913h-35l-65 913h36z" />
    <glyph glyph-name="bracketright" unicode="]" horiz-adv-x="333" 
d="M210 749h202l-356 -979h-202l7 19h129l346 949h-130z" />
    <glyph glyph-name="asciicircum" unicode="^" horiz-adv-x="583" 
d="M142 365h-14l322 327h4l85 -327h-10l-81 312z" />
    <glyph glyph-name="underscore" unicode="_" horiz-adv-x="556" 
d="M426 -65h-526l4 10h526z" />
    <glyph glyph-name="grave" unicode="`" horiz-adv-x="481" 
d="M470 620q3 -3 -7 -13.5t-14 -9.5q-131 67 -114 116q11 29 41 29q31 0 38 -35q12 -47 56 -87z" />
    <glyph glyph-name="a" unicode="a" horiz-adv-x="635" 
d="M546 150q4 4 12.5 -4t6.5 -12q-25 -39 -67 -81q-42 -43 -70 -58q-22 -11 -45 15q-22 27 -12 61q25 74 52 148h-5q-76 -102 -161 -166t-150 -64q-27 0 -53 23q-25 22 -25 49q0 58 33 140q36 85 84 157q50 73 116 126q67 53 122 53q24 0 73 -13q35 -12 41 -14l37 -13
q3 9 7.5 17.5t6.5 12.5t2 5q1 2 14 3t25 0t11 -4q-4 -9 -17.5 -42t-23.5 -58l-38 -97q-39 -101 -92 -263q-8 -26 11 -26q20 10 52 42q33 33 53 63zM140 34q70 0 187 122q116 121 147 199l37 94q-103 54 -151 54q-47 0 -111 -73q-64 -71 -111 -173q-46 -99 -46 -173
q0 -18 18 -34q19 -16 30 -16z" />
    <glyph glyph-name="b" unicode="b" horiz-adv-x="625" 
d="M90 32l-30 -44q-6 -4 -20 2q-6 2 -4 4q34 86 104 284q74 207 129 353q26 64 31 73q-4 0 -62 -3q-4 1 -1 11t6 10l120 27q5 1 6.5 -2.5t-1.5 -11.5l-156 -430h4q78 103 162 168q85 65 154 65q26 0 50 -24q25 -22 25 -50q0 -59 -34 -140q-32 -81 -83 -156
q-49 -73 -116 -126q-65 -52 -124 -52q-43 0 -160 42zM497 493q-70 0 -190 -123t-147 -197l-35 -95q108 -54 152 -54q45 0 110 72q62 71 110 174q47 102 47 175q0 16 -18 32q-17 16 -29 16z" />
    <glyph glyph-name="c" unicode="c" horiz-adv-x="545" 
d="M181 -10q-69 0 -109 46t-40 131q0 90 55 176q56 89 136 141q82 53 156 53q50 0 88 -26q37 -25 37 -56q0 -15 -21 -30.5t-44 -15.5q-9 0 -9 7q0 80 -97 80q-31 0 -71.5 -24t-76.5 -65q-38 -43 -62 -106.5t-24 -129.5q0 -136 130 -136q59 0 139 54q78 55 152 154
q4 4 13.5 -3.5t7.5 -12.5q-81 -108 -173 -172q-92 -65 -187 -65z" />
    <glyph glyph-name="d" unicode="d" horiz-adv-x="650" 
d="M548 722l121 27q6 1 7.5 -3t-1.5 -11q-20 -41 -124 -325q-105 -289 -119 -339q-6 -26 11 -26q20 10 52 42q33 33 53 63q4 4 12.5 -4t5.5 -12q-23 -37 -66 -80q-43 -45 -70 -59q-24 -11 -46 16q-23 27 -11 60l52 148h-4q-78 -102 -164 -165q-88 -65 -153 -65q-21 0 -49 23
q-26 24 -26 48q0 79 55 190q57 115 139 200q84 87 156 87q39 0 147 -38l55 141q18 52 25 64q-4 0 -62 -3q-6 1 -3 11t7 10zM142 33q67 0 185 124q121 125 146 198l33 93q-94 55 -147 55q-44 0 -109 -74q-64 -73 -111 -174q-46 -99 -46 -170q0 -19 19 -35q20 -17 30 -17z" />
    <glyph glyph-name="e" unicode="e" horiz-adv-x="543" 
d="M521 244q5 3 14 -3.5t5 -12.5q-73 -104 -168 -172q-94 -66 -185 -66q-84 0 -119 51.5t-35 128.5q0 86 52 171t134 141q82 55 162 55q57 0 91.5 -26.5t34.5 -62.5q5 -59 -97 -110q-28 -15 -80 -34q-34 -13 -100 -35q-18 -6 -64 -21t-62 -20q-5 -33 -5 -55q0 -65 32.5 -102
t88.5 -37q67 0 150 56q85 59 151 154zM353 496q-73 0 -145 -69q-73 -70 -98 -169q163 58 216 80q67 27 91.5 47.5t24.5 47.5q0 63 -89 63z" />
    <glyph glyph-name="f" unicode="f" horiz-adv-x="340" 
d="M-137 -210q-45 0 -88 18q-44 18 -44 40q0 14 14 34q13 18 24 18q7 0 9 -6q14 -26 48 -47q34 -20 70 -22q31 0 68 49.5t64 129.5l171 495h-48l15 27h43q35 108 110 165q76 58 150 58q50 0 90 -25q41 -24 41 -53q0 -15 -20 -29.5t-45 -14.5q-7 0 -8 10q-5 34 -31 54t-66 20
q-41 0 -86 -49q-44 -50 -68 -120l-5 -16h131l-16 -27h-124l-167 -480q-38 -108 -104 -168q-67 -61 -128 -61z" />
    <glyph glyph-name="g" unicode="g" horiz-adv-x="596" 
d="M564 532q7 4 37 3q11 -3 12 -5q-9 -24 -37 -90l-39 -95q-3 -8 -13.5 -35.5t-17.5 -47.5q-16 -42 -32 -93q-31 -113 -40 -171q-19 -129 -93 -193q-30 -27 -75 -44q-71 -26 -167 -26q-77 0 -124 24.5t-47 63.5q0 37 41 72.5t143 93.5h-1q-22 0 -46 24q-23 25 -23 49
q0 86 57 198q59 112 144 195q85 82 159 82q31 0 145 -40q2 4 8.5 18.5t8.5 16.5zM487 354l37 95q-82 54 -155 54q-45 0 -109 -73q-62 -72 -109 -174q-46 -99 -46 -172q0 -18 18 -34q20 -15 31 -15q46 0 122 62q75 63 134 137q61 76 77 120zM362 -56q32 167 75 275h-5
q-122 -164 -249 -215q-9 -6 -29.5 -19.5t-24.5 -15.5l-78 -52q-24 -17 -42 -35q-13 -14 -13 -33q0 -72 169 -72q90 0 136 37t61 130z" />
    <glyph glyph-name="h" unicode="h" horiz-adv-x="660" 
d="M571 150q4 4 12.5 -4t6.5 -12q-25 -39 -67 -81q-42 -43 -70 -58q-23 -11 -45 15q-22 27 -12 61q49 153 120 326q10 27 8 45.5t-10 28.5t-18 9q-63 -14 -186 -123q-124 -109 -152 -186q-26 -71 -46 -143q-4 -10 -15 -18q-14 -10 -58 -19q-5 -1 -6.5 0t-0.5 5
q21 53 122 326q63 171 118 314q25 64 28 68q-4 0 -62 -3q-4 1 -1 11t6 10q12 3 56 12.5t64 14.5q5 1 6 -3t-1 -12q-4 -6 -159 -427h4q83 89 164 149t142 78q23 7 42.5 -11t24.5 -51t-8 -73q-71 -163 -122 -328q-8 -26 10 -26q21 10 53 42q30 30 52 63z" />
    <glyph glyph-name="i" unicode="i" horiz-adv-x="323" 
d="M261 633q-18 0 -26 12.5t-1 30.5q6 18 23 30t36 12q18 0 26.5 -12t1.5 -30q-6 -18 -23 -30.5t-37 -12.5zM59 71q13 41 40 117l62 177l33 94q8 24 -10 24q-36 -20 -71 -60q-2 -2 -6 0.5t-6.5 7t-0.5 7.5q41 57 90 92q17 9 34.5 2.5t27.5 -31t1 -50.5l-134 -379
q-7 -27 10 -27q21 12 52 43q33 33 52 62q4 4 12.5 -4t6.5 -12q-23 -37 -66 -80q-43 -45 -70 -59q-23 -11 -46 15q-22 26 -11 61z" />
    <glyph glyph-name="j" unicode="j" horiz-adv-x="285" 
d="M289 633q-18 0 -26 12.5t-1 30.5q6 18 23 30t36 12q18 0 26.5 -12t1.5 -30q-6 -18 -23 -30.5t-37 -12.5zM200 530q17 10 34 2q19 -6 28.5 -31t0.5 -50l-157 -426q-43 -118 -109 -176q-67 -59 -131 -59q-32 0 -78 18q-48 17 -48 40q0 16 15 34q14 18 25 18q4 0 31 -32
q41 -38 102 -38q14 0 31 13q20 14 47.5 58.5t49.5 105.5l162 450q11 26 -9 26q-39 -24 -72 -60q-2 -2 -6 0.5t-6.5 7t-0.5 7.5q43 60 91 92z" />
    <glyph glyph-name="k" unicode="k" horiz-adv-x="569" 
d="M527 132q6 8 13.5 0t4.5 -14q-34 -49 -68 -84q-36 -39 -53 -39q-26 0 -57 51q-56 88 -127 300q-58 -76 -119 -172l-52 -155q-1 -5 -8 -10q-10 -6 -58 -18q-3 -1 -5 -1t-1 5q23 57 81 212q43 116 105 286l53 145q22 59 28 67q-4 0 -26.5 -1.5t-35.5 -2.5q-4 1 -1 11t6 10
q36 9 120 27q6 1 7 -2.5t-2 -11.5q-4 -8 -37 -96l-69 -188q-39 -109 -54 -146h3l58 75q10 12 52 61q31 36 55 53q58 43 111 43q49 0 76 -19.5t27 -48.5q0 -18 -20.5 -32.5t-43.5 -14.5q-9 0 -9 16q0 34 -15 49t-49 15q-49 0 -144 -114q80 -222 144 -320q17 -26 29 -26
q40 38 81 90z" />
    <glyph glyph-name="l" unicode="l" horiz-adv-x="330" 
d="M126 72q-8 -27 10 -27q21 12 52 43q33 33 52 62q4 4 13 -4t7 -12q-27 -39 -67 -81q-42 -43 -70 -58q-23 -11 -46 15q-23 27 -11 61q123 353 205 565q26 64 29 68q-4 0 -62 -3q-4 1 -1 11t6 10q20 5 72 16l49 11q3 1 5 -0.5t2 -5t-3 -8.5q-8 -18 -123 -332
q-117 -324 -119 -331z" />
    <glyph glyph-name="m" unicode="m" horiz-adv-x="938" 
d="M849 150q4 4 12.5 -4t6.5 -12q-25 -39 -67 -81q-41 -42 -71 -58q-22 -11 -45 15q-22 27 -12 61l118 326q12 32 8.5 51t-12.5 27t-19 6q-52 -14 -155 -116q-106 -103 -153 -187l-55 -156q-3 -8 -10 -12q-29 -14 -56 -19q-4 -1 -6.5 -1t-2.5 1.5t1 4.5q15 33 45 110
q27 70 60 167l45 124q11 32 7.5 51t-12.5 27.5t-20 6.5q-52 -13 -168 -128q-116 -114 -141 -183q-11 -27 -30 -83q-4 -12 -22 -67q-2 -7 -9 -11q-18 -12 -59 -19q-9 -3 -6 4q62 149 174 463q9 25 -11 25q-36 -19 -71 -60q-4 -2 -10 4.5t-3 10.5q39 54 91 93q16 9 33 2.5
t27 -31t1 -51.5l-51 -144h3q72 80 154 146q80 65 132 81q34 10 53 -33q20 -42 0 -101l-35 -93h6q77 91 152.5 150t133.5 77q35 9 54 -33t-1 -102q-62 -158 -118 -326q-8 -28 9 -28q22 11 52 41q31 31 53 64z" />
    <glyph glyph-name="n" unicode="n" horiz-adv-x="651" 
d="M562 150q4 4 12.5 -4t5.5 -12q-23 -37 -66 -80q-45 -45 -70 -59q-22 -12 -45 15q-22 27 -12 61q61 183 119 326q10 27 8.5 46.5t-10 30.5t-18.5 9q-77 -20 -191 -123q-115 -105 -142 -179q-37 -98 -59 -161q-1 -4 -7 -10q-15 -8 -60 -19q-9 -3 -6 4q126 322 173 463
q7 25 -9 25q-36 -19 -72 -60q-4 -3 -10 4t-3 11q42 60 90 92q17 9 34.5 2.5t27.5 -31t1 -50.5l-53 -144h4q83 90 164 150t141 77q36 11 59 -35q24 -43 1 -100q-73 -169 -122 -328q-8 -26 10 -26q20 10 52 42q33 33 53 63z" />
    <glyph glyph-name="o" unicode="o" horiz-adv-x="536" 
d="M177 -10q-71 0 -111.5 41.5t-40.5 112.5q0 84 46 173q46 90 129 155q85 65 177 65q72 0 112 -42t40 -114q0 -61 -28 -130t-75 -127q-47 -60 -114 -97t-135 -37zM190 17q73 0 137 64q66 65 102 150t36 158q0 57 -26.5 89t-74.5 31q-73 0 -138 -64q-65 -65 -101 -150
t-36 -158q0 -57 26.5 -88.5t74.5 -31.5z" />
    <glyph glyph-name="p" unicode="p" horiz-adv-x="615" 
d="M522 538q24 0 49 -24q25 -22 25 -50q0 -80 -54 -191q-54 -112 -141 -197q-86 -86 -166 -86q-17 0 -66 13l-41 14q-28 11 -34 12l-68 -182q-19 -54 -34 -78q18 0 63 3q4 0 3.5 -9.5t-3.5 -9.5q-56 -14 -119 -18q-6 -1 -7.5 4.5t1.5 8.5q13 26 18 44q33 97 138 379l108 288
q8 24 -9 24q-41 -24 -72 -60q-2 -2 -6 0.5t-6.5 7t-0.5 7.5q46 63 91 92q17 9 35 2t28 -31t0 -50q-2 -5 -10.5 -28.5t-14.5 -42.5q-17 -50 -27 -75h4q79 104 162 169q82 64 154 64zM270 24q42 0 104 71q62 69 111 172q48 102 48 178q0 15 -18 31q-17 17 -28 17
q-70 0 -191 -124q-120 -123 -147 -197l-33 -94q37 -22 83 -38q47 -16 71 -16z" />
    <glyph glyph-name="q" unicode="q" horiz-adv-x="591" 
d="M104 -11q-23 0 -49 23q-26 24 -26 49q0 80 55 191q57 116 140 199q86 86 161 86q33 0 73 -14q22 -7 40 -14l37 -12q4 5 10.5 19t8.5 17q1 1 13 1.5t23.5 0t10.5 -3.5q-133 -341 -252 -685q-19 -54 -35 -78q9 0 63 3q4 0 5 -4.5t-0.5 -9t-3.5 -4.5q-39 -9 -121 -19
q-5 -1 -6.5 5t1.5 9q4 6 18 41q63 187 154 430h-5q-182 -230 -315 -230zM140 34q46 0 122 62q76 64 134 138q60 77 78 121l37 94q-34 20 -84 38q-45 17 -67 17q-44 0 -109 -72q-63 -70 -112 -173q-47 -102 -47 -175q0 -18 18 -34q19 -16 30 -16z" />
    <glyph glyph-name="r" unicode="r" horiz-adv-x="485" 
d="M475 537q32 0 55 -21.5t23 -51.5q0 -19 -21.5 -35t-44.5 -16q-7 0 -7 10q0 24 -16.5 43t-40.5 19q-46 0 -145 -117t-127 -191q-1 -3 -6.5 -17.5t-9.5 -26.5q-16 -50 -41 -112q-1 -6 -8 -11q-23 -12 -59 -19q-6 -1 -7.5 -0.5t0.5 4.5q94 224 173 464q9 24 -9 24
q-37 -22 -71 -60q-4 -3 -10 4t-3 11q42 60 90 92q17 9 34.5 2.5t27.5 -31t1 -50.5q-49 -134 -53 -146h3q154 232 272 232z" />
    <glyph glyph-name="s" unicode="s" horiz-adv-x="483" 
d="M189 -10q-66 0 -121 31q-54 32 -53 67q0 14 20 29t43 15q5 0 6.5 -2.5t0.5 -11.5q1 -47 29 -72t96 -25q54 0 90 29t37 77q1 31 -15 53t-52 45l-46 32q-34 23 -56 40q-50 42 -50 92q1 64 64 106t139 42q66 0 105 -27q40 -26 38 -55q0 -13 -20 -28t-43 -15q-7 0 -7 13
q0 80 -104 80q-42 0 -76 -25q-35 -24 -36 -67q-1 -31 12 -52.5t48 -44.5l49 -33q58 -39 84 -69.5t26 -69.5q-2 -68 -64 -111t-144 -43z" />
    <glyph glyph-name="t" unicode="t" horiz-adv-x="375" 
d="M286 500l-155 -429q-8 -26 10 -26q21 12 52 43q33 33 52 62q4 4 13 -4t7 -12q-27 -39 -67 -81q-42 -43 -70 -58q-22 -11 -45 15q-22 27 -12 61l154 429h-67l8 26q57 20 97 59.5t76 111.5q1 2 6 2.5t9.5 -0.5t4.5 -2l-63 -171h120l-13 -26h-117z" />
    <glyph glyph-name="u" unicode="u" horiz-adv-x="651" 
d="M446 69q-8 -24 11 -24q20 11 50 40.5t54 64.5q3 2 12.5 -4.5t6.5 -10.5q-24 -36 -66 -78q-43 -43 -67 -60q-15 -8 -32 -1.5t-26.5 30t-0.5 49.5l51 144h-4q-81 -87 -164 -149q-81 -60 -140 -77q-38 -12 -60 32t-1 102q37 82 123 329q9 27 -9 27q-10 -4 -18.5 -10
t-12.5 -9.5t-18 -18t-22 -22.5q-5 -3 -11 4t-2 12q20 29 35 42l15 15l20 17l20 17q24 18 50 -11t14 -64q-64 -186 -121 -326q-11 -27 -9.5 -46.5t10 -30t19.5 -8.5q77 18 190 121q114 102 143 179q37 99 58 163q4 6 9 9q15 9 58 20q5 1 6.5 0t0.5 -6q-131 -329 -172 -461z
" />
    <glyph glyph-name="v" unicode="v" horiz-adv-x="549" 
d="M495 537q23 0 37.5 -31.5t14.5 -76.5q0 -91 -56 -195q-56 -105 -146 -174q-91 -71 -180 -71q-29 0 -58 36q-29 37 -29 87q0 39 15 102q15 64 30 111l46 134q9 24 -10 24q-32 -14 -71 -60q-4 -3 -10 4.5t-4 10.5q37 50 91 90q16 10 34 4t28.5 -30.5t0.5 -51.5
q-83 -232 -83 -320q0 -40 21.5 -71t50.5 -31q51 5 114 53q63 49 114 136t51 177q0 62 -55 95q-6 3 -6 6q0 8 21 25q22 17 39 17z" />
    <glyph glyph-name="w" unicode="w" horiz-adv-x="769" 
d="M714 537q21 0 34.5 -29.5t13.5 -72.5q0 -140 -98 -289q-44 -66 -113 -112q-67 -45 -141 -45q-23 0 -46 26.5t-30 64.5q-78 -91 -179 -91q-25 0 -52 35q-26 37 -26 85q-2 36 23 133q2 10 16 55l16 51l20 58l18 53q8 24 -10 24q-32 -17 -72 -60q-4 -3 -10.5 4t-2.5 11
q27 36 51 57q2 2 24 20l19 15q13 11 31.5 2t27.5 -30.5t0 -52.5q-85 -233 -85 -337q0 -35 20.5 -59t48.5 -24t60.5 22.5t58.5 61.5q3 107 111 395q5 8 8 9q22 12 57 19q6 2 6 -2q0 -1 -1 -2q-116 -318 -116 -419q0 -36 19 -60.5t46 -24.5q53 0 111 54q60 57 98 143
q40 87 40 176q0 55 -53 87q-6 4 -6 8q0 9 21 25q20 16 42 16z" />
    <glyph glyph-name="x" unicode="x" horiz-adv-x="622" 
d="M582 538q33 0 61 -31q28 -29 26 -61q-1 -12 -22 -23t-45 -11q-7 0 -7 9q0 80 -32 80q-33 0 -75 -46t-120 -166l-14 -21q21 -117 36 -192q6 -32 27 -32q12 0 45 30q36 34 56 65q2 2 7 -1t8 -7.5t1 -6.5q-26 -40 -74 -85q-49 -44 -72 -46q-18 -2 -30.5 11.5t-18.5 41.5
q-9 38 -31 155q-74 -107 -129.5 -155t-101.5 -48q-31 0 -59 30q-28 29 -26 63q1 12 22 23t45 11q7 0 7 -9q0 -80 32 -80q66 0 204 202l-19 112l-19 112q-4 19 -10.5 24.5t-17.5 5.5q-12 0 -44 -31q-34 -31 -56 -63q-3 -3 -9.5 2t-6.5 12q28 42 75 86q49 44 72 46
q16 2 30 -12.5t19 -43.5q0 -4 3.5 -23.5t11.5 -65.5t16 -93q82 125 136 179q53 53 99 53z" />
    <glyph glyph-name="y" unicode="y" horiz-adv-x="562" 
d="M501 537q24 0 38 -31.5t14 -73.5q0 -141 -85 -259q-83 -116 -222 -172q-138 -55 -138 -153q0 -22 12.5 -38.5t29.5 -23.5q13 -7 37 -13q32 -10 32 -15q0 -10 -17.5 -24.5t-34.5 -14.5q-30 0 -70 25q-39 26 -39 70q0 45 29 91t78 82q-35 16 -59 61.5t-22 95.5q2 30 8 59
q9 44 16 68q22 73 23 74q7 25 12 36l13 40l13 37q9 25 -10 25q-43 -26 -71 -60q-4 -3 -10 4t-3 11q41 55 90 92q27 20 51 -9t12 -71q-80 -219 -80 -320q0 -82 73 -109l22 9q121 46 189 144q69 99 69 224q0 66 -51 93q-4 3 -4 7q0 9 18 24q20 15 37 15z" />
    <glyph glyph-name="z" unicode="z" horiz-adv-x="484" 
d="M474 504l32 32q7 6 20 -6q5 -5 2 -8l-432 -443q24 2 27 2q31 0 101 -27q72 -26 91 -26q12 0 21.5 10.5t9.5 25.5q0 21 -16 41q-5 10 2 17q25 20 48 20q15 0 23.5 -11.5t8.5 -29.5q0 -39 -49 -79q-48 -39 -86 -39q-24 0 -102 26q-76 26 -125 26q-14 0 -23.5 -8t-9.5 -15
q0 -5 4.5 -13t5.5 -10q5 -6 -1 -8q-22 -14 -32 -14q-6 0 -10 7.5t-4 16.5q0 16 17 35.5t44 33.5l395 405q-45 -13 -70 -13q-30 0 -81 19t-78 19q-12 0 -22.5 -11t-10.5 -24q0 -21 16 -40q6 -10 -4 -17q-23 -20 -43 -20q-16 0 -25 11t-9 28q0 37 51 78q53 41 88 41
q32 0 101 -23t96 -23q12 0 29 14z" />
    <glyph glyph-name="braceleft" unicode="{" horiz-adv-x="368" 
d="M523 731h-49q-142 0 -186 -117q-19 -52 -9 -133q10 -77 -7 -126q-27 -71 -143 -91q55 -12 72.5 -33.5t4.5 -56.5q-13 -36 -85 -126.5t-87 -132.5q-44 -116 100 -116h49l-7 -21h-49q-98 0 -143.5 38.5t-19.5 106.5q15 42 85 126t85 126q5 19 7.5 36.5t-16 30t-59.5 12.5
l7 21q56 0 83.5 19.5t41.5 58.5q16 41 7 126q-8 86 7 127q25 69 99 107t170 38h49z" />
    <glyph glyph-name="bar" unicode="|" horiz-adv-x="271" 
d="M-9 -178h-32l335 919h32z" />
    <glyph glyph-name="braceright" unicode="}" horiz-adv-x="367" 
d="M-155 -202h50q143 0 185 117q20 53 9 132q-9 80 8 127q25 70 143 91q-55 12 -73 33.5t-5 56.5q13 36 85 126.5t87 132.5q44 116 -100 116h-49l7 21h49q98 0 143.5 -38.5t19.5 -106.5q-15 -42 -85 -126q-69 -86 -84 -126q-5 -19 -7.5 -36.5t15.5 -30t59 -12.5l-7 -21
q-42 0 -69 -13q-25 -12 -35.5 -26t-20.5 -39q-15 -41 -7 -127q8 -85 -7 -126q-25 -69 -99 -107t-170 -38h-49z" />
    <glyph glyph-name="asciitilde" unicode="~" horiz-adv-x="494" 
d="M455 342l8 -3q-19 -33 -61 -62q-41 -29 -78 -29q-22 0 -61 13l-39 14q-23 10 -57 10q-26 0 -42.5 -12t-38.5 -44l-9 2q22 35 61 62q41 29 79 29q25 0 60 -13l40 -14q49 -17 78.5 -7t59.5 54z" />
    <glyph glyph-name="exclamdown" unicode="&#xa1;" horiz-adv-x="290" 
d="M251 512q23 0 33 -16t2 -37q-9 -22 -30.5 -37t-43.5 -15q-23 0 -33 15t-1 37q7 21 29 37t44 16zM197 322q-55 -156 -87 -297q-32 -144 -40 -165q-25 -69 -82 -69q-56 0 -33 69q3 8 77 155q78 156 133 307q3 5 25 4q7 -1 7 -4z" />
    <glyph glyph-name="cent" unicode="&#xa2;" horiz-adv-x="545" 
d="M520 243q4 4 13.5 -3.5t7.5 -12.5q-81 -108 -173 -172q-92 -65 -187 -65q-2 0 -24 2l-62 -170h-32l64 177q-95 33 -95 168q0 118 89 225q90 107 200 137l77 212h32l-75 -205q5 1 24 1q50 0 88 -26q37 -25 37 -56q0 -15 -21 -30.5t-44 -15.5q-9 0 -9 7q0 77 -89 80
l-166 -454q21 -7 54 -7q59 0 139 54q78 55 152 154zM99 171q0 -85 49 -116l159 437q-74 -20 -141 -110q-67 -89 -67 -211z" />
    <glyph glyph-name="sterling" unicode="&#xa3;" horiz-adv-x="676" 
d="M537 710q76 0 137 -44q60 -44 39 -105q-6 -15 -21.5 -25t-33.5 -10q-30 0 -36.5 27t7.5 95q-43 29 -100 29q-80 0 -138 -35t-82 -101q-10 -40 -7 -61q4 -25 13 -55q10 -33 10 -60h218l-12 -32h-209q-3 -23 -10 -39q-17 -45 -53 -83.5t-75 -58.5l-74 -38q-38 -20 -52 -34
q64 39 117 39q22 0 42 -6t51.5 -20t44.5 -19q41 -15 97 -15t113.5 46.5t104.5 125.5h9q-35 -61 -54 -93q-18 -29 -53 -72q-63 -76 -143 -76q-77 0 -131 50t-122 50q-33 0 -84 -24q35 -24 26 -49q-10 -27 -41 -27q-38 0 -17 60q15 38 100 94q36 24 69 63t48 81q8 22 8 45
h-181l12 32h165l-9 36q-8 27 -9 42q-7 47 9 91q31 84 115 130q83 46 192 46z" />
    <glyph glyph-name="currency" unicode="&#xa4;" horiz-adv-x="486" 
d="M430 431l5 -9l-52 -36q17 -36 0 -81q-17 -48 -60 -82l26 -38l-9 -7l-25 39q-49 -37 -100 -37q-48 0 -72 32l-48 -36l-6 10l49 34q-20 36 -2 85q18 50 64 84l-25 33l9 7l23 -35q49 35 100 35q48 0 71 -35zM372 305q17 47 -2 79.5t-64 32.5q-48 0 -94 -33q-48 -34 -64 -79
q-17 -46 2 -79t66 -33q46 0 93 33q47 35 63 79z" />
    <glyph glyph-name="yen" unicode="&#xa5;" horiz-adv-x="772" 
d="M830 700h77q1 0 1.5 -7t-0.5 -13.5t-2 -6.5q-49 0 -73 -12q-22 -9 -64 -55l-317 -347h187l-10 -27h-194l-24 -65h194l-10 -26h-193l-18 -48q-16 -46 4 -56q21 -9 118 -9q2 0 3.5 -7t0.5 -14t-3 -7h-126h-87h-146q-3 0 -3.5 7t1 14t3.5 7h54q62 3 67 5q3 1 9 3.5t10 4
t8 4.5t6 7q12 20 20 42l17 47h-185l10 26h184l23 65h-183l9 27h176l-69 322q-12 62 -29 76t-81 14q-2 0 -3 7.5t-0.5 14.5t2.5 7h94h56h107q2 0 2.5 -7t-0.5 -13.5t-3 -6.5q-71 0 -83 -13q-10 -12 3 -73l62 -304l292 320q43 47 27 58q-15 11 -92 11q-2 0 -3 7t-1 14t2 7h127
h46z" />
    <glyph glyph-name="brokenbar" unicode="&#xa6;" horiz-adv-x="270" 
d="M198 392h-31l116 319h31zM-10 -178h-31l116 319h31z" />
    <glyph glyph-name="section" unicode="&#xa7;" horiz-adv-x="474" 
d="M80 -59q-7 0 -17.5 1.5t-24.5 6.5t-23.5 14t-14 23.5t3.5 35.5q5 13 17 23t23 10q46 0 30 -45q-6 -18 -31 -51q18 -8 48 -8q44 0 79 24t50 68q7 21 7 45q0 10 -10 47q-6 26 -21 49l-13 26l-12 26l-21 40q-1 2 -8.5 19.5t-9.5 23.5q-10 38 -11 46q0 47 11 78
q40 110 131 189q91 78 188 78q12 0 26 -3t30 -12t21.5 -25t-1.5 -41q-6 -14 -18 -23t-22 -9q-45 0 -30 45q13 32 32 51q-14 7 -47 7q-44 0 -78 -24t-51 -68q-16 -49 9 -104q8 -17 28.5 -47.5t26.5 -41.5q21 -37 30 -63q25 -66 -7 -149q-38 -103 -128 -182q-91 -80 -192 -80z
M241 6q27 16 62 58t49 78q17 49 5 115q-10 65 -46 123q-86 134 -54 218q9 25 35 48q-25 -15 -61 -58q-36 -42 -48 -75q-16 -44 -2 -103q3 -10 14 -47q12 -31 20 -49q10 -22 16 -36l18 -42q4 -9 7.5 -17.5t6 -15t3.5 -8.5q1 -3 11 -34q8 -24 8 -37q2 -40 -9 -70
q-9 -28 -35 -48z" />
    <glyph glyph-name="dieresis" unicode="&#xa8;" horiz-adv-x="481" 
d="M364 613q-17 0 -24.5 11t-1.5 27q5 16 20.5 27t32.5 11q16 0 23.5 -11t2.5 -27q-5 -15 -21 -26.5t-32 -11.5zM544 613q-17 0 -24.5 11t-1.5 27q5 16 20.5 27t32.5 11q16 0 23.5 -11t2.5 -27q-5 -15 -21 -26.5t-32 -11.5z" />
    <glyph glyph-name="copyright" unicode="&#xa9;" horiz-adv-x="825" 
d="M314 -7q-147 0 -213 104t-12 251q53 147 195 250q143 104 289 104t212 -104q66 -103 13 -250q-54 -148 -196 -251q-143 -104 -288 -104zM766 348q48 133 -12 227q-60 95 -193 95t-264 -95q-130 -95 -176 -227q-50 -134 11 -229q61 -94 194 -94q132 0 262 95
q128 94 178 228zM362 141q-90 0 -125 57q-34 57 -1 146q33 92 123 154q91 61 180 61q55 0 92 -32q37 -31 25 -65q-4 -12 -16 -20.5t-24 -8.5q-20 0 -24 22t7 73q-18 23 -68 23q-68 0 -132 -47q-61 -46 -90 -125q-32 -83 -6 -140q26 -56 102 -56q56 0 104.5 24.5t108.5 79.5
l4 -4q-124 -142 -260 -142z" />
    <glyph glyph-name="ordfeminine" unicode="&#xaa;" horiz-adv-x="346" 
d="M412 513q2 2 6.5 -2.5t3.5 -6.5q-15 -22 -39 -44.5t-37 -30.5q-16 -10 -35 8q-16 19 -9 43l21 60h-2q-37 -51 -78.5 -83t-72.5 -32q-16 0 -30.5 13.5t-14.5 29.5q0 41 32 99q33 59 78 99q45 42 78 42q17 0 73 -19q7 14 7 17q3 5 32 0q10 -1 10 -5q-50 -129 -83 -227
q-4 -12 6 -12q24 10 54 51zM200 462q30 0 81 57q52 58 67 94l16 42q-46 30 -68 30q-34 0 -76 -71q-42 -70 -42 -129q0 -8 7.5 -15.5t14.5 -7.5zM366 398l-9 -27h-265l10 27h264z" />
    <glyph glyph-name="guillemotleft" unicode="&#xab;" horiz-adv-x="490" 
d="M181 39l-10 -8l-144 206l3 8l294 205l5 -7l-236 -209zM368 39l-11 -8l-143 206l2 8l294 205l5 -7l-236 -209z" />
    <glyph glyph-name="logicalnot" unicode="&#xac;" horiz-adv-x="500" 
d="M32 268l12 32h410l-77 -213h-33l66 181h-378z" />
    <glyph glyph-name="uni00AD" unicode="&#xad;" horiz-adv-x="418" 
d="M398 268h-366l4 10h366z" />
    <glyph glyph-name="registered" unicode="&#xae;" horiz-adv-x="554" 
d="M601 473q-36 -98 -132 -169q-94 -70 -193 -70q-98 0 -143 70q-44 71 -8 169t131 167q95 70 194 70t142 -70q45 -69 9 -167zM576 473q32 86 -9 148q-39 63 -126 63t-172 -63q-85 -61 -117 -148q-32 -88 7 -150q41 -62 127 -62t172 62q85 61 118 150zM320 622h86
q61 0 87.5 -18.5t13.5 -54.5q-20 -54 -108 -70q34 -15 37 -52l2 -29q1 -12 3 -18.5t10 -12.5t22 -6h2l-6 -16h-42q-27 0 -30 45l-1 24q-3 32 -21 46t-54 14h-18l-22 -60q-12 -38 -6 -47.5t40 -9.5l-4 -13q-17 0 -38 0.5t-22 0.5h-32l-15 -1h-26l4 13q24 0 34 9t23 42l52 142
q14 40 11 50t-27 10l4 13q11 0 26 -1h15zM461 550q12 30 -5.5 42.5t-66.5 12.5h-35q-10 -15 -20 -45l-25 -70h25q106 0 127 60z" />
    <glyph glyph-name="overscore" unicode="&#xaf;" horiz-adv-x="487" 
d="M602 656l-10 -27h-264l9 27h265z" />
    <glyph glyph-name="degree" unicode="&#xb0;" horiz-adv-x="343" 
d="M427 577q-19 -55 -73 -94q-52 -39 -108 -39q-54 0 -80 39q-24 38 -4 94q19 54 73 94q53 39 108 39t79 -39q25 -38 5 -94zM417 577q18 49 -5 86q-22 37 -73 37q-50 0 -99 -37q-49 -35 -67 -86q-18 -50 4.5 -86t72.5 -36t99 36q51 38 68 86z" />
    <glyph glyph-name="plusminus" unicode="&#xb1;" horiz-adv-x="411" 
d="M314 506l-67 -184h164l-11 -32h-165l-67 -184h-32l67 184h-164l12 32h164l67 184h32zM290 -11h-360l12 32h360z" />
    <glyph glyph-name="uni00B2" unicode="&#xb2;" horiz-adv-x="348" 
d="M280 574q-108 -44 -134 -70q27 13 59 13q21 0 54 -15q34 -15 67 -15q32 0 52 19q22 20 57 72l11 1l1 -1q-52 -87 -75 -109q-29 -26 -60 -26q-33 0 -74 26q-41 27 -68 27q-21 0 -44 -14l2 -2q11 -8 11 -15q0 -9 -7 -15.5t-16 -6.5q-15 0 -15 14q0 8 6 23q7 19 43 43
q39 26 130 72q77 39 107 72.5t30 69.5q0 24 -15 39t-45 15q-79 0 -79 -76q0 -6 -5 -6q-17 0 -30 8t-13 17q0 26 37 51q38 26 96 26q37 0 72 -18q34 -16 34 -56q0 -37 -33 -71q-30 -30 -62.5 -48.5t-93.5 -43.5z" />
    <glyph glyph-name="uni00B3" unicode="&#xb3;" horiz-adv-x="317" 
d="M352 811q53 0 79 -19t14 -54q-17 -44 -61 -64l-42 -17l-54 -16q13 1 25 2.5t17 2.5h6q45 0 63.5 -25.5t2.5 -69.5q-16 -43 -70 -76q-55 -32 -120 -32q-50 0 -74.5 23.5t-12.5 56.5q9 24 33.5 38.5t48.5 10.5q-24 -19 -34 -47q-9 -24 6.5 -43.5t46.5 -19.5q43 0 76 25
t48 63q12 33 -2 55t-45 22q-33 0 -44 -4q-27 -13 -39 -13q-13 0 -12 13q7 19 48 19q116 29 140 93q10 30 -2 43t-46 13q-45 0 -62 -20t-16 -56q0 -6 -5 -6q-17 0 -29.5 8t-12.5 17q0 26 37 51q38 26 92 26z" />
    <glyph glyph-name="acute" unicode="&#xb4;" horiz-adv-x="481" 
d="M314 620q48 26 87 59q7 6 19.5 17t17 15t13.5 11t13 9.5t10.5 5.5t12 4t11.5 1q30 0 19 -29q-18 -49 -199 -116q-4 0 -6 9.5t2 13.5z" />
    <glyph glyph-name="uni00B5" unicode="&#xb5;" horiz-adv-x="651" 
d="M446 69q-8 -24 11 -24q20 11 50 40.5t54 64.5q3 2 12.5 -4.5t6.5 -10.5q-24 -36 -66 -78q-43 -43 -67 -60q-15 -8 -32 -1.5t-26.5 30t-0.5 49.5l51 144h-4q-81 -87 -164 -149q-81 -60 -140 -77q-38 -12 -60 32t-1 102q37 82 123 329q9 27 -9 27q-10 -4 -18.5 -10
t-12.5 -9.5t-18 -18t-22 -22.5q-5 -3 -11 4t-2 12q20 29 35 42l15 15l20 17l20 17q24 18 50 -11t14 -64q-64 -186 -121 -326q-11 -27 -9.5 -46.5t10 -30t19.5 -8.5q77 18 190 121q114 102 143 179q37 99 58 163q4 6 9 9q15 9 58 20q5 1 6.5 0t0.5 -6q-131 -329 -172 -461z
" />
    <glyph glyph-name="paragraph" unicode="&#xb6;" horiz-adv-x="649" 
d="M167 516q27 77 101 130q75 54 160 54h203h106q2 0 2.5 -7t-0.5 -14t-3 -7q-77 0 -95 -8q-17 -8 -34 -55l-179 -493q-25 -68 -53 -114t-71 -84q-85 -82 -254 -82q-50 0 -80 21q-31 19 -20 51q14 35 50 35q32 0 43 -27q7 -20 7 -23q2 -9 3.5 -27.5t1.5 -19.5q91 -16 135 73
q10 21 34 86l118 323h-49q-85 0 -121 54q-35 55 -5 134zM525 690l-236 -648q-33 -89 -50 -116q-36 -58 -110 -79q87 16 136 56q20 15 40 46q18 29 27 51q10 21 24 60l229 630h-60z" />
    <glyph glyph-name="middot" unicode="&#xb7;" horiz-adv-x="269" 
d="M149 272q-17 0 -24.5 11.5t-1.5 28.5q9 30 44 37q32 6 39 -13q4 -10 -2 -24q-5 -17 -21 -28.5t-34 -11.5z" />
    <glyph glyph-name="cedilla" unicode="&#xb8;" horiz-adv-x="461" 
d="M39 -203q-28 0 -48 12t-14 27q5 18 24 18q7 0 11.5 -9t16 -18.5t34.5 -9.5q34 0 50 33q7 17 -6 31t-56 26l86 89l23 -1l-60 -69q68 -23 53 -60q-10 -30 -42.5 -49.5t-71.5 -19.5z" />
    <glyph glyph-name="uni00B9" unicode="&#xb9;" horiz-adv-x="220" 
d="M211 448h-56h-70q-1 0 -2 6t0 12t3 6q49 0 65 13q17 13 34 57l73 200q-21 -10 -59 -16v12q3 12 6 14q66 10 104 53q1 1 5.5 1h9t4.5 -1l-96 -263q-17 -40 -8 -55t56 -15q1 0 2 -6t0.5 -12t-1.5 -6h-70z" />
    <glyph glyph-name="ordmasculine" unicode="&#xba;" horiz-adv-x="288" 
d="M207 426q-40 0 -63 22t-23 59q0 67 58 134t132 67q41 0 64 -22t23 -59q0 -68 -58 -135q-58 -66 -133 -66zM217 442q48 0 88 70q41 71 41 127q0 53 -45 53q-47 0 -87 -69q-40 -68 -40 -129q0 -52 43 -52zM330 398l-10 -27h-265l10 27h265z" />
    <glyph glyph-name="guillemotright" unicode="&#xbb;" horiz-adv-x="489" 
d="M105 440l10 8l144 -206l-3 -8l-294 -205l-5 7l236 209zM291 440l11 8l143 -206l-2 -8l-294 -205l-5 7l236 209z" />
    <glyph glyph-name="questiondown" unicode="&#xbf;" horiz-adv-x="446" 
d="M381 507q22 0 32 -15.5t3 -37.5q-9 -23 -30 -37.5t-44 -14.5q-22 0 -32.5 15.5t-1.5 36.5q8 22 29 37.5t44 15.5zM104 -219q-46 0 -86 24q-41 24 -63 73q-23 48 4 121q60 168 226 168h45q11 0 23 32l44 122q4 7 25 5q8 -2 8 -5l-54 -148q-23 -62 -76 -62h-53
q-116 0 -156 -112q-35 -95 29 -134q86 29 137 12q39 -12 25 -47q-19 -49 -78 -49z" />
    <glyph glyph-name="Agrave" unicode="&#xc0;" horiz-adv-x="761" 
d="M655 794q-145 60 -145 101q0 24 26 24q15 0 26 -14q2 -2 15 -16.5t23 -25t27.5 -26.5t35.5 -28q4 -3 -0.5 -10t-7.5 -5zM675 27q2 0 3 -6.5t0 -13.5t-2 -7h-83h-56h-97q-2 0 -2.5 7t0.5 13.5t3 6.5q65 0 77 13q14 14 9 75l-3 80h-178h-161l-78 -97q-36 -48 -29.5 -59.5
t66.5 -11.5q1 0 2 -6.5t0.5 -13.5t-1.5 -7h-93h-43h-77q-1 0 -1 7t0.5 13.5t1.5 6.5q49 0 71 12q26 13 62 58l435 543l-3 55q0 5 1 6l53 14q4 1 4 -2l35 -599q1 -60 15 -74q13 -13 69 -13zM210 227h147h165l-18 366z" />
    <glyph glyph-name="Aacute" unicode="&#xc1;" horiz-adv-x="761" 
d="M682 925q26 0 18 -27q-18 -46 -181 -104q-2 -1 -4.5 3t-2.5 8t3 7q48 27 80 55q7 6 18 15.5t16 13.5l12.5 10t11.5 8.5t9.5 5.5t10 4t9.5 1zM675 27q2 0 3 -6.5t0 -13.5t-2 -7h-83h-56h-97q-2 0 -2.5 7t0.5 13.5t3 6.5q65 0 77 13q14 14 9 75l-3 80h-178h-161l-78 -97
q-36 -48 -29.5 -59.5t66.5 -11.5q1 0 2 -6.5t0.5 -13.5t-1.5 -7h-93h-43h-77q-1 0 -1 7t0.5 13.5t1.5 6.5q49 0 71 12q26 13 62 58l435 543l-3 55q0 5 1 6l53 14q4 1 4 -2l35 -599q1 -60 15 -74q13 -13 69 -13zM210 227h147h165l-18 366z" />
    <glyph glyph-name="Acircumflex" unicode="&#xc2;" horiz-adv-x="761" 
d="M653 905l63 -123q5 -3 -7 -11l-5 -2l-87 90l-152 -90q-3 0 -4.5 5t1.5 8l153 123h38zM675 27q2 0 3 -6.5t0 -13.5t-2 -7h-83h-56h-97q-2 0 -2.5 7t0.5 13.5t3 6.5q65 0 77 13q14 14 9 75l-3 80h-178h-161l-78 -97q-36 -48 -29.5 -59.5t66.5 -11.5q1 0 2 -6.5t0.5 -13.5
t-1.5 -7h-93h-43h-77q-1 0 -1 7t0.5 13.5t1.5 6.5q49 0 71 12q26 13 62 58l435 543l-3 55q0 5 1 6l53 14q4 1 4 -2l35 -599q1 -60 15 -74q13 -13 69 -13zM210 227h147h165l-18 366z" />
    <glyph glyph-name="Atilde" unicode="&#xc3;" horiz-adv-x="761" 
d="M752 888q1 6 19 1q1 -1 5 -4q-20 -30 -57 -57q-38 -26 -69 -26q-16 0 -48 13l-31 13q-19 9 -45 9q-19 0 -30 -10t-30 -42q-3 -5 -19 -1q-4 1 -4 4q18 29 56 56q39 27 70 27q15 0 47 -13l31 -13q26 -9 46 -9q18 0 28.5 10t30.5 42zM675 27q2 0 3 -6.5t0 -13.5t-2 -7h-83
h-56h-97q-2 0 -2.5 7t0.5 13.5t3 6.5q65 0 77 13q14 14 9 75l-3 80h-178h-161l-78 -97q-36 -48 -29.5 -59.5t66.5 -11.5q1 0 2 -6.5t0.5 -13.5t-1.5 -7h-93h-43h-77q-1 0 -1 7t0.5 13.5t1.5 6.5q49 0 71 12q26 13 62 58l435 543l-3 55q0 5 1 6l53 14q4 1 4 -2l35 -599
q1 -60 15 -74q13 -13 69 -13zM210 227h147h165l-18 366z" />
    <glyph glyph-name="Adieresis" unicode="&#xc4;" horiz-adv-x="761" 
d="M510 814q-16 0 -23.5 11t-1.5 27q6 17 21 27.5t32 10.5q16 0 24 -11t2 -27q-5 -15 -21 -26.5t-33 -11.5zM718 890q16 0 24 -11t2 -27q-6 -15 -21.5 -26.5t-32.5 -11.5t-24.5 11t-0.5 27q6 17 21 27.5t32 10.5zM675 27q2 0 3 -6.5t0 -13.5t-2 -7h-83h-56h-97q-2 0 -2.5 7
t0.5 13.5t3 6.5q65 0 77 13q14 14 9 75l-3 80h-178h-161l-78 -97q-36 -48 -29.5 -59.5t66.5 -11.5q1 0 2 -6.5t0.5 -13.5t-1.5 -7h-93h-43h-77q-1 0 -1 7t0.5 13.5t1.5 6.5q49 0 71 12q26 13 62 58l435 543l-3 55q0 5 1 6l53 14q4 1 4 -2l35 -599q1 -60 15 -74
q13 -13 69 -13zM210 227h147h165l-18 366z" />
    <glyph glyph-name="Aring" unicode="&#xc5;" horiz-adv-x="761" 
d="M644 930q30 0 43.5 -21.5t2.5 -52.5q-11 -30 -40 -51.5t-59 -21.5q-31 0 -45.5 21.5t-3.5 51.5t41 52t61 22zM664 856q6 19 -2 33t-28 14q-37 1 -59 -35q-19 -33 -1 -50q9 -9 27 -8q20 0 38 13.5t25 32.5zM675 27q2 0 3 -6.5t0 -13.5t-2 -7h-83h-56h-97q-2 0 -2.5 7
t0.5 13.5t3 6.5q65 0 77 13q14 14 9 75l-3 80h-178h-161l-78 -97q-36 -48 -29.5 -59.5t66.5 -11.5q1 0 2 -6.5t0.5 -13.5t-1.5 -7h-93h-43h-77q-1 0 -1 7t0.5 13.5t1.5 6.5q49 0 71 12q26 13 62 58l435 543l-3 55q0 5 1 6l53 14q4 1 4 -2l35 -599q1 -60 15 -74
q13 -13 69 -13zM210 227h147h165l-18 366z" />
    <glyph glyph-name="AE" unicode="&#xc6;" horiz-adv-x="1172" 
d="M1102 736q6 3 18 0l-17 -273q0 -3 -10 -3.5t-11 0.5q-3 42 -4.5 66t-5 49t-6 36.5t-10.5 24t-13.5 16.5t-20 8.5t-25.5 5.5t-34 2h-261l-47 -277l184 -1q29 0 42 20t28 79q0 5 17 3l5 -3l-54 -233q0 -3 -11 -3t-11 3q13 64 9 81q-4 18 -33 18h-183l-55 -323h276
q34 0 45 1q39 5 62 32q9 10 25 41q15 26 28 60q8 17 35 89q2 8 18 2l4 -3l-83 -290q-1 -2 -9.5 -2.5t-9.5 2.5q-1 1 -3.5 5.5t-3.5 6t-4.5 5t-6.5 5.5t-8 4.5t-11.5 4t-14.5 3t-19.5 2t-24.5 0.5h-363h-106q-2 0 -2.5 7t0.5 14.5t3 7.5q78 0 96 8q17 9 26 58l14 82h-214
h-144l-76 -77q-19 -21 -26.5 -32.5t-9.5 -20t11 -12t30.5 -5t54.5 -1.5q2 0 3 -7.5t1 -14.5t-2 -7h-129h-43h-77q-1 0 -1.5 7t0.5 14.5t2 7.5q47 0 74 11q27 13 70 57l549 556q-7 12 -27 15t-80 3q-2 0 -3 7.5t-0.5 14.5t2.5 7h106h355q42 0 67 6q7 2 13 3.5t10.5 3.5t7 3
t6 4t5 4.5l5.5 5.5zM226 205h126h208l18 105l27 159l25 136q1 3 1 10z" />
    <glyph glyph-name="Ccedilla" unicode="&#xc7;" horiz-adv-x="740" 
d="M768 736q1 4 18 2q3 -1 3.5 -1t-0.5 -1l-73 -284q0 -1 -5 -1.5t-10 0.5t-5 3q23 134 -8 178q-32 45 -140 45q-71 0 -145.5 -37t-132.5 -99q-58 -61 -93 -143t-35 -164q0 -205 211 -205q76 0 159 47q83 46 153 119q4 3 9 0.5t9.5 -7t3.5 -6.5q-89 -90 -175 -142
q-82 -49 -195 -49h-15l-52 -60q68 -23 53 -60q-10 -30 -42.5 -49.5t-71.5 -19.5q-28 0 -48 12t-14 27q5 18 24 18q6 0 10 -6t7.5 -12.5t15 -12.5t29.5 -6q34 0 50 33q7 17 -6 31t-56 26l78 81q-93 10 -153 70q-58 58 -58 153q0 124 69 238q70 114 186 185q118 71 246 71
q44 0 84 -10t56 -10q28 0 59 46z" />
    <glyph glyph-name="Egrave" unicode="&#xc8;" horiz-adv-x="737" 
d="M604 792q-145 60 -145 101q0 24 26 24q15 0 26 -14q2 -2 15 -16.5t23 -25t27.5 -26.5t35.5 -28q4 -3 -0.5 -10t-7.5 -5zM782 736q8 3 18 0l-69 -273q0 -3 -10 -3.5t-11 0.5q17 107 13 155q-6 35 -24.5 43t-68.5 10h-260l-103 -281h174q36 0 54.5 18.5t36.5 71.5
q0 2 14.5 2t14.5 -2l-71 -212q0 -2 -14.5 -2t-14.5 2q19 57 13 74q-4 16 -44 16h-174l-118 -323h276q34 0 45 1q39 5 68 32q11 10 34 41q21 28 39 60l51 89q5 8 19 2q4 -1 3 -3l-137 -290q-2 -2 -11 -2.5t-9 2.5q-5 14 -8 19q-14 17 -81 17h-353h-90q-1 0 -1.5 6.5t0.5 13
t2 6.5q21 0 69 3q7 2 11.5 5l7.5 5t6 8l4.5 9t5.5 13t6 16l193 530q15 42 0 50q-15 9 -84 9q-1 0 -2 6.5t-0.5 13t1.5 6.5h90h361q41 0 68 6q37 8 60 30z" />
    <glyph glyph-name="Eacute" unicode="&#xc9;" horiz-adv-x="737" 
d="M468 792q-2 -1 -4.5 3t-2.5 8t3 7q48 27 80 55q7 6 18 15.5t16 13.5l12.5 10t11.5 8.5t9.5 5.5t10 4t9.5 1q25 0 18 -27q-18 -46 -181 -104zM782 736q8 3 18 0l-69 -273q0 -3 -10 -3.5t-11 0.5q17 107 13 155q-6 35 -24.5 43t-68.5 10h-260l-103 -281h174q36 0 54.5 18.5
t36.5 71.5q0 2 14.5 2t14.5 -2l-71 -212q0 -2 -14.5 -2t-14.5 2q19 57 13 74q-4 16 -44 16h-174l-118 -323h276q34 0 45 1q39 5 68 32q11 10 34 41q21 28 39 60l51 89q5 8 19 2q4 -1 3 -3l-137 -290q-2 -2 -11 -2.5t-9 2.5q-5 14 -8 19q-14 17 -81 17h-353h-90
q-1 0 -1.5 6.5t0.5 13t2 6.5q21 0 69 3q7 2 11.5 5l7.5 5t6 8l4.5 9t5.5 13t6 16l193 530q15 42 0 50q-15 9 -84 9q-1 0 -2 6.5t-0.5 13t1.5 6.5h90h361q41 0 68 6q37 8 60 30z" />
    <glyph glyph-name="Ecircumflex" unicode="&#xca;" horiz-adv-x="737" 
d="M567 857l-152 -90q-3 0 -4.5 5t1.5 8l153 123h38l63 -123q5 -3 -7 -11l-5 -2zM782 736q8 3 18 0l-69 -273q0 -3 -10 -3.5t-11 0.5q17 107 13 155q-6 35 -24.5 43t-68.5 10h-260l-103 -281h174q36 0 54.5 18.5t36.5 71.5q0 2 14.5 2t14.5 -2l-71 -212q0 -2 -14.5 -2
t-14.5 2q19 57 13 74q-4 16 -44 16h-174l-118 -323h276q34 0 45 1q39 5 68 32q11 10 34 41q21 28 39 60l51 89q5 8 19 2q4 -1 3 -3l-137 -290q-2 -2 -11 -2.5t-9 2.5q-5 14 -8 19q-14 17 -81 17h-353h-90q-1 0 -1.5 6.5t0.5 13t2 6.5q21 0 69 3q7 2 11.5 5l7.5 5t6 8l4.5 9
t5.5 13t6 16l193 530q15 42 0 50q-15 9 -84 9q-1 0 -2 6.5t-0.5 13t1.5 6.5h90h361q41 0 68 6q37 8 60 30z" />
    <glyph glyph-name="Edieresis" unicode="&#xcb;" horiz-adv-x="737" 
d="M460 812q-16 0 -23.5 11t-1.5 27q6 17 21 27.5t32 10.5q16 0 24 -11t2 -27q-5 -15 -21 -26.5t-33 -11.5zM615 850q6 17 21 27.5t32 10.5q16 0 24 -11t2 -27q-6 -15 -21.5 -26.5t-32.5 -11.5t-24.5 11t-0.5 27zM782 736q8 3 18 0l-69 -273q0 -3 -10 -3.5t-11 0.5
q17 107 13 155q-6 35 -24.5 43t-68.5 10h-260l-103 -281h174q36 0 54.5 18.5t36.5 71.5q0 2 14.5 2t14.5 -2l-71 -212q0 -2 -14.5 -2t-14.5 2q19 57 13 74q-4 16 -44 16h-174l-118 -323h276q34 0 45 1q39 5 68 32q11 10 34 41q21 28 39 60l51 89q5 8 19 2q4 -1 3 -3
l-137 -290q-2 -2 -11 -2.5t-9 2.5q-5 14 -8 19q-14 17 -81 17h-353h-90q-1 0 -1.5 6.5t0.5 13t2 6.5q21 0 69 3q7 2 11.5 5l7.5 5t6 8l4.5 9t5.5 13t6 16l193 530q15 42 0 50q-15 9 -84 9q-1 0 -2 6.5t-0.5 13t1.5 6.5h90h361q41 0 68 6q37 8 60 30z" />
    <glyph glyph-name="Igrave" unicode="&#xcc;" horiz-adv-x="380" 
d="M452 807q4 -3 -0.5 -10t-7.5 -5q-145 60 -145 101q0 24 26 24q15 0 26 -14q2 -2 15 -16.5t23 -25t27.5 -26.5t35.5 -28zM293 700h79h89q1 0 2 -6.5t0 -13t-3 -6.5q-47 0 -70 -4q-6 -2 -10.5 -4.5t-7.5 -4.5t-6 -7.5t-4.5 -9.5t-5 -13.5t-6.5 -15.5l-193 -530
q-15 -42 0 -51q16 -8 84 -8q2 0 3 -6.5t0 -13t-2 -6.5h-89h-79h-90q-1 0 -1.5 6.5t0.5 13t2 6.5q21 0 69 3q7 2 11.5 5l7.5 5t6 8l4.5 9t5.5 13t6 16l193 530q15 42 0 50q-15 9 -84 9q-1 0 -2 6.5t-0.5 13t1.5 6.5h90z" />
    <glyph glyph-name="Iacute" unicode="&#xcd;" horiz-adv-x="380" 
d="M304 810q48 27 80 55q7 6 18 15.5t16 13.5l12.5 10t11.5 8.5t9.5 5.5t10 4t9.5 1q25 0 18 -27q-18 -46 -181 -104q-2 -1 -4.5 3t-2.5 8t3 7zM293 700h79h89q1 0 2 -6.5t0 -13t-3 -6.5q-47 0 -70 -4q-6 -2 -10.5 -4.5t-7.5 -4.5t-6 -7.5t-4.5 -9.5t-5 -13.5t-6.5 -15.5
l-193 -530q-15 -42 0 -51q16 -8 84 -8q2 0 3 -6.5t0 -13t-2 -6.5h-89h-79h-90q-1 0 -1.5 6.5t0.5 13t2 6.5q21 0 69 3q7 2 11.5 5l7.5 5t6 8l4.5 9t5.5 13t6 16l193 530q15 42 0 50q-15 9 -84 9q-1 0 -2 6.5t-0.5 13t1.5 6.5h90z" />
    <glyph glyph-name="Icircumflex" unicode="&#xce;" horiz-adv-x="380" 
d="M493 767l-87 90l-152 -90q-3 0 -4.5 5t1.5 8l153 123h38l63 -123q5 -3 -7 -11zM293 700h79h89q1 0 2 -6.5t0 -13t-3 -6.5q-47 0 -70 -4q-6 -2 -10.5 -4.5t-7.5 -4.5t-6 -7.5t-4.5 -9.5t-5 -13.5t-6.5 -15.5l-193 -530q-15 -42 0 -51q16 -8 84 -8q2 0 3 -6.5t0 -13
t-2 -6.5h-89h-79h-90q-1 0 -1.5 6.5t0.5 13t2 6.5q21 0 69 3q7 2 11.5 5l7.5 5t6 8l4.5 9t5.5 13t6 16l193 530q15 42 0 50q-15 9 -84 9q-1 0 -2 6.5t-0.5 13t1.5 6.5h90z" />
    <glyph glyph-name="Idieresis" unicode="&#xcf;" horiz-adv-x="380" 
d="M299 812q-16 0 -23.5 11t-1.5 27q6 17 21 27.5t32 10.5q16 0 24 -11t2 -27q-5 -15 -21 -26.5t-33 -11.5zM454 850q6 17 21 27.5t32 10.5q16 0 24 -11t2 -27q-6 -15 -21.5 -26.5t-32.5 -11.5t-24.5 11t-0.5 27zM293 700h79h89q1 0 2 -6.5t0 -13t-3 -6.5q-47 0 -70 -4
q-6 -2 -10.5 -4.5t-7.5 -4.5t-6 -7.5t-4.5 -9.5t-5 -13.5t-6.5 -15.5l-193 -530q-15 -42 0 -51q16 -8 84 -8q2 0 3 -6.5t0 -13t-2 -6.5h-89h-79h-90q-1 0 -1.5 6.5t0.5 13t2 6.5q21 0 69 3q7 2 11.5 5l7.5 5t6 8l4.5 9t5.5 13t6 16l193 530q15 42 0 50q-15 9 -84 9
q-1 0 -2 6.5t-0.5 13t1.5 6.5h90z" />
    <glyph glyph-name="Eth" unicode="&#xd0;" horiz-adv-x="821" 
d="M293 700h217q304 0 304 -223q0 -90 -38 -175.5t-107 -152.5q-71 -68 -178.5 -108.5t-230.5 -40.5h-186h-90q-1 0 -1.5 6.5t0.5 13t2 6.5q21 0 69 3q7 2 11.5 5l7.5 5t6 8l4.5 9t5.5 13t6 16l91 249h-100l12 32h99l91 249q15 42 0 50q-15 9 -84 9q-1 0 -2 6.5t-0.5 13
t1.5 6.5h90zM147 32h119q105 0 197 38t153 103q60 63 93.5 141.5t33.5 158.5q0 195 -251 195h-114q-28 -55 -65 -155l-53 -147h80l-12 -32h-80l-53 -146q-39 -106 -48 -156z" />
    <glyph glyph-name="Ntilde" unicode="&#xd1;" horiz-adv-x="858" 
d="M813 883q-19 -30 -57 -57q-38 -26 -69 -26q-16 0 -48 13l-31 13q-20 9 -45 9q-19 0 -30 -10t-30 -42q-3 -5 -19 -1q-4 1 -4 4q18 29 56 56q39 27 70 27q15 0 47 -13l31 -13q26 -9 46 -9q18 0 28.5 10t30.5 42q1 6 19 1q2 -1 5 -4zM598 0l-263 632l-188 -517
q-22 -59 -4 -74q17 -13 89 -13q2 0 3 -7t0.5 -14t-1.5 -7h-117h-37h-102q-2 0 -2.5 7t1 13.5t2.5 6.5q64 0 89 14q24 15 45 72l183 501q15 42 -1 51q-17 9 -91 9q-1 0 -2 6.5t-0.5 13t1.5 6.5h97h77l252 -613l186 512q16 51 0 64t-91 13q-2 0 -3 6t-1 12t2 6h118h37h89
q1 0 1.5 -7t-0.5 -13.5t-2 -6.5q-55 0 -78 -15q-21 -13 -43 -70l-213 -587q-2 -5 -15.5 -5.5t-17.5 4.5z" />
    <glyph glyph-name="Ograve" unicode="&#xd2;" horiz-adv-x="809" 
d="M664 807q4 -3 -0.5 -10t-7.5 -5q-145 60 -145 101q0 24 26 24q15 0 26 -14q2 -2 15 -16.5t23 -25t27.5 -26.5t35.5 -28zM305 -10q-113 0 -178 59t-65 161q0 83 40 170t107 162q67 74 162 120q96 48 197 48q111 0 175.5 -60t64.5 -162q0 -84 -40 -171q-40 -88 -106 -161
q-66 -72 -161 -119q-96 -47 -196 -47zM737 501q0 83 -47.5 129.5t-133.5 46.5t-168 -47q-80 -47 -134 -119q-55 -72 -87 -156t-32 -157q0 -83 47 -130q48 -45 135 -45t167 47q79 46 134 118q55 73 87 156.5t32 156.5z" />
    <glyph glyph-name="Oacute" unicode="&#xd3;" horiz-adv-x="809" 
d="M516 810q48 27 80 55q7 6 18 15.5t16 13.5l12.5 10t11.5 8.5t9.5 5.5t10 4t9.5 1q25 0 18 -27q-18 -46 -181 -104q-2 -1 -4.5 3t-2.5 8t3 7zM305 -10q-113 0 -178 59t-65 161q0 83 40 170t107 162q67 74 162 120q96 48 197 48q111 0 175.5 -60t64.5 -162q0 -84 -40 -171
q-40 -88 -106 -161q-66 -72 -161 -119q-96 -47 -196 -47zM737 501q0 83 -47.5 129.5t-133.5 46.5t-168 -47q-80 -47 -134 -119q-55 -72 -87 -156t-32 -157q0 -83 47 -130q48 -45 135 -45t167 47q79 46 134 118q55 73 87 156.5t32 156.5z" />
    <glyph glyph-name="Ocircumflex" unicode="&#xd4;" horiz-adv-x="809" 
d="M705 767l-87 90l-152 -90q-3 0 -4.5 5t1.5 8l153 123h38l63 -123q5 -3 -7 -11zM305 -10q-113 0 -178 59t-65 161q0 83 40 170t107 162q67 74 162 120q96 48 197 48q111 0 175.5 -60t64.5 -162q0 -84 -40 -171q-40 -88 -106 -161q-66 -72 -161 -119q-96 -47 -196 -47z
M737 501q0 83 -47.5 129.5t-133.5 46.5t-168 -47q-80 -47 -134 -119q-55 -72 -87 -156t-32 -157q0 -83 47 -130q48 -45 135 -45t167 47q79 46 134 118q55 73 87 156.5t32 156.5z" />
    <glyph glyph-name="Otilde" unicode="&#xd5;" horiz-adv-x="809" 
d="M777 883q-19 -30 -57 -57q-38 -26 -69 -26q-16 0 -48 13l-31 13q-20 9 -45 9q-19 0 -30 -10t-30 -42q-3 -5 -19 -1q-4 1 -4 4q18 29 56 56q39 27 70 27q15 0 47 -13l31 -13q26 -9 46 -9q18 0 28.5 10t30.5 42q1 6 19 1q2 -1 5 -4zM305 -10q-113 0 -178 59t-65 161
q0 83 40 170t107 162q67 74 162 120q96 48 197 48q111 0 175.5 -60t64.5 -162q0 -84 -40 -171q-40 -88 -106 -161q-66 -72 -161 -119q-96 -47 -196 -47zM737 501q0 83 -47.5 129.5t-133.5 46.5t-168 -47q-80 -47 -134 -119q-55 -72 -87 -156t-32 -157q0 -83 47 -130
q48 -45 135 -45t167 47q79 46 134 118q55 73 87 156.5t32 156.5z" />
    <glyph glyph-name="Odieresis" unicode="&#xd6;" horiz-adv-x="809" 
d="M511 812q-16 0 -23.5 11t-1.5 27q6 17 21 27.5t32 10.5q16 0 24 -11t2 -27q-5 -15 -21 -26.5t-33 -11.5zM666 850q6 17 21 27.5t32 10.5q16 0 24 -11t2 -27q-6 -15 -21.5 -26.5t-32.5 -11.5t-24.5 11t-0.5 27zM305 -10q-113 0 -178 59t-65 161q0 83 40 170t107 162
q67 74 162 120q96 48 197 48q111 0 175.5 -60t64.5 -162q0 -84 -40 -171q-40 -88 -106 -161q-66 -72 -161 -119q-96 -47 -196 -47zM737 501q0 83 -47.5 129.5t-133.5 46.5t-168 -47q-80 -47 -134 -119q-55 -72 -87 -156t-32 -157q0 -83 47 -130q48 -45 135 -45t167 47
q79 46 134 118q55 73 87 156.5t32 156.5z" />
    <glyph glyph-name="multiply" unicode="&#xd7;" horiz-adv-x="366" 
d="M387 439l14 -23l-188 -138l74 -118l-23 -19l-75 119l-167 -123l-16 23l168 123l-87 137l24 19l87 -138z" />
    <glyph glyph-name="Oslash" unicode="&#xd8;" horiz-adv-x="809" 
d="M847 766l27 -5l-122 -119q56 -59 56 -154q0 -84 -40 -171q-40 -88 -106 -161q-66 -72 -161 -119q-96 -47 -196 -47q-106 0 -170 52l-113 -110l-26 5l123 120q-57 59 -57 153q0 83 40 170t107 162q67 74 162 120q96 48 197 48q105 0 167 -53zM135 198q0 -60 25 -101
l538 524q-47 56 -142 56q-86 0 -168 -47q-80 -47 -134 -119q-55 -72 -87 -156t-32 -157zM737 501q0 61 -25 102l-539 -524q47 -56 144 -56q87 0 167 47q79 46 134 118q55 73 87 156.5t32 156.5z" />
    <glyph glyph-name="Ugrave" unicode="&#xd9;" horiz-adv-x="793" 
d="M676 807q4 -3 -0.5 -10t-7.5 -5q-145 60 -145 101q0 24 26 24q15 0 26 -14q2 -2 15 -16.5t23 -25t27.5 -26.5t35.5 -28zM323 -9q-54 0 -94 15t-67.5 50.5t-26 94t30.5 145.5l117 319q15 42 0 50q-15 9 -84 9q-2 0 -3 6.5t0 13t2 6.5h89h79h90q1 0 1.5 -6.5t-0.5 -13
t-2 -6.5q-47 0 -70 -4q-6 -2 -10.5 -4.5t-7.5 -4.5t-6 -7.5t-4.5 -9.5t-5 -13.5t-6.5 -15.5l-107 -294q-110 -297 108 -297q107 0 185 81q80 83 129 217l96 263q22 59 3 73q-16 14 -89 14q-2 0 -3 7t-1 14t2 7h118h37h88q1 0 1.5 -7t-0.5 -13.5t-2 -6.5q-56 0 -78 -15
q-22 -14 -41 -69l-97 -266q-17 -45 -31 -75q-20 -42 -50 -85q-33 -50 -71 -86q-39 -37 -97.5 -61.5t-121.5 -24.5z" />
    <glyph glyph-name="Uacute" unicode="&#xda;" horiz-adv-x="793" 
d="M528 810q48 27 80 55q7 6 18 15.5t16 13.5l12.5 10t11.5 8.5t9.5 5.5t10 4t9.5 1q25 0 18 -27q-18 -46 -181 -104q-2 -1 -4.5 3t-2.5 8t3 7zM323 -9q-54 0 -94 15t-67.5 50.5t-26 94t30.5 145.5l117 319q15 42 0 50q-15 9 -84 9q-2 0 -3 6.5t0 13t2 6.5h89h79h90
q1 0 1.5 -6.5t-0.5 -13t-2 -6.5q-47 0 -70 -4q-6 -2 -10.5 -4.5t-7.5 -4.5t-6 -7.5t-4.5 -9.5t-5 -13.5t-6.5 -15.5l-107 -294q-110 -297 108 -297q107 0 185 81q80 83 129 217l96 263q22 59 3 73q-16 14 -89 14q-2 0 -3 7t-1 14t2 7h118h37h88q1 0 1.5 -7t-0.5 -13.5
t-2 -6.5q-56 0 -78 -15q-22 -14 -41 -69l-97 -266q-17 -45 -31 -75q-20 -42 -50 -85q-33 -50 -71 -86q-39 -37 -97.5 -61.5t-121.5 -24.5z" />
    <glyph glyph-name="Ucircumflex" unicode="&#xdb;" horiz-adv-x="793" 
d="M718 767l-87 90l-152 -90q-3 0 -4.5 5t1.5 8l153 123h38l63 -123q5 -3 -7 -11zM323 -9q-54 0 -94 15t-67.5 50.5t-26 94t30.5 145.5l117 319q15 42 0 50q-15 9 -84 9q-2 0 -3 6.5t0 13t2 6.5h89h79h90q1 0 1.5 -6.5t-0.5 -13t-2 -6.5q-47 0 -70 -4q-6 -2 -10.5 -4.5
t-7.5 -4.5t-6 -7.5t-4.5 -9.5t-5 -13.5t-6.5 -15.5l-107 -294q-110 -297 108 -297q107 0 185 81q80 83 129 217l96 263q22 59 3 73q-16 14 -89 14q-2 0 -3 7t-1 14t2 7h118h37h88q1 0 1.5 -7t-0.5 -13.5t-2 -6.5q-56 0 -78 -15q-22 -14 -41 -69l-97 -266q-17 -45 -31 -75
q-20 -42 -50 -85q-33 -50 -71 -86q-39 -37 -97.5 -61.5t-121.5 -24.5z" />
    <glyph glyph-name="Udieresis" unicode="&#xdc;" horiz-adv-x="793" 
d="M524 812q-16 0 -23.5 11t-1.5 27q6 17 21 27.5t32 10.5q16 0 24 -11t2 -27q-5 -15 -21 -26.5t-33 -11.5zM679 850q6 17 21 27.5t32 10.5q16 0 24 -11t2 -27q-6 -15 -21.5 -26.5t-32.5 -11.5t-24.5 11t-0.5 27zM323 -9q-54 0 -94 15t-67.5 50.5t-26 94t30.5 145.5l117 319
q15 42 0 50q-15 9 -84 9q-2 0 -3 6.5t0 13t2 6.5h89h79h90q1 0 1.5 -6.5t-0.5 -13t-2 -6.5q-47 0 -70 -4q-6 -2 -10.5 -4.5t-7.5 -4.5t-6 -7.5t-4.5 -9.5t-5 -13.5t-6.5 -15.5l-107 -294q-110 -297 108 -297q107 0 185 81q80 83 129 217l96 263q22 59 3 73q-16 14 -89 14
q-2 0 -3 7t-1 14t2 7h118h37h88q1 0 1.5 -7t-0.5 -13.5t-2 -6.5q-56 0 -78 -15q-22 -14 -41 -69l-97 -266q-17 -45 -31 -75q-20 -42 -50 -85q-33 -50 -71 -86q-39 -37 -97.5 -61.5t-121.5 -24.5z" />
    <glyph glyph-name="Yacute" unicode="&#xdd;" horiz-adv-x="772" 
d="M545 792q-2 -1 -4.5 3t-2.5 8t3 7q48 27 80 55q7 6 18 15.5t16 13.5l12.5 10t11.5 8.5t9.5 5.5t10 4t9.5 1q26 0 18 -27q-18 -46 -181 -104zM830 700h77q1 0 1.5 -7t-0.5 -13.5t-2 -6.5q-49 0 -73 -12q-22 -9 -64 -55l-329 -359l-56 -154q-16 -46 4 -56q21 -9 118 -9
q2 0 3.5 -7t0.5 -14t-3 -7h-126h-87h-146q-3 0 -3.5 7t1 14t3.5 7h54q62 3 67 5q3 1 9 3.5t10 4t8 4.5t6 7q12 20 20 42l54 151l-72 336q-12 62 -29 76t-81 14q-2 0 -3 7.5t-0.5 14.5t2.5 7h94h56h107q2 0 2.5 -7t-0.5 -13.5t-3 -6.5q-71 0 -83 -13q-10 -12 3 -73l62 -304
l292 320q43 47 27 58q-15 11 -92 11q-2 0 -3 7t-1 14t2 7h127h46z" />
    <glyph glyph-name="Thorn" unicode="&#xde;" horiz-adv-x="680" 
d="M353 572h100q152 0 217.5 -53.5t30.5 -148.5t-134 -147.5t-244 -52.5h-115l-29 -79q-17 -43 0 -54q18 -9 100 -9q2 0 3.5 -7t1 -14t-2.5 -7h-106h-84q-15 0 -105 2q-3 2 -2 15q0 14 3 14q81 -2 95 5q19 8 35 54l189 519q17 44 -2 53q-16 10 -99 10q-2 0 -3 7t-0.5 14
t2.5 7h105h84q16 0 106 -2q3 -2 2 -15q-2 -14 -4 -14q-78 1 -96 -6q-18 -8 -34 -53zM624 371q32 84 -16 126.5t-169 42.5h-97l-122 -337h90q252 0 314 168z" />
    <glyph glyph-name="germandbls" unicode="&#xdf;" horiz-adv-x="654" 
d="M391 -10q-62 0 -115 31q-54 31 -54 67q0 14 19.5 29t44.5 15q8 0 8 -15q2 -47 27 -75q27 -27 108 -27q42 0 79 28t37 67q0 38 -27 70.5t-87 72.5q-59 38 -84.5 68.5t-25.5 67.5q0 55 90 116q4 3 22 15l24 16t22 15.5t22.5 17t19.5 17t19 19.5t15 19.5t12.5 21.5t7 22
t3.5 24q-4 58 -69 58q-95 0 -159 -75q-58 -68 -89 -153l-178 -505q-37 -106 -104 -167t-128 -61q-45 0 -88 18q-44 18 -44 40q0 15 15 33q14 18 24 18q8 0 9 -4q13 -30 54 -57q39 -27 71 -29q24 0 59 54q36 54 65 138l177 494h-51l2 32h65q40 102 134 181q92 79 200 79
q97 0 97 -82q0 -49 -25.5 -90t-66.5 -67q-20 -12 -72 -40t-75 -47t-25 -39q-2 -54 85 -117q9 -8 33 -24q37 -24 63 -48q24 -20 34 -39.5t13 -50.5q0 -67 -64 -110q-63 -42 -149 -42z" />
    <glyph glyph-name="agrave" unicode="&#xe0;" horiz-adv-x="635" 
d="M537 633q4 -3 -0.5 -10t-7.5 -5q-145 60 -145 101q0 24 26 24q15 0 26 -14q2 -2 15 -16.5t23 -25t27.5 -26.5t35.5 -28zM546 150q4 4 12.5 -4t6.5 -12q-25 -39 -67 -81q-42 -43 -70 -58q-22 -11 -45 15q-22 27 -12 61q25 74 52 148h-5q-76 -102 -161 -166t-150 -64
q-27 0 -53 23q-25 22 -25 49q0 58 33 140q36 85 84 157q50 73 116 126q67 53 122 53q24 0 73 -13q35 -12 41 -14l37 -13q3 9 7.5 17.5t6.5 12.5t2 5q1 2 14 3t25 0t11 -4q-4 -9 -17.5 -42t-23.5 -58l-38 -97q-39 -101 -92 -263q-8 -26 11 -26q20 10 52 42q33 33 53 63z
M140 34q70 0 187 122q116 121 147 199l37 94q-103 54 -151 54q-47 0 -111 -73q-64 -71 -111 -173q-46 -99 -46 -173q0 -18 18 -34q19 -16 30 -16z" />
    <glyph glyph-name="aacute" unicode="&#xe1;" horiz-adv-x="635" 
d="M389 636q48 27 80 55q7 6 18 15.5t16 13.5l12.5 10t11.5 8.5t9.5 5.5t10 4t9.5 1q26 0 18 -27q-18 -46 -181 -104q-2 -1 -4.5 3t-2.5 8t3 7zM546 150q4 4 12.5 -4t6.5 -12q-25 -39 -67 -81q-42 -43 -70 -58q-22 -11 -45 15q-22 27 -12 61q25 74 52 148h-5
q-76 -102 -161 -166t-150 -64q-27 0 -53 23q-25 22 -25 49q0 58 33 140q36 85 84 157q50 73 116 126q67 53 122 53q24 0 73 -13q35 -12 41 -14l37 -13q3 9 7.5 17.5t6.5 12.5t2 5q1 2 14 3t25 0t11 -4q-4 -9 -17.5 -42t-23.5 -58l-38 -97q-39 -101 -92 -263q-8 -26 11 -26
q20 10 52 42q33 33 53 63zM140 34q70 0 187 122q116 121 147 199l37 94q-103 54 -151 54q-47 0 -111 -73q-64 -71 -111 -173q-46 -99 -46 -173q0 -18 18 -34q19 -16 30 -16z" />
    <glyph glyph-name="acircumflex" unicode="&#xe2;" horiz-adv-x="635" 
d="M578 593l-87 90l-152 -90q-3 0 -4.5 5t1.5 8l153 123h38l63 -123q5 -3 -7 -11zM546 150q4 4 12.5 -4t6.5 -12q-25 -39 -67 -81q-42 -43 -70 -58q-22 -11 -45 15q-22 27 -12 61q25 74 52 148h-5q-76 -102 -161 -166t-150 -64q-27 0 -53 23q-25 22 -25 49q0 58 33 140
q36 85 84 157q50 73 116 126q67 53 122 53q24 0 73 -13q35 -12 41 -14l37 -13q3 9 7.5 17.5t6.5 12.5t2 5q1 2 14 3t25 0t11 -4q-4 -9 -17.5 -42t-23.5 -58l-38 -97q-39 -101 -92 -263q-8 -26 11 -26q20 10 52 42q33 33 53 63zM140 34q70 0 187 122q116 121 147 199l37 94
q-103 54 -151 54q-47 0 -111 -73q-64 -71 -111 -173q-46 -99 -46 -173q0 -18 18 -34q19 -16 30 -16z" />
    <glyph glyph-name="atilde" unicode="&#xe3;" horiz-adv-x="635" 
d="M650 709q-20 -30 -57 -57q-38 -26 -69 -26q-16 0 -48 13l-31 13q-19 9 -45 9q-19 0 -30 -10t-30 -42q-3 -5 -19 -1q-4 1 -4 4q18 29 56 56q39 27 70 27q15 0 47 -13l31 -13q25 -9 46 -9q18 0 28.5 10t30.5 42q1 6 19 1q1 -1 5 -4zM546 150q4 4 12.5 -4t6.5 -12
q-25 -39 -67 -81q-42 -43 -70 -58q-22 -11 -45 15q-22 27 -12 61q25 74 52 148h-5q-76 -102 -161 -166t-150 -64q-27 0 -53 23q-25 22 -25 49q0 58 33 140q36 85 84 157q50 73 116 126q67 53 122 53q24 0 73 -13q35 -12 41 -14l37 -13q3 9 7.5 17.5t6.5 12.5t2 5q1 2 14 3
t25 0t11 -4q-4 -9 -17.5 -42t-23.5 -58l-38 -97q-39 -101 -92 -263q-8 -26 11 -26q20 10 52 42q33 33 53 63zM140 34q70 0 187 122q116 121 147 199l37 94q-103 54 -151 54q-47 0 -111 -73q-64 -71 -111 -173q-46 -99 -46 -173q0 -18 18 -34q19 -16 30 -16z" />
    <glyph glyph-name="adieresis" unicode="&#xe4;" horiz-adv-x="635" 
d="M385 638q-16 0 -23.5 11t-1.5 27q6 17 21 27.5t32 10.5q16 0 24 -11t2 -27q-5 -15 -21 -26.5t-33 -11.5zM540 676q6 17 21 27.5t32 10.5q16 0 24 -11t2 -27q-6 -15 -21.5 -26.5t-32.5 -11.5t-24.5 11t-0.5 27zM546 150q4 4 12.5 -4t6.5 -12q-25 -39 -67 -81
q-42 -43 -70 -58q-22 -11 -45 15q-22 27 -12 61q25 74 52 148h-5q-76 -102 -161 -166t-150 -64q-27 0 -53 23q-25 22 -25 49q0 58 33 140q36 85 84 157q50 73 116 126q67 53 122 53q24 0 73 -13q35 -12 41 -14l37 -13q3 9 7.5 17.5t6.5 12.5t2 5q1 2 14 3t25 0t11 -4
q-4 -9 -17.5 -42t-23.5 -58l-38 -97q-39 -101 -92 -263q-8 -26 11 -26q20 10 52 42q33 33 53 63zM140 34q70 0 187 122q116 121 147 199l37 94q-103 54 -151 54q-47 0 -111 -73q-64 -71 -111 -173q-46 -99 -46 -173q0 -18 18 -34q19 -16 30 -16z" />
    <glyph glyph-name="aring" unicode="&#xe5;" horiz-adv-x="635" 
d="M465 607q-31 0 -45.5 21.5t-3.5 51.5t41 52t61 22q30 0 43.5 -21.5t2.5 -52.5q-11 -30 -40 -51.5t-59 -21.5zM508 727q-37 1 -59 -35q-19 -33 -1 -50q9 -9 27 -8q20 0 38 13.5t25 32.5q6 19 -2 33t-28 14zM546 150q4 4 12.5 -4t6.5 -12q-25 -39 -67 -81q-42 -43 -70 -58
q-22 -11 -45 15q-22 27 -12 61q25 74 52 148h-5q-76 -102 -161 -166t-150 -64q-27 0 -53 23q-25 22 -25 49q0 58 33 140q36 85 84 157q50 73 116 126q67 53 122 53q24 0 73 -13q35 -12 41 -14l37 -13q3 9 7.5 17.5t6.5 12.5t2 5q1 2 14 3t25 0t11 -4q-4 -9 -17.5 -42
t-23.5 -58l-38 -97q-39 -101 -92 -263q-8 -26 11 -26q20 10 52 42q33 33 53 63zM140 34q70 0 187 122q116 121 147 199l37 94q-103 54 -151 54q-47 0 -111 -73q-64 -71 -111 -173q-46 -99 -46 -173q0 -18 18 -34q19 -16 30 -16z" />
    <glyph glyph-name="ae" unicode="&#xe6;" horiz-adv-x="931" 
d="M910 244q5 3 13.5 -3.5t4.5 -12.5q-73 -104 -168 -172q-95 -66 -185 -66q-84 0 -119 51.5t-35 128.5q0 4 2 34q0 8 2 16h-4q-75 -100 -163 -166q-88 -65 -151 -65q-27 0 -53 23q-25 22 -25 49q0 58 33 140q36 85 84 157q50 73 116 126q67 53 122 53q26 0 82 -17
q29 -8 47 -15q34 -10 49 -16l38 -13q85 61 170 61q55 0 90 -26.5t35 -62.5q5 -59 -97 -110q-28 -15 -80 -34q-34 -13 -100 -35q-18 -6 -64 -21t-62 -20q-5 -33 -5 -55q0 -65 32.5 -102t88.5 -37q68 0 151 56q85 59 151 154zM140 34q70 0 187 122q116 121 147 199l37 94
q-103 54 -151 54q-47 0 -111 -73q-64 -71 -111 -173q-46 -99 -46 -173q0 -18 18 -34q19 -16 30 -16zM830 433q0 63 -88 63q-74 0 -146 -69q-73 -70 -98 -169q163 58 216 80q67 27 91.5 47.5t24.5 47.5z" />
    <glyph glyph-name="ccedilla" unicode="&#xe7;" horiz-adv-x="545" 
d="M520 243q4 4 13.5 -3.5t7.5 -12.5q-82 -110 -174.5 -173t-183.5 -64l-51 -59q68 -23 53 -60q-10 -30 -42.5 -49.5t-71.5 -19.5q-28 0 -48 12t-14 27q5 18 24 18q6 0 10 -6t7.5 -12.5t15 -12.5t29.5 -6q34 0 50 33q7 17 -6 31t-56 26l77 79q-60 7 -94 53t-34 123
q0 90 55 176q56 89 136 141q82 53 156 53q50 0 88 -26q37 -25 37 -56q0 -15 -21 -30.5t-44 -15.5q-9 0 -9 7q0 80 -97 80q-31 0 -71.5 -24t-76.5 -65q-38 -43 -62 -106.5t-24 -129.5q0 -136 130 -136q59 0 139 54q78 55 152 154z" />
    <glyph glyph-name="egrave" unicode="&#xe8;" horiz-adv-x="543" 
d="M478 618q-145 60 -145 101q0 24 26 24q15 0 26 -14q2 -2 15 -16.5t23 -25t27.5 -26.5t35.5 -28q4 -3 -0.5 -10t-7.5 -5zM521 244q5 3 14 -3.5t5 -12.5q-73 -104 -168 -172q-94 -66 -185 -66q-84 0 -119 51.5t-35 128.5q0 86 52 171t134 141q82 55 162 55q57 0 91.5 -26.5
t34.5 -62.5q5 -59 -97 -110q-28 -15 -80 -34q-34 -13 -100 -35q-18 -6 -64 -21t-62 -20q-5 -33 -5 -55q0 -65 32.5 -102t88.5 -37q67 0 150 56q85 59 151 154zM353 496q-73 0 -145 -69q-73 -70 -98 -169q163 58 216 80q67 27 91.5 47.5t24.5 47.5q0 63 -89 63z" />
    <glyph glyph-name="eacute" unicode="&#xe9;" horiz-adv-x="543" 
d="M342 618q-2 -1 -4.5 3t-2.5 8t3 7q48 27 80 55q7 6 18 15.5t16 13.5l12.5 10t11.5 8.5t9.5 5.5t10 4t9.5 1q25 0 18 -27q-18 -46 -181 -104zM521 244q5 3 14 -3.5t5 -12.5q-73 -104 -168 -172q-94 -66 -185 -66q-84 0 -119 51.5t-35 128.5q0 86 52 171t134 141
q82 55 162 55q57 0 91.5 -26.5t34.5 -62.5q5 -59 -97 -110q-28 -15 -80 -34q-34 -13 -100 -35q-18 -6 -64 -21t-62 -20q-5 -33 -5 -55q0 -65 32.5 -102t88.5 -37q67 0 150 56q85 59 151 154zM353 496q-73 0 -145 -69q-73 -70 -98 -169q163 58 216 80q67 27 91.5 47.5
t24.5 47.5q0 63 -89 63z" />
    <glyph glyph-name="ecircumflex" unicode="&#xea;" horiz-adv-x="543" 
d="M440 683l-152 -90q-3 0 -4.5 5t1.5 8l153 123h38l63 -123q5 -3 -7 -11l-5 -2zM521 244q5 3 14 -3.5t5 -12.5q-73 -104 -168 -172q-94 -66 -185 -66q-84 0 -119 51.5t-35 128.5q0 86 52 171t134 141q82 55 162 55q57 0 91.5 -26.5t34.5 -62.5q5 -59 -97 -110
q-28 -15 -80 -34q-34 -13 -100 -35q-18 -6 -64 -21t-62 -20q-5 -33 -5 -55q0 -65 32.5 -102t88.5 -37q67 0 150 56q85 59 151 154zM353 496q-73 0 -145 -69q-73 -70 -98 -169q163 58 216 80q67 27 91.5 47.5t24.5 47.5q0 63 -89 63z" />
    <glyph glyph-name="edieresis" unicode="&#xeb;" horiz-adv-x="543" 
d="M333 638q-16 0 -23.5 11t-1.5 27q6 17 21 27.5t32 10.5q16 0 24 -11t2 -27q-5 -15 -21 -26.5t-33 -11.5zM541 714q16 0 24 -11t2 -27q-6 -15 -21.5 -26.5t-32.5 -11.5t-24.5 11t-0.5 27q6 17 21 27.5t32 10.5zM521 244q5 3 14 -3.5t5 -12.5q-73 -104 -168 -172
q-94 -66 -185 -66q-84 0 -119 51.5t-35 128.5q0 86 52 171t134 141q82 55 162 55q57 0 91.5 -26.5t34.5 -62.5q5 -59 -97 -110q-28 -15 -80 -34q-34 -13 -100 -35q-18 -6 -64 -21t-62 -20q-5 -33 -5 -55q0 -65 32.5 -102t88.5 -37q67 0 150 56q85 59 151 154zM353 496
q-73 0 -145 -69q-73 -70 -98 -169q163 58 216 80q67 27 91.5 47.5t24.5 47.5q0 63 -89 63z" />
    <glyph glyph-name="igrave" unicode="&#xec;" horiz-adv-x="323" 
d="M325 633q4 -3 -0.5 -10t-7.5 -5q-145 60 -145 101q0 24 26 24q15 0 26 -14q2 -2 15 -16.5t23 -25t27.5 -26.5t35.5 -28zM59 71q13 41 40 117l62 177l33 94q8 24 -10 24q-36 -20 -71 -60q-2 -2 -6 0.5t-6.5 7t-0.5 7.5q41 57 90 92q17 9 34.5 2.5t27.5 -31t1 -50.5
l-134 -379q-7 -27 10 -27q21 12 52 43q33 33 52 62q4 4 12.5 -4t6.5 -12q-23 -37 -66 -80q-43 -45 -70 -59q-23 -11 -46 15q-22 26 -11 61z" />
    <glyph glyph-name="iacute" unicode="&#xed;" horiz-adv-x="323" 
d="M178 636q48 27 80 55q7 6 18 15.5t16 13.5l12.5 10t11.5 8.5t9.5 5.5t10 4t9.5 1q25 0 18 -27q-18 -46 -181 -104q-2 -1 -4.5 3t-2.5 8t3 7zM59 71q13 41 40 117l62 177l33 94q8 24 -10 24q-36 -20 -71 -60q-2 -2 -6 0.5t-6.5 7t-0.5 7.5q41 57 90 92q17 9 34.5 2.5
t27.5 -31t1 -50.5l-134 -379q-7 -27 10 -27q21 12 52 43q33 33 52 62q4 4 12.5 -4t6.5 -12q-23 -37 -66 -80q-43 -45 -70 -59q-23 -11 -46 15q-22 26 -11 61z" />
    <glyph glyph-name="icircumflex" unicode="&#xee;" horiz-adv-x="323" 
d="M367 593l-87 90l-152 -90q-3 0 -4.5 5t1.5 8l153 123h38l63 -123q5 -3 -7 -11zM59 71q13 41 40 117l62 177l33 94q8 24 -10 24q-36 -20 -71 -60q-2 -2 -6 0.5t-6.5 7t-0.5 7.5q41 57 90 92q17 9 34.5 2.5t27.5 -31t1 -50.5l-134 -379q-7 -27 10 -27q21 12 52 43
q33 33 52 62q4 4 12.5 -4t6.5 -12q-23 -37 -66 -80q-43 -45 -70 -59q-23 -11 -46 15q-22 26 -11 61z" />
    <glyph glyph-name="idieresis" unicode="&#xef;" horiz-adv-x="323" 
d="M173 638q-16 0 -23.5 11t-1.5 27q6 17 21 27.5t32 10.5q16 0 24 -11t2 -27q-5 -15 -21 -26.5t-33 -11.5zM328 676q6 17 21 27.5t32 10.5q16 0 24 -11t2 -27q-6 -15 -21.5 -26.5t-32.5 -11.5t-24.5 11t-0.5 27zM59 71q13 41 40 117l62 177l33 94q8 24 -10 24
q-36 -20 -71 -60q-2 -2 -6 0.5t-6.5 7t-0.5 7.5q41 57 90 92q17 9 34.5 2.5t27.5 -31t1 -50.5l-134 -379q-7 -27 10 -27q21 12 52 43q33 33 52 62q4 4 12.5 -4t6.5 -12q-23 -37 -66 -80q-43 -45 -70 -59q-23 -11 -46 15q-22 26 -11 61z" />
    <glyph glyph-name="eth" unicode="&#xf0;" horiz-adv-x="593" 
d="M547 794l15 -20l-111 -76q41 -65 60 -139q20 -77 20 -137q0 -174 -105 -303t-249 -129q-71 0 -111.5 41.5t-40.5 112.5q0 84 46 173q45 89 130 155q85 65 176 65q42 0 87 -19q-9 84 -47 156l-83 -57l-15 19l87 60q-18 30 -52 73q-4 4 4 13.5t15 7.5q36 -29 65 -72z
M190 17q56 0 105.5 30.5t82.5 82.5q48 76 71.5 174.5t17.5 183.5q-55 21 -103 21q-72 0 -137 -64q-65 -65 -102 -150q-36 -85 -36 -158q0 -57 26.5 -88.5t74.5 -31.5z" />
    <glyph glyph-name="ntilde" unicode="&#xf1;" horiz-adv-x="651" 
d="M601 709q-19 -30 -57 -57q-38 -26 -69 -26q-16 0 -48 13l-31 13q-20 9 -45 9q-19 0 -30 -10t-30 -42q-3 -5 -19 -1q-4 1 -4 4q18 29 56 56q39 27 70 27q15 0 47 -13l31 -13q26 -9 46 -9q18 0 28.5 10t30.5 42q1 6 19 1q2 -1 5 -4zM562 150q4 4 12.5 -4t5.5 -12
q-23 -37 -66 -80q-45 -45 -70 -59q-22 -12 -45 15q-22 27 -12 61q61 183 119 326q10 27 8.5 46.5t-10 30.5t-18.5 9q-77 -20 -191 -123q-115 -105 -142 -179q-37 -98 -59 -161q-1 -4 -7 -10q-15 -8 -60 -19q-9 -3 -6 4q126 322 173 463q7 25 -9 25q-36 -19 -72 -60
q-4 -3 -10 4t-3 11q42 60 90 92q17 9 34.5 2.5t27.5 -31t1 -50.5l-53 -144h4q83 90 164 150t141 77q36 11 59 -35q24 -43 1 -100q-73 -169 -122 -328q-8 -26 10 -26q20 10 52 42q33 33 53 63z" />
    <glyph glyph-name="ograve" unicode="&#xf2;" horiz-adv-x="536" 
d="M477 633q4 -3 -0.5 -10t-7.5 -5q-145 60 -145 101q0 24 26 24q15 0 26 -14q2 -2 15 -16.5t23 -25t27.5 -26.5t35.5 -28zM177 -10q-71 0 -111.5 41.5t-40.5 112.5q0 84 46 173q46 90 129 155q85 65 177 65q72 0 112 -42t40 -114q0 -61 -28 -130t-75 -127q-47 -60 -114 -97
t-135 -37zM190 17q73 0 137 64q66 65 102 150t36 158q0 57 -26.5 89t-74.5 31q-73 0 -138 -64q-65 -65 -101 -150t-36 -158q0 -57 26.5 -88.5t74.5 -31.5z" />
    <glyph glyph-name="oacute" unicode="&#xf3;" horiz-adv-x="536" 
d="M329 636q48 27 80 55q7 6 18 15.5t16 13.5l12.5 10t11.5 8.5t9.5 5.5t10 4t9.5 1q26 0 18 -27q-18 -46 -181 -104q-2 -1 -4.5 3t-2.5 8t3 7zM177 -10q-71 0 -111.5 41.5t-40.5 112.5q0 84 46 173q46 90 129 155q85 65 177 65q72 0 112 -42t40 -114q0 -61 -28 -130
t-75 -127q-47 -60 -114 -97t-135 -37zM190 17q73 0 137 64q66 65 102 150t36 158q0 57 -26.5 89t-74.5 31q-73 0 -138 -64q-65 -65 -101 -150t-36 -158q0 -57 26.5 -88.5t74.5 -31.5z" />
    <glyph glyph-name="ocircumflex" unicode="&#xf4;" horiz-adv-x="536" 
d="M518 593l-87 90l-152 -90q-3 0 -4.5 5t1.5 8l153 123h38l63 -123q5 -3 -7 -11zM177 -10q-71 0 -111.5 41.5t-40.5 112.5q0 84 46 173q46 90 129 155q85 65 177 65q72 0 112 -42t40 -114q0 -61 -28 -130t-75 -127q-47 -60 -114 -97t-135 -37zM190 17q73 0 137 64
q66 65 102 150t36 158q0 57 -26.5 89t-74.5 31q-73 0 -138 -64q-65 -65 -101 -150t-36 -158q0 -57 26.5 -88.5t74.5 -31.5z" />
    <glyph glyph-name="otilde" unicode="&#xf5;" horiz-adv-x="536" 
d="M590 709q-20 -30 -57 -57q-38 -26 -69 -26q-16 0 -48 13l-31 13q-19 9 -45 9q-19 0 -30 -10t-30 -42q-3 -5 -19 -1q-4 1 -4 4q18 29 56 56q39 27 70 27q15 0 47 -13l31 -13q26 -9 46 -9q18 0 28.5 10t30.5 42q1 6 19 1q1 -1 5 -4zM177 -10q-71 0 -111.5 41.5t-40.5 112.5
q0 84 46 173q46 90 129 155q85 65 177 65q72 0 112 -42t40 -114q0 -61 -28 -130t-75 -127q-47 -60 -114 -97t-135 -37zM190 17q73 0 137 64q66 65 102 150t36 158q0 57 -26.5 89t-74.5 31q-73 0 -138 -64q-65 -65 -101 -150t-36 -158q0 -57 26.5 -88.5t74.5 -31.5z" />
    <glyph glyph-name="odieresis" unicode="&#xf6;" horiz-adv-x="536" 
d="M325 638q-16 0 -23.5 11t-1.5 27q6 17 21 27.5t32 10.5q16 0 24 -11t2 -27q-5 -15 -21 -26.5t-33 -11.5zM480 676q6 17 21 27.5t32 10.5q16 0 24 -11t2 -27q-6 -15 -21.5 -26.5t-32.5 -11.5t-24.5 11t-0.5 27zM177 -10q-71 0 -111.5 41.5t-40.5 112.5q0 84 46 173
q46 90 129 155q85 65 177 65q72 0 112 -42t40 -114q0 -61 -28 -130t-75 -127q-47 -60 -114 -97t-135 -37zM190 17q73 0 137 64q66 65 102 150t36 158q0 57 -26.5 89t-74.5 31q-73 0 -138 -64q-65 -65 -101 -150t-36 -158q0 -57 26.5 -88.5t74.5 -31.5z" />
    <glyph glyph-name="divide" unicode="&#xf7;" horiz-adv-x="418" 
d="M254 361q-21 0 -31 15t-2 37t28 36.5t42 14.5q21 0 31.5 -15t2.5 -36t-29 -36.5t-42 -15.5zM395 262h-366l11 27h366zM153 83q-21 0 -31.5 15.5t-2.5 36.5q8 22 28.5 36.5t42.5 14.5q21 0 31 -14.5t3 -36.5q-8 -21 -29 -36.5t-42 -15.5z" />
    <glyph glyph-name="oslash" unicode="&#xf8;" horiz-adv-x="536" 
d="M692 678l27 -5l-210 -205q20 -38 20 -87q0 -61 -28 -130t-75 -127q-47 -60 -114 -97t-135 -37q-73 0 -114 44l-196 -190l-26 5l208 203q-24 36 -24 92q0 84 46 173q46 90 129 155q85 65 177 65q78 0 119 -50zM89 137q0 -27 4 -42l363 353q-24 63 -92 61q-73 0 -138 -64
q-65 -65 -101 -150t-36 -158zM465 389q0 19 -3 34l-361 -351q24 -55 89 -55q73 0 137 64q66 65 102 150t36 158z" />
    <glyph glyph-name="ugrave" unicode="&#xf9;" horiz-adv-x="651" 
d="M507 633q4 -3 -0.5 -10t-7.5 -5q-145 60 -145 101q0 24 26 24q15 0 26 -14q2 -2 15 -16.5t23 -25t27.5 -26.5t35.5 -28zM446 69q-8 -24 11 -24q20 11 50 40.5t54 64.5q3 2 12.5 -4.5t6.5 -10.5q-24 -36 -66 -78q-43 -43 -67 -60q-15 -8 -32 -1.5t-26.5 30t-0.5 49.5
l51 144h-4q-81 -87 -164 -149q-81 -60 -140 -77q-38 -12 -60 32t-1 102q37 82 123 329q9 27 -9 27q-10 -4 -18.5 -10t-12.5 -9.5t-18 -18t-22 -22.5q-5 -3 -11 4t-2 12q20 29 35 42l15 15l20 17l20 17q24 18 50 -11t14 -64q-64 -186 -121 -326q-11 -27 -9.5 -46.5t10 -30
t19.5 -8.5q77 18 190 121q114 102 143 179q37 99 58 163q4 6 9 9q15 9 58 20q5 1 6.5 0t0.5 -6q-131 -329 -172 -461z" />
    <glyph glyph-name="uacute" unicode="&#xfa;" horiz-adv-x="651" 
d="M359 636q48 27 80 55q7 6 18 15.5t16 13.5l12.5 10t11.5 8.5t9.5 5.5t10 4t9.5 1q26 0 18 -27q-18 -46 -181 -104q-2 -1 -4.5 3t-2.5 8t3 7zM446 69q-8 -24 11 -24q20 11 50 40.5t54 64.5q3 2 12.5 -4.5t6.5 -10.5q-24 -36 -66 -78q-43 -43 -67 -60q-15 -8 -32 -1.5
t-26.5 30t-0.5 49.5l51 144h-4q-81 -87 -164 -149q-81 -60 -140 -77q-38 -12 -60 32t-1 102q37 82 123 329q9 27 -9 27q-10 -4 -18.5 -10t-12.5 -9.5t-18 -18t-22 -22.5q-5 -3 -11 4t-2 12q20 29 35 42l15 15l20 17l20 17q24 18 50 -11t14 -64q-64 -186 -121 -326
q-11 -27 -9.5 -46.5t10 -30t19.5 -8.5q77 18 190 121q114 102 143 179q37 99 58 163q4 6 9 9q15 9 58 20q5 1 6.5 0t0.5 -6q-131 -329 -172 -461z" />
    <glyph glyph-name="ucircumflex" unicode="&#xfb;" horiz-adv-x="651" 
d="M548 593l-87 90l-152 -90q-3 0 -4.5 5t1.5 8l153 123h38l63 -123q5 -3 -7 -11zM446 69q-8 -24 11 -24q20 11 50 40.5t54 64.5q3 2 12.5 -4.5t6.5 -10.5q-24 -36 -66 -78q-43 -43 -67 -60q-15 -8 -32 -1.5t-26.5 30t-0.5 49.5l51 144h-4q-81 -87 -164 -149
q-81 -60 -140 -77q-38 -12 -60 32t-1 102q37 82 123 329q9 27 -9 27q-10 -4 -18.5 -10t-12.5 -9.5t-18 -18t-22 -22.5q-5 -3 -11 4t-2 12q20 29 35 42l15 15l20 17l20 17q24 18 50 -11t14 -64q-64 -186 -121 -326q-11 -27 -9.5 -46.5t10 -30t19.5 -8.5q77 18 190 121
q114 102 143 179q37 99 58 163q4 6 9 9q15 9 58 20q5 1 6.5 0t0.5 -6q-131 -329 -172 -461z" />
    <glyph glyph-name="udieresis" unicode="&#xfc;" horiz-adv-x="651" 
d="M354 638q-16 0 -23.5 11t-1.5 27q6 17 21 27.5t32 10.5q16 0 24 -11t2 -27q-5 -15 -21 -26.5t-33 -11.5zM509 676q6 17 21 27.5t32 10.5q16 0 24 -11t2 -27q-6 -15 -21.5 -26.5t-32.5 -11.5t-24.5 11t-0.5 27zM446 69q-8 -24 11 -24q20 11 50 40.5t54 64.5q3 2 12.5 -4.5
t6.5 -10.5q-24 -36 -66 -78q-43 -43 -67 -60q-15 -8 -32 -1.5t-26.5 30t-0.5 49.5l51 144h-4q-81 -87 -164 -149q-81 -60 -140 -77q-38 -12 -60 32t-1 102q37 82 123 329q9 27 -9 27q-10 -4 -18.5 -10t-12.5 -9.5t-18 -18t-22 -22.5q-5 -3 -11 4t-2 12q20 29 35 42l15 15
l20 17l20 17q24 18 50 -11t14 -64q-64 -186 -121 -326q-11 -27 -9.5 -46.5t10 -30t19.5 -8.5q77 18 190 121q114 102 143 179q37 99 58 163q4 6 9 9q15 9 58 20q5 1 6.5 0t0.5 -6q-131 -329 -172 -461z" />
    <glyph glyph-name="yacute" unicode="&#xfd;" horiz-adv-x="562" 
d="M341 618q-2 -1 -4.5 3t-2.5 8t3 7q48 27 80 55q7 6 18 15.5t16 13.5l12.5 10t11.5 8.5t9.5 5.5t10 4t9.5 1q26 0 18 -27q-18 -46 -181 -104zM501 537q24 0 38 -31.5t14 -73.5q0 -141 -85 -259q-83 -116 -222 -172q-138 -55 -138 -153q0 -22 12.5 -38.5t29.5 -23.5
q13 -7 37 -13q32 -10 32 -15q0 -10 -17.5 -24.5t-34.5 -14.5q-30 0 -70 25q-39 26 -39 70q0 45 29 91t78 82q-35 16 -59 61.5t-22 95.5q2 30 8 59q9 44 16 68q22 73 23 74q7 25 12 36l13 40l13 37q9 25 -10 25q-43 -26 -71 -60q-4 -3 -10 4t-3 11q41 55 90 92q27 20 51 -9
t12 -71q-80 -219 -80 -320q0 -82 73 -109l22 9q121 46 189 144q69 99 69 224q0 66 -51 93q-4 3 -4 7q0 9 18 24q20 15 37 15z" />
    <glyph glyph-name="thorn" unicode="&#xfe;" horiz-adv-x="583" 
d="M533 538q24 0 48 -24q25 -22 25 -50q0 -80 -54 -191q-53 -111 -140 -197q-86 -86 -166 -86q-27 0 -141 39l-72 -194q-21 -58 -34 -78l7 1q7 0 22.5 0.5t33.5 0.5q9 0 4 -5q-2 -3 -5 -3q-58 -20 -118 -28q-6 -1 -7.5 4.5t1.5 8.5q2 7 9 22.5t9 20.5q246 681 323 880
q25 63 34 77q-9 1 -62 -2q-4 0 -5 2t1 4.5t4 2.5q93 22 119 27q5 1 7 -2.5t-1 -11.5q-11 -24 -80 -215t-83 -236h5q79 103 162 168t154 65zM280 24q42 0 105 71q62 69 111 172q48 102 48 178q0 15 -18 31q-17 17 -28 17q-48 0 -124 -63q-78 -64 -138 -139q-60 -74 -76 -119
l-34 -94q38 -22 84 -38q47 -16 70 -16z" />
    <glyph glyph-name="ydieresis" unicode="&#xff;" horiz-adv-x="562" 
d="M333 638q-16 0 -23.5 11t-1.5 27q6 17 21 27.5t32 10.5q16 0 24 -11t2 -27q-5 -15 -21 -26.5t-33 -11.5zM541 714q16 0 24 -11t2 -27q-6 -15 -21.5 -26.5t-32.5 -11.5t-24.5 11t-0.5 27q6 17 21 27.5t32 10.5zM501 537q24 0 38 -31.5t14 -73.5q0 -141 -85 -259
q-83 -116 -222 -172q-138 -55 -138 -153q0 -22 12.5 -38.5t29.5 -23.5q13 -7 37 -13q32 -10 32 -15q0 -10 -17.5 -24.5t-34.5 -14.5q-30 0 -70 25q-39 26 -39 70q0 45 29 91t78 82q-35 16 -59 61.5t-22 95.5q2 30 8 59q9 44 16 68q22 73 23 74q7 25 12 36l13 40l13 37
q9 25 -10 25q-43 -26 -71 -60q-4 -3 -10 4t-3 11q41 55 90 92q27 20 51 -9t12 -71q-80 -219 -80 -320q0 -82 73 -109l22 9q121 46 189 144q69 99 69 224q0 66 -51 93q-4 3 -4 7q0 9 18 24q20 15 37 15z" />
    <glyph glyph-name="Amacron" unicode="&#x100;" horiz-adv-x="761" 
d="M475 830l9 27h265l-10 -27h-264zM675 27q2 0 3 -6.5t0 -13.5t-2 -7h-83h-56h-97q-2 0 -2.5 7t0.5 13.5t3 6.5q65 0 77 13q14 14 9 75l-3 80h-178h-161l-78 -97q-36 -48 -29.5 -59.5t66.5 -11.5q1 0 2 -6.5t0.5 -13.5t-1.5 -7h-93h-43h-77q-1 0 -1 7t0.5 13.5t1.5 6.5
q49 0 71 12q26 13 62 58l435 543l-3 55q0 5 1 6l53 14q4 1 4 -2l35 -599q1 -60 15 -74q13 -13 69 -13zM210 227h147h165l-18 366z" />
    <glyph glyph-name="amacron" unicode="&#x101;" horiz-adv-x="635" 
d="M623 681l-10 -27h-264l9 27h265zM546 150q4 4 12.5 -4t6.5 -12q-25 -39 -67 -81q-42 -43 -70 -58q-22 -11 -45 15q-22 27 -12 61q25 74 52 148h-5q-76 -102 -161 -166t-150 -64q-27 0 -53 23q-25 22 -25 49q0 58 33 140q36 85 84 157q50 73 116 126q67 53 122 53
q24 0 73 -13q35 -12 41 -14l37 -13q3 9 7.5 17.5t6.5 12.5t2 5q1 2 14 3t25 0t11 -4q-4 -9 -17.5 -42t-23.5 -58l-38 -97q-39 -101 -92 -263q-8 -26 11 -26q20 10 52 42q33 33 53 63zM140 34q70 0 187 122q116 121 147 199l37 94q-103 54 -151 54q-47 0 -111 -73
q-64 -71 -111 -173q-46 -99 -46 -173q0 -18 18 -34q19 -16 30 -16z" />
    <glyph glyph-name="Abreve" unicode="&#x102;" horiz-adv-x="761" 
d="M748 914q1 2 5 2t7 -1t3 -2q-23 -54 -69.5 -85t-98.5 -31q-51 0 -75.5 31t-7.5 85q0 2 4 3t8 0.5t4 -2.5q-1 -46 18.5 -63.5t61.5 -17.5q43 0 75.5 17.5t64.5 63.5zM675 27q2 0 3 -6.5t0 -13.5t-2 -7h-83h-56h-97q-2 0 -2.5 7t0.5 13.5t3 6.5q65 0 77 13q14 14 9 75
l-3 80h-178h-161l-78 -97q-36 -48 -29.5 -59.5t66.5 -11.5q1 0 2 -6.5t0.5 -13.5t-1.5 -7h-93h-43h-77q-1 0 -1 7t0.5 13.5t1.5 6.5q49 0 71 12q26 13 62 58l435 543l-3 55q0 5 1 6l53 14q4 1 4 -2l35 -599q1 -60 15 -74q13 -13 69 -13zM210 227h147h165l-18 366z" />
    <glyph glyph-name="abreve" unicode="&#x103;" horiz-adv-x="635" 
d="M469 621q-51 0 -75.5 31t-7.5 85q0 2 4 3t8 0.5t4 -2.5q-1 -46 18.5 -63.5t61.5 -17.5q43 0 75.5 17.5t64.5 63.5q1 2 5 2t7 -1t3 -2q-23 -54 -69.5 -85t-98.5 -31zM546 150q4 4 12.5 -4t6.5 -12q-25 -39 -67 -81q-42 -43 -70 -58q-22 -11 -45 15q-22 27 -12 61
q25 74 52 148h-5q-76 -102 -161 -166t-150 -64q-27 0 -53 23q-25 22 -25 49q0 58 33 140q36 85 84 157q50 73 116 126q67 53 122 53q24 0 73 -13q35 -12 41 -14l37 -13q3 9 7.5 17.5t6.5 12.5t2 5q1 2 14 3t25 0t11 -4q-4 -9 -17.5 -42t-23.5 -58l-38 -97q-39 -101 -92 -263
q-8 -26 11 -26q20 10 52 42q33 33 53 63zM140 34q70 0 187 122q116 121 147 199l37 94q-103 54 -151 54q-47 0 -111 -73q-64 -71 -111 -173q-46 -99 -46 -173q0 -18 18 -34q19 -16 30 -16z" />
    <glyph glyph-name="Aogonek" unicode="&#x104;" horiz-adv-x="761" 
d="M675 27q2 0 3 -6.5t0 -13.5t-2 -7h-53q-94 -57 -108 -98q-13 -28 8 -42q28 -18 89 25q5 3 9 -4t0 -10q-58 -40 -99 -40q-61 0 -41 61q20 50 113 108h-1h-56h-97q-2 0 -2.5 7t0.5 13.5t3 6.5q65 0 77 13q14 14 9 75l-3 80h-178h-161l-78 -97q-36 -48 -29.5 -59.5
t66.5 -11.5q1 0 2 -6.5t0.5 -13.5t-1.5 -7h-93h-43h-77q-1 0 -1 7t0.5 13.5t1.5 6.5q49 0 71 12q26 13 62 58l435 543l-3 55q0 5 1 6l53 14q4 1 4 -2l35 -599q1 -60 15 -74q13 -13 69 -13zM210 227h147h165l-18 366z" />
    <glyph glyph-name="aogonek" unicode="&#x105;" horiz-adv-x="635" 
d="M601 531q-4 -9 -17.5 -42t-23.5 -58l-38 -97q-39 -101 -92 -263q-8 -26 11 -26q20 10 52 42q33 33 53 63q4 4 12.5 -4t6.5 -12q-25 -39 -67 -81q-42 -43 -70 -58l-6 -2q-90 -54 -105 -96q-13 -28 8 -42q29 -17 89 25q5 3 9 -4t0 -10q-58 -40 -99 -40q-61 0 -41 61
q17 47 116 110q-18 9 -26.5 30t-1.5 44q25 74 52 148h-5q-76 -102 -161 -166t-150 -64q-27 0 -53 23q-25 22 -25 49q0 58 33 140q36 85 84 157q50 73 116 126q67 53 122 53q24 0 73 -13q35 -12 41 -14l37 -13q3 9 7.5 17.5t6.5 12.5t2 5q1 2 14 3t25 0t11 -4zM140 34
q70 0 187 122q116 121 147 199l37 94q-103 54 -151 54q-47 0 -111 -73q-64 -71 -111 -173q-46 -99 -46 -173q0 -18 18 -34q19 -16 30 -16z" />
    <glyph glyph-name="Cacute" unicode="&#x106;" horiz-adv-x="740" 
d="M532 809q48 27 80 55q7 6 18 15.5t16 13.5l12.5 10t11.5 8.5t9.5 5.5t10 4t9.5 1q25 0 18 -27q-18 -46 -181 -104q-2 -1 -4.5 3t-2.5 8t3 7zM317 -9q-109 0 -180 60q-69 61 -69 165q0 124 69 238q70 114 186 185q118 71 246 71q44 0 84 -10t56 -10q28 0 59 46q1 4 18 2
q3 -1 3.5 -1t-0.5 -1l-73 -284q0 -1 -5 -1.5t-10 0.5t-5 3q23 134 -8 178q-32 45 -140 45q-71 0 -145.5 -37t-132.5 -99q-58 -61 -93 -143t-35 -164q0 -205 211 -205q76 0 159 47q83 46 153 119q4 3 9 0.5t9.5 -7t3.5 -6.5q-89 -90 -175 -142q-82 -49 -195 -49z" />
    <glyph glyph-name="cacute" unicode="&#x107;" horiz-adv-x="545" 
d="M338 636q48 27 80 55q7 6 18 15.5t16 13.5l12.5 10t11.5 8.5t9.5 5.5t10 4t9.5 1q25 0 18 -27q-18 -46 -181 -104q-2 -1 -4.5 3t-2.5 8t3 7zM181 -10q-69 0 -109 46t-40 131q0 90 55 176q56 89 136 141q82 53 156 53q50 0 88 -26q37 -25 37 -56q0 -15 -21 -30.5
t-44 -15.5q-9 0 -9 7q0 80 -97 80q-31 0 -71.5 -24t-76.5 -65q-38 -43 -62 -106.5t-24 -129.5q0 -136 130 -136q59 0 139 54q78 55 152 154q4 4 13.5 -3.5t7.5 -12.5q-81 -108 -173 -172q-92 -65 -187 -65z" />
    <glyph glyph-name="Ccircumflex" unicode="&#x108;" horiz-adv-x="740" 
d="M721 766l-87 90l-152 -90q-3 0 -4.5 5t1.5 8l153 123h38l63 -123q5 -3 -7 -11zM317 -9q-109 0 -180 60q-69 61 -69 165q0 124 69 238q70 114 186 185q118 71 246 71q44 0 84 -10t56 -10q28 0 59 46q1 4 18 2q3 -1 3.5 -1t-0.5 -1l-73 -284q0 -1 -5 -1.5t-10 0.5t-5 3
q23 134 -8 178q-32 45 -140 45q-71 0 -145.5 -37t-132.5 -99q-58 -61 -93 -143t-35 -164q0 -205 211 -205q76 0 159 47q83 46 153 119q4 3 9 0.5t9.5 -7t3.5 -6.5q-89 -90 -175 -142q-82 -49 -195 -49z" />
    <glyph glyph-name="ccircumflex" unicode="&#x109;" horiz-adv-x="545" 
d="M527 593l-87 90l-152 -90q-3 0 -4.5 5t1.5 8l153 123h38l63 -123q5 -3 -7 -11zM181 -10q-69 0 -109 46t-40 131q0 90 55 176q56 89 136 141q82 53 156 53q50 0 88 -26q37 -25 37 -56q0 -15 -21 -30.5t-44 -15.5q-9 0 -9 7q0 80 -97 80q-31 0 -71.5 -24t-76.5 -65
q-38 -43 -62 -106.5t-24 -129.5q0 -136 130 -136q59 0 139 54q78 55 152 154q4 4 13.5 -3.5t7.5 -12.5q-81 -108 -173 -172q-92 -65 -187 -65z" />
    <glyph glyph-name="Cdotaccent" unicode="&#x10a;" horiz-adv-x="740" 
d="M616 809q-16 0 -24 11.5t-1 28.5q6 16 21.5 27.5t33.5 11.5t25.5 -10.5t0.5 -28.5q-6 -17 -22 -28.5t-34 -11.5zM317 -9q-109 0 -180 60q-69 61 -69 165q0 124 69 238q70 114 186 185q118 71 246 71q44 0 84 -10t56 -10q28 0 59 46q1 4 18 2q3 -1 3.5 -1t-0.5 -1
l-73 -284q0 -1 -5 -1.5t-10 0.5t-5 3q23 134 -8 178q-32 45 -140 45q-71 0 -145.5 -37t-132.5 -99q-58 -61 -93 -143t-35 -164q0 -205 211 -205q76 0 159 47q83 46 153 119q4 3 9 0.5t9.5 -7t3.5 -6.5q-89 -90 -175 -142q-82 -49 -195 -49z" />
    <glyph glyph-name="cdotaccent" unicode="&#x10b;" horiz-adv-x="545" 
d="M422 636q-16 0 -24 11.5t-1 28.5q6 16 21.5 27.5t33.5 11.5t25.5 -10.5t0.5 -28.5q-6 -17 -22 -28.5t-34 -11.5zM181 -10q-69 0 -109 46t-40 131q0 90 55 176q56 89 136 141q82 53 156 53q50 0 88 -26q37 -25 37 -56q0 -15 -21 -30.5t-44 -15.5q-9 0 -9 7q0 80 -97 80
q-31 0 -71.5 -24t-76.5 -65q-38 -43 -62 -106.5t-24 -129.5q0 -136 130 -136q59 0 139 54q78 55 152 154q4 4 13.5 -3.5t7.5 -12.5q-81 -108 -173 -172q-92 -65 -187 -65z" />
    <glyph glyph-name="Ccaron" unicode="&#x10c;" horiz-adv-x="740" 
d="M628 838l152 89q6 0 6 -9q-1 -3 -3 -3l-153 -123h-38l-64 123q-1 1 5 6.5t8 5.5zM317 -9q-109 0 -180 60q-69 61 -69 165q0 124 69 238q70 114 186 185q118 71 246 71q44 0 84 -10t56 -10q28 0 59 46q1 4 18 2q3 -1 3.5 -1t-0.5 -1l-73 -284q0 -1 -5 -1.5t-10 0.5t-5 3
q23 134 -8 178q-32 45 -140 45q-71 0 -145.5 -37t-132.5 -99q-58 -61 -93 -143t-35 -164q0 -205 211 -205q76 0 159 47q83 46 153 119q4 3 9 0.5t9.5 -7t3.5 -6.5q-89 -90 -175 -142q-82 -49 -195 -49z" />
    <glyph glyph-name="ccaron" unicode="&#x10d;" horiz-adv-x="545" 
d="M434 665l152 89q6 0 6 -9q-1 -3 -3 -3l-153 -123h-38l-64 123q-1 1 5 6.5t8 5.5zM181 -10q-69 0 -109 46t-40 131q0 90 55 176q56 89 136 141q82 53 156 53q50 0 88 -26q37 -25 37 -56q0 -15 -21 -30.5t-44 -15.5q-9 0 -9 7q0 80 -97 80q-31 0 -71.5 -24t-76.5 -65
q-38 -43 -62 -106.5t-24 -129.5q0 -136 130 -136q59 0 139 54q78 55 152 154q4 4 13.5 -3.5t7.5 -12.5q-81 -108 -173 -172q-92 -65 -187 -65z" />
    <glyph glyph-name="Dcaron" unicode="&#x10e;" horiz-adv-x="821" 
d="M473 839l152 89q6 0 6 -9q-1 -3 -3 -3l-153 -123h-38l-64 123q-1 1 5 6.5t8 5.5zM260 0h-186h-90q-1 0 -1.5 6.5t0.5 13t2 6.5q21 0 69 3q7 2 11.5 5l7.5 5t6 8l4.5 9t5.5 13t6 16l193 530q15 42 0 50q-15 9 -84 9q-1 0 -2 6.5t-0.5 13t1.5 6.5h90h217q304 0 304 -223
q0 -90 -38 -175.5t-107 -152.5q-71 -68 -178.5 -108.5t-230.5 -40.5zM147 32h119q105 0 197 38t153 103q60 63 93.5 141.5t33.5 158.5q0 195 -251 195h-114q-28 -55 -65 -155l-118 -325q-39 -106 -48 -156z" />
    <glyph glyph-name="dcaron" unicode="&#x10f;" horiz-adv-x="650" 
d="M733 611q-1 -7 -18 -4q-6 1 -6 4q13 41 24 81q12 47 13 49q11 29 33 29q24 0 13 -29q-1 -4 -25 -53q-22 -45 -34 -77zM548 722l121 27q6 1 7.5 -3t-1.5 -11q-20 -41 -124 -325q-105 -289 -119 -339q-6 -26 11 -26q20 10 52 42q33 33 53 63q4 4 12.5 -4t5.5 -12
q-23 -37 -66 -80q-43 -45 -70 -59q-24 -11 -46 16q-23 27 -11 60l52 148h-4q-78 -102 -164 -165q-88 -65 -153 -65q-21 0 -49 23q-26 24 -26 48q0 79 55 190q57 115 139 200q84 87 156 87q39 0 147 -38l55 141q18 52 25 64q-4 0 -62 -3q-6 1 -3 11t7 10zM142 33
q67 0 185 124q121 125 146 198l33 93q-94 55 -147 55q-44 0 -109 -74q-64 -73 -111 -174q-46 -99 -46 -170q0 -19 19 -35q20 -17 30 -17z" />
    <glyph glyph-name="Dcroat" unicode="&#x110;" horiz-adv-x="821" 
d="M293 700h217q304 0 304 -223q0 -90 -38 -175.5t-107 -152.5q-71 -68 -178.5 -108.5t-230.5 -40.5h-186h-90q-1 0 -1.5 6.5t0.5 13t2 6.5q21 0 69 3q7 2 11.5 5l7.5 5t6 8l4.5 9t5.5 13t6 16l91 249h-100l12 32h99l91 249q15 42 0 50q-15 9 -84 9q-1 0 -2 6.5t-0.5 13
t1.5 6.5h90zM147 32h119q105 0 197 38t153 103q60 63 93.5 141.5t33.5 158.5q0 195 -251 195h-114q-28 -55 -65 -155l-53 -147h80l-12 -32h-80l-53 -146q-39 -106 -48 -156z" />
    <glyph glyph-name="dslash" unicode="&#x111;" horiz-adv-x="650" 
d="M697 620h-68q-163 -436 -197 -549q-6 -26 11 -26q20 10 52 42q33 33 53 63q4 4 12.5 -4t5.5 -12q-23 -37 -66 -80q-43 -45 -70 -59q-24 -11 -46 16q-23 27 -11 60l52 148h-4q-78 -102 -164 -165q-88 -65 -153 -65q-21 0 -49 23q-26 24 -26 48q0 79 55 190q57 115 139 200
q84 87 156 87q39 0 147 -38l47 121h-118l12 32h118q16 44 21 52q-4 0 -62 -3q-6 1 -3 11t7 10l121 27q6 1 7.5 -3t-1.5 -11q-4 -8 -34 -83h68zM142 33q67 0 185 124q121 125 146 198l33 93q-94 55 -147 55q-44 0 -109 -74q-64 -73 -111 -174q-46 -99 -46 -170q0 -19 19 -35
q20 -17 30 -17z" />
    <glyph glyph-name="Emacron" unicode="&#x112;" horiz-adv-x="737" 
d="M433 855h265l-10 -27h-264zM782 736q8 3 18 0l-69 -273q0 -3 -10 -3.5t-11 0.5q17 107 13 155q-6 35 -24.5 43t-68.5 10h-260l-103 -281h174q36 0 54.5 18.5t36.5 71.5q0 2 14.5 2t14.5 -2l-71 -212q0 -2 -14.5 -2t-14.5 2q19 57 13 74q-4 16 -44 16h-174l-118 -323h276
q34 0 45 1q39 5 68 32q11 10 34 41q21 28 39 60l51 89q5 8 19 2q4 -1 3 -3l-137 -290q-2 -2 -11 -2.5t-9 2.5q-5 14 -8 19q-14 17 -81 17h-353h-90q-1 0 -1.5 6.5t0.5 13t2 6.5q21 0 69 3q7 2 11.5 5l7.5 5t6 8l4.5 9t5.5 13t6 16l193 530q15 42 0 50q-15 9 -84 9
q-1 0 -2 6.5t-0.5 13t1.5 6.5h90h361q41 0 68 6q37 8 60 30z" />
    <glyph glyph-name="emacron" unicode="&#x113;" horiz-adv-x="543" 
d="M297 654l9 27h265l-10 -27h-264zM521 244q5 3 14 -3.5t5 -12.5q-73 -104 -168 -172q-94 -66 -185 -66q-84 0 -119 51.5t-35 128.5q0 86 52 171t134 141q82 55 162 55q57 0 91.5 -26.5t34.5 -62.5q5 -59 -97 -110q-28 -15 -80 -34q-34 -13 -100 -35q-18 -6 -64 -21
t-62 -20q-5 -33 -5 -55q0 -65 32.5 -102t88.5 -37q67 0 150 56q85 59 151 154zM353 496q-73 0 -145 -69q-73 -70 -98 -169q163 58 216 80q67 27 91.5 47.5t24.5 47.5q0 63 -89 63z" />
    <glyph glyph-name="Ebreve" unicode="&#x114;" horiz-adv-x="737" 
d="M544 795q-51 0 -75.5 31t-7.5 85q0 2 4 3t8 0.5t4 -2.5q-1 -46 18.5 -63.5t61.5 -17.5q43 0 75.5 17.5t64.5 63.5q1 2 5 2t7 -1t3 -2q-23 -54 -69.5 -85t-98.5 -31zM782 736q8 3 18 0l-69 -273q0 -3 -10 -3.5t-11 0.5q17 107 13 155q-6 35 -24.5 43t-68.5 10h-260
l-103 -281h174q36 0 54.5 18.5t36.5 71.5q0 2 14.5 2t14.5 -2l-71 -212q0 -2 -14.5 -2t-14.5 2q19 57 13 74q-4 16 -44 16h-174l-118 -323h276q34 0 45 1q39 5 68 32q11 10 34 41q21 28 39 60l51 89q5 8 19 2q4 -1 3 -3l-137 -290q-2 -2 -11 -2.5t-9 2.5q-5 14 -8 19
q-14 17 -81 17h-353h-90q-1 0 -1.5 6.5t0.5 13t2 6.5q21 0 69 3q7 2 11.5 5l7.5 5t6 8l4.5 9t5.5 13t6 16l193 530q15 42 0 50q-15 9 -84 9q-1 0 -2 6.5t-0.5 13t1.5 6.5h90h361q41 0 68 6q37 8 60 30z" />
    <glyph glyph-name="ebreve" unicode="&#x115;" horiz-adv-x="543" 
d="M571 738q1 2 5 2t7 -1t3 -2q-23 -54 -69.5 -85t-98.5 -31q-51 0 -75.5 31t-7.5 85q0 2 4 3t8 0.5t4 -2.5q-1 -46 18.5 -63.5t61.5 -17.5q43 0 75.5 17.5t64.5 63.5zM521 244q5 3 14 -3.5t5 -12.5q-73 -104 -168 -172q-94 -66 -185 -66q-84 0 -119 51.5t-35 128.5
q0 86 52 171t134 141q82 55 162 55q57 0 91.5 -26.5t34.5 -62.5q5 -59 -97 -110q-28 -15 -80 -34q-34 -13 -100 -35q-18 -6 -64 -21t-62 -20q-5 -33 -5 -55q0 -65 32.5 -102t88.5 -37q67 0 150 56q85 59 151 154zM353 496q-73 0 -145 -69q-73 -70 -98 -169q163 58 216 80
q67 27 91.5 47.5t24.5 47.5q0 63 -89 63z" />
    <glyph glyph-name="Edotaccent" unicode="&#x116;" horiz-adv-x="737" 
d="M549 810q-16 0 -24 11.5t-1 28.5q6 16 21.5 27.5t33.5 11.5t25.5 -10.5t0.5 -28.5q-6 -17 -22 -28.5t-34 -11.5zM782 736q8 3 18 0l-69 -273q0 -3 -10 -3.5t-11 0.5q17 107 13 155q-6 35 -24.5 43t-68.5 10h-260l-103 -281h174q36 0 54.5 18.5t36.5 71.5q0 2 14.5 2
t14.5 -2l-71 -212q0 -2 -14.5 -2t-14.5 2q19 57 13 74q-4 16 -44 16h-174l-118 -323h276q34 0 45 1q39 5 68 32q11 10 34 41q21 28 39 60l51 89q5 8 19 2q4 -1 3 -3l-137 -290q-2 -2 -11 -2.5t-9 2.5q-5 14 -8 19q-14 17 -81 17h-353h-90q-1 0 -1.5 6.5t0.5 13t2 6.5
q21 0 69 3q7 2 11.5 5l7.5 5t6 8l4.5 9t5.5 13t6 16l193 530q15 42 0 50q-15 9 -84 9q-1 0 -2 6.5t-0.5 13t1.5 6.5h90h361q41 0 68 6q37 8 60 30z" />
    <glyph glyph-name="edotaccent" unicode="&#x117;" horiz-adv-x="543" 
d="M422 636q-16 0 -24 11.5t-1 28.5q6 16 21.5 27.5t33.5 11.5t25.5 -10.5t0.5 -28.5q-6 -17 -22 -28.5t-34 -11.5zM521 244q5 3 14 -3.5t5 -12.5q-73 -104 -168 -172q-94 -66 -185 -66q-84 0 -119 51.5t-35 128.5q0 86 52 171t134 141q82 55 162 55q57 0 91.5 -26.5
t34.5 -62.5q5 -59 -97 -110q-28 -15 -80 -34q-34 -13 -100 -35q-18 -6 -64 -21t-62 -20q-5 -33 -5 -55q0 -65 32.5 -102t88.5 -37q67 0 150 56q85 59 151 154zM353 496q-73 0 -145 -69q-73 -70 -98 -169q163 58 216 80q67 27 91.5 47.5t24.5 47.5q0 63 -89 63z" />
    <glyph glyph-name="Eogonek" unicode="&#x118;" horiz-adv-x="737" 
d="M782 736q8 3 18 0l-69 -273q0 -3 -10 -3.5t-11 0.5q17 107 13 155q-6 35 -24.5 43t-68.5 10h-260l-103 -281h174q36 0 54.5 18.5t36.5 71.5q0 2 14.5 2t14.5 -2l-71 -212q0 -2 -14.5 -2t-14.5 2q19 57 13 74q-4 16 -44 16h-174l-118 -323h276q34 0 45 1q39 5 68 32
q11 10 34 41q21 28 39 60l51 89q5 8 19 2q4 -1 3 -3l-137 -290q-2 -2 -11 -2.5t-9 2.5l-2 5q-96 -59 -109 -99q-13 -28 8 -42q29 -17 89 25q5 3 9 -4t0 -10q-58 -40 -99 -40q-61 0 -41 61q17 47 116 110l27 -1q-4 10 -9 15.5t-24.5 10.5t-53.5 5h-353h-90q-1 0 -1.5 6.5
t0.5 13t2 6.5q21 0 69 3q7 2 11.5 5l7.5 5t6 8l4.5 9t5.5 13t6 16l193 530q15 42 0 50q-15 9 -84 9q-1 0 -2 6.5t-0.5 13t1.5 6.5h90h361q41 0 68 6q37 8 60 30z" />
    <glyph glyph-name="eogonek" unicode="&#x119;" horiz-adv-x="543" 
d="M521 244q5 3 14 -3.5t5 -12.5q-95 -133 -204 -194h1q-95 -57 -110 -99q-13 -28 8 -42q29 -17 89 25q5 3 9 -4t0 -10q-58 -40 -99 -40q-61 0 -41 61q12 34 66 76q-39 -11 -72 -11q-84 0 -119 51.5t-35 128.5q0 86 52 171t134 141q82 55 162 55q57 0 91.5 -26.5t34.5 -62.5
q5 -59 -97 -110q-28 -15 -80 -34q-34 -13 -100 -35q-18 -6 -64 -21t-62 -20q-5 -33 -5 -55q0 -65 32.5 -102t88.5 -37q67 0 150 56q85 59 151 154zM353 496q-73 0 -145 -69q-73 -70 -98 -169q163 58 216 80q67 27 91.5 47.5t24.5 47.5q0 63 -89 63z" />
    <glyph glyph-name="Ecaron" unicode="&#x11a;" horiz-adv-x="737" 
d="M563 793h-38l-64 123q-1 1 5 6.5t8 5.5l87 -89l152 89q6 0 6 -9q-1 -3 -3 -3zM782 736q8 3 18 0l-69 -273q0 -3 -10 -3.5t-11 0.5q17 107 13 155q-6 35 -24.5 43t-68.5 10h-260l-103 -281h174q36 0 54.5 18.5t36.5 71.5q0 2 14.5 2t14.5 -2l-71 -212q0 -2 -14.5 -2
t-14.5 2q19 57 13 74q-4 16 -44 16h-174l-118 -323h276q34 0 45 1q39 5 68 32q11 10 34 41q21 28 39 60l51 89q5 8 19 2q4 -1 3 -3l-137 -290q-2 -2 -11 -2.5t-9 2.5q-5 14 -8 19q-14 17 -81 17h-353h-90q-1 0 -1.5 6.5t0.5 13t2 6.5q21 0 69 3q7 2 11.5 5l7.5 5t6 8l4.5 9
t5.5 13t6 16l193 530q15 42 0 50q-15 9 -84 9q-1 0 -2 6.5t-0.5 13t1.5 6.5h90h361q41 0 68 6q37 8 60 30z" />
    <glyph glyph-name="ecaron" unicode="&#x11b;" horiz-adv-x="543" 
d="M434 665l152 89q6 0 6 -9q-1 -3 -3 -3l-153 -123h-38l-64 123q-1 1 5 6.5t8 5.5zM521 244q5 3 14 -3.5t5 -12.5q-73 -104 -168 -172q-94 -66 -185 -66q-84 0 -119 51.5t-35 128.5q0 86 52 171t134 141q82 55 162 55q57 0 91.5 -26.5t34.5 -62.5q5 -59 -97 -110
q-28 -15 -80 -34q-34 -13 -100 -35q-18 -6 -64 -21t-62 -20q-5 -33 -5 -55q0 -65 32.5 -102t88.5 -37q67 0 150 56q85 59 151 154zM353 496q-73 0 -145 -69q-73 -70 -98 -169q163 58 216 80q67 27 91.5 47.5t24.5 47.5q0 63 -89 63z" />
    <glyph glyph-name="Gcircumflex" unicode="&#x11c;" horiz-adv-x="813" 
d="M714 767l-87 90l-152 -90q-3 0 -4.5 5t1.5 8l153 123h38l63 -123q5 -3 -7 -11zM310 -9q-111 0 -179 60q-68 62 -68 164q0 80 42 167q41 86 110 160t166 120q97 48 200 48q46 0 90 -10t62 -10q44 0 71 46q0 6 18 1q3 0 2 -1l-70 -284q-1 -3 -7 -4.5t-12 -1t-6 2.5
q5 71 3 121q0 107 -172 107q-68 0 -135.5 -30t-120.5 -81q-77 -75 -124 -175.5t-47 -190.5q0 -84 51.5 -131t153.5 -47t234 64l59 159q15 43 -3 51q-18 9 -102 9q-2 0 -3 6.5t-0.5 13t2.5 6.5h109h78h84q1 0 1.5 -6.5t-0.5 -13t-2 -6.5q-61 0 -75 -8q-12 -7 -29 -51
l-94 -261q-1 -2 -9.5 -2t-8.5 2t1.5 14.5t0.5 20.5t-6 12q-8 8 -52 -7q-100 -34 -213 -34z" />
    <glyph glyph-name="gcircumflex" unicode="&#x11d;" horiz-adv-x="596" 
d="M483 683l-152 -90q-3 0 -4.5 5t1.5 8l153 123h38l63 -123q5 -3 -7 -11l-5 -2zM564 532q7 4 37 3q11 -3 12 -5q-9 -24 -37 -90l-39 -95q-3 -8 -13.5 -35.5t-17.5 -47.5q-16 -42 -32 -93q-31 -113 -40 -171q-19 -129 -93 -193q-30 -27 -75 -44q-71 -26 -167 -26
q-77 0 -124 24.5t-47 63.5q0 37 41 72.5t143 93.5h-1q-22 0 -46 24q-23 25 -23 49q0 86 57 198q59 112 144 195q85 82 159 82q31 0 145 -40q2 4 8.5 18.5t8.5 16.5zM487 354l37 95q-82 54 -155 54q-45 0 -109 -73q-62 -72 -109 -174q-46 -99 -46 -172q0 -18 18 -34
q20 -15 31 -15q46 0 122 62q75 63 134 137q61 76 77 120zM362 -56q32 167 75 275h-5q-122 -164 -249 -215q-9 -6 -29.5 -19.5t-24.5 -15.5l-78 -52q-24 -17 -42 -35q-13 -14 -13 -33q0 -72 169 -72q90 0 136 37t61 130z" />
    <glyph glyph-name="Gbreve" unicode="&#x11e;" horiz-adv-x="813" 
d="M605 795q-51 0 -75.5 31t-7.5 85q0 2 4 3t8 0.5t4 -2.5q-1 -46 18.5 -63.5t61.5 -17.5q43 0 75.5 17.5t64.5 63.5q1 2 5 2t7 -1t3 -2q-23 -54 -69.5 -85t-98.5 -31zM310 -9q-111 0 -179 60q-68 62 -68 164q0 80 42 167q41 86 110 160t166 120q97 48 200 48q46 0 90 -10
t62 -10q44 0 71 46q0 6 18 1q3 0 2 -1l-70 -284q-1 -3 -7 -4.5t-12 -1t-6 2.5q5 71 3 121q0 107 -172 107q-68 0 -135.5 -30t-120.5 -81q-77 -75 -124 -175.5t-47 -190.5q0 -84 51.5 -131t153.5 -47t234 64l59 159q15 43 -3 51q-18 9 -102 9q-2 0 -3 6.5t-0.5 13t2.5 6.5
h109h78h84q1 0 1.5 -6.5t-0.5 -13t-2 -6.5q-61 0 -75 -8q-12 -7 -29 -51l-94 -261q-1 -2 -9.5 -2t-8.5 2t1.5 14.5t0.5 20.5t-6 12q-8 8 -52 -7q-100 -34 -213 -34z" />
    <glyph glyph-name="gbreve" unicode="&#x11f;" horiz-adv-x="596" 
d="M613 738q1 2 5 2t7 -1t3 -2q-23 -54 -69.5 -85t-98.5 -31q-51 0 -75.5 31t-7.5 85q0 2 4 3t8 0.5t4 -2.5q-1 -46 18.5 -63.5t61.5 -17.5q43 0 75.5 17.5t64.5 63.5zM564 532q7 4 37 3q11 -3 12 -5q-9 -24 -37 -90l-39 -95q-3 -8 -13.5 -35.5t-17.5 -47.5q-16 -42 -32 -93
q-31 -113 -40 -171q-19 -129 -93 -193q-30 -27 -75 -44q-71 -26 -167 -26q-77 0 -124 24.5t-47 63.5q0 37 41 72.5t143 93.5h-1q-22 0 -46 24q-23 25 -23 49q0 86 57 198q59 112 144 195q85 82 159 82q31 0 145 -40q2 4 8.5 18.5t8.5 16.5zM487 354l37 95q-82 54 -155 54
q-45 0 -109 -73q-62 -72 -109 -174q-46 -99 -46 -172q0 -18 18 -34q20 -15 31 -15q46 0 122 62q75 63 134 137q61 76 77 120zM362 -56q32 167 75 275h-5q-122 -164 -249 -215q-9 -6 -29.5 -19.5t-24.5 -15.5l-78 -52q-24 -17 -42 -35q-13 -14 -13 -33q0 -72 169 -72
q90 0 136 37t61 130z" />
    <glyph glyph-name="Gdotaccent" unicode="&#x120;" horiz-adv-x="813" 
d="M610 810q-16 0 -24 11.5t-1 28.5q6 16 21.5 27.5t33.5 11.5t25.5 -10.5t0.5 -28.5q-6 -17 -22 -28.5t-34 -11.5zM310 -9q-111 0 -179 60q-68 62 -68 164q0 80 42 167q41 86 110 160t166 120q97 48 200 48q46 0 90 -10t62 -10q44 0 71 46q0 6 18 1q3 0 2 -1l-70 -284
q-1 -3 -7 -4.5t-12 -1t-6 2.5q5 71 3 121q0 107 -172 107q-68 0 -135.5 -30t-120.5 -81q-77 -75 -124 -175.5t-47 -190.5q0 -84 51.5 -131t153.5 -47t234 64l59 159q15 43 -3 51q-18 9 -102 9q-2 0 -3 6.5t-0.5 13t2.5 6.5h109h78h84q1 0 1.5 -6.5t-0.5 -13t-2 -6.5
q-61 0 -75 -8q-12 -7 -29 -51l-94 -261q-1 -2 -9.5 -2t-8.5 2t1.5 14.5t0.5 20.5t-6 12q-8 8 -52 -7q-100 -34 -213 -34z" />
    <glyph glyph-name="gdotaccent" unicode="&#x121;" horiz-adv-x="596" 
d="M465 636q-16 0 -24 11.5t-1 28.5q6 16 21.5 27.5t33.5 11.5t25.5 -10.5t0.5 -28.5q-6 -17 -22 -28.5t-34 -11.5zM564 532q7 4 37 3q11 -3 12 -5q-9 -24 -37 -90l-39 -95q-3 -8 -13.5 -35.5t-17.5 -47.5q-16 -42 -32 -93q-31 -113 -40 -171q-19 -129 -93 -193
q-30 -27 -75 -44q-71 -26 -167 -26q-77 0 -124 24.5t-47 63.5q0 37 41 72.5t143 93.5h-1q-22 0 -46 24q-23 25 -23 49q0 86 57 198q59 112 144 195q85 82 159 82q31 0 145 -40q2 4 8.5 18.5t8.5 16.5zM487 354l37 95q-82 54 -155 54q-45 0 -109 -73q-62 -72 -109 -174
q-46 -99 -46 -172q0 -18 18 -34q20 -15 31 -15q46 0 122 62q75 63 134 137q61 76 77 120zM362 -56q32 167 75 275h-5q-122 -164 -249 -215q-9 -6 -29.5 -19.5t-24.5 -15.5l-78 -52q-24 -17 -42 -35q-13 -14 -13 -33q0 -72 169 -72q90 0 136 37t61 130z" />
    <glyph glyph-name="uni0122" unicode="&#x122;" horiz-adv-x="813" 
d="M310 -9q-111 0 -179 60q-68 62 -68 164q0 80 42 167q41 86 110 160t166 120q97 48 200 48q46 0 90 -10t62 -10q44 0 71 46q0 6 18 1q3 0 2 -1l-70 -284q-1 -3 -7 -4.5t-12 -1t-6 2.5q5 71 3 121q0 107 -172 107q-68 0 -135.5 -30t-120.5 -81q-77 -75 -124 -175.5
t-47 -190.5q0 -84 51.5 -131t153.5 -47t234 64l59 159q15 43 -3 51q-18 9 -102 9q-2 0 -3 6.5t-0.5 13t2.5 6.5h109h78h84q1 0 1.5 -6.5t-0.5 -13t-2 -6.5q-61 0 -75 -8q-12 -7 -29 -51l-94 -261q-1 -2 -9.5 -2t-8.5 2t1.5 14.5t0.5 20.5t-6 12q-8 8 -52 -7
q-100 -34 -213 -34zM184 -285l-7 16q39 22 77 58q36 35 48 60q-17 -5 -26 -5q-21 0 -29 12.5t-1 32.5q8 21 25.5 34t39.5 13q21 0 29.5 -14.5t-0.5 -36.5q-19 -53 -65 -99q-47 -47 -91 -71z" />
    <glyph glyph-name="uni0123" unicode="&#x123;" horiz-adv-x="596" 
d="M437 663q17 46 54 83q40 38 77 59l4 -13q-33 -20 -63 -48.5t-41 -50.5q12 4 22 4q18 0 25 -10t0 -27q-6 -17 -21 -28t-33 -11t-24 12t0 30zM564 532q7 4 37 3q11 -3 12 -5q-9 -24 -37 -90l-39 -95q-3 -8 -13.5 -35.5t-17.5 -47.5q-16 -42 -32 -93q-31 -113 -40 -171
q-19 -129 -93 -193q-30 -27 -75 -44q-71 -26 -167 -26q-77 0 -124 24.5t-47 63.5q0 37 41 72.5t143 93.5h-1q-22 0 -46 24q-23 25 -23 49q0 86 57 198q59 112 144 195q85 82 159 82q31 0 145 -40q2 4 8.5 18.5t8.5 16.5zM487 354l37 95q-82 54 -155 54q-45 0 -109 -73
q-62 -72 -109 -174q-46 -99 -46 -172q0 -18 18 -34q20 -15 31 -15q46 0 122 62q75 63 134 137q61 76 77 120zM362 -56q32 167 75 275h-5q-122 -164 -249 -215q-9 -6 -29.5 -19.5t-24.5 -15.5l-78 -52q-24 -17 -42 -35q-13 -14 -13 -33q0 -72 169 -72q90 0 136 37t61 130z
" />
    <glyph glyph-name="Hcircumflex" unicode="&#x124;" horiz-adv-x="860" 
d="M661 857l-152 -90q-3 0 -4.5 5t1.5 8l153 123h38l63 -123q5 -3 -7 -11l-5 -2zM852 700h89q2 0 2.5 -6.5t-0.5 -13t-3 -6.5q-47 0 -70 -4q-6 -2 -10.5 -4.5t-7.5 -4.5t-6 -7.5t-4.5 -9.5t-5 -13.5t-6.5 -15.5l-193 -530q-15 -42 0 -51q16 -8 84 -8q2 0 3 -6.5t0.5 -13
t-2.5 -6.5h-89h-79h-90q-1 0 -1.5 6.5t0.5 13t2 6.5q21 0 69 3q7 2 11.5 5l7.5 5t6 8l4.5 9t5.5 13t6 16l95 260h-190h-228l-95 -260q-15 -42 0 -51q16 -8 84 -8q2 0 3 -6.5t0 -13t-2 -6.5h-89h-79h-90q-1 0 -1.5 6.5t0.5 13t2 6.5q21 0 69 3q7 2 11.5 5l7.5 5t6 8l4.5 9
t5.5 13t6 16l193 530q15 42 0 50q-15 9 -84 9q-1 0 -2 6.5t-0.5 13t1.5 6.5h90h79h89q1 0 2 -6.5t0 -13t-3 -6.5q-47 0 -70 -4q-6 -2 -10.5 -4.5t-7.5 -4.5t-6 -7.5t-4.5 -9.5t-5 -13.5t-6.5 -15.5l-86 -237h227h191l86 237q15 42 0 50q-15 9 -84 9q-1 0 -2 6.5t-0.5 13
t1.5 6.5h90h79z" />
    <glyph glyph-name="hcircumflex" unicode="&#x125;" horiz-adv-x="660" 
d="M492 805l-87 90l-152 -90q-3 0 -4.5 5t1.5 8l153 123h38l63 -123q5 -3 -7 -11zM571 150q4 4 12.5 -4t6.5 -12q-25 -39 -67 -81q-42 -43 -70 -58q-23 -11 -45 15q-22 27 -12 61q49 153 120 326q10 27 8 45.5t-10 28.5t-18 9q-63 -14 -186 -123q-124 -109 -152 -186
q-26 -71 -46 -143q-4 -10 -15 -18q-14 -10 -58 -19q-5 -1 -6.5 0t-0.5 5q21 53 122 326q63 171 118 314q25 64 28 68q-4 0 -62 -3q-4 1 -1 11t6 10q12 3 56 12.5t64 14.5q5 1 6 -3t-1 -12q-4 -6 -159 -427h4q83 89 164 149t142 78q23 7 42.5 -11t24.5 -51t-8 -73
q-71 -163 -122 -328q-8 -26 10 -26q21 10 53 42q30 30 52 63z" />
    <glyph glyph-name="Hbar" unicode="&#x126;" horiz-adv-x="860" 
d="M852 700h89q2 0 2.5 -6.5t-0.5 -13t-3 -6.5q-47 0 -70 -4q-6 -2 -10.5 -4.5t-7.5 -4.5t-6 -7.5t-4.5 -9.5t-5 -13.5t-6.5 -15.5l-193 -530q-15 -42 0 -51q16 -8 84 -8q2 0 3 -6.5t0.5 -13t-2.5 -6.5h-89h-79h-90q-1 0 -1.5 6.5t0.5 13t2 6.5q21 0 69 3q7 2 11.5 5l7.5 5
t6 8l4.5 9t5.5 13t6 16l95 260h-190h-228l-95 -260q-15 -42 0 -51q16 -8 84 -8q2 0 3 -6.5t0 -13t-2 -6.5h-89h-79h-90q-1 0 -1.5 6.5t0.5 13t2 6.5q21 0 69 3q7 2 11.5 5l7.5 5t6 8l4.5 9t5.5 13t6 16l193 530q15 42 0 50q-15 9 -84 9q-1 0 -2 6.5t-0.5 13t1.5 6.5h90h79
h89q1 0 2 -6.5t0 -13t-3 -6.5q-47 0 -70 -4q-6 -2 -10.5 -4.5t-7.5 -4.5t-6 -7.5t-4.5 -9.5t-5 -13.5t-6.5 -15.5l-24 -65h418l24 65q15 42 0 50q-15 9 -84 9q-1 0 -2 6.5t-0.5 13t1.5 6.5h90h79zM264 378h227h191l52 145h-418z" />
    <glyph glyph-name="hbar" unicode="&#x127;" horiz-adv-x="660" 
d="M571 150q4 4 12.5 -4t6.5 -12q-25 -39 -67 -81q-42 -43 -70 -58q-23 -11 -45 15q-22 27 -12 61q49 153 120 326q10 27 8 45.5t-10 28.5t-18 9q-63 -14 -186 -123q-124 -109 -152 -186q-26 -71 -46 -143q-4 -10 -15 -18q-14 -10 -58 -19q-5 -1 -6.5 0t-0.5 5
q22 55 114 304l108 290h-53l12 32h53l6 14q25 64 28 68q-4 0 -62 -3q-4 1 -1 11t6 10q12 3 56 12.5t64 14.5q5 1 6 -3t-1 -12q-3 -6 -43 -112h130l-12 -32h-130l-104 -283h4q83 89 164 149t142 78q23 7 42.5 -11t24.5 -51t-8 -73q-71 -163 -122 -328q-8 -26 10 -26
q21 10 53 42q30 30 52 63z" />
    <glyph glyph-name="Itilde" unicode="&#x128;" horiz-adv-x="380" 
d="M565 883q-19 -30 -57 -57q-38 -26 -69 -26q-16 0 -48 13l-31 13q-20 9 -45 9q-19 0 -30 -10t-30 -42q-3 -5 -19 -1q-4 1 -4 4q18 29 56 56q39 27 70 27q15 0 47 -13l31 -13q25 -9 46 -9q18 0 28.5 10t30.5 42q1 6 19 1q1 -1 5 -4zM293 700h79h89q1 0 2 -6.5t0 -13
t-3 -6.5q-47 0 -70 -4q-6 -2 -10.5 -4.5t-7.5 -4.5t-6 -7.5t-4.5 -9.5t-5 -13.5t-6.5 -15.5l-193 -530q-15 -42 0 -51q16 -8 84 -8q2 0 3 -6.5t0 -13t-2 -6.5h-89h-79h-90q-1 0 -1.5 6.5t0.5 13t2 6.5q21 0 69 3q7 2 11.5 5l7.5 5t6 8l4.5 9t5.5 13t6 16l193 530q15 42 0 50
q-15 9 -84 9q-1 0 -2 6.5t-0.5 13t1.5 6.5h90z" />
    <glyph glyph-name="itilde" unicode="&#x129;" horiz-adv-x="323" 
d="M439 709q-19 -30 -57 -57q-38 -26 -69 -26q-16 0 -48 13l-31 13q-20 9 -45 9q-19 0 -30 -10t-30 -42q-3 -5 -19 -1q-4 1 -4 4q18 29 56 56q39 27 70 27q15 0 47 -13l31 -13q25 -9 46 -9q18 0 28.5 10t30.5 42q1 6 19 1q2 -1 5 -4zM59 71q13 41 40 117l62 177l33 94
q8 24 -10 24q-36 -20 -71 -60q-2 -2 -6 0.5t-6.5 7t-0.5 7.5q41 57 90 92q17 9 34.5 2.5t27.5 -31t1 -50.5l-134 -379q-7 -27 10 -27q21 12 52 43q33 33 52 62q4 4 12.5 -4t6.5 -12q-23 -37 -66 -80q-43 -45 -70 -59q-23 -11 -46 15q-22 26 -11 61z" />
    <glyph glyph-name="Imacron" unicode="&#x12a;" horiz-adv-x="380" 
d="M538 855l-10 -27h-264l9 27h265zM293 700h79h89q1 0 2 -6.5t0 -13t-3 -6.5q-47 0 -70 -4q-6 -2 -10.5 -4.5t-7.5 -4.5t-6 -7.5t-4.5 -9.5t-5 -13.5t-6.5 -15.5l-193 -530q-15 -42 0 -51q16 -8 84 -8q2 0 3 -6.5t0 -13t-2 -6.5h-89h-79h-90q-1 0 -1.5 6.5t0.5 13t2 6.5
q21 0 69 3q7 2 11.5 5l7.5 5t6 8l4.5 9t5.5 13t6 16l193 530q15 42 0 50q-15 9 -84 9q-1 0 -2 6.5t-0.5 13t1.5 6.5h90z" />
    <glyph glyph-name="imacron" unicode="&#x12b;" horiz-adv-x="323" 
d="M411 681l-10 -27h-264l9 27h265zM59 71q13 41 40 117l62 177l33 94q8 24 -10 24q-36 -20 -71 -60q-2 -2 -6 0.5t-6.5 7t-0.5 7.5q41 57 90 92q17 9 34.5 2.5t27.5 -31t1 -50.5l-134 -379q-7 -27 10 -27q21 12 52 43q33 33 52 62q4 4 12.5 -4t6.5 -12q-23 -37 -66 -80
q-43 -45 -70 -59q-23 -11 -46 15q-22 26 -11 61z" />
    <glyph glyph-name="Ibreve" unicode="&#x12c;" horiz-adv-x="380" 
d="M384 795q-51 0 -75.5 31t-7.5 85q0 2 4 3t8 0.5t4 -2.5q-1 -46 18.5 -63.5t61.5 -17.5q43 0 75.5 17.5t64.5 63.5q1 2 5 2t7 -1t3 -2q-23 -54 -69.5 -85t-98.5 -31zM293 700h79h89q1 0 2 -6.5t0 -13t-3 -6.5q-47 0 -70 -4q-6 -2 -10.5 -4.5t-7.5 -4.5t-6 -7.5t-4.5 -9.5
t-5 -13.5t-6.5 -15.5l-193 -530q-15 -42 0 -51q16 -8 84 -8q2 0 3 -6.5t0 -13t-2 -6.5h-89h-79h-90q-1 0 -1.5 6.5t0.5 13t2 6.5q21 0 69 3q7 2 11.5 5l7.5 5t6 8l4.5 9t5.5 13t6 16l193 530q15 42 0 50q-15 9 -84 9q-1 0 -2 6.5t-0.5 13t1.5 6.5h90z" />
    <glyph glyph-name="ibreve" unicode="&#x12d;" horiz-adv-x="323" 
d="M257 621q-51 0 -75.5 31t-7.5 85q0 2 4 3t8 0.5t4 -2.5q-1 -46 18.5 -63.5t61.5 -17.5q43 0 75.5 17.5t64.5 63.5q1 2 5 2t7 -1t3 -2q-23 -54 -69.5 -85t-98.5 -31zM59 71q13 41 40 117l62 177l33 94q8 24 -10 24q-36 -20 -71 -60q-2 -2 -6 0.5t-6.5 7t-0.5 7.5
q41 57 90 92q17 9 34.5 2.5t27.5 -31t1 -50.5l-134 -379q-7 -27 10 -27q21 12 52 43q33 33 52 62q4 4 12.5 -4t6.5 -12q-23 -37 -66 -80q-43 -45 -70 -59q-23 -11 -46 15q-22 26 -11 61z" />
    <glyph glyph-name="Iogonek" unicode="&#x12e;" horiz-adv-x="380" 
d="M371 700h89q1 0 2 -6.5t0 -13t-3 -6.5q-47 0 -70 -4q-6 -2 -10.5 -4.5t-7.5 -4.5t-6 -7.5t-4.5 -9.5t-5 -13.5t-6.5 -15.5l-193 -530q-15 -42 0 -51q16 -8 84 -8q2 0 3 -6.5t0 -13t-2 -6.5h-89h-31q-95 -57 -110 -99q-13 -28 8 -42q28 -18 89 25q5 3 9 -4t0 -10
q-58 -40 -99 -40q-61 0 -41 61q18 47 114 109h-18h-90q-1 0 -1.5 6.5t0.5 13t2 6.5q21 0 69 3q7 2 11.5 5l7.5 5t6 8l4.5 9t5.5 13t6 16l193 530q15 42 0 50q-15 9 -84 9q-1 0 -2 6.5t-0.5 13t1.5 6.5h90h79z" />
    <glyph glyph-name="iogonek" unicode="&#x12f;" horiz-adv-x="323" 
d="M293 718q18 0 26.5 -12t1.5 -30q-6 -18 -23 -30.5t-37 -12.5q-18 0 -26 12.5t-1 30.5q6 18 23 30t36 12zM190 530q17 9 34.5 2.5t27.5 -31t1 -50.5l-134 -379q-7 -27 10 -27q21 12 52 43q33 33 52 62q4 4 12.5 -4t6.5 -12q-23 -37 -66 -80q-43 -45 -70 -59l-6 -2
q-90 -54 -105 -96q-13 -28 8 -42q28 -18 89 25q5 3 9 -4t0 -10q-58 -40 -99 -40q-61 0 -41 61q17 47 116 110q-18 10 -27 31t-1 43q13 41 40 117l62 177l33 94q8 24 -10 24q-36 -20 -71 -60q-2 -2 -6 0.5t-6.5 7t-0.5 7.5q41 57 90 92z" />
    <glyph glyph-name="Idot" unicode="&#x130;" horiz-adv-x="380" 
d="M389 810q-16 0 -24 11.5t-1 28.5q6 16 21.5 27.5t33.5 11.5t25.5 -10.5t0.5 -28.5q-6 -17 -22 -28.5t-34 -11.5zM293 700h79h89q1 0 2 -6.5t0 -13t-3 -6.5q-47 0 -70 -4q-6 -2 -10.5 -4.5t-7.5 -4.5t-6 -7.5t-4.5 -9.5t-5 -13.5t-6.5 -15.5l-193 -530q-15 -42 0 -51
q16 -8 84 -8q2 0 3 -6.5t0 -13t-2 -6.5h-89h-79h-90q-1 0 -1.5 6.5t0.5 13t2 6.5q21 0 69 3q7 2 11.5 5l7.5 5t6 8l4.5 9t5.5 13t6 16l193 530q15 42 0 50q-15 9 -84 9q-1 0 -2 6.5t-0.5 13t1.5 6.5h90z" />
    <glyph glyph-name="dotlessi" unicode="&#x131;" horiz-adv-x="323" 
d="M59 71q13 41 40 117l62 177l33 94q8 24 -10 24q-36 -20 -71 -60q-2 -2 -6 0.5t-6.5 7t-0.5 7.5q41 57 90 92q17 9 34.5 2.5t27.5 -31t1 -50.5l-134 -379q-7 -27 10 -27q21 12 52 43q33 33 52 62q4 4 12.5 -4t6.5 -12q-23 -37 -66 -80q-43 -45 -70 -59q-23 -11 -46 15
q-22 26 -11 61z" />
    <glyph glyph-name="IJ" unicode="&#x132;" horiz-adv-x="748" 
d="M293 700h79h89q1 0 2 -6.5t0 -13t-3 -6.5q-47 0 -70 -4q-6 -2 -10.5 -4.5t-7.5 -4.5t-6 -7.5t-4.5 -9.5t-5 -13.5t-6.5 -15.5l-193 -530q-15 -42 0 -51q16 -8 84 -8q2 0 3 -6.5t0 -13t-2 -6.5h-89h-79h-90q-1 0 -1.5 6.5t0.5 13t2 6.5q21 0 69 3q7 2 11.5 5l7.5 5t6 8
l4.5 9t5.5 13t6 16l193 530q15 42 0 50q-15 9 -84 9q-1 0 -2 6.5t-0.5 13t1.5 6.5h90zM293 -98q-2 -1 -4 3t-3 11q-2 14 3 16q82 32 133.5 80.5t81.5 131.5l170 465q17 44 -2 53q-16 10 -100 10q-2 0 -3.5 7t-1 14t2.5 7h108h82h106q2 0 2.5 -7t-0.5 -14t-3 -7q-77 0 -95 -8
q-17 -8 -34 -55l-160 -442q-44 -121 -126 -183q-68 -52 -157 -82z" />
    <glyph glyph-name="ij" unicode="&#x133;" horiz-adv-x="608" 
d="M261 633q-18 0 -26 12.5t-1 30.5q6 18 23 30t36 12q18 0 26.5 -12t1.5 -30q-6 -18 -23 -30.5t-37 -12.5zM612 633q-18 0 -26 12.5t-1 30.5q6 18 23 30t36 12q18 0 26.5 -12t1.5 -30q-6 -18 -23 -30.5t-37 -12.5zM59 71q13 41 40 117l62 177l33 94q8 24 -10 24
q-36 -20 -71 -60q-2 -2 -6 0.5t-6.5 7t-0.5 7.5q41 57 90 92q17 9 34.5 2.5t27.5 -31t1 -50.5l-134 -379q-7 -27 10 -27q21 12 52 43q33 33 52 62q4 4 12.5 -4t6.5 -12q-23 -37 -66 -80q-43 -45 -70 -59q-23 -11 -46 15q-22 26 -11 61zM523 530q17 10 34 2q19 -6 28.5 -31
t0.5 -50l-157 -426q-43 -118 -109 -176q-67 -59 -131 -59q-31 0 -79 18q-47 17 -47 40q0 15 14 34q15 18 26 18q4 0 31 -32q41 -38 102 -38q14 0 31 13q20 14 47.5 58.5t49.5 105.5l162 450q11 26 -9 26q-39 -24 -72 -60q-2 -2 -6 0.5t-6.5 7t-0.5 7.5q43 60 91 92z" />
    <glyph glyph-name="Jcircumflex" unicode="&#x134;" horiz-adv-x="369" 
d="M504 767l-87 90l-152 -90q-3 0 -4.5 5t1.5 8l153 123h38l63 -123q5 -3 -7 -11zM-87 -98q-2 -1 -3.5 2.5t-2.5 11.5q-2 15 2 16q82 32 133.5 80.5t81.5 131.5l170 465q17 44 -2 53q-16 10 -100 10q-2 0 -3.5 7t-1 14t2.5 7h108h82h106q2 0 2.5 -7t-0.5 -14t-3 -7
q-77 0 -95 -8q-17 -8 -34 -55l-160 -442q-44 -121 -126 -183q-68 -52 -157 -82z" />
    <glyph glyph-name="jcircumflex" unicode="&#x135;" horiz-adv-x="285" 
d="M395 593l-87 90l-152 -90q-3 0 -4.5 5t1.5 8l153 123h38l63 -123q5 -3 -7 -11zM200 530q17 10 34 2q19 -6 28.5 -31t0.5 -50l-157 -426q-43 -118 -109 -176q-67 -59 -131 -59q-32 0 -78 18q-48 17 -48 40q0 16 15 34q14 18 25 18q4 0 31 -32q41 -38 102 -38q14 0 31 13
q20 14 47.5 58.5t49.5 105.5l162 450q11 26 -9 26q-39 -24 -72 -60q-2 -2 -6 0.5t-6.5 7t-0.5 7.5q43 60 91 92z" />
    <glyph glyph-name="uni0136" unicode="&#x136;" horiz-adv-x="738" 
d="M734 700h89q1 0 1.5 -7t-0.5 -14.5t-2 -7.5q-59 0 -86 -10q-29 -9 -80 -48l-329 -247q48 20 86 20q74 0 105.5 -37.5t36.5 -126.5l4 -54q5 -88 21 -113q17 -26 76 -26q2 0 3 -7.5t0.5 -14.5t-2.5 -7h-95h-36q-26 32 -27 118l-4 74q-3 85 -27.5 122t-88.5 37
q-67 0 -143 -52l-2 -2l-77 -211q-15 -42 -1 -51q16 -8 83 -8q1 0 2 -6.5t0.5 -13.5t-1.5 -7h-88h-79h-89q-1 0 -2 6.5t0 13t3 6.5q21 0 69 3q7 2 11.5 5l7.5 5t6 8l4.5 9t5.5 13t6 16l192 530q15 42 0 50q-15 9 -84 9q-1 0 -2 6.5t-0.5 13t1.5 6.5h90h79h90q1 0 2 -7
t0 -13.5t-3 -6.5q-65 0 -81 -8q-13 -7 -30 -51l-98 -270l346 259q32 25 42.5 37t2.5 18q-10 10 -90 10q-2 0 -3 8t-1 16t2 8h129h55zM248 -56q21 0 29.5 -14.5t-0.5 -36.5q-19 -53 -65 -99q-47 -47 -91 -71l-7 16q39 22 77 58q36 35 48 60q-17 -5 -26 -5q-21 0 -29 12.5
t-1 32.5q8 21 25.5 34t39.5 13z" />
    <glyph glyph-name="uni0137" unicode="&#x137;" horiz-adv-x="569" 
d="M527 132q6 8 13.5 0t4.5 -14q-34 -49 -68 -84q-36 -39 -53 -39q-26 0 -57 51q-56 88 -127 300q-58 -76 -119 -172l-52 -155q-1 -5 -8 -10q-10 -6 -58 -18q-3 -1 -5 -1t-1 5q23 57 81 212q43 116 105 286l53 145q22 59 28 67q-4 0 -26.5 -1.5t-35.5 -2.5q-4 1 -1 11t6 10
q36 9 120 27q6 1 7 -2.5t-2 -11.5q-4 -8 -37 -96l-69 -188q-39 -109 -54 -146h3l58 75q10 12 52 61q31 36 55 53q58 43 111 43q49 0 76 -19.5t27 -48.5q0 -18 -20.5 -32.5t-43.5 -14.5q-9 0 -9 16q0 34 -15 49t-49 15q-49 0 -144 -114q80 -222 144 -320q17 -26 29 -26
q40 38 81 90zM181 -56q21 0 29.5 -14.5t-0.5 -36.5q-19 -53 -65 -99q-47 -47 -91 -71l-7 16q39 22 77 58q36 35 48 60q-17 -5 -26 -5q-21 0 -29 12.5t-1 32.5q8 21 25.5 34t39.5 13z" />
    <glyph glyph-name="kgreenlandic" unicode="&#x138;" horiz-adv-x="565" 
d="M524 132q4 5 9.5 2.5t7.5 -8t0 -8.5q-34 -49 -68 -84q-36 -39 -53 -39q-26 0 -57 51q-51 81 -127 300q-55 -72 -118 -172l-53 -155q-1 -5 -8 -10q-10 -6 -58 -18q-3 -1 -5 -1t-1 5q31 76 62 158q10 25 67 181l34 91q20 55 27 68l-4 -1q-4 0 -10 -0.5t-13.5 -1t-17 -1.5
t-17.5 -1q-5 2 -2 11.5t7 9.5q40 11 120 27q3 1 5 -0.5t2.5 -4.5t-2.5 -9q-2 -3 -17 -42l-31 -86l-34 -89h3l42 55q1 1 14.5 18t23.5 29q21 26 40 45q50 50 75 62q44 23 80 23q49 0 76.5 -19.5t27.5 -48.5q0 -18 -21 -32.5t-44 -14.5q-8 0 -8 16q0 34 -15.5 49t-49.5 15
q-50 0 -143 -114q74 -211 143 -320q18 -26 29 -26q36 34 82 90z" />
    <glyph glyph-name="Lacute" unicode="&#x139;" horiz-adv-x="683" 
d="M306 810q48 27 80 55q7 6 18 15.5t16 13.5l12.5 10t11.5 8.5t9.5 5.5t10 4t9.5 1q25 0 18 -27q-18 -46 -181 -104q-2 -1 -4.5 3t-2.5 8t3 7zM349 608l-209 -576h184q108 0 132 6q46 10 84 63q29 39 95 154q6 7 19 3q3 -2 3 -4l-138 -290q-2 -2 -10 -2.5t-10 2.5
q-3 24 -35 33q-15 4 -43 4q-6 0 -25 -0.5t-24 -0.5h-297h-89q-3 0 -2.5 13t2.5 13q64 0 80 8q14 7 31 51l192 529q15 42 0 50q-14 9 -85 9q-1 0 -2 6.5t-0.5 13.5t1.5 7h90h82h127q2 0 3 -7t-0.5 -14t-3.5 -7h-54q-45 0 -61 -8q-4 -1 -15 -11q-8 -8 -22 -45z" />
    <glyph glyph-name="lacute" unicode="&#x13a;" horiz-adv-x="330" 
d="M297 849q48 27 80 55q7 6 18 15.5t16 13.5l12.5 10t11.5 8.5t9.5 5.5t10 4t9.5 1q26 0 18 -27q-18 -46 -181 -104q-2 -1 -4.5 3t-2.5 8t3 7zM126 72q-8 -27 10 -27q21 12 52 43q33 33 52 62q4 4 13 -4t7 -12q-27 -39 -67 -81q-42 -43 -70 -58q-23 -11 -46 15
q-23 27 -11 61q123 353 205 565q26 64 29 68q-4 0 -62 -3q-4 1 -1 11t6 10q20 5 72 16l49 11q3 1 5 -0.5t2 -5t-3 -8.5q-8 -18 -123 -332q-117 -324 -119 -331z" />
    <glyph glyph-name="uni013B" unicode="&#x13b;" horiz-adv-x="683" 
d="M349 608l-209 -576h184q108 0 132 6q46 10 84 63q29 39 95 154q6 7 19 3q3 -2 3 -4l-138 -290q-2 -2 -10 -2.5t-10 2.5q-3 24 -35 33q-15 4 -43 4q-6 0 -25 -0.5t-24 -0.5h-297h-89q-3 0 -2.5 13t2.5 13q64 0 80 8q14 7 31 51l192 529q15 42 0 50q-14 9 -85 9
q-1 0 -2 6.5t-0.5 13.5t1.5 7h90h82h127q2 0 3 -7t-0.5 -14t-3.5 -7h-54q-45 0 -61 -8q-4 -1 -15 -11q-8 -8 -22 -45zM111 -277l-7 16q39 22 77 58q36 35 48 60q-17 -5 -26 -5q-21 0 -29 12.5t-1 32.5q8 21 25.5 34t39.5 13q21 0 29.5 -14.5t-0.5 -36.5q-19 -53 -65 -99
q-47 -47 -91 -71z" />
    <glyph glyph-name="uni013C" unicode="&#x13c;" horiz-adv-x="330" 
d="M126 72q-8 -27 10 -27q21 12 52 43q33 33 52 62q4 4 13 -4t7 -12q-27 -39 -67 -81q-42 -43 -70 -58q-23 -11 -46 15q-23 27 -11 61q123 353 205 565q26 64 29 68q-4 0 -62 -3q-4 1 -1 11t6 10q20 5 72 16l49 11q3 1 5 -0.5t2 -5t-3 -8.5q-8 -18 -123 -332
q-117 -324 -119 -331zM-59 -277l-7 16q39 22 77 58q36 35 48 60q-17 -5 -26 -5q-21 0 -29 12.5t-1 32.5q8 21 25.5 34t39.5 13q21 0 29.5 -14.5t-0.5 -36.5q-19 -53 -65 -99q-47 -47 -91 -71z" />
    <glyph glyph-name="Lcaron" unicode="&#x13d;" horiz-adv-x="683" 
d="M349 608l-209 -576h184q108 0 132 6q46 10 84 63q29 39 95 154q6 7 19 3q3 -2 3 -4l-138 -290q-2 -2 -10 -2.5t-10 2.5q-3 24 -35 33q-15 4 -43 4q-6 0 -25 -0.5t-24 -0.5h-297h-89q-3 0 -2.5 13t2.5 13q64 0 80 8q14 7 31 51l192 529q15 42 0 50q-14 9 -85 9
q-1 0 -2 6.5t-0.5 13.5t1.5 7h90h82h127q2 0 3 -7t-0.5 -14t-3.5 -7h-54q-45 0 -61 -8q-4 -1 -15 -11q-8 -8 -22 -45zM660 541q-1 -7 -18 -4q-6 1 -6 4q14 41 24 81q12 47 13 49q11 29 33 29q24 0 13 -29q-1 -3 -25 -53q-22 -45 -34 -77z" />
    <glyph glyph-name="lcaron" unicode="&#x13e;" horiz-adv-x="330" 
d="M434 611q-1 -7 -18 -4q-6 1 -6 4q14 41 24 81q12 47 13 49q11 29 33 29q24 0 13 -29q-1 -4 -25 -53q-22 -45 -34 -77zM126 72q-8 -27 10 -27q21 12 52 43q33 33 52 62q4 4 13 -4t7 -12q-27 -39 -67 -81q-42 -43 -70 -58q-23 -11 -46 15q-23 27 -11 61q123 353 205 565
q26 64 29 68q-4 0 -62 -3q-4 1 -1 11t6 10q20 5 72 16l49 11q3 1 5 -0.5t2 -5t-3 -8.5q-8 -18 -123 -332q-117 -324 -119 -331z" />
    <glyph glyph-name="Ldot" unicode="&#x13f;" horiz-adv-x="683" 
d="M349 608l-209 -576h184q108 0 132 6q46 10 84 63q29 39 95 154q6 7 19 3q3 -2 3 -4l-138 -290q-2 -2 -10 -2.5t-10 2.5q-3 24 -35 33q-15 4 -43 4q-6 0 -25 -0.5t-24 -0.5h-297h-89q-3 0 -2.5 13t2.5 13q64 0 80 8q14 7 31 51l192 529q15 42 0 50q-14 9 -85 9
q-1 0 -2 6.5t-0.5 13.5t1.5 7h90h82h127q2 0 3 -7t-0.5 -14t-3.5 -7h-54q-45 0 -61 -8q-4 -1 -15 -11q-8 -8 -22 -45zM417 308q-17 0 -24.5 11.5t-1.5 28.5q9 30 44 37q32 6 39 -13q4 -10 -2 -24q-5 -17 -21 -28.5t-34 -11.5z" />
    <glyph glyph-name="ldot" unicode="&#x140;" horiz-adv-x="330" 
d="M126 72q-8 -27 10 -27q21 12 52 43q33 33 52 62q4 4 13 -4t7 -12q-27 -39 -67 -81q-42 -43 -70 -58q-23 -11 -46 15q-23 27 -11 61q123 353 205 565q26 64 29 68q-4 0 -62 -3q-4 1 -1 11t6 10q20 5 72 16l49 11q3 1 5 -0.5t2 -5t-3 -8.5q-8 -18 -123 -332
q-117 -324 -119 -331zM407 344q-17 0 -24.5 11.5t-1.5 28.5q9 30 44 37q32 6 39 -13q4 -10 -2 -24q-5 -17 -21 -28.5t-34 -11.5z" />
    <glyph glyph-name="Lslash" unicode="&#x141;" horiz-adv-x="683" 
d="M635 255q6 7 19 3q3 -2 3 -4l-138 -290q-2 -2 -10 -2.5t-10 2.5q-3 24 -35 33q-15 4 -43 4q-6 0 -25 -0.5t-24 -0.5h-297h-89q-3 0 -2.5 13t2.5 13q64 0 80 8q14 7 31 51l85 235l-83 -38l-7 23l102 46l95 263q15 42 0 50q-14 9 -85 9q-1 0 -2 6.5t-0.5 13.5t1.5 7h90h82
h127q2 0 3 -7t-0.5 -14t-3.5 -7h-54q-45 0 -61 -8q-4 -1 -15 -11q-8 -8 -22 -45l-81 -222l80 36l7 -24l-98 -45l-117 -321h184q108 0 132 6q46 10 84 63q29 39 95 154z" />
    <glyph glyph-name="lslash" unicode="&#x142;" horiz-adv-x="330" 
d="M315 738l49 11q3 1 5 -0.5t2 -5t-3 -8.5l-117 -316l86 41l7 -24l-105 -50q-113 -312 -113 -314q-8 -27 10 -27q21 12 52 43q33 33 52 62q4 4 13 -4t7 -12q-27 -39 -67 -81q-42 -43 -70 -58q-23 -11 -46 15q-23 27 -11 61l100 280l-76 -36l-8 24l96 45q63 176 93 252
q26 64 29 68q-4 0 -62 -3q-4 1 -1 11t6 10q20 5 72 16z" />
    <glyph glyph-name="Nacute" unicode="&#x143;" horiz-adv-x="858" 
d="M552 810q48 27 80 55q7 6 18 15.5t16 13.5l12.5 10t11.5 8.5t9.5 5.5t10 4t9.5 1q25 0 18 -27q-18 -46 -181 -104q-2 -1 -4.5 3t-2.5 8t3 7zM598 0l-263 632l-188 -517q-22 -59 -4 -74q17 -13 89 -13q2 0 3 -7t0.5 -14t-1.5 -7h-117h-37h-102q-2 0 -2.5 7t1 13.5t2.5 6.5
q64 0 89 14q24 15 45 72l183 501q15 42 -1 51q-17 9 -91 9q-1 0 -2 6.5t-0.5 13t1.5 6.5h97h77l252 -613l186 512q16 51 0 64t-91 13q-2 0 -3 6t-1 12t2 6h118h37h89q1 0 1.5 -7t-0.5 -13.5t-2 -6.5q-55 0 -78 -15q-21 -13 -43 -70l-213 -587q-2 -5 -15.5 -5.5t-17.5 4.5z
" />
    <glyph glyph-name="nacute" unicode="&#x144;" horiz-adv-x="651" 
d="M340 636q48 27 80 55q7 6 18 15.5t16 13.5l12.5 10t11.5 8.5t9.5 5.5t10 4t9.5 1q25 0 18 -27q-18 -46 -181 -104q-2 -1 -4.5 3t-2.5 8t3 7zM562 150q4 4 12.5 -4t5.5 -12q-23 -37 -66 -80q-45 -45 -70 -59q-22 -12 -45 15q-22 27 -12 61q61 183 119 326q10 27 8.5 46.5
t-10 30.5t-18.5 9q-77 -20 -191 -123q-115 -105 -142 -179q-37 -98 -59 -161q-1 -4 -7 -10q-15 -8 -60 -19q-9 -3 -6 4q126 322 173 463q7 25 -9 25q-36 -19 -72 -60q-4 -3 -10 4t-3 11q42 60 90 92q17 9 34.5 2.5t27.5 -31t1 -50.5l-53 -144h4q83 90 164 150t141 77
q36 11 59 -35q24 -43 1 -100q-73 -169 -122 -328q-8 -26 10 -26q20 10 52 42q33 33 53 63z" />
    <glyph glyph-name="uni0145" unicode="&#x145;" horiz-adv-x="858" 
d="M598 0l-263 632l-188 -517q-22 -59 -4 -74q17 -13 89 -13q2 0 3 -7t0.5 -14t-1.5 -7h-117h-37h-102q-2 0 -2.5 7t1 13.5t2.5 6.5q64 0 89 14q24 15 45 72l183 501q15 42 -1 51q-17 9 -91 9q-1 0 -2 6.5t-0.5 13t1.5 6.5h97h77l252 -613l186 512q16 51 0 64t-91 13
q-2 0 -3 6t-1 12t2 6h118h37h89q1 0 1.5 -7t-0.5 -13.5t-2 -6.5q-55 0 -78 -15q-21 -13 -43 -70l-213 -587q-2 -5 -15.5 -5.5t-17.5 4.5zM193 -277l-7 16q39 22 77 58q36 35 48 60q-17 -5 -26 -5q-21 0 -29 12.5t-1 32.5q8 21 25.5 34t39.5 13q21 0 29.5 -14.5t-0.5 -36.5
q-19 -53 -65 -99q-47 -47 -91 -71z" />
    <glyph glyph-name="uni0146" unicode="&#x146;" horiz-adv-x="651" 
d="M562 150q4 4 12.5 -4t5.5 -12q-23 -37 -66 -80q-45 -45 -70 -59q-22 -12 -45 15q-22 27 -12 61q61 183 119 326q10 27 8.5 46.5t-10 30.5t-18.5 9q-77 -20 -191 -123q-115 -105 -142 -179q-37 -98 -59 -161q-1 -4 -7 -10q-15 -8 -60 -19q-9 -3 -6 4q126 322 173 463
q7 25 -9 25q-36 -19 -72 -60q-4 -3 -10 4t-3 11q42 60 90 92q17 9 34.5 2.5t27.5 -31t1 -50.5l-53 -144h4q83 90 164 150t141 77q36 11 59 -35q24 -43 1 -100q-73 -169 -122 -328q-8 -26 10 -26q20 10 52 42q33 33 53 63zM86 -277l-7 16q39 22 77 58q36 35 48 60
q-17 -5 -26 -5q-21 0 -29 12.5t-1 32.5q8 21 25.5 34t39.5 13q21 0 29.5 -14.5t-0.5 -36.5q-19 -53 -65 -99q-47 -47 -91 -71z" />
    <glyph glyph-name="Ncaron" unicode="&#x147;" horiz-adv-x="858" 
d="M648 839l152 89q6 0 6 -9q-1 -3 -3 -3l-153 -123h-38l-64 123q-1 1 5 6.5t8 5.5zM598 0l-263 632l-188 -517q-22 -59 -4 -74q17 -13 89 -13q2 0 3 -7t0.5 -14t-1.5 -7h-117h-37h-102q-2 0 -2.5 7t1 13.5t2.5 6.5q64 0 89 14q24 15 45 72l183 501q15 42 -1 51q-17 9 -91 9
q-1 0 -2 6.5t-0.5 13t1.5 6.5h97h77l252 -613l186 512q16 51 0 64t-91 13q-2 0 -3 6t-1 12t2 6h118h37h89q1 0 1.5 -7t-0.5 -13.5t-2 -6.5q-55 0 -78 -15q-21 -13 -43 -70l-213 -587q-2 -5 -15.5 -5.5t-17.5 4.5z" />
    <glyph glyph-name="ncaron" unicode="&#x148;" horiz-adv-x="651" 
d="M436 665l152 89q6 0 6 -9q-1 -3 -3 -3l-153 -123h-38l-64 123q-1 1 5 6.5t8 5.5zM562 150q4 4 12.5 -4t5.5 -12q-23 -37 -66 -80q-45 -45 -70 -59q-22 -12 -45 15q-22 27 -12 61q61 183 119 326q10 27 8.5 46.5t-10 30.5t-18.5 9q-77 -20 -191 -123q-115 -105 -142 -179
q-37 -98 -59 -161q-1 -4 -7 -10q-15 -8 -60 -19q-9 -3 -6 4q126 322 173 463q7 25 -9 25q-36 -19 -72 -60q-4 -3 -10 4t-3 11q42 60 90 92q17 9 34.5 2.5t27.5 -31t1 -50.5l-53 -144h4q83 90 164 150t141 77q36 11 59 -35q24 -43 1 -100q-73 -169 -122 -328q-8 -26 10 -26
q20 10 52 42q33 33 53 63z" />
    <glyph glyph-name="Eng" unicode="&#x14a;" horiz-adv-x="858" 
d="M877 700h89q1 0 1.5 -7t-0.5 -13.5t-2 -6.5q-55 0 -78 -15q-21 -13 -43 -70l-213 -587q0 -1 -0.5 -1t-0.5 -1q-42 -115 -125 -177q-64 -50 -156 -81q-2 -1 -4 3t-3 11q-2 14 3 16q82 31 133.5 79.5t81.5 132.5l21 58l-246 591l-188 -517q-22 -59 -4 -74q17 -13 89 -13
q2 0 3 -7t0.5 -14t-1.5 -7h-117h-37h-102q-2 0 -2.5 7t1 13.5t2.5 6.5q64 0 89 14q24 15 45 72l183 501q15 42 -1 51q-17 9 -91 9q-1 0 -2 6.5t-0.5 13t1.5 6.5h97h77l252 -613l186 512q16 51 0 64t-91 13q-2 0 -3 6t-1 12t2 6h118h37z" />
    <glyph glyph-name="eng" unicode="&#x14b;" horiz-adv-x="672" 
d="M509 534q36 11 59 -35q24 -43 1 -100q-48 -111 -142 -374q-41 -113 -107.5 -174t-133.5 -61q-32 0 -78 18q-47 17 -47 40q0 15 14 34q15 18 26 18q3 0 30 -32q29 -25 50.5 -32t52.5 -6q19 0 52 34q40 41 76 143q104 285 144 390q10 27 8.5 46.5t-10 30.5t-18.5 9
q-77 -20 -191 -123q-115 -105 -142 -179q-37 -98 -59 -161q-1 -4 -7 -10q-15 -8 -60 -19q-9 -3 -6 4q126 322 173 463q7 25 -9 25q-36 -19 -72 -60q-4 -3 -10 4t-3 11q42 60 90 92q17 9 34.5 2.5t27.5 -31t1 -50.5l-53 -144h4q83 90 164 150t141 77z" />
    <glyph glyph-name="Omacron" unicode="&#x14c;" horiz-adv-x="809" 
d="M749 855l-10 -27h-264l9 27h265zM305 -10q-113 0 -178 59t-65 161q0 83 40 170t107 162q67 74 162 120q96 48 197 48q111 0 175.5 -60t64.5 -162q0 -84 -40 -171q-40 -88 -106 -161q-66 -72 -161 -119q-96 -47 -196 -47zM737 501q0 83 -47.5 129.5t-133.5 46.5t-168 -47
q-80 -47 -134 -119q-55 -72 -87 -156t-32 -157q0 -83 47 -130q48 -45 135 -45t167 47q79 46 134 118q55 73 87 156.5t32 156.5z" />
    <glyph glyph-name="omacron" unicode="&#x14d;" horiz-adv-x="536" 
d="M563 681l-10 -27h-264l9 27h265zM177 -10q-71 0 -111.5 41.5t-40.5 112.5q0 84 46 173q46 90 129 155q85 65 177 65q72 0 112 -42t40 -114q0 -61 -28 -130t-75 -127q-47 -60 -114 -97t-135 -37zM190 17q73 0 137 64q66 65 102 150t36 158q0 57 -26.5 89t-74.5 31
q-73 0 -138 -64q-65 -65 -101 -150t-36 -158q0 -57 26.5 -88.5t74.5 -31.5z" />
    <glyph glyph-name="Obreve" unicode="&#x14e;" horiz-adv-x="809" 
d="M596 795q-51 0 -75.5 31t-7.5 85q0 2 4 3t8 0.5t4 -2.5q-1 -46 18.5 -63.5t61.5 -17.5q43 0 75.5 17.5t64.5 63.5q1 2 5 2t7 -1t3 -2q-23 -54 -69.5 -85t-98.5 -31zM305 -10q-113 0 -178 59t-65 161q0 83 40 170t107 162q67 74 162 120q96 48 197 48q111 0 175.5 -60
t64.5 -162q0 -84 -40 -171q-40 -88 -106 -161q-66 -72 -161 -119q-96 -47 -196 -47zM737 501q0 83 -47.5 129.5t-133.5 46.5t-168 -47q-80 -47 -134 -119q-55 -72 -87 -156t-32 -157q0 -83 47 -130q48 -45 135 -45t167 47q79 46 134 118q55 73 87 156.5t32 156.5z" />
    <glyph glyph-name="obreve" unicode="&#x14f;" horiz-adv-x="536" 
d="M409 621q-51 0 -75.5 31t-7.5 85q0 2 4 3t8 0.5t4 -2.5q-1 -46 18.5 -63.5t61.5 -17.5q43 0 75.5 17.5t64.5 63.5q1 2 5 2t7 -1t3 -2q-23 -54 -69.5 -85t-98.5 -31zM177 -10q-71 0 -111.5 41.5t-40.5 112.5q0 84 46 173q46 90 129 155q85 65 177 65q72 0 112 -42t40 -114
q0 -61 -28 -130t-75 -127q-47 -60 -114 -97t-135 -37zM190 17q73 0 137 64q66 65 102 150t36 158q0 57 -26.5 89t-74.5 31q-73 0 -138 -64q-65 -65 -101 -150t-36 -158q0 -57 26.5 -88.5t74.5 -31.5z" />
    <glyph glyph-name="Ohungarumlaut" unicode="&#x150;" horiz-adv-x="809" 
d="M446 807q48 26 87 59q6 5 15.5 13.5t14 12.5t12 10t11 8.5t9 6.5t9 5.5t8.5 3.5t9 2.5t9 0.5q30 0 19 -29q-18 -49 -198 -115q-2 -1 -4.5 3.5t-2.5 10t2 8.5zM582 807q48 26 87 59q7 6 19.5 17t17 15t13.5 11t13 9.5t10.5 5.5t12 4t11.5 1q30 0 19 -29q-18 -50 -199 -115
q-3 -2 -5 4q-4 13 1 18zM305 -10q-113 0 -178 59t-65 161q0 83 40 170t107 162q67 74 162 120q96 48 197 48q111 0 175.5 -60t64.5 -162q0 -84 -40 -171q-40 -88 -106 -161q-66 -72 -161 -119q-96 -47 -196 -47zM737 501q0 83 -47.5 129.5t-133.5 46.5t-168 -47
q-80 -47 -134 -119q-55 -72 -87 -156t-32 -157q0 -83 47 -130q48 -45 135 -45t167 47q79 46 134 118q55 73 87 156.5t32 156.5z" />
    <glyph glyph-name="ohungarumlaut" unicode="&#x151;" horiz-adv-x="536" 
d="M259 633q48 26 87 59q6 5 15.5 13.5t14 12.5t12 10t11 8.5t9 6.5t9 5.5t8.5 3.5t9 2.5t9 0.5q30 0 19 -29q-18 -49 -198 -115q-2 -1 -4.5 3.5t-2.5 10t2 8.5zM395 633q48 26 87 59q7 6 19.5 17t17 15t13.5 11t13 9.5t10.5 5.5t12 4t11.5 1q30 0 19 -29q-18 -50 -199 -115
q-3 -2 -5 4q-4 13 1 18zM177 -10q-71 0 -111.5 41.5t-40.5 112.5q0 84 46 173q46 90 129 155q85 65 177 65q72 0 112 -42t40 -114q0 -61 -28 -130t-75 -127q-47 -60 -114 -97t-135 -37zM190 17q73 0 137 64q66 65 102 150t36 158q0 57 -26.5 89t-74.5 31q-73 0 -138 -64
q-65 -65 -101 -150t-36 -158q0 -57 26.5 -88.5t74.5 -31.5z" />
    <glyph glyph-name="OE" unicode="&#x152;" horiz-adv-x="1149" 
d="M1193 736q7 3 18 0l-69 -273q0 -3 -10 -3.5t-11 0.5q17 107 13 155q-6 35 -24.5 43t-68.5 10h-260l-103 -281h174q36 0 54.5 18.5t36.5 71.5q0 2 14.5 2t14.5 -2l-71 -212q0 -2 -14.5 -2t-14.5 2q19 57 13 74q-4 16 -44 16h-174l-118 -323h276q34 0 45 1q39 5 68 32
q11 10 34 41q21 28 39 60l51 89q5 8 19 2q5 -1 3 -3l-137 -290q-2 -2 -11 -2.5t-9 2.5q-5 14 -8 19q-14 17 -81 17h-353h-86q-44 -10 -96 -10q-153 0 -220 99q-67 100 -8 261q56 154 194 256q140 104 296 104q45 0 85 -10h54h361q41 0 68 6q37 8 60 30zM512 100l177 489
q-49 88 -134 88q-121 0 -234 -86q-111 -85 -170 -241q-54 -142 -12 -235q44 -92 176 -92q91 0 197 77z" />
    <glyph glyph-name="oe" unicode="&#x153;" horiz-adv-x="939" 
d="M917 244q5 3 14 -3.5t5 -12.5q-73 -104 -168 -172q-95 -66 -185 -66q-133 0 -152 141q-113 -141 -254 -141q-71 0 -111.5 41.5t-40.5 112.5q0 84 46 173q46 90 129 155q85 65 177 65q66 0 105.5 -35t45.5 -98q54 61 120 97t129 36q57 0 91.5 -26.5t34.5 -62.5
q5 -59 -97 -110q-28 -15 -80 -34q-34 -13 -100 -35q-18 -6 -64 -21t-62 -20q-5 -33 -5 -55q0 -65 32.5 -102t88.5 -37q67 0 150 56q85 59 151 154zM190 17q73 0 137 64q66 65 102 150t36 158q0 57 -26.5 89t-74.5 31q-73 0 -138 -64q-65 -65 -101 -150t-36 -158
q0 -57 26.5 -88.5t74.5 -31.5zM749 496q-73 0 -145 -69q-73 -70 -98 -169q163 58 216 80q67 27 91.5 47.5t24.5 47.5q0 63 -89 63z" />
    <glyph glyph-name="Racute" unicode="&#x154;" horiz-adv-x="814" 
d="M430 792q-2 -1 -4.5 3t-2.5 8t3 7q48 27 80 55q7 6 18 15.5t16 13.5l12.5 10t11.5 8.5t9.5 5.5t10 4t9.5 1q25 0 18 -27q-18 -46 -181 -104zM785 574q0 -77 -77 -148q-78 -72 -222 -100q93 -26 100 -116l9 -88q5 -66 21 -79q17 -14 86 -14q2 0 3 -7.5t0.5 -14.5t-1.5 -7
h-104h-35q-15 14 -21 34t-10 67q0 2 -0.5 6t-0.5 7l-5 65q-5 66 -46 98q-18 13 -53 21q-55 11 -158 11h-16l-77 -210q-16 -49 2 -59q20 -9 110 -9q2 0 3.5 -7.5t1 -15.5t-2.5 -8h-118h-86q-5 0 -104 3q-2 0 -2 7t1 14t3 7q79 -2 93 5q18 8 34 54l189 519q16 43 -1 53
q-16 10 -97 10q-2 0 -3 7t-0.5 14t2.5 7h103h233q246 0 246 -126zM267 342h41q215 0 315 74q91 67 91 156q0 53 -55 74.5t-175 21.5h-90q-21 -32 -51 -117z" />
    <glyph glyph-name="racute" unicode="&#x155;" horiz-adv-x="485" 
d="M307 636q48 27 80 55q7 6 18 15.5t16 13.5l12.5 10t11.5 8.5t9.5 5.5t10 4t9.5 1q26 0 18 -27q-18 -46 -181 -104q-2 -1 -4.5 3t-2.5 8t3 7zM475 537q32 0 55 -21.5t23 -51.5q0 -19 -21.5 -35t-44.5 -16q-7 0 -7 10q0 24 -16.5 43t-40.5 19q-46 0 -145 -117t-127 -191
q-1 -3 -6.5 -17.5t-9.5 -26.5q-16 -50 -41 -112q-1 -6 -8 -11q-23 -12 -59 -19q-6 -1 -7.5 -0.5t0.5 4.5q94 224 173 464q9 24 -9 24q-37 -22 -71 -60q-4 -3 -10 4t-3 11q42 60 90 92q17 9 34.5 2.5t27.5 -31t1 -50.5q-49 -134 -53 -146h3q154 232 272 232z" />
    <glyph glyph-name="uni0156" unicode="&#x156;" horiz-adv-x="814" 
d="M785 574q0 -77 -77 -148q-78 -72 -222 -100q93 -26 100 -116l9 -88q5 -66 21 -79q17 -14 86 -14q2 0 3 -7.5t0.5 -14.5t-1.5 -7h-104h-35q-15 14 -21 34t-10 67q0 2 -0.5 6t-0.5 7l-5 65q-5 66 -46 98q-18 13 -53 21q-55 11 -158 11h-16l-77 -210q-16 -49 2 -59
q20 -9 110 -9q2 0 3.5 -7.5t1 -15.5t-2.5 -8h-118h-86q-5 0 -104 3q-2 0 -2 7t1 14t3 7q79 -2 93 5q18 8 34 54l189 519q16 43 -1 53q-16 10 -97 10q-2 0 -3 7t-0.5 14t2.5 7h103h233q246 0 246 -126zM267 342h41q215 0 315 74q91 67 91 156q0 53 -55 74.5t-175 21.5h-90
q-21 -32 -51 -117zM330 -56q21 0 29.5 -14.5t-0.5 -36.5q-19 -53 -65 -99q-47 -47 -91 -71l-7 16q39 22 77 58q36 35 48 60q-17 -5 -26 -5q-21 0 -29 12.5t-1 32.5q8 21 25.5 34t39.5 13z" />
    <glyph glyph-name="uni0157" unicode="&#x157;" horiz-adv-x="485" 
d="M475 537q32 0 55 -21.5t23 -51.5q0 -19 -21.5 -35t-44.5 -16q-7 0 -7 10q0 24 -16.5 43t-40.5 19q-46 0 -145 -117t-127 -191q-1 -3 -6.5 -17.5t-9.5 -26.5q-16 -50 -41 -112q-1 -6 -8 -11q-23 -12 -59 -19q-6 -1 -7.5 -0.5t0.5 4.5q94 224 173 464q9 24 -9 24
q-37 -22 -71 -60q-4 -3 -10 4t-3 11q42 60 90 92q17 9 34.5 2.5t27.5 -31t1 -50.5q-49 -134 -53 -146h3q154 232 272 232zM-97 -281l-7 16q39 22 77 58q36 35 48 60q-17 -5 -26 -5q-21 0 -29 12.5t-1 32.5q8 21 25.5 34t39.5 13q21 0 29.5 -14.5t-0.5 -36.5q-19 -53 -65 -99
q-47 -47 -91 -71z" />
    <glyph glyph-name="Rcaron" unicode="&#x158;" horiz-adv-x="814" 
d="M524 793h-38l-64 123q-1 1 5 6.5t8 5.5l87 -89l152 89q6 0 6 -9q-1 -3 -3 -3zM785 574q0 -77 -77 -148q-78 -72 -222 -100q93 -26 100 -116l9 -88q5 -66 21 -79q17 -14 86 -14q2 0 3 -7.5t0.5 -14.5t-1.5 -7h-104h-35q-15 14 -21 34t-10 67q0 2 -0.5 6t-0.5 7l-5 65
q-5 66 -46 98q-18 13 -53 21q-55 11 -158 11h-16l-77 -210q-16 -49 2 -59q20 -9 110 -9q2 0 3.5 -7.5t1 -15.5t-2.5 -8h-118h-86q-5 0 -104 3q-2 0 -2 7t1 14t3 7q79 -2 93 5q18 8 34 54l189 519q16 43 -1 53q-16 10 -97 10q-2 0 -3 7t-0.5 14t2.5 7h103h233q246 0 246 -126
zM267 342h41q215 0 315 74q91 67 91 156q0 53 -55 74.5t-175 21.5h-90q-21 -32 -51 -117z" />
    <glyph glyph-name="rcaron" unicode="&#x159;" horiz-adv-x="485" 
d="M404 665l152 89q6 0 6 -9q-1 -3 -3 -3l-153 -123h-38l-64 123q-1 1 5 6.5t8 5.5zM475 537q32 0 55 -21.5t23 -51.5q0 -19 -21.5 -35t-44.5 -16q-7 0 -7 10q0 24 -16.5 43t-40.5 19q-46 0 -145 -117t-127 -191q-1 -3 -6.5 -17.5t-9.5 -26.5q-16 -50 -41 -112q-1 -6 -8 -11
q-23 -12 -59 -19q-6 -1 -7.5 -0.5t0.5 4.5q94 224 173 464q9 24 -9 24q-37 -22 -71 -60q-4 -3 -10 4t-3 11q42 60 90 92q17 9 34.5 2.5t27.5 -31t1 -50.5q-49 -134 -53 -146h3q154 232 272 232z" />
    <glyph glyph-name="Sacute" unicode="&#x15a;" horiz-adv-x="610" 
d="M441 810q48 27 80 55q7 6 18 15.5t16 13.5l12.5 10t11.5 8.5t9.5 5.5t10 4t9.5 1q26 0 18 -27q-18 -46 -181 -104q-2 -1 -4.5 3t-2.5 8t3 7zM251 -10q-66 0 -123 10t-67 10q-24 0 -56 -44q-5 -5 -18 -2q-3 0 -3 2l104 284q2 6 16 6q8 2 6 -3q-39 -138 -11 -184
q29 -47 158 -47t176 65q40 54 40 105q0 74 -156 152q-76 39 -106.5 75t-30.5 82q0 22 7.5 47t27.5 54.5t50 53t81 39t114 15.5q48 0 92 -10t54 -10q9 0 18.5 5t14.5 10.5t13 16t10 12.5q7 4 19 0l-96 -267q-1 -2 -7 -3.5t-10.5 -1.5t-5.5 2q19 71 19.5 119t-33 71.5
t-109.5 23.5q-120 0 -163 -63q-32 -48 -32 -93q0 -39 22 -62q24 -25 92 -63l33 -18q31 -16 36 -20q8 -4 33 -20q30 -18 57 -51q24 -28 24 -69q0 -82 -82 -155q-83 -74 -208 -74z" />
    <glyph glyph-name="sacute" unicode="&#x15b;" horiz-adv-x="483" 
d="M287 636q48 27 80 55q7 6 18 15.5t16 13.5l12.5 10t11.5 8.5t9.5 5.5t10 4t9.5 1q26 0 18 -27q-18 -46 -181 -104q-2 -1 -4.5 3t-2.5 8t3 7zM189 -10q-66 0 -121 31q-54 32 -53 67q0 14 20 29t43 15q5 0 6.5 -2.5t0.5 -11.5q1 -47 29 -72t96 -25q54 0 90 29t37 77
q1 31 -15 53t-52 45l-46 32q-34 23 -56 40q-50 42 -50 92q1 64 64 106t139 42q66 0 105 -27q40 -26 38 -55q0 -13 -20 -28t-43 -15q-7 0 -7 13q0 80 -104 80q-42 0 -76 -25q-35 -24 -36 -67q-1 -31 12 -52.5t48 -44.5l49 -33q58 -39 84 -69.5t26 -69.5q-2 -68 -64 -111
t-144 -43z" />
    <glyph glyph-name="Scircumflex" unicode="&#x15c;" horiz-adv-x="610" 
d="M630 767l-87 90l-152 -90q-3 0 -4.5 5t1.5 8l153 123h38l63 -123q5 -3 -7 -11zM251 -10q-66 0 -123 10t-67 10q-24 0 -56 -44q-5 -5 -18 -2q-3 0 -3 2l104 284q2 6 16 6q8 2 6 -3q-39 -138 -11 -184q29 -47 158 -47t176 65q40 54 40 105q0 74 -156 152q-76 39 -106.5 75
t-30.5 82q0 22 7.5 47t27.5 54.5t50 53t81 39t114 15.5q48 0 92 -10t54 -10q9 0 18.5 5t14.5 10.5t13 16t10 12.5q7 4 19 0l-96 -267q-1 -2 -7 -3.5t-10.5 -1.5t-5.5 2q19 71 19.5 119t-33 71.5t-109.5 23.5q-120 0 -163 -63q-32 -48 -32 -93q0 -39 22 -62q24 -25 92 -63
l33 -18q31 -16 36 -20q8 -4 33 -20q30 -18 57 -51q24 -28 24 -69q0 -82 -82 -155q-83 -74 -208 -74z" />
    <glyph glyph-name="scircumflex" unicode="&#x15d;" horiz-adv-x="483" 
d="M476 593l-87 90l-152 -90q-3 0 -4.5 5t1.5 8l153 123h38l63 -123q5 -3 -7 -11zM189 -10q-66 0 -121 31q-54 32 -53 67q0 14 20 29t43 15q5 0 6.5 -2.5t0.5 -11.5q1 -47 29 -72t96 -25q54 0 90 29t37 77q1 31 -15 53t-52 45l-46 32q-34 23 -56 40q-50 42 -50 92
q1 64 64 106t139 42q66 0 105 -27q40 -26 38 -55q0 -13 -20 -28t-43 -15q-7 0 -7 13q0 80 -104 80q-42 0 -76 -25q-35 -24 -36 -67q-1 -31 12 -52.5t48 -44.5l49 -33q58 -39 84 -69.5t26 -69.5q-2 -68 -64 -111t-144 -43z" />
    <glyph glyph-name="Scedilla" unicode="&#x15e;" horiz-adv-x="610" 
d="M662 734q7 4 19 0l-96 -267q-1 -2 -7 -3.5t-10.5 -1.5t-5.5 2q19 71 19.5 119t-33 71.5t-109.5 23.5q-120 0 -163 -63q-32 -48 -32 -93q0 -39 22 -62q24 -25 92 -63l33 -18q31 -16 36 -20q8 -4 33 -20q30 -18 57 -51q24 -28 24 -69q0 -82 -82 -155q-83 -74 -208 -74
q-42 0 -83 4l-55 -63q68 -23 53 -60q-10 -30 -42.5 -49.5t-71.5 -19.5q-28 0 -48 12t-14 27q4 18 24 18q5 0 9.5 -6t8.5 -12.5t15.5 -12.5t28.5 -6q34 0 50 33q7 17 -6 31t-56 26l82 85q-13 2 -33 5.5t-33 5.5t-19 2q-24 0 -56 -44q-5 -5 -18 -2q-3 0 -3 2l104 284q2 6 16 6
q8 2 6 -3q-39 -138 -11 -184q29 -47 158 -47t176 65q40 54 40 105q0 74 -156 152q-76 39 -106.5 75t-30.5 82q0 22 7.5 47t27.5 54.5t50 53t81 39t114 15.5q48 0 92 -10t54 -10q9 0 18.5 5t14.5 10.5t13 16t10 12.5z" />
    <glyph glyph-name="scedilla" unicode="&#x15f;" horiz-adv-x="483" 
d="M321 537q66 0 105 -27q40 -26 38 -55q0 -13 -20 -28t-43 -15q-7 0 -7 13q0 80 -104 80q-42 0 -76 -25q-35 -24 -36 -67q-1 -31 12 -52.5t48 -44.5l49 -33q58 -39 84 -69.5t26 -69.5q-2 -68 -64 -111t-144 -43q-19 0 -35 3l-54 -62q68 -23 53 -60q-10 -30 -42.5 -49.5
t-71.5 -19.5q-28 0 -48 12t-14 27q5 18 24 18q6 0 10 -6t7.5 -12.5t15 -12.5t29.5 -6q34 0 50 33q7 17 -6 31t-56 26l82 85q-50 11 -84.5 37.5t-33.5 53.5q0 14 20 29t43 15q5 0 6.5 -2.5t0.5 -11.5q1 -47 29 -72t96 -25q54 0 90 29t37 77q1 31 -15 53t-52 45l-46 32
q-34 23 -56 40q-50 42 -50 92q1 64 64 106t139 42z" />
    <glyph glyph-name="Scaron" unicode="&#x160;" horiz-adv-x="610" 
d="M537 839l152 89q6 0 6 -9q-1 -3 -3 -3l-153 -123h-38l-64 123q-1 1 5 6.5t8 5.5zM251 -10q-66 0 -123 10t-67 10q-24 0 -56 -44q-5 -5 -18 -2q-3 0 -3 2l104 284q2 6 16 6q8 2 6 -3q-39 -138 -11 -184q29 -47 158 -47t176 65q40 54 40 105q0 74 -156 152
q-76 39 -106.5 75t-30.5 82q0 22 7.5 47t27.5 54.5t50 53t81 39t114 15.5q48 0 92 -10t54 -10q9 0 18.5 5t14.5 10.5t13 16t10 12.5q7 4 19 0l-96 -267q-1 -2 -7 -3.5t-10.5 -1.5t-5.5 2q19 71 19.5 119t-33 71.5t-109.5 23.5q-120 0 -163 -63q-32 -48 -32 -93q0 -39 22 -62
q24 -25 92 -63l33 -18q31 -16 36 -20q8 -4 33 -20q30 -18 57 -51q24 -28 24 -69q0 -82 -82 -155q-83 -74 -208 -74z" />
    <glyph glyph-name="scaron" unicode="&#x161;" horiz-adv-x="483" 
d="M383 665l152 89q6 0 6 -9q-1 -3 -3 -3l-153 -123h-38l-64 123q-1 1 5 6.5t8 5.5zM189 -10q-66 0 -121 31q-54 32 -53 67q0 14 20 29t43 15q5 0 6.5 -2.5t0.5 -11.5q1 -47 29 -72t96 -25q54 0 90 29t37 77q1 31 -15 53t-52 45l-46 32q-34 23 -56 40q-50 42 -50 92
q1 64 64 106t139 42q66 0 105 -27q40 -26 38 -55q0 -13 -20 -28t-43 -15q-7 0 -7 13q0 80 -104 80q-42 0 -76 -25q-35 -24 -36 -67q-1 -31 12 -52.5t48 -44.5l49 -33q58 -39 84 -69.5t26 -69.5q-2 -68 -64 -111t-144 -43z" />
    <glyph glyph-name="uni0162" unicode="&#x162;" horiz-adv-x="670" 
d="M764 736q8 5 19 0l-70 -273q0 -1 -5.5 -3t-10 -2t-5.5 2q26 131 7 180q-4 11 -22 19q-23 9 -84 9h-74l-210 -575q-16 -46 4 -56q21 -9 118 -9q2 0 3.5 -7t0.5 -14t-3 -7h-126h-50l-60 -69q68 -23 53 -60q-10 -30 -42.5 -49.5t-71.5 -19.5q-28 0 -48 12t-14 27q5 18 24 18
q6 0 10 -6t7.5 -12.5t15 -12.5t29.5 -6q34 0 50 33q7 17 -6 31t-56 26l85 88h-12h-127q-2 0 -2.5 7t1 14t3.5 7h53q46 0 60 8q29 17 39 57l209 575h-74q-66 0 -106 -15q-24 -10 -43 -34q-45 -57 -101 -159q-3 -3 -12 -1t-9 4l130 273q1 2 9 2.5t9 -2.5q6 -21 29 -28.5
t76 -7.5h271q52 0 80.5 7.5t48.5 28.5z" />
    <glyph glyph-name="uni0163" unicode="&#x163;" horiz-adv-x="375" 
d="M359 697l-63 -171h120l-13 -26h-117l-155 -429q-8 -26 10 -26q21 12 52 43q33 33 52 62q4 4 13 -4t7 -12q-27 -39 -67 -81q-42 -43 -70 -58q-13 -6 -29 2l-58 -66q68 -23 53 -60q-10 -30 -42.5 -49.5t-71.5 -19.5q-28 0 -48 12t-14 27q4 18 24 18q5 0 9.5 -6t8.5 -12.5
t15.5 -12.5t28.5 -6q34 0 50 33q7 17 -6 31t-56 26l86 89l16 -1q-36 28 -23 71l154 429h-67l8 26q57 20 97 59.5t76 111.5q1 2 6 2.5t9.5 -0.5t4.5 -2z" />
    <glyph glyph-name="Tcaron" unicode="&#x164;" horiz-adv-x="670" 
d="M562 839l152 89q6 0 6 -9q-1 -3 -3 -3l-153 -123h-38l-64 123q-1 1 5 6.5t8 5.5zM306 0h-86h-127q-2 0 -2.5 7t1 14t3.5 7h53q46 0 60 8q29 17 39 57l209 575h-74q-66 0 -106 -15q-24 -10 -43 -34q-45 -57 -101 -159q-3 -3 -12 -1t-9 4l130 273q1 2 9 2.5t9 -2.5
q6 -21 29 -28.5t76 -7.5h271q52 0 80.5 7.5t48.5 28.5q8 5 19 0l-70 -273q0 -1 -5.5 -3t-10 -2t-5.5 2q26 131 7 180q-4 11 -22 19q-23 9 -84 9h-74l-210 -575q-16 -46 4 -56q21 -9 118 -9q2 0 3.5 -7t0.5 -14t-3 -7h-126z" />
    <glyph glyph-name="tcaron" unicode="&#x165;" horiz-adv-x="375" 
d="M424 574q-1 -7 -18 -4q-6 2 -6 4q14 40 24 81q12 47 13 49q11 29 33 29q24 0 13 -29q-1 -4 -25 -53q-22 -45 -34 -77zM286 500l-155 -429q-8 -26 10 -26q21 12 52 43q33 33 52 62q4 4 13 -4t7 -12q-27 -39 -67 -81q-42 -43 -70 -58q-22 -11 -45 15q-22 27 -12 61l154 429
h-67l8 26q57 20 97 59.5t76 111.5q1 2 6 2.5t9.5 -0.5t4.5 -2l-63 -171h120l-13 -26h-117z" />
    <glyph glyph-name="Tbar" unicode="&#x166;" horiz-adv-x="670" 
d="M764 736q8 5 19 0l-70 -273q0 -1 -5.5 -3t-10 -2t-5.5 2q26 131 7 180q-4 11 -22 19q-23 9 -84 9h-74l-110 -302h101l-12 -32h-101l-88 -241q-16 -46 4 -56q21 -9 118 -9q2 0 3.5 -7t0.5 -14t-3 -7h-126h-86h-127q-2 0 -2.5 7t1 14t3.5 7h53q46 0 60 8q29 17 39 57
l88 241h-79l12 32h78l110 302h-74q-66 0 -106 -15q-24 -10 -43 -34q-45 -57 -101 -159q-3 -3 -12 -1t-9 4l130 273q1 2 9 2.5t9 -2.5q6 -21 29 -28.5t76 -7.5h271q52 0 80.5 7.5t48.5 28.5z" />
    <glyph glyph-name="tbar" unicode="&#x167;" horiz-adv-x="375" 
d="M416 526l-13 -26h-117l-59 -163h93l-12 -32h-93l-84 -234q-8 -26 10 -26q21 12 52 43q33 33 52 62q4 4 13 -4t7 -12q-27 -39 -67 -81q-42 -43 -70 -58q-22 -11 -45 15q-22 27 -12 61l14 41q15 40 32 89l37 104h-88l12 32h88l59 163h-67l8 26q57 20 97 59.5t76 111.5
q1 2 6 2.5t9.5 -0.5t4.5 -2l-63 -171h120z" />
    <glyph glyph-name="Utilde" unicode="&#x168;" horiz-adv-x="793" 
d="M789 883q-19 -30 -57 -57q-38 -26 -69 -26q-16 0 -48 13l-31 13q-20 9 -45 9q-19 0 -30 -10t-30 -42q-3 -5 -19 -1q-4 1 -4 4q18 29 56 56q39 27 70 27q15 0 47 -13l31 -13q26 -9 46 -9q18 0 28.5 10t30.5 42q1 6 19 1q2 -1 5 -4zM323 -9q-54 0 -94 15t-67.5 50.5t-26 94
t30.5 145.5l117 319q15 42 0 50q-15 9 -84 9q-2 0 -3 6.5t0 13t2 6.5h89h79h90q1 0 1.5 -6.5t-0.5 -13t-2 -6.5q-47 0 -70 -4q-6 -2 -10.5 -4.5t-7.5 -4.5t-6 -7.5t-4.5 -9.5t-5 -13.5t-6.5 -15.5l-107 -294q-110 -297 108 -297q107 0 185 81q80 83 129 217l96 263
q22 59 3 73q-16 14 -89 14q-2 0 -3 7t-1 14t2 7h118h37h88q1 0 1.5 -7t-0.5 -13.5t-2 -6.5q-56 0 -78 -15q-22 -14 -41 -69l-97 -266q-17 -45 -31 -75q-20 -42 -50 -85q-33 -50 -71 -86q-39 -37 -97.5 -61.5t-121.5 -24.5z" />
    <glyph glyph-name="utilde" unicode="&#x169;" horiz-adv-x="651" 
d="M620 709q-20 -30 -57 -57q-38 -26 -69 -26q-16 0 -48 13l-31 13q-19 9 -45 9q-19 0 -30 -10t-30 -42q-3 -5 -19 -1q-4 1 -4 4q18 29 56 56q39 27 70 27q15 0 47 -13l31 -13q25 -9 46 -9q18 0 28.5 10t30.5 42q1 6 19 1q1 -1 5 -4zM446 69q-8 -24 11 -24q20 11 50 40.5
t54 64.5q3 2 12.5 -4.5t6.5 -10.5q-24 -36 -66 -78q-43 -43 -67 -60q-15 -8 -32 -1.5t-26.5 30t-0.5 49.5l51 144h-4q-81 -87 -164 -149q-81 -60 -140 -77q-38 -12 -60 32t-1 102q37 82 123 329q9 27 -9 27q-10 -4 -18.5 -10t-12.5 -9.5t-18 -18t-22 -22.5q-5 -3 -11 4
t-2 12q20 29 35 42l15 15l20 17l20 17q24 18 50 -11t14 -64q-64 -186 -121 -326q-11 -27 -9.5 -46.5t10 -30t19.5 -8.5q77 18 190 121q114 102 143 179q37 99 58 163q4 6 9 9q15 9 58 20q5 1 6.5 0t0.5 -6q-131 -329 -172 -461z" />
    <glyph glyph-name="Umacron" unicode="&#x16a;" horiz-adv-x="793" 
d="M762 855l-10 -27h-264l9 27h265zM323 -9q-54 0 -94 15t-67.5 50.5t-26 94t30.5 145.5l117 319q15 42 0 50q-15 9 -84 9q-2 0 -3 6.5t0 13t2 6.5h89h79h90q1 0 1.5 -6.5t-0.5 -13t-2 -6.5q-47 0 -70 -4q-6 -2 -10.5 -4.5t-7.5 -4.5t-6 -7.5t-4.5 -9.5t-5 -13.5t-6.5 -15.5
l-107 -294q-110 -297 108 -297q107 0 185 81q80 83 129 217l96 263q22 59 3 73q-16 14 -89 14q-2 0 -3 7t-1 14t2 7h118h37h88q1 0 1.5 -7t-0.5 -13.5t-2 -6.5q-56 0 -78 -15q-22 -14 -41 -69l-97 -266q-17 -45 -31 -75q-20 -42 -50 -85q-33 -50 -71 -86
q-39 -37 -97.5 -61.5t-121.5 -24.5z" />
    <glyph glyph-name="umacron" unicode="&#x16b;" horiz-adv-x="651" 
d="M593 681l-10 -27h-264l9 27h265zM446 69q-8 -24 11 -24q20 11 50 40.5t54 64.5q3 2 12.5 -4.5t6.5 -10.5q-24 -36 -66 -78q-43 -43 -67 -60q-15 -8 -32 -1.5t-26.5 30t-0.5 49.5l51 144h-4q-81 -87 -164 -149q-81 -60 -140 -77q-38 -12 -60 32t-1 102q37 82 123 329
q9 27 -9 27q-10 -4 -18.5 -10t-12.5 -9.5t-18 -18t-22 -22.5q-5 -3 -11 4t-2 12q20 29 35 42l15 15l20 17l20 17q24 18 50 -11t14 -64q-64 -186 -121 -326q-11 -27 -9.5 -46.5t10 -30t19.5 -8.5q77 18 190 121q114 102 143 179q37 99 58 163q4 6 9 9q15 9 58 20q5 1 6.5 0
t0.5 -6q-131 -329 -172 -461z" />
    <glyph glyph-name="Ubreve" unicode="&#x16c;" horiz-adv-x="793" 
d="M608 795q-51 0 -75.5 31t-7.5 85q0 2 4 3t8 0.5t4 -2.5q-1 -46 18.5 -63.5t61.5 -17.5q43 0 75.5 17.5t64.5 63.5q1 2 5 2t7 -1t3 -2q-23 -54 -69.5 -85t-98.5 -31zM323 -9q-54 0 -94 15t-67.5 50.5t-26 94t30.5 145.5l117 319q15 42 0 50q-15 9 -84 9q-2 0 -3 6.5t0 13
t2 6.5h89h79h90q1 0 1.5 -6.5t-0.5 -13t-2 -6.5q-47 0 -70 -4q-6 -2 -10.5 -4.5t-7.5 -4.5t-6 -7.5t-4.5 -9.5t-5 -13.5t-6.5 -15.5l-107 -294q-110 -297 108 -297q107 0 185 81q80 83 129 217l96 263q22 59 3 73q-16 14 -89 14q-2 0 -3 7t-1 14t2 7h118h37h88q1 0 1.5 -7
t-0.5 -13.5t-2 -6.5q-56 0 -78 -15q-22 -14 -41 -69l-97 -266q-17 -45 -31 -75q-20 -42 -50 -85q-33 -50 -71 -86q-39 -37 -97.5 -61.5t-121.5 -24.5z" />
    <glyph glyph-name="ubreve" unicode="&#x16d;" horiz-adv-x="651" 
d="M439 621q-51 0 -75.5 31t-7.5 85q0 2 4 3t8 0.5t4 -2.5q-1 -46 18.5 -63.5t61.5 -17.5q43 0 75.5 17.5t64.5 63.5q1 2 5 2t7 -1t3 -2q-23 -54 -69.5 -85t-98.5 -31zM446 69q-8 -24 11 -24q20 11 50 40.5t54 64.5q3 2 12.5 -4.5t6.5 -10.5q-24 -36 -66 -78
q-43 -43 -67 -60q-15 -8 -32 -1.5t-26.5 30t-0.5 49.5l51 144h-4q-81 -87 -164 -149q-81 -60 -140 -77q-38 -12 -60 32t-1 102q37 82 123 329q9 27 -9 27q-10 -4 -18.5 -10t-12.5 -9.5t-18 -18t-22 -22.5q-5 -3 -11 4t-2 12q20 29 35 42l15 15l20 17l20 17q24 18 50 -11
t14 -64q-64 -186 -121 -326q-11 -27 -9.5 -46.5t10 -30t19.5 -8.5q77 18 190 121q114 102 143 179q37 99 58 163q4 6 9 9q15 9 58 20q5 1 6.5 0t0.5 -6q-131 -329 -172 -461z" />
    <glyph glyph-name="Uring" unicode="&#x16e;" horiz-adv-x="793" 
d="M605 781q-31 0 -45.5 21.5t-3.5 51.5t41 52t61 22q30 0 43.5 -21.5t2.5 -52.5q-11 -30 -40 -51.5t-59 -21.5zM648 901q-37 1 -59 -35q-19 -33 -1 -50q9 -9 27 -8q20 0 38 13.5t25 32.5q6 19 -2 33t-28 14zM323 -9q-54 0 -94 15t-67.5 50.5t-26 94t30.5 145.5l117 319
q15 42 0 50q-15 9 -84 9q-2 0 -3 6.5t0 13t2 6.5h89h79h90q1 0 1.5 -6.5t-0.5 -13t-2 -6.5q-47 0 -70 -4q-6 -2 -10.5 -4.5t-7.5 -4.5t-6 -7.5t-4.5 -9.5t-5 -13.5t-6.5 -15.5l-107 -294q-110 -297 108 -297q107 0 185 81q80 83 129 217l96 263q22 59 3 73q-16 14 -89 14
q-2 0 -3 7t-1 14t2 7h118h37h88q1 0 1.5 -7t-0.5 -13.5t-2 -6.5q-56 0 -78 -15q-22 -14 -41 -69l-97 -266q-17 -45 -31 -75q-20 -42 -50 -85q-33 -50 -71 -86q-39 -37 -97.5 -61.5t-121.5 -24.5z" />
    <glyph glyph-name="uring" unicode="&#x16f;" horiz-adv-x="651" 
d="M435 607q-31 0 -45.5 21.5t-3.5 51.5t41 52t61 22q30 0 43.5 -21.5t2.5 -52.5q-11 -30 -40 -51.5t-59 -21.5zM478 727q-37 1 -59 -35q-19 -33 -1 -50q9 -9 27 -8q20 0 38 13.5t25 32.5q6 19 -2 33t-28 14zM446 69q-8 -24 11 -24q20 11 50 40.5t54 64.5q3 2 12.5 -4.5
t6.5 -10.5q-24 -36 -66 -78q-43 -43 -67 -60q-15 -8 -32 -1.5t-26.5 30t-0.5 49.5l51 144h-4q-81 -87 -164 -149q-81 -60 -140 -77q-38 -12 -60 32t-1 102q37 82 123 329q9 27 -9 27q-10 -4 -18.5 -10t-12.5 -9.5t-18 -18t-22 -22.5q-5 -3 -11 4t-2 12q20 29 35 42l15 15
l20 17l20 17q24 18 50 -11t14 -64q-64 -186 -121 -326q-11 -27 -9.5 -46.5t10 -30t19.5 -8.5q77 18 190 121q114 102 143 179q37 99 58 163q4 6 9 9q15 9 58 20q5 1 6.5 0t0.5 -6q-131 -329 -172 -461z" />
    <glyph glyph-name="Uhungarumlaut" unicode="&#x170;" horiz-adv-x="793" 
d="M459 807q48 26 87 59q6 5 15.5 13.5t14 12.5t12 10t11 8.5t9 6.5t9 5.5t8.5 3.5t9 2.5t9 0.5q30 0 19 -29q-18 -49 -198 -115q-2 -1 -4.5 3.5t-2.5 10t2 8.5zM595 807q48 26 87 59q7 6 19.5 17t17 15t13.5 11t13 9.5t10.5 5.5t12 4t11.5 1q30 0 19 -29q-18 -50 -199 -115
q-3 -2 -5 4q-4 13 1 18zM323 -9q-54 0 -94 15t-67.5 50.5t-26 94t30.5 145.5l117 319q15 42 0 50q-15 9 -84 9q-2 0 -3 6.5t0 13t2 6.5h89h79h90q1 0 1.5 -6.5t-0.5 -13t-2 -6.5q-47 0 -70 -4q-6 -2 -10.5 -4.5t-7.5 -4.5t-6 -7.5t-4.5 -9.5t-5 -13.5t-6.5 -15.5l-107 -294
q-110 -297 108 -297q107 0 185 81q80 83 129 217l96 263q22 59 3 73q-16 14 -89 14q-2 0 -3 7t-1 14t2 7h118h37h88q1 0 1.5 -7t-0.5 -13.5t-2 -6.5q-56 0 -78 -15q-22 -14 -41 -69l-97 -266q-17 -45 -31 -75q-20 -42 -50 -85q-33 -50 -71 -86q-39 -37 -97.5 -61.5
t-121.5 -24.5z" />
    <glyph glyph-name="uhungarumlaut" unicode="&#x171;" horiz-adv-x="651" 
d="M289 633q48 26 87 59q6 5 15.5 13.5t14 12.5t12 10t11 8.5t9 6.5t9 5.5t8.5 3.5t9 2.5t9 0.5q30 0 19 -29q-18 -49 -198 -115q-2 -1 -4.5 3.5t-2.5 10t2 8.5zM425 633q48 26 87 59q7 6 19.5 17t17 15t13.5 11t13 9.5t10.5 5.5t12 4t11.5 1q30 0 19 -29q-18 -50 -199 -115
q-3 -2 -5 4q-4 13 1 18zM446 69q-8 -24 11 -24q20 11 50 40.5t54 64.5q3 2 12.5 -4.5t6.5 -10.5q-24 -36 -66 -78q-43 -43 -67 -60q-15 -8 -32 -1.5t-26.5 30t-0.5 49.5l51 144h-4q-81 -87 -164 -149q-81 -60 -140 -77q-38 -12 -60 32t-1 102q37 82 123 329q9 27 -9 27
q-10 -4 -18.5 -10t-12.5 -9.5t-18 -18t-22 -22.5q-5 -3 -11 4t-2 12q20 29 35 42l15 15l20 17l20 17q24 18 50 -11t14 -64q-64 -186 -121 -326q-11 -27 -9.5 -46.5t10 -30t19.5 -8.5q77 18 190 121q114 102 143 179q37 99 58 163q4 6 9 9q15 9 58 20q5 1 6.5 0t0.5 -6
q-131 -329 -172 -461z" />
    <glyph glyph-name="Uogonek" unicode="&#x172;" horiz-adv-x="793" 
d="M823 700h88q1 0 1.5 -7t-0.5 -13.5t-2 -6.5q-56 0 -78 -15q-22 -14 -41 -69l-97 -266q-86 -227 -231 -300q-69 -44 -83 -82q-13 -28 8 -42q29 -17 89 25q5 3 9 -4t0 -10q-58 -40 -99 -40q-61 0 -41 61q14 33 59 70q-40 -10 -82 -10q-54 0 -94 15t-67.5 50.5t-26 94
t30.5 145.5l117 319q15 42 0 50q-15 9 -84 9q-2 0 -3 6.5t0 13t2 6.5h89h79h90q1 0 1.5 -6.5t-0.5 -13t-2 -6.5q-47 0 -70 -4q-6 -2 -10.5 -4.5t-7.5 -4.5t-6 -7.5t-4.5 -9.5t-5 -13.5t-6.5 -15.5l-107 -294q-110 -297 108 -297q107 0 185 81q80 83 129 217l96 263
q22 59 3 73q-16 14 -89 14q-2 0 -3 7t-1 14t2 7h118h37z" />
    <glyph glyph-name="uogonek" unicode="&#x173;" horiz-adv-x="651" 
d="M618 530q-131 -329 -172 -461q-8 -24 11 -24q20 11 50 40.5t54 64.5q3 2 12.5 -4.5t6.5 -10.5q-24 -36 -66 -78q-43 -43 -67 -60q-7 -3 -9 -4q-89 -56 -104 -96q-13 -28 8 -42q29 -17 89 25q5 3 9 -4t0 -10q-58 -40 -99 -40q-61 0 -41 61q19 49 115 109q-19 9 -27.5 32
t0.5 47l51 144h-4q-81 -87 -164 -149q-81 -60 -140 -77q-38 -12 -60 32t-1 102q37 82 123 329q9 27 -9 27q-10 -4 -18.5 -10t-12.5 -9.5t-18 -18t-22 -22.5q-5 -3 -11 4t-2 12q20 29 35 42l15 15l20 17l20 17q24 18 50 -11t14 -64q-64 -186 -121 -326q-11 -27 -9.5 -46.5
t10 -30t19.5 -8.5q77 18 190 121q114 102 143 179q37 99 58 163q4 6 9 9q15 9 58 20q5 1 6.5 0t0.5 -6z" />
    <glyph glyph-name="Wcircumflex" unicode="&#x174;" horiz-adv-x="1156" 
d="M784 856l-152 -90q-3 0 -4.5 5t1.5 8l153 123h38l63 -123q5 -3 -7 -11l-5 -2zM1214 700h76q1 0 1.5 -7t-0.5 -13.5t-2 -6.5q-49 0 -71 -12t-60 -59l-425 -555l-49 -57h-5l-23 446l-285 -380l-51 -66h-5l-26 564q-3 75 -20 98t-75 23q-1 0 -2.5 6t-1 12t2.5 6h95l412 1
h116q2 0 2.5 -7.5t-0.5 -15t-3 -7.5q-72 0 -89 -27t-12 -122l17 -421l374 483q24 31 30.5 46.5t-2.5 25.5q-13 13 -92 13q-2 0 -3 8t-1 16t2 8h128h47zM350 638l19 -535l285 381l-8 155q-36 37 -131 38q-111 -1 -165 -39z" />
    <glyph glyph-name="wcircumflex" unicode="&#x175;" horiz-adv-x="769" 
d="M564 683l-152 -90q-3 0 -4.5 5t1.5 8l153 123h38l63 -123q5 -3 -7 -11l-5 -2zM714 537q21 0 34.5 -29.5t13.5 -72.5q0 -140 -98 -289q-44 -66 -113 -112q-67 -45 -141 -45q-23 0 -46 26.5t-30 64.5q-78 -91 -179 -91q-25 0 -52 35q-26 37 -26 85q-2 36 23 133q2 10 16 55
l16 51l20 58l18 53q8 24 -10 24q-32 -17 -72 -60q-4 -3 -10.5 4t-2.5 11q27 36 51 57q2 2 24 20l19 15q13 11 31.5 2t27.5 -30.5t0 -52.5q-85 -233 -85 -337q0 -35 20.5 -59t48.5 -24t60.5 22.5t58.5 61.5q3 107 111 395q5 8 8 9q22 12 57 19q6 2 6 -2q0 -1 -1 -2
q-116 -318 -116 -419q0 -36 19 -60.5t46 -24.5q53 0 111 54q60 57 98 143q40 87 40 176q0 55 -53 87q-6 4 -6 8q0 9 21 25q20 16 42 16z" />
    <glyph glyph-name="Ycircumflex" unicode="&#x176;" horiz-adv-x="772" 
d="M643 857l-152 -90q-3 0 -4.5 5t1.5 8l153 123h38l63 -123q5 -3 -7 -11l-5 -2zM830 700h77q1 0 1.5 -7t-0.5 -13.5t-2 -6.5q-49 0 -73 -12q-22 -9 -64 -55l-329 -359l-56 -154q-16 -46 4 -56q21 -9 118 -9q2 0 3.5 -7t0.5 -14t-3 -7h-126h-87h-146q-3 0 -3.5 7t1 14t3.5 7
h54q62 3 67 5q3 1 9 3.5t10 4t8 4.5t6 7q12 20 20 42l54 151l-72 336q-12 62 -29 76t-81 14q-2 0 -3 7.5t-0.5 14.5t2.5 7h94h56h107q2 0 2.5 -7t-0.5 -13.5t-3 -6.5q-71 0 -83 -13q-10 -12 3 -73l62 -304l292 320q43 47 27 58q-15 11 -92 11q-2 0 -3 7t-1 14t2 7h127h46z
" />
    <glyph glyph-name="ycircumflex" unicode="&#x177;" horiz-adv-x="562" 
d="M439 683l-152 -90q-3 0 -4.5 5t1.5 8l153 123h38l63 -123q5 -3 -7 -11l-5 -2zM501 537q24 0 38 -31.5t14 -73.5q0 -141 -85 -259q-83 -116 -222 -172q-138 -55 -138 -153q0 -22 12.5 -38.5t29.5 -23.5q13 -7 37 -13q32 -10 32 -15q0 -10 -17.5 -24.5t-34.5 -14.5
q-30 0 -70 25q-39 26 -39 70q0 45 29 91t78 82q-35 16 -59 61.5t-22 95.5q2 30 8 59q9 44 16 68q22 73 23 74q7 25 12 36l13 40l13 37q9 25 -10 25q-43 -26 -71 -60q-4 -3 -10 4t-3 11q41 55 90 92q27 20 51 -9t12 -71q-80 -219 -80 -320q0 -82 73 -109l22 9q121 46 189 144
q69 99 69 224q0 66 -51 93q-4 3 -4 7q0 9 18 24q20 15 37 15z" />
    <glyph glyph-name="Ydieresis" unicode="&#x178;" horiz-adv-x="772" 
d="M537 812q-16 0 -23.5 11t-1.5 27q6 17 21 27.5t32 10.5q16 0 24 -11t2 -27q-5 -15 -21 -26.5t-33 -11.5zM692 850q6 17 21 27.5t32 10.5q16 0 24 -11t2 -27q-6 -15 -21.5 -26.5t-32.5 -11.5t-24.5 11t-0.5 27zM830 700h77q1 0 1.5 -7t-0.5 -13.5t-2 -6.5q-49 0 -73 -12
q-22 -9 -64 -55l-329 -359l-56 -154q-16 -46 4 -56q21 -9 118 -9q2 0 3.5 -7t0.5 -14t-3 -7h-126h-87h-146q-3 0 -3.5 7t1 14t3.5 7h54q62 3 67 5q3 1 9 3.5t10 4t8 4.5t6 7q12 20 20 42l54 151l-72 336q-12 62 -29 76t-81 14q-2 0 -3 7.5t-0.5 14.5t2.5 7h94h56h107
q2 0 2.5 -7t-0.5 -13.5t-3 -6.5q-71 0 -83 -13q-10 -12 3 -73l62 -304l292 320q43 47 27 58q-15 11 -92 11q-2 0 -3 7t-1 14t2 7h127h46z" />
    <glyph glyph-name="Zacute" unicode="&#x179;" horiz-adv-x="642" 
d="M443 810q48 27 80 55q7 6 18 15.5t16 13.5l12.5 10t11.5 8.5t9.5 5.5t10 4t9.5 1q26 0 18 -27q-18 -46 -181 -104q-2 -1 -4.5 3t-2.5 8t3 7zM744 684l-685 -652h241q47 0 62 1q52 5 87 33q13 10 37 41q24 32 42 61q20 32 51 90q5 4 18 0q5 -2 3 -3l-136 -291
q-2 -2 -9.5 -2t-8.5 2q-6 13 -12 19.5t-23 11.5t-48 5h-408q0 16 4 16l687 652h-187q-89 0 -116 -8q-44 -14 -87 -76q-27 -40 -75 -124q-5 -4 -18 0q-5 2 -3 3l130 273q2 2 10 2t9 -2q6 -19 26.5 -27.5t66.5 -8.5h347q1 0 0 -3.5t-2.5 -7.5t-2.5 -5z" />
    <glyph glyph-name="zacute" unicode="&#x17a;" horiz-adv-x="484" 
d="M310 618q-2 -1 -4.5 3t-2.5 8t3 7q48 27 80 55q7 6 18 15.5t16 13.5l12.5 10t11.5 8.5t9.5 5.5t10 4t9.5 1q25 0 18 -27q-18 -46 -181 -104zM474 504l32 32q7 6 20 -6q5 -5 2 -8l-432 -443q24 2 27 2q31 0 101 -27q72 -26 91 -26q12 0 21.5 10.5t9.5 25.5q0 21 -16 41
q-5 10 2 17q25 20 48 20q15 0 23.5 -11.5t8.5 -29.5q0 -39 -49 -79q-48 -39 -86 -39q-24 0 -102 26q-76 26 -125 26q-14 0 -23.5 -8t-9.5 -15q0 -5 4.5 -13t5.5 -10q5 -6 -1 -8q-22 -14 -32 -14q-6 0 -10 7.5t-4 16.5q0 16 17 35.5t44 33.5l395 405q-45 -13 -70 -13
q-30 0 -81 19t-78 19q-12 0 -22.5 -11t-10.5 -24q0 -21 16 -40q6 -10 -4 -17q-23 -20 -43 -20q-16 0 -25 11t-9 28q0 37 51 78q53 41 88 41q32 0 101 -23t96 -23q12 0 29 14z" />
    <glyph glyph-name="Zdotaccent" unicode="&#x17b;" horiz-adv-x="642" 
d="M528 810q-16 0 -24 11.5t-1 28.5q6 16 21.5 27.5t33.5 11.5t25.5 -10.5t0.5 -28.5q-6 -17 -22 -28.5t-34 -11.5zM744 684l-685 -652h241q47 0 62 1q52 5 87 33q13 10 37 41q24 32 42 61q20 32 51 90q5 4 18 0q5 -2 3 -3l-136 -291q-2 -2 -9.5 -2t-8.5 2q-6 13 -12 19.5
t-23 11.5t-48 5h-408q0 16 4 16l687 652h-187q-89 0 -116 -8q-44 -14 -87 -76q-27 -40 -75 -124q-5 -4 -18 0q-5 2 -3 3l130 273q2 2 10 2t9 -2q6 -19 26.5 -27.5t66.5 -8.5h347q1 0 0 -3.5t-2.5 -7.5t-2.5 -5z" />
    <glyph glyph-name="zdotaccent" unicode="&#x17c;" horiz-adv-x="484" 
d="M391 636q-16 0 -24 11.5t-1 28.5q6 16 21.5 27.5t33.5 11.5t25.5 -10.5t0.5 -28.5q-6 -17 -22 -28.5t-34 -11.5zM474 504l32 32q7 6 20 -6q5 -5 2 -8l-432 -443q24 2 27 2q31 0 101 -27q72 -26 91 -26q12 0 21.5 10.5t9.5 25.5q0 21 -16 41q-5 10 2 17q25 20 48 20
q15 0 23.5 -11.5t8.5 -29.5q0 -39 -49 -79q-48 -39 -86 -39q-24 0 -102 26q-76 26 -125 26q-14 0 -23.5 -8t-9.5 -15q0 -5 4.5 -13t5.5 -10q5 -6 -1 -8q-22 -14 -32 -14q-6 0 -10 7.5t-4 16.5q0 16 17 35.5t44 33.5l395 405q-45 -13 -70 -13q-30 0 -81 19t-78 19
q-12 0 -22.5 -11t-10.5 -24q0 -21 16 -40q6 -10 -4 -17q-23 -20 -43 -20q-16 0 -25 11t-9 28q0 37 51 78q53 41 88 41q32 0 101 -23t96 -23q12 0 29 14z" />
    <glyph glyph-name="Zcaron" unicode="&#x17d;" horiz-adv-x="642" 
d="M539 839l152 89q6 0 6 -9q-1 -3 -3 -3l-153 -123h-38l-64 123q-1 1 5 6.5t8 5.5zM744 684l-685 -652h241q47 0 62 1q52 5 87 33q13 10 37 41q24 32 42 61q20 32 51 90q5 4 18 0q5 -2 3 -3l-136 -291q-2 -2 -9.5 -2t-8.5 2q-6 13 -12 19.5t-23 11.5t-48 5h-408q0 16 4 16
l687 652h-187q-89 0 -116 -8q-44 -14 -87 -76q-27 -40 -75 -124q-5 -4 -18 0q-5 2 -3 3l130 273q2 2 10 2t9 -2q6 -19 26.5 -27.5t66.5 -8.5h347q1 0 0 -3.5t-2.5 -7.5t-2.5 -5z" />
    <glyph glyph-name="zcaron" unicode="&#x17e;" horiz-adv-x="484" 
d="M402 665l152 89q6 0 6 -9q-1 -3 -3 -3l-153 -123h-38l-64 123q-1 1 5 6.5t8 5.5zM474 504l32 32q7 6 20 -6q5 -5 2 -8l-432 -443q24 2 27 2q31 0 101 -27q72 -26 91 -26q12 0 21.5 10.5t9.5 25.5q0 21 -16 41q-5 10 2 17q25 20 48 20q15 0 23.5 -11.5t8.5 -29.5
q0 -39 -49 -79q-48 -39 -86 -39q-24 0 -102 26q-76 26 -125 26q-14 0 -23.5 -8t-9.5 -15q0 -5 4.5 -13t5.5 -10q5 -6 -1 -8q-22 -14 -32 -14q-6 0 -10 7.5t-4 16.5q0 16 17 35.5t44 33.5l395 405q-45 -13 -70 -13q-30 0 -81 19t-78 19q-12 0 -22.5 -11t-10.5 -24
q0 -21 16 -40q6 -10 -4 -17q-23 -20 -43 -20q-16 0 -25 11t-9 28q0 37 51 78q53 41 88 41q32 0 101 -23t96 -23q12 0 29 14z" />
    <glyph glyph-name="florin" unicode="&#x192;" horiz-adv-x="340" 
d="M-137 -210q-45 0 -88 18q-44 18 -44 40q0 14 14 34q13 18 24 18q7 0 9 -6q14 -26 48 -47q34 -20 70 -22q31 0 68 49.5t64 129.5l171 495h-48l15 27h43q35 108 110 165q76 58 150 58q50 0 90 -25q41 -24 41 -53q0 -15 -20 -29.5t-45 -14.5q-7 0 -8 10q-5 34 -31 54t-66 20
q-41 0 -86 -49q-44 -50 -68 -120l-5 -16h131l-16 -27h-124l-167 -480q-38 -108 -104 -168q-67 -61 -128 -61z" />
    <glyph glyph-name="uni0218" unicode="&#x218;" horiz-adv-x="610" 
d="M251 -10q-66 0 -123 10t-67 10q-24 0 -56 -44q-5 -5 -18 -2q-3 0 -3 2l104 284q2 6 16 6q8 2 6 -3q-39 -138 -11 -184q29 -47 158 -47t176 65q40 54 40 105q0 74 -156 152q-76 39 -106.5 75t-30.5 82q0 22 7.5 47t27.5 54.5t50 53t81 39t114 15.5q48 0 92 -10t54 -10
q9 0 18.5 5t14.5 10.5t13 16t10 12.5q7 4 19 0l-96 -267q-1 -2 -7 -3.5t-10.5 -1.5t-5.5 2q19 71 19.5 119t-33 71.5t-109.5 23.5q-120 0 -163 -63q-32 -48 -32 -93q0 -39 22 -62q24 -25 92 -63l33 -18q31 -16 36 -20q8 -4 33 -20q30 -18 57 -51q24 -28 24 -69
q0 -82 -82 -155q-83 -74 -208 -74zM25 -277l-7 16q39 22 77 58q36 35 48 60q-17 -5 -26 -5q-21 0 -29 12.5t-1 32.5q8 21 25.5 34t39.5 13q21 0 29.5 -14.5t-0.5 -36.5q-19 -53 -65 -99q-47 -47 -91 -71z" />
    <glyph glyph-name="uni0219" unicode="&#x219;" horiz-adv-x="483" 
d="M189 -10q-66 0 -121 31q-54 32 -53 67q0 14 20 29t43 15q5 0 6.5 -2.5t0.5 -11.5q1 -47 29 -72t96 -25q54 0 90 29t37 77q1 31 -15 53t-52 45l-46 32q-34 23 -56 40q-50 42 -50 92q1 64 64 106t139 42q66 0 105 -27q40 -26 38 -55q0 -13 -20 -28t-43 -15q-7 0 -7 13
q0 80 -104 80q-42 0 -76 -25q-35 -24 -36 -67q-1 -31 12 -52.5t48 -44.5l49 -33q58 -39 84 -69.5t26 -69.5q-2 -68 -64 -111t-144 -43zM12 -277l-7 16q39 22 77 58q36 35 48 60q-17 -5 -26 -5q-21 0 -29 12.5t-1 32.5q8 21 25.5 34t39.5 13q21 0 29.5 -14.5t-0.5 -36.5
q-19 -53 -65 -99q-47 -47 -91 -71z" />
    <glyph glyph-name="uni021A" unicode="&#x21a;" horiz-adv-x="670" 
d="M306 0h-86h-127q-2 0 -2.5 7t1 14t3.5 7h53q46 0 60 8q29 17 39 57l209 575h-74q-66 0 -106 -15q-24 -10 -43 -34q-45 -57 -101 -159q-3 -3 -12 -1t-9 4l130 273q1 2 9 2.5t9 -2.5q6 -21 29 -28.5t76 -7.5h271q52 0 80.5 7.5t48.5 28.5q8 5 19 0l-70 -273q0 -1 -5.5 -3
t-10 -2t-5.5 2q26 131 7 180q-4 11 -22 19q-23 9 -84 9h-74l-210 -575q-16 -46 4 -56q21 -9 118 -9q2 0 3.5 -7t0.5 -14t-3 -7h-126zM108 -277l-7 16q39 22 77 58q36 35 48 60q-17 -5 -26 -5q-21 0 -29 12.5t-1 32.5q8 21 25.5 34t39.5 13q21 0 29.5 -14.5t-0.5 -36.5
q-19 -53 -65 -99q-47 -47 -91 -71z" />
    <glyph glyph-name="uni021B" unicode="&#x21b;" horiz-adv-x="375" 
d="M286 500l-155 -429q-8 -26 10 -26q21 12 52 43q33 33 52 62q4 4 13 -4t7 -12q-27 -39 -67 -81q-42 -43 -70 -58q-22 -11 -45 15q-22 27 -12 61l154 429h-67l8 26q57 20 97 59.5t76 111.5q1 2 6 2.5t9.5 -0.5t4.5 -2l-63 -171h120l-13 -26h-117zM-47 -277l-7 16
q39 22 77 58q36 35 48 60q-17 -5 -26 -5q-21 0 -29 12.5t-1 32.5q8 21 25.5 34t39.5 13q21 0 29.5 -14.5t-0.5 -36.5q-19 -53 -65 -99q-47 -47 -91 -71z" />
    <glyph glyph-name="uni0237" unicode="&#x237;" horiz-adv-x="285" 
d="M200 530q17 10 34 2q19 -6 28.5 -31t0.5 -50l-157 -426q-43 -118 -109 -176q-67 -59 -131 -59q-32 0 -78 18q-48 17 -48 40q0 16 15 34q14 18 25 18q4 0 31 -32q41 -38 102 -38q14 0 31 13q20 14 47.5 58.5t49.5 105.5l162 450q11 26 -9 26q-39 -24 -72 -60q-2 -2 -6 0.5
t-6.5 7t-0.5 7.5q43 60 91 92z" />
    <glyph glyph-name="uni02B0" unicode="&#x2b0;" horiz-adv-x="353" 
d="M421 513q3 3 8 -5q2 -3 1 -4q-16 -23 -37 -44q-26 -24 -38 -31q-17 -9 -34 9q-17 19 -10 41q8 27 52 144q5 14 5.5 24.5t-3 15t-8.5 4.5q-26 -5 -78 -55q-53 -50 -69 -87q-11 -28 -27 -77q-3 -8 -8 -11q-21 -10 -50 -10q-4 -1 -5 1t1 5q25 63 59 158q52 143 55 151l19 47
q-1 0 -5.5 -0.5t-11.5 -0.5h-14q-2 0 -2 3t1 6.5t2 3.5q48 12 86 18q3 1 4.5 -2.5t-0.5 -7.5l-81 -215h2q82 93 143 112q24 7 39 -19q16 -25 2 -57q-24 -56 -57 -156q-4 -12 5 -12q21 9 54 51z" />
    <glyph glyph-name="circumflex" unicode="&#x2c6;" horiz-adv-x="481" 
d="M481 567l-87 89l-152 -89q-3 -2 -4.5 4t1.5 8l153 123h38l63 -123q1 -1 -1 -4.5t-5.5 -6t-5.5 -1.5z" />
    <glyph glyph-name="caron" unicode="&#x2c7;" horiz-adv-x="481" 
d="M389 642l152 89q4 0 5 -5.5t-1 -6.5l-154 -123h-37q-11 19 -64 123q-4 1 7 10q4 2 5 2z" />
    <glyph glyph-name="breve" unicode="&#x2d8;" horiz-adv-x="603" 
d="M468 588q-51 0 -75.5 31t-7.5 85q1 2 5 3t7.5 0.5t3.5 -2.5q-1 -46 18.5 -64t62.5 -18q42 0 74.5 18t64.5 64q1 2 5 2t7 -1t3 -2q-23 -54 -69.5 -85t-98.5 -31z" />
    <glyph glyph-name="dotaccent" unicode="&#x2d9;" horiz-adv-x="472" 
d="M365 613q-17 0 -24.5 11t-0.5 27q5 17 20 27.5t33 10.5q15 0 23 -11t3 -27q-6 -15 -22 -26.5t-32 -11.5z" />
    <glyph glyph-name="ring" unicode="&#x2da;" horiz-adv-x="481" 
d="M341 554q-31 0 -46 21.5t-4 51.5t41.5 51.5t61.5 21.5q30 0 43.5 -21t2.5 -52q-11 -30 -40 -51.5t-59 -21.5zM384 674q-21 0 -40 -14t-25 -33q-7 -19 1.5 -32.5t29.5 -13.5q20 0 38.5 13.5t24.5 32.5q7 19 -1 33t-28 14z" />
    <glyph glyph-name="ogonek" unicode="&#x2db;" horiz-adv-x="482" 
d="M80 -173q-61 0 -41 61q17 47 116 110l28 -1q-95 -57 -110 -99q-13 -28 8 -42q28 -18 89 25q5 3 9 -4t0 -10q-58 -40 -99 -40z" />
    <glyph glyph-name="tilde" unicode="&#x2dc;" horiz-adv-x="486" 
d="M539 684q-19 -30 -57 -57q-38 -26 -69 -26q-16 0 -48 13l-31 13q-20 9 -45 9q-19 0 -30 -10t-30 -42q-3 -5 -19 -1q-4 1 -4 4q18 29 56 56q39 27 70 27q15 0 47 -13l31 -13q26 -9 46 -9q18 0 28.5 10t30.5 42q1 6 19 1q1 0 5 -4z" />
    <glyph glyph-name="hungarumlaut" unicode="&#x2dd;" horiz-adv-x="486" 
d="M254 620q48 26 87 59q7 6 19.5 17t17 15t13.5 11t13 9.5t10.5 5.5t12 4t11.5 1q30 0 19 -29q-18 -49 -199 -116q-4 0 -6 9.5t2 13.5zM389 620q48 26 87 59q6 5 15.5 13.5t14 12.5t12 10t11 8.5t9 6.5t9 5.5t8.5 3.5t9 2.5t9 0.5q30 0 19 -29q-18 -48 -198 -116
q-4 0 -6.5 9.5t1.5 13.5z" />
    <glyph glyph-name="uni02E1" unicode="&#x2e1;" horiz-adv-x="182" 
d="M195 462q23 9 54 51q2 2 6.5 -2.5t3.5 -6.5q-14 -21 -39 -44q-24 -23 -37 -31q-16 -9 -34 8q-17 18 -9 42q55 163 95 264q13 33 19 46q-1 0 -5.5 -0.5t-11.5 -0.5h-14q-2 0 -2 3t1 6.5t2 3.5q52 13 87 18q8 0 3 -8q-12 -27 -64 -171l-59 -166q-5 -12 4 -12z" />
    <glyph glyph-name="uni02E2" unicode="&#x2e2;" horiz-adv-x="255" 
d="M210 426q-35 0 -65 15q-29 17 -29 37q0 10 13 19t29 9q5 0 5 -7q2 -54 61 -54q24 0 40.5 13t16.5 33q0 25 -36 48l-21 13q-29 18 -42.5 32.5t-16.5 38.5q0 33 35 59q37 26 79 26q34 0 58 -13.5t24 -31.5q0 -10 -13 -19.5t-29 -9.5q-5 0 -5 7q-1 25 -12.5 36t-40.5 11
q-20 0 -35 -11.5t-15 -28.5q0 -26 33 -49l24 -15q59 -38 59 -72q1 -38 -33.5 -62t-83.5 -24z" />
    <glyph glyph-name="gravecomb" unicode="&#x300;" 
d="M-4 608q4 -3 -0.5 -10t-7.5 -5q-145 60 -145 101q0 24 26 24q15 0 27 -14q1 -1 11 -12.5t17 -19t18.5 -20t25.5 -23.5t28 -21z" />
    <glyph glyph-name="acutecomb" unicode="&#x301;" 
d="M-170 611q48 27 80 55q7 6 18 15.5t16 13.5l12.5 10t11.5 8.5t9.5 5.5t10 4t9.5 1q25 0 18 -27q-18 -46 -181 -104q-2 -1 -4.5 3t-2.5 8t3 7z" />
    <glyph glyph-name="uni0302" unicode="&#x302;" 
d="M-2 568l-87 90l-152 -90q-3 0 -4.5 5t1.5 8l153 123h38l63 -123q5 -3 -7 -11q-3 -2 -5 -2z" />
    <glyph glyph-name="tildecomb" unicode="&#x303;" 
d="M53 684q-20 -31 -56 -57q-38 -26 -70 -26q-16 0 -48 13l-31 13q-20 9 -45 9q-19 0 -30 -10t-30 -42q-3 -5 -19 -1q-4 1 -4 4q19 29 57 56q37 27 69 27q15 0 47 -13l31 -13q25 -9 46 -9q18 0 28.5 10t30.5 42q1 6 19 1q1 0 5 -4z" />
    <glyph glyph-name="uni0304" unicode="&#x304;" 
d="M115 656l-10 -27h-264l9 27h265z" />
    <glyph glyph-name="uni0306" unicode="&#x306;" 
d="M-132 596q-51 0 -75.5 31t-7.5 85q0 2 4 3t8 0.5t4 -2.5q-1 -46 18.5 -63.5t61.5 -17.5q43 0 75.5 17.5t64.5 63.5q1 2 5 2t7 -1t3 -2q-23 -54 -69.5 -85t-98.5 -31z" />
    <glyph glyph-name="uni0307" unicode="&#x307;" 
d="M2 611q-16 0 -24 11.5t-1 28.5q6 16 21.5 27.5t33.5 11.5t25.5 -10.5t0.5 -28.5q-6 -17 -22 -28.5t-34 -11.5z" />
    <glyph glyph-name="uni0308" unicode="&#x308;" 
d="M-208 613q-16 0 -23.5 11t-1.5 27q6 17 21 27.5t32 10.5q16 0 24 -11t2 -27q-5 -15 -21 -26.5t-33 -11.5zM-53 651q6 17 21 27.5t32 10.5q16 0 24 -11t2 -27q-6 -15 -21.5 -26.5t-32.5 -11.5t-24.5 11t-0.5 27z" />
    <glyph glyph-name="uni030A" unicode="&#x30a;" 
d="M-130 582q-31 0 -45.5 21.5t-3.5 51.5t41 52t61 22q30 0 43.5 -21.5t2.5 -52.5q-11 -30 -40 -51.5t-59 -21.5zM-87 702q-37 1 -59 -35q-19 -33 -1 -50q9 -9 27 -8q20 0 38 13.5t25 32.5q6 19 -2 33t-28 14z" />
    <glyph glyph-name="uni030B" unicode="&#x30b;" 
d="M-236 608q51 28 88 59q3 3 10 9q36 32 52 43t34 11q30 0 19 -29q-18 -49 -198 -115q-2 -1 -4.5 3.5t-2.5 10t2 8.5zM-100 608q51 28 88 59q56 50 71 57q12 6 25 6q30 0 19 -29q-18 -50 -199 -115q-3 -2 -5 4q-4 13 1 18z" />
    <glyph glyph-name="uni030C" unicode="&#x30c;" 
d="M-95 640l152 89q6 0 6 -9q-1 -3 -3 -3l-153 -123h-38l-64 123q-1 1 5 6.5t8 5.5z" />
    <glyph glyph-name="uni0312" unicode="&#x312;" 
d="M-57 780l4 -13q-33 -20 -63 -48.5t-41 -50.5q12 4 22 4q18 0 25 -10t0 -27q-6 -17 -21 -28t-33 -11t-24 12t0 30q17 47 55 83q37 37 76 59z" />
    <glyph glyph-name="dotbelowcomb" unicode="&#x323;" 
d="M-351 -166q-17 0 -24.5 11.5t-1.5 28.5q6 16 21.5 27.5t33.5 11.5t25.5 -10.5t0.5 -28.5q-6 -17 -21.5 -28.5t-33.5 -11.5z" />
    <glyph glyph-name="uni0327" unicode="&#x327;" 
d="M-422 -203q-28 0 -48 12t-14 27q4 18 24 18q7 0 11.5 -9t16 -18.5t34.5 -9.5q34 0 50 33q7 17 -6 31t-56 26l86 89l23 -1l-60 -69q68 -23 53 -60q-10 -30 -42.5 -49.5t-71.5 -19.5z" />
    <glyph glyph-name="uni0328" unicode="&#x328;" 
d="M-402 -173q-61 0 -41 61q17 47 116 110l28 -1q-95 -57 -110 -99q-13 -28 8 -42q29 -17 89 25q5 3 9 -4t0 -10q-58 -40 -99 -40z" />
    <glyph glyph-name="uni0335" unicode="&#x335;" 
d="M-36 262h-242l12 32h242z" />
    <glyph glyph-name="uni0336" unicode="&#x336;" 
d="M-35 265h-355l10 27h355z" />
    <glyph glyph-name="uni0337" unicode="&#x337;" 
d="M-43 308l-254 -121l-8 24l255 121z" />
    <glyph glyph-name="uni0338" unicode="&#x338;" 
d="M-770 -75l-26 5l851 829l27 -5z" />
    <glyph glyph-name="tonos" unicode="&#x384;" horiz-adv-x="481" 
d="M389 599l-9 8q23 20 44 56q17 28 24 38t19.5 18.5t27.5 8.5q14 0 19.5 -10t-0.5 -22q-15 -47 -125 -97z" />
    <glyph glyph-name="dieresistonos" unicode="&#x385;" horiz-adv-x="528" 
d="M333 604l-8 8q23 22 40 57q18 41 30.5 56.5t34.5 15.5q14 0 19.5 -10.5t-0.5 -23.5q-19 -53 -116 -103zM299 688q15 0 23 -11t2 -26q-8 -24 -37 -33.5t-39 6.5q-11 18 7.5 41t43.5 23zM483 688q15 0 23 -11t2 -26q-7 -23 -36 -33.5t-40 6.5q-11 18 7.5 41t43.5 23z" />
    <glyph glyph-name="Alphatonos" unicode="&#x386;" horiz-adv-x="761" 
d="M675 27q2 0 3 -6.5t0 -13.5t-2 -7h-83h-56h-97q-2 0 -2.5 7t0.5 13.5t3 6.5q65 0 77 13q14 14 9 75l-3 80h-178h-161l-78 -97q-36 -48 -29.5 -59.5t66.5 -11.5q1 0 2 -6.5t0.5 -13.5t-1.5 -7h-93h-43h-77q-1 0 -1 7t0.5 13.5t1.5 6.5q49 0 71 12q26 13 62 58l435 543
l-3 55q0 5 1 6l53 14q4 1 4 -2l35 -599q1 -60 15 -74q13 -13 69 -13zM338 671q-16 -46 -126 -97l-8 8q23 20 44 56q21 38 35 52t36 14q14 0 19.5 -10.5t-0.5 -22.5zM210 227h147h165l-18 366z" />
    <glyph glyph-name="Epsilontonos" unicode="&#x388;" horiz-adv-x="737" 
d="M782 736q8 3 18 0l-69 -273q0 -3 -10 -3.5t-11 0.5q17 107 13 155q-6 35 -24.5 43t-68.5 10h-260l-103 -281h174q36 0 54.5 18.5t36.5 71.5q0 2 14.5 2t14.5 -2l-71 -212q0 -2 -14.5 -2t-14.5 2q19 57 13 74q-4 16 -44 16h-174l-118 -323h276q34 0 45 1q39 5 68 32
q11 10 34 41q21 28 39 60l51 89q5 8 19 2q4 -1 3 -3l-137 -290q-2 -2 -11 -2.5t-9 2.5q-5 14 -8 19q-14 17 -81 17h-353h-90q-1 0 -1.5 6.5t0.5 13t2 6.5q21 0 69 3q7 2 11.5 5l7.5 5t6 8l4.5 9t5.5 13t6 16l193 530q15 42 0 50q-15 9 -84 9q-1 0 -2 6.5t-0.5 13t1.5 6.5h90
h361q41 0 68 6q37 8 60 30zM147 669q-16 -46 -126 -97l-8 8q23 20 44 56q21 38 35 52t36 14q14 0 19.5 -10.5t-0.5 -22.5z" />
    <glyph glyph-name="Etatonos" unicode="&#x389;" horiz-adv-x="860" 
d="M155 669q-16 -46 -126 -97l-8 8q23 20 44 56q21 38 35 52t36 14q14 0 19.5 -10.5t-0.5 -22.5zM852 700h89q2 0 2.5 -6.5t-0.5 -13t-3 -6.5q-47 0 -70 -4q-6 -2 -10.5 -4.5t-7.5 -4.5t-6 -7.5t-4.5 -9.5t-5 -13.5t-6.5 -15.5l-193 -530q-15 -42 0 -51q16 -8 84 -8
q2 0 3 -6.5t0.5 -13t-2.5 -6.5h-89h-79h-90q-1 0 -1.5 6.5t0.5 13t2 6.5q21 0 69 3q7 2 11.5 5l7.5 5t6 8l4.5 9t5.5 13t6 16l95 260h-190h-228l-95 -260q-15 -42 0 -51q16 -8 84 -8q2 0 3 -6.5t0 -13t-2 -6.5h-89h-79h-90q-1 0 -1.5 6.5t0.5 13t2 6.5q21 0 69 3q7 2 11.5 5
l7.5 5t6 8l4.5 9t5.5 13t6 16l193 530q15 42 0 50q-15 9 -84 9q-1 0 -2 6.5t-0.5 13t1.5 6.5h90h79h89q1 0 2 -6.5t0 -13t-3 -6.5q-47 0 -70 -4q-6 -2 -10.5 -4.5t-7.5 -4.5t-6 -7.5t-4.5 -9.5t-5 -13.5t-6.5 -15.5l-86 -237h227h191l86 237q15 42 0 50q-15 9 -84 9
q-1 0 -2 6.5t-0.5 13t1.5 6.5h90h79z" />
    <glyph glyph-name="Iotatonos" unicode="&#x38a;" horiz-adv-x="380" 
d="M29 572l-8 8q23 20 44 56q21 38 35 52t36 14q14 0 19.5 -10.5t-0.5 -22.5q-16 -46 -126 -97zM293 700h79h89q1 0 2 -6.5t0 -13t-3 -6.5q-47 0 -70 -4q-6 -2 -10.5 -4.5t-7.5 -4.5t-6 -7.5t-4.5 -9.5t-5 -13.5t-6.5 -15.5l-193 -530q-15 -42 0 -51q16 -8 84 -8q2 0 3 -6.5
t0 -13t-2 -6.5h-89h-79h-90q-1 0 -1.5 6.5t0.5 13t2 6.5q21 0 69 3q7 2 11.5 5l7.5 5t6 8l4.5 9t5.5 13t6 16l193 530q15 42 0 50q-15 9 -84 9q-1 0 -2 6.5t-0.5 13t1.5 6.5h90z" />
    <glyph glyph-name="Omicrontonos" unicode="&#x38c;" horiz-adv-x="809" 
d="M305 -10q-113 0 -178 59t-65 161q0 83 40 170t107 162q67 74 162 120q96 48 197 48q111 0 175.5 -60t64.5 -162q0 -84 -40 -171q-40 -88 -106 -161q-66 -72 -161 -119q-96 -47 -196 -47zM28 572l-8 8q23 20 44 56q21 38 35 52t36 14q14 0 19.5 -10.5t-0.5 -22.5
q-16 -46 -126 -97zM737 501q0 83 -47.5 129.5t-133.5 46.5t-168 -47q-80 -47 -134 -119q-55 -72 -87 -156t-32 -157q0 -83 47 -130q48 -45 135 -45t167 47q79 46 134 118q55 73 87 156.5t32 156.5z" />
    <glyph glyph-name="Upsilontonos" unicode="&#x38e;" horiz-adv-x="772" 
d="M135 702q14 0 19.5 -10.5t-0.5 -22.5q-16 -46 -126 -97l-8 8q23 20 44 56q21 38 35 52t36 14zM830 700h77q1 0 1.5 -7t-0.5 -13.5t-2 -6.5q-49 0 -73 -12q-22 -9 -64 -55l-329 -359l-56 -154q-16 -46 4 -56q21 -9 118 -9q2 0 3.5 -7t0.5 -14t-3 -7h-126h-87h-146
q-3 0 -3.5 7t1 14t3.5 7h54q62 3 67 5q3 1 9 3.5t10 4t8 4.5t6 7q12 20 20 42l54 151l-72 336q-12 62 -29 76t-81 14q-2 0 -3 7.5t-0.5 14.5t2.5 7h94h56h107q2 0 2.5 -7t-0.5 -13.5t-3 -6.5q-71 0 -83 -13q-10 -12 3 -73l62 -304l292 320q43 47 27 58q-15 11 -92 11
q-2 0 -3 7t-1 14t2 7h127h46z" />
    <glyph glyph-name="Omegatonos" unicode="&#x38f;" horiz-adv-x="795" 
d="M261 680q-16 -46 -126 -97l-8 8q23 20 44 56q21 38 34.5 51.5t35.5 13.5q14 0 20 -10t0 -22zM820 407q-41 -113 -140 -194q-100 -83 -222 -101l-29 -80h92q74 0 111 26q34 24 97 127q3 7 18 3l4 -3l-109 -221q-1 -2 -10 -2.5t-9 2.5q-1 1 -2.5 5.5t-2.5 6t-3.5 5.5
t-5.5 5.5t-7.5 4t-10.5 4t-14.5 3t-19.5 2t-24 0.5h-163l53 143q110 23 182 72q89 59 137 193q17 45 17 91t-17 86.5t-62 66t-112 25.5q-64 0 -126.5 -25t-109.5 -67q-99 -90 -130 -177q-19 -54 -22.5 -96t6 -69.5t32 -48t49 -32t63.5 -19.5l-53 -143h-162q-37 0 -63 -6
q-16 -4 -25 -8.5t-12.5 -7.5t-14.5 -14q-2 -2 -7 -2.5t-9 0.5t-4 2l52 221q0 5 16 5q7 -1 7 -5q-13 -99 4 -127q17 -26 92 -26h91l29 80q-73 12 -116.5 55.5t-49.5 104.5t18 133q43 122 165 214q121 91 292 91q69 0 121 -17.5t81.5 -47.5t44 -69t12 -82t-18.5 -87z" />
    <glyph glyph-name="iotadieresistonos" unicode="&#x390;" horiz-adv-x="275" 
d="M218 633l-8 8q23 22 40 57q18 41 30.5 56.5t34.5 15.5q14 0 19.5 -10.5t-0.5 -23.5q-19 -53 -116 -103zM184 717q15 0 23 -11t2 -26q-8 -24 -37 -33.5t-39 6.5q-11 18 7.5 41t43.5 23zM368 717q15 0 23 -11t2 -26q-7 -23 -36 -33.5t-40 6.5q-11 18 7.5 41t43.5 23z
M165 53q3 3 7 -1t1 -7q-64 -55 -106 -55q-66 0 -36 79l120 331q14 40 13 56q-1 18 -7.5 23t-33.5 15q-2 1 2 11.5t6 11.5q91 15 120 20q7 0 6 -6l-171 -467q-16 -48 16 -48q17 0 63 37z" />
    <glyph glyph-name="Alpha" unicode="&#x391;" horiz-adv-x="761" 
d="M675 27q2 0 3 -6.5t0 -13.5t-2 -7h-83h-56h-97q-2 0 -2.5 7t0.5 13.5t3 6.5q65 0 77 13q14 14 9 75l-3 80h-178h-161l-78 -97q-36 -48 -29.5 -59.5t66.5 -11.5q1 0 2 -6.5t0.5 -13.5t-1.5 -7h-93h-43h-77q-1 0 -1 7t0.5 13.5t1.5 6.5q49 0 71 12q26 13 62 58l435 543
l-3 55q0 5 1 6l53 14q4 1 4 -2l35 -599q1 -60 15 -74q13 -13 69 -13zM210 227h147h165l-18 366z" />
    <glyph glyph-name="Beta" unicode="&#x392;" horiz-adv-x="689" 
d="M318 0h-246h-89q-1 0 -2 6.5t0 13t3 6.5q21 0 69 3q7 2 11.5 5l7.5 5t6 8l4.5 9t5.5 13t6 16l193 530q15 42 0 50q-15 9 -84 9q-1 0 -2 6.5t-0.5 13t1.5 6.5h89h220q92 0 143 -28t51 -82q0 -93 -83 -150q-83 -58 -204 -65l-1 -4q86 0 154 -25q41 -13 65.5 -41t24.5 -65
q0 -90 -99 -165t-244 -75zM315 520l-48 -133h23q342 0 342 196q0 85 -164 85h-91q-27 -48 -62 -148zM280 354h-25l-54 -148q-49 -128 -55 -174h152q124 0 206 64q83 65 83 148q1 39 -28.5 63t-76.5 34q-52 11 -91 12q-19 1 -43 1q-15 1 -40 0h-28z" />
    <glyph glyph-name="Gamma" unicode="&#x393;" horiz-adv-x="615" 
d="M710 736q8 3 18 0l-69 -273q0 -3 -10 -3.5t-11 0.5q17 107 13 155q-6 35 -24.5 43t-68.5 10h-164q-22 -47 -50 -126l-162 -440q-18 -51 6 -62q26 -10 141 -12q3 0 4 -8t0 -15.5t-3 -7.5l-150 3l-89 1q-15 0 -105 2q-3 2 -2 15q0 14 3 14q81 -2 95 5q19 8 35 54l59 164
l52 144l77 210q17 44 -1 53q-16 10 -99 10q-2 0 -3 7t-0.5 14t2.5 7h105h273q41 0 68 6q37 8 60 30z" />
    <glyph glyph-name="uni0394" unicode="&#x394;" horiz-adv-x="635" 
d="M510 713l40 -713h-627l528 657q-1 5 -1 19t-1 19q0 5 4 6l53 14q4 1 4 -2zM453 616l-469 -584h499l-14 262z" />
    <glyph glyph-name="Epsilon" unicode="&#x395;" horiz-adv-x="737" 
d="M782 736q8 3 18 0l-69 -273q0 -3 -10 -3.5t-11 0.5q17 107 13 155q-6 35 -24.5 43t-68.5 10h-260l-103 -281h174q36 0 54.5 18.5t36.5 71.5q0 2 14.5 2t14.5 -2l-71 -212q0 -2 -14.5 -2t-14.5 2q19 57 13 74q-4 16 -44 16h-174l-118 -323h276q34 0 45 1q39 5 68 32
q11 10 34 41q21 28 39 60l51 89q5 8 19 2q4 -1 3 -3l-137 -290q-2 -2 -11 -2.5t-9 2.5q-5 14 -8 19q-14 17 -81 17h-353h-90q-1 0 -1.5 6.5t0.5 13t2 6.5q21 0 69 3q7 2 11.5 5l7.5 5t6 8l4.5 9t5.5 13t6 16l193 530q15 42 0 50q-15 9 -84 9q-1 0 -2 6.5t-0.5 13t1.5 6.5h90
h361q41 0 68 6q37 8 60 30z" />
    <glyph glyph-name="Zeta" unicode="&#x396;" horiz-adv-x="642" 
d="M744 684l-685 -652h241q47 0 62 1q52 5 87 33q13 10 37 41q24 32 42 61q20 32 51 90q5 4 18 0q5 -2 3 -3l-136 -291q-2 -2 -9.5 -2t-8.5 2q-6 13 -12 19.5t-23 11.5t-48 5h-408q0 16 4 16l687 652h-187q-89 0 -116 -8q-44 -14 -87 -76q-27 -40 -75 -124q-5 -4 -18 0
q-5 2 -3 3l130 273q2 2 10 2t9 -2q6 -19 26.5 -27.5t66.5 -8.5h347q1 0 0 -3.5t-2.5 -7.5t-2.5 -5z" />
    <glyph glyph-name="Eta" unicode="&#x397;" horiz-adv-x="860" 
d="M852 700h89q2 0 2.5 -6.5t-0.5 -13t-3 -6.5q-47 0 -70 -4q-6 -2 -10.5 -4.5t-7.5 -4.5t-6 -7.5t-4.5 -9.5t-5 -13.5t-6.5 -15.5l-193 -530q-15 -42 0 -51q16 -8 84 -8q2 0 3 -6.5t0.5 -13t-2.5 -6.5h-89h-79h-90q-1 0 -1.5 6.5t0.5 13t2 6.5q21 0 69 3q7 2 11.5 5l7.5 5
t6 8l4.5 9t5.5 13t6 16l95 260h-190h-228l-95 -260q-15 -42 0 -51q16 -8 84 -8q2 0 3 -6.5t0 -13t-2 -6.5h-89h-79h-90q-1 0 -1.5 6.5t0.5 13t2 6.5q21 0 69 3q7 2 11.5 5l7.5 5t6 8l4.5 9t5.5 13t6 16l193 530q15 42 0 50q-15 9 -84 9q-1 0 -2 6.5t-0.5 13t1.5 6.5h90h79
h89q1 0 2 -6.5t0 -13t-3 -6.5q-47 0 -70 -4q-6 -2 -10.5 -4.5t-7.5 -4.5t-6 -7.5t-4.5 -9.5t-5 -13.5t-6.5 -15.5l-86 -237h227h191l86 237q15 42 0 50q-15 9 -84 9q-1 0 -2 6.5t-0.5 13t1.5 6.5h90h79z" />
    <glyph glyph-name="Theta" unicode="&#x398;" horiz-adv-x="809" 
d="M305 -10q-113 0 -178 59t-65 161q0 83 40 170t107 162q67 74 162 120q96 48 197 48q111 0 175.5 -60t64.5 -162q0 -84 -40 -171q-40 -88 -106 -161q-66 -72 -161 -119q-96 -47 -196 -47zM737 501q0 83 -47.5 129.5t-133.5 46.5t-168 -47q-80 -47 -134 -119
q-55 -72 -87 -156t-32 -157q0 -83 47 -130q48 -45 135 -45t167 47q79 46 134 118q55 73 87 156.5t32 156.5zM555 353l-1 -5q-1 -7 -1 -12l3 -6q2 -7 5 -16.5t5 -16.5q0 -3 -10.5 -4.5t-11.5 -0.5q-11 36 -26 44q-16 9 -59 10h-54q-43 -1 -59 -10q-15 -8 -26 -44q0 -4 -17 2
l-5 3l14 51l1 5q1 7 1 11q0 1 -2.5 7.5t-5.5 16t-5 16.5q0 2 11 4.5t12 0.5q9 -35 25 -44t59 -10h54q43 1 59 10q17 9 26 44q0 4 17 -2l5 -3q-4 -13 -7.5 -26.5t-5.5 -19.5z" />
    <glyph glyph-name="Iota" unicode="&#x399;" horiz-adv-x="380" 
d="M293 700h79h89q1 0 2 -6.5t0 -13t-3 -6.5q-47 0 -70 -4q-6 -2 -10.5 -4.5t-7.5 -4.5t-6 -7.5t-4.5 -9.5t-5 -13.5t-6.5 -15.5l-193 -530q-15 -42 0 -51q16 -8 84 -8q2 0 3 -6.5t0 -13t-2 -6.5h-89h-79h-90q-1 0 -1.5 6.5t0.5 13t2 6.5q21 0 69 3q7 2 11.5 5l7.5 5t6 8
l4.5 9t5.5 13t6 16l193 530q15 42 0 50q-15 9 -84 9q-1 0 -2 6.5t-0.5 13t1.5 6.5h90z" />
    <glyph glyph-name="Kappa" unicode="&#x39a;" horiz-adv-x="738" 
d="M734 700h89q1 0 1.5 -7t-0.5 -14.5t-2 -7.5q-59 0 -86 -10q-29 -9 -80 -48l-329 -247q48 20 86 20q74 0 105.5 -37.5t36.5 -126.5l4 -54q5 -88 21 -113q17 -26 76 -26q2 0 3 -7.5t0.5 -14.5t-2.5 -7h-95h-36q-26 32 -27 118l-4 74q-3 85 -27.5 122t-88.5 37
q-67 0 -143 -52l-2 -2l-77 -211q-15 -42 -1 -51q16 -8 83 -8q1 0 2 -6.5t0.5 -13.5t-1.5 -7h-88h-79h-89q-1 0 -2 6.5t0 13t3 6.5q21 0 69 3q7 2 11.5 5l7.5 5t6 8l4.5 9t5.5 13t6 16l192 530q15 42 0 50q-15 9 -84 9q-1 0 -2 6.5t-0.5 13t1.5 6.5h90h79h90q1 0 2 -7
t0 -13.5t-3 -6.5q-65 0 -81 -8q-13 -7 -30 -51l-98 -270l346 259q32 25 42.5 37t2.5 18q-10 10 -90 10q-2 0 -3 8t-1 16t2 8h129h55z" />
    <glyph glyph-name="Lambda" unicode="&#x39b;" horiz-adv-x="775" 
d="M690 29q2 0 2 -15q0 -14 -2 -14h-76h-60h-107q-2 0 -2 7t1 14.5t3 7.5q72 0 85 13q14 14 10 80l-10 209l-14 284l-410 -509q-41 -50 -26 -65q14 -12 94 -12q2 0 3.5 -7.5t1 -14.5t-2.5 -7h-129h-38h-78q-1 0 -1.5 7t0.5 14.5t2 7.5q49 0 73 12q26 14 64 62l444 554
q0 5 -1 19t-1 19q0 3 5 6l52 14q5 2 5 -2l34 -593q3 -64 15 -78q12 -13 64 -13z" />
    <glyph glyph-name="Mu" unicode="&#x39c;" horiz-adv-x="1010" 
d="M120 0h-38h-102q-2 0 -2.5 7t1 13.5t2.5 6.5q63 0 88 14q25 15 45 72l181 496q17 44 0 53q-16 10 -91 10q-1 0 -2 7t-0.5 14t1.5 7h96h87l139 -422l444 422h33h91q1 0 2 -7t0 -13.5t-3 -6.5q-66 0 -82 -8q-14 -7 -30 -51l-193 -528q-15 -42 -1 -51q16 -8 85 -8
q2 0 3 -6.5t0.5 -13.5t-2.5 -7h-89h-80h-92q-1 0 -2 6.5t0 13t3 6.5q70 2 82 8q14 7 31 52l188 517l-376 -355l-49 -47h-2l-149 437l-187 -518q-22 -62 -4 -77q19 -14 89 -14q1 0 2.5 -7.5t1 -14.5t-1.5 -7h-117z" />
    <glyph glyph-name="Nu" unicode="&#x39d;" horiz-adv-x="858" 
d="M598 0l-263 632l-188 -517q-22 -59 -4 -74q17 -13 89 -13q2 0 3 -7t0.5 -14t-1.5 -7h-117h-37h-102q-2 0 -2.5 7t1 13.5t2.5 6.5q64 0 89 14q24 15 45 72l183 501q15 42 -1 51q-17 9 -91 9q-1 0 -2 6.5t-0.5 13t1.5 6.5h97h77l252 -613l186 512q16 51 0 64t-91 13
q-2 0 -3 6t-1 12t2 6h118h37h89q1 0 1.5 -7t-0.5 -13.5t-2 -6.5q-55 0 -78 -15q-21 -13 -43 -70l-213 -587q-2 -5 -15.5 -5.5t-17.5 4.5z" />
    <glyph glyph-name="Xi" unicode="&#x39e;" horiz-adv-x="666" 
d="M182 544q-1 -2 -5.5 -3t-9 0t-4.5 3l95 172q1 2 8 2t8 -2q6 -7 11 -9.5t25 -4.5t62 -2h239q57 0 77 3q21 5 33 13q1 1 5 1.5t7.5 0t3.5 -1.5l-31 -172q-1 -3 -9.5 -3.5t-8.5 3.5q6 70 -33 92q-38 22 -140 22h-77q-103 0 -157 -22q-55 -23 -99 -92zM591 445q3 8 14 3
q3 -2 2 -3l-62 -173q-3 -7 -14 -4q-3 2 -3 4q15 50 7 62t-38 12h-262q-32 0 -50 -15t-35 -59q-1 -6 -12 -4q-5 2 -4 4l63 173q3 8 14 3q3 -2 2 -3q-13 -44 -5.5 -58.5t36.5 -14.5h262q60 0 85 73zM547 156q1 2 5.5 3t9 0t4.5 -3l-95 -172q-1 -2 -8 -2t-8 2q-7 10 -23 13
t-75 3h-239q-58 0 -78 -3q-21 -5 -33 -13q-1 -1 -5 -1.5t-7.5 0t-3.5 1.5l31 172q1 3 9.5 3.5t9.5 -3.5q-6 -69 32 -92q38 -22 140 -22h77q102 0 156 22q57 23 101 92z" />
    <glyph glyph-name="Omicron" unicode="&#x39f;" horiz-adv-x="809" 
d="M305 -10q-113 0 -178 59t-65 161q0 83 40 170t107 162q67 74 162 120q96 48 197 48q111 0 175.5 -60t64.5 -162q0 -84 -40 -171q-40 -88 -106 -161q-66 -72 -161 -119q-96 -47 -196 -47zM737 501q0 83 -47.5 129.5t-133.5 46.5t-168 -47q-80 -47 -134 -119
q-55 -72 -87 -156t-32 -157q0 -83 47 -130q48 -45 135 -45t167 47q79 46 134 118q55 73 87 156.5t32 156.5z" />
    <glyph glyph-name="Pi" unicode="&#x3a0;" horiz-adv-x="927" 
d="M1007 698q3 -2 2 -15q-2 -14 -4 -14q-78 2 -95 -6q-18 -8 -34 -53l-189 -519q-16 -43 1 -54q18 -9 100 -9q2 0 3 -7t0.5 -14t-2.5 -7h-106h-83q-16 0 -106 2q-3 2 -3 15q2 14 5 14q81 -2 95 5q18 8 34 54l209 578h-445l-210 -577q-17 -43 0 -54q18 -9 100 -9q2 0 3.5 -7
t1 -14t-2.5 -7h-106h-84q-15 0 -105 2q-3 2 -2 15q0 14 3 14q81 -2 95 5q19 8 35 54l189 519q17 44 -2 53q-16 10 -99 10q-2 0 -3 7t-0.5 14t2.5 7h105h592q16 0 106 -2z" />
    <glyph glyph-name="Rho" unicode="&#x3a1;" horiz-adv-x="685" 
d="M293 700h212q125 0 191.5 -37t66.5 -106q0 -42 -24 -88t-69.5 -88.5t-124.5 -69.5t-176 -27h-140l-67 -184q-16 -49 2 -59q19 -10 113 -10q2 0 3 -7.5t0.5 -15.5t-2.5 -8h-120h-84h-90q-1 0 -1.5 6.5t0.5 13t2 6.5q21 0 69 3q7 2 11.5 5l7.5 5t6 8l4.5 9t5.5 13t6 16
l193 530q15 42 0 50q-15 9 -84 9q-1 0 -2 6.5t-0.5 13t1.5 6.5h90zM241 317h116q147 0 241 71q93 70 93 169q0 111 -201 111h-112q-21 -32 -51 -117z" />
    <glyph glyph-name="Sigma" unicode="&#x3a3;" horiz-adv-x="636" 
d="M575 255q5 8 19 2q4 -1 3 -3l-138 -290q-1 -2 -10 -2.5t-9 2.5q-1 1 -2.5 5.5t-2.5 6t-3.5 5.5t-5.5 5.5t-7.5 4t-10.5 4t-14.5 3t-19.5 2t-24 0.5h-399l3 8l349 345l-90 339l3 8h362q41 0 68 6q25 6 35.5 11.5t23.5 18.5q7 3 19 0l-69 -273q0 -1 -2.5 -2t-5.5 -1h-6h-5
h-3q18 111 14 155q-6 35 -24.5 43t-68.5 10h-266l78 -290l-325 -323h305q41 0 66 5q24 5 49 27q29 24 50 58q24 38 64 110z" />
    <glyph glyph-name="Tau" unicode="&#x3a4;" horiz-adv-x="670" 
d="M306 0h-86h-127q-2 0 -2.5 7t1 14t3.5 7h53q46 0 60 8q29 17 39 57l209 575h-74q-66 0 -106 -15q-24 -10 -43 -34q-45 -57 -101 -159q-3 -3 -12 -1t-9 4l130 273q1 2 9 2.5t9 -2.5q6 -21 29 -28.5t76 -7.5h271q52 0 80.5 7.5t48.5 28.5q8 5 19 0l-70 -273q0 -1 -5.5 -3
t-10 -2t-5.5 2q26 131 7 180q-4 11 -22 19q-23 9 -84 9h-74l-210 -575q-16 -46 4 -56q21 -9 118 -9q2 0 3.5 -7t0.5 -14t-3 -7h-126z" />
    <glyph glyph-name="Upsilon" unicode="&#x3a5;" horiz-adv-x="772" 
d="M830 700h77q1 0 1.5 -7t-0.5 -13.5t-2 -6.5q-49 0 -73 -12q-22 -9 -64 -55l-329 -359l-56 -154q-16 -46 4 -56q21 -9 118 -9q2 0 3.5 -7t0.5 -14t-3 -7h-126h-87h-146q-3 0 -3.5 7t1 14t3.5 7h54q62 3 67 5q3 1 9 3.5t10 4t8 4.5t6 7q12 20 20 42l54 151l-72 336
q-12 62 -29 76t-81 14q-2 0 -3 7.5t-0.5 14.5t2.5 7h94h56h107q2 0 2.5 -7t-0.5 -13.5t-3 -6.5q-71 0 -83 -13q-10 -12 3 -73l62 -304l292 320q43 47 27 58q-15 11 -92 11q-2 0 -3 7t-1 14t2 7h127h46z" />
    <glyph glyph-name="Phi" unicode="&#x3a6;" horiz-adv-x="900" 
d="M610 622q157 0 230 -79q75 -78 32 -196q-44 -120 -174 -196q-131 -77 -287 -77q-9 -31 11 -39q18 -7 95 -7q2 0 3.5 -7t1 -14t-2.5 -7h-106h-84q-12 0 -106 2q-3 2 -2 15q2 14 4 14q45 -3 69.5 -0.5t34.5 11t20 32.5q-157 2 -230 77q-74 78 -31 196q43 117 173 196
q130 77 286 79q11 35 -8 42q-21 8 -96 8q-2 0 -3 7t-0.5 14t2.5 7h105h84q16 0 106 -2q3 -2 2 -15q-2 -14 -4 -14q-73 3 -92 -4t-33 -43zM795 347q41 113 -13 177.5t-185 64.5l-174 -482q129 0 229 63q103 65 143 177zM361 107l175 482q-131 -2 -230 -65q-100 -64 -141 -177
q-42 -112 13 -176q55 -62 183 -64z" />
    <glyph glyph-name="Chi" unicode="&#x3a7;" horiz-adv-x="828" 
d="M835 699h77q1 -1 1 -7.5t-1 -14t-2 -7.5q-47 0 -74 -11q-25 -10 -73 -51l-283 -245l95 -250q23 -59 40 -72q18 -12 71 -12q2 0 2 -15q0 -14 -2 -14h-76h-61h-107q-2 0 -2 7t1 14.5t3 7.5q70 0 78 12q8 13 -17 74l-81 215l-264 -235q-27 -26 -35 -37.5t0 -17.5
q15 -11 91 -11q2 0 3 -7.5t1 -14.5t-2 -7h-128h-52h-76q-1 0 -1.5 7t0.5 14.5t2 7.5q49 0 73 10q25 10 74 53l301 270l-85 225q-23 60 -40 71q-17 13 -70 13q-1 0 -2 7.5t-0.5 14.5t1.5 7h77h59h107q2 0 2.5 -7t-0.5 -14.5t-3 -7.5q-70 0 -79 -13q-8 -13 17 -73l72 -189
l245 209q28 25 36.5 36.5t-0.5 17.5q-13 11 -91 11q-2 0 -3 7t-1 14.5t2 7.5h129h51z" />
    <glyph glyph-name="Psi" unicode="&#x3a8;" horiz-adv-x="907" 
d="M1024 697q2 0 2.5 -7t-1 -14t-3.5 -7q-77 2 -95 -6t-34 -53l-41 -113q-51 -144 -147.5 -222.5t-228.5 -82.5l-37 -101q-16 -43 1 -54q18 -9 100 -9q2 0 3 -7t0.5 -14t-2.5 -7h-106h-83q-16 0 -106 2q-3 2 -2 15q2 14 4 14q81 -2 95 5q18 8 34 54l37 102q-128 4 -168.5 84
t12.5 221l42 112q17 44 -2 53q-16 10 -98 10q-2 0 -3.5 7t-1 14t2.5 7h106h92l-65 -178q-104 -285 95 -297l140 384q16 43 -1 53q-16 10 -97 10q-2 0 -3 7t-0.5 14t2.5 7h103h83q5 0 103 -3q2 0 2 -7t-1 -14t-3 -7q-76 1 -93 -6q-17 -8 -33 -53l-140 -385q110 7 184.5 81.5
t126.5 215.5l65 178h55q5 0 105 -3z" />
    <glyph glyph-name="uni03A9" unicode="&#x3a9;" horiz-adv-x="840" 
d="M820 407q-41 -113 -140 -194q-100 -83 -222 -101l-29 -80h92q74 0 111 26q34 24 97 127q3 7 18 3l4 -3l-109 -221q-1 -2 -10 -2.5t-9 2.5q-1 1 -2.5 5.5t-2.5 6t-3.5 5.5t-5.5 5.5t-7.5 4t-10.5 4t-14.5 3t-19.5 2t-24 0.5h-163l53 143q110 23 182 72q89 59 137 193
q17 45 17 91t-17 86.5t-62 66t-112 25.5q-64 0 -126.5 -25t-109.5 -67q-99 -90 -130 -177q-19 -54 -22.5 -96t6 -69.5t32 -48t49 -32t63.5 -19.5l-53 -143h-162q-37 0 -63 -6q-16 -4 -25 -8.5t-12.5 -7.5t-14.5 -14q-2 -2 -7 -2.5t-9 0.5t-4 2l52 221q0 5 16 5q7 -1 7 -5
q-13 -99 4 -127q17 -26 92 -26h91l29 80q-73 12 -116.5 55.5t-49.5 104.5t18 133q43 122 165 214q121 91 292 91q69 0 121 -17.5t81.5 -47.5t44 -69t12 -82t-18.5 -87z" />
    <glyph glyph-name="Iotadieresis" unicode="&#x3aa;" horiz-adv-x="380" 
d="M299 812q-16 0 -23.5 11t-1.5 27q6 17 21 27.5t32 10.5q16 0 24 -11t2 -27q-5 -15 -21 -26.5t-33 -11.5zM454 850q6 17 21 27.5t32 10.5q16 0 24 -11t2 -27q-6 -15 -21.5 -26.5t-32.5 -11.5t-24.5 11t-0.5 27zM293 700h79h89q1 0 2 -6.5t0 -13t-3 -6.5q-47 0 -70 -4
q-6 -2 -10.5 -4.5t-7.5 -4.5t-6 -7.5t-4.5 -9.5t-5 -13.5t-6.5 -15.5l-193 -530q-15 -42 0 -51q16 -8 84 -8q2 0 3 -6.5t0 -13t-2 -6.5h-89h-79h-90q-1 0 -1.5 6.5t0.5 13t2 6.5q21 0 69 3q7 2 11.5 5l7.5 5t6 8l4.5 9t5.5 13t6 16l193 530q15 42 0 50q-15 9 -84 9
q-1 0 -2 6.5t-0.5 13t1.5 6.5h90z" />
    <glyph glyph-name="Upsilondieresis" unicode="&#x3ab;" horiz-adv-x="772" 
d="M471 812q-16 0 -23.5 11t-1.5 27q6 17 21 27.5t32 10.5q16 0 24 -11t2 -27q-5 -15 -21 -26.5t-33 -11.5zM626 850q6 17 21 27.5t32 10.5q16 0 24 -11t2 -27q-6 -15 -21.5 -26.5t-32.5 -11.5t-24.5 11t-0.5 27zM830 700h77q1 0 1.5 -7t-0.5 -13.5t-2 -6.5q-49 0 -73 -12
q-22 -9 -64 -55l-329 -359l-56 -154q-16 -46 4 -56q21 -9 118 -9q2 0 3.5 -7t0.5 -14t-3 -7h-126h-87h-146q-3 0 -3.5 7t1 14t3.5 7h54q62 3 67 5q3 1 9 3.5t10 4t8 4.5t6 7q12 20 20 42l54 151l-72 336q-12 62 -29 76t-81 14q-2 0 -3 7.5t-0.5 14.5t2.5 7h94h56h107
q2 0 2.5 -7t-0.5 -13.5t-3 -6.5q-71 0 -83 -13q-10 -12 3 -73l62 -304l292 320q43 47 27 58q-15 11 -92 11q-2 0 -3 7t-1 14t2 7h127h46z" />
    <glyph glyph-name="alphatonos" unicode="&#x3ac;" horiz-adv-x="655" 
d="M420 624l-9 8q23 20 44 56q17 28 24 38t19.5 18.5t27.5 8.5q14 0 19.5 -10t-0.5 -22q-15 -47 -125 -97zM549 47l2 -5l-13 -10l-28 -20q-8 -5 -32 -15q-17 -7 -34 -7q-38 0 -50 27.5t4 61.5l20 55q-65 -65 -137 -104.5t-128 -39.5q-92 0 -123.5 64t7.5 179q33 90 102 162
q67 70 139.5 106t135.5 36q42 0 83 -25q42 -23 53 -60q31 47 56 74h12l-165 -452q-19 -58 16 -58q18 0 35 7l15 6q25 14 30 18zM208 23q75 0 215 123l85 234q2 56 -33 95q-34 40 -92 40q-69 0 -138 -52q-78 -59 -133 -206q-37 -97 -12 -166q26 -68 108 -68z" />
    <glyph glyph-name="epsilontonos" unicode="&#x3ad;" horiz-adv-x="430" 
d="M335 624l-9 8q23 20 44 56q17 28 24 38t19.5 18.5t27.5 8.5q14 0 19.5 -10t-0.5 -22q-15 -47 -125 -97zM129 -10q-84 0 -125 47q-40 46 -16 115q25 66 85 103q62 39 125 39q20 0 63 -9q-84 32 -104 45q-54 36 -32 97q20 53 74.5 80.5t128.5 27.5q65 0 107 -39
q43 -37 28 -77q-11 -29 -37 -29q-24 0 -28 33q-4 31 7 58q-34 28 -81 28q-52 0 -82 -19.5t-48 -67.5q-15 -38 11 -77q5 -6 42 -33l50 -27q22 3 36 -2.5t9 -17.5q-6 -18 -33 -18q-11 0 -33 14q-15 4 -63 4t-90.5 -31.5t-60.5 -81.5q-24 -60 -3 -97.5t83 -37.5q38 0 78 21
q10 5 64 52q12 12 28 34l23 32l22 32l17 27q0 2 5 3t10.5 -0.5t5.5 -3.5l-116 -231q-1 -7 -12 -4q-5 2 -3 4q0 25 -13 25q-10 0 -52 -9q-41 -9 -70 -9z" />
    </font>
</defs>
</svg>
